<?xml version="1.0" encoding="UTF-8"?>
<svg xmlns="http://www.w3.org/2000/svg" xmlns:xlink="http://www.w3.org/1999/xlink" width="3400pt" height="3300pt" viewBox="0 0 3400 3300" version="1.1">
<defs>
<clipPath id="clip1">
  <path d="M 256 222 L 2011 222 L 2011 1978 L 256 1978 Z M 256 222 "/>
</clipPath>
<clipPath id="clip2">
  <path d="M 3280 1650 C 3280 2214.480469 2978.855469 2736.082031 2490 3018.320313 C 2001.144531 3300.558594 1398.855469 3300.558594 910 3018.320313 C 421.144531 2736.082031 120 2214.480469 120 1650 C 120 1085.519531 421.144531 563.917969 910 281.679688 C 1398.855469 -0.558594 2001.144531 -0.558594 2490 281.679688 C 2978.855469 563.917969 3280 1085.519531 3280 1650 "/>
</clipPath>
<clipPath id="clip3">
  <path d="M 383 350 L 1884 350 L 1884 1850 L 383 1850 Z M 383 350 "/>
</clipPath>
<clipPath id="clip4">
  <path d="M 3280 1650 C 3280 2214.480469 2978.855469 2736.082031 2490 3018.320313 C 2001.144531 3300.558594 1398.855469 3300.558594 910 3018.320313 C 421.144531 2736.082031 120 2214.480469 120 1650 C 120 1085.519531 421.144531 563.917969 910 281.679688 C 1398.855469 -0.558594 2001.144531 -0.558594 2490 281.679688 C 2978.855469 563.917969 3280 1085.519531 3280 1650 "/>
</clipPath>
<clipPath id="clip5">
  <path d="M 1179 1112 L 3280 1112 L 3280 3230 L 1179 3230 Z M 1179 1112 "/>
</clipPath>
<clipPath id="clip6">
  <path d="M 3280 1650 C 3280 2214.480469 2978.855469 2736.082031 2490 3018.320313 C 2001.144531 3300.558594 1398.855469 3300.558594 910 3018.320313 C 421.144531 2736.082031 120 2214.480469 120 1650 C 120 1085.519531 421.144531 563.917969 910 281.679688 C 1398.855469 -0.558594 2001.144531 -0.558594 2490 281.679688 C 2978.855469 563.917969 3280 1085.519531 3280 1650 "/>
</clipPath>
<clipPath id="clip7">
  <path d="M 1306 1240 L 3227 1240 L 3227 3160 L 1306 3160 Z M 1306 1240 "/>
</clipPath>
<clipPath id="clip8">
  <path d="M 3280 1650 C 3280 2214.480469 2978.855469 2736.082031 2490 3018.320313 C 2001.144531 3300.558594 1398.855469 3300.558594 910 3018.320313 C 421.144531 2736.082031 120 2214.480469 120 1650 C 120 1085.519531 421.144531 563.917969 910 281.679688 C 1398.855469 -0.558594 2001.144531 -0.558594 2490 281.679688 C 2978.855469 563.917969 3280 1085.519531 3280 1650 "/>
</clipPath>
<clipPath id="clip9">
  <path d="M 120 70 L 3280 70 L 3280 3230 L 120 3230 Z M 120 70 "/>
</clipPath>
<clipPath id="clip10">
  <path d="M 3280 1650 C 3280 2214.480469 2978.855469 2736.082031 2490 3018.320313 C 2001.144531 3300.558594 1398.855469 3300.558594 910 3018.320313 C 421.144531 2736.082031 120 2214.480469 120 1650 C 120 1085.519531 421.144531 563.917969 910 281.679688 C 1398.855469 -0.558594 2001.144531 -0.558594 2490 281.679688 C 2978.855469 563.917969 3280 1085.519531 3280 1650 "/>
</clipPath>
</defs>
<g id="surface1">
<rect x="0" y="0" width="3400" height="3300" style="fill:rgb(26.865672%,61.19403%,11.940299%);fill-opacity:1;stroke:none;"/>
<path style=" stroke:none;fill-rule:nonzero;fill:rgb(33.812148%,62.728929%,12.220733%);fill-opacity:0.9;" d="M 3280 1650 C 3280 2214.480469 2978.855469 2736.082031 2490 3018.320313 C 2001.144531 3300.558594 1398.855469 3300.558594 910 3018.320313 C 421.144531 2736.082031 120 2214.480469 120 1650 C 120 1085.519531 421.144531 563.917969 910 281.679688 C 1398.855469 -0.558594 2001.144531 -0.558594 2490 281.679688 C 2978.855469 563.917969 3280 1085.519531 3280 1650 "/>
<g clip-path="url(#clip1)" clip-rule="nonzero">
<g clip-path="url(#clip2)" clip-rule="nonzero">
<path style="fill:none;stroke-width:9;stroke-linecap:butt;stroke-linejoin:miter;stroke:rgb(50%,60%,0%);stroke-opacity:1;stroke-miterlimit:10;" d="M 1883.332031 1100 C 1883.332031 1367.949219 1740.382813 1615.542969 1508.332031 1749.519531 C 1276.28125 1883.492188 990.382813 1883.492188 758.332031 1749.519531 C 526.28125 1615.542969 383.332031 1367.949219 383.332031 1100 C 383.332031 832.050781 526.28125 584.457031 758.332031 450.480469 C 990.382813 316.507813 1276.28125 316.507813 1508.332031 450.480469 C 1740.382813 584.457031 1883.332031 832.050781 1883.332031 1100 "/>
</g>
</g>
<g clip-path="url(#clip3)" clip-rule="nonzero">
<g clip-path="url(#clip4)" clip-rule="nonzero">
<path style=" stroke:none;fill-rule:nonzero;fill:rgb(30%,40%,0%);fill-opacity:0.5;" d="M 1883.332031 1100 C 1883.332031 1367.949219 1740.382813 1615.542969 1508.332031 1749.519531 C 1276.28125 1883.492188 990.382813 1883.492188 758.332031 1749.519531 C 526.28125 1615.542969 383.332031 1367.949219 383.332031 1100 C 383.332031 832.050781 526.28125 584.457031 758.332031 450.480469 C 990.382813 316.507813 1276.28125 316.507813 1508.332031 450.480469 C 1740.382813 584.457031 1883.332031 832.050781 1883.332031 1100 "/>
</g>
</g>
<g clip-path="url(#clip5)" clip-rule="nonzero">
<g clip-path="url(#clip6)" clip-rule="nonzero">
<path style="fill:none;stroke-width:9;stroke-linecap:butt;stroke-linejoin:miter;stroke:rgb(50%,60%,0%);stroke-opacity:1;stroke-miterlimit:10;" d="M 3226.667969 2200 C 3226.667969 2542.976563 3043.691406 2859.898438 2746.667969 3031.382813 C 2449.640625 3202.871094 2083.691406 3202.871094 1786.667969 3031.382813 C 1489.640625 2859.898438 1306.667969 2542.976563 1306.667969 2200 C 1306.667969 1857.023438 1489.640625 1540.101563 1786.667969 1368.617188 C 2083.691406 1197.128906 2449.640625 1197.128906 2746.667969 1368.617188 C 3043.691406 1540.101563 3226.667969 1857.023438 3226.667969 2200 "/>
</g>
</g>
<g clip-path="url(#clip7)" clip-rule="nonzero">
<g clip-path="url(#clip8)" clip-rule="nonzero">
<path style=" stroke:none;fill-rule:nonzero;fill:rgb(30%,40%,0%);fill-opacity:0.5;" d="M 3226.667969 2200 C 3226.667969 2542.976563 3043.691406 2859.898438 2746.667969 3031.382813 C 2449.640625 3202.871094 2083.691406 3202.871094 1786.667969 3031.382813 C 1489.640625 2859.898438 1306.667969 2542.976563 1306.667969 2200 C 1306.667969 1857.023438 1489.640625 1540.101563 1786.667969 1368.617188 C 2083.691406 1197.128906 2449.640625 1197.128906 2746.667969 1368.617188 C 3043.691406 1540.101563 3226.667969 1857.023438 3226.667969 2200 "/>
</g>
</g>
<g clip-path="url(#clip9)" clip-rule="nonzero">
<g clip-path="url(#clip10)" clip-rule="nonzero">
<rect x="0" y="0" width="3400" height="3300" style="fill:rgb(30%,40%,0%);fill-opacity:0.5;stroke:none;"/>
</g>
</g>
<path style="fill:none;stroke-width:10;stroke-linecap:butt;stroke-linejoin:miter;stroke:rgb(0%,10%,0%);stroke-opacity:1;stroke-miterlimit:10;" d="M 1721.765625 1682.121094 L 2551.398438 1682.121094 "/>
<path style="fill:none;stroke-width:10;stroke-linecap:butt;stroke-linejoin:miter;stroke:rgb(0%,10%,0%);stroke-opacity:1;stroke-miterlimit:10;" d="M 1721.765625 1682.121094 L 2665.984375 1770.929688 "/>
<path style="fill:none;stroke-width:10;stroke-linecap:butt;stroke-linejoin:miter;stroke:rgb(0%,10%,0%);stroke-opacity:1;stroke-miterlimit:10;" d="M 1721.765625 1682.121094 L 2425.980469 1815.773438 "/>
<path style="fill:none;stroke-width:10;stroke-linecap:butt;stroke-linejoin:miter;stroke:rgb(0%,10%,0%);stroke-opacity:1;stroke-miterlimit:10;" d="M 1721.765625 1682.121094 L 2348.539063 1863.261719 "/>
<path style="fill:none;stroke-width:10;stroke-linecap:butt;stroke-linejoin:miter;stroke:rgb(0%,10%,0%);stroke-opacity:1;stroke-miterlimit:10;" d="M 1721.765625 1682.121094 L 2229.65625 1882.109375 "/>
<path style="fill:none;stroke-width:10;stroke-linecap:butt;stroke-linejoin:miter;stroke:rgb(0%,10%,0%);stroke-opacity:1;stroke-miterlimit:10;" d="M 1721.765625 1682.121094 L 2455.90625 2054.019531 "/>
<path style="fill:none;stroke-width:10;stroke-linecap:butt;stroke-linejoin:miter;stroke:rgb(0%,10%,0%);stroke-opacity:1;stroke-miterlimit:10;" d="M 1721.765625 1682.121094 L 2298.671875 2045.964844 "/>
<path style="fill:none;stroke-width:10;stroke-linecap:butt;stroke-linejoin:miter;stroke:rgb(0%,10%,0%);stroke-opacity:1;stroke-miterlimit:10;" d="M 1721.765625 1682.121094 L 2219.085938 2065.277344 "/>
<path style="fill:none;stroke-width:10;stroke-linecap:butt;stroke-linejoin:miter;stroke:rgb(0%,10%,0%);stroke-opacity:1;stroke-miterlimit:10;" d="M 1721.765625 1682.121094 L 2366.402344 2282.941406 "/>
<path style="fill:none;stroke-width:10;stroke-linecap:butt;stroke-linejoin:miter;stroke:rgb(0%,10%,0%);stroke-opacity:1;stroke-miterlimit:10;" d="M 1721.765625 1682.121094 L 2307.785156 2341.203125 "/>
<path style="fill:none;stroke-width:10;stroke-linecap:butt;stroke-linejoin:miter;stroke:rgb(0%,10%,0%);stroke-opacity:1;stroke-miterlimit:10;" d="M 1721.765625 1682.121094 L 2263.039063 2419.820313 "/>
<path style="fill:none;stroke-width:10;stroke-linecap:butt;stroke-linejoin:miter;stroke:rgb(0%,10%,0%);stroke-opacity:1;stroke-miterlimit:10;" d="M 1721.765625 1682.121094 L 2046.226563 2224.351563 "/>
<path style="fill:none;stroke-width:10;stroke-linecap:butt;stroke-linejoin:miter;stroke:rgb(0%,10%,0%);stroke-opacity:1;stroke-miterlimit:10;" d="M 1721.765625 1682.121094 L 2021.320313 2309.523438 "/>
<path style="fill:none;stroke-width:10;stroke-linecap:butt;stroke-linejoin:miter;stroke:rgb(0%,10%,0%);stroke-opacity:1;stroke-miterlimit:10;" d="M 1721.765625 1682.121094 L 2034.292969 2533.871094 "/>
<path style="fill:none;stroke-width:10;stroke-linecap:butt;stroke-linejoin:miter;stroke:rgb(0%,10%,0%);stroke-opacity:1;stroke-miterlimit:10;" d="M 1721.765625 1682.121094 L 1885.0625 2301.230469 "/>
<path style="fill:none;stroke-width:10;stroke-linecap:butt;stroke-linejoin:miter;stroke:rgb(0%,10%,0%);stroke-opacity:1;stroke-miterlimit:10;" d="M 1721.765625 1682.121094 L 1827.164063 2318.589844 "/>
<path style="fill:none;stroke-width:10;stroke-linecap:butt;stroke-linejoin:miter;stroke:rgb(0%,10%,0%);stroke-opacity:1;stroke-miterlimit:10;" d="M 1721.765625 1682.121094 L 1760.988281 2238.863281 "/>
<path style="fill:none;stroke-width:10;stroke-linecap:butt;stroke-linejoin:miter;stroke:rgb(0%,10%,0%);stroke-opacity:1;stroke-miterlimit:10;" d="M 1721.765625 1682.121094 L 1707.839844 2276.019531 "/>
<path style="fill:none;stroke-width:10;stroke-linecap:butt;stroke-linejoin:miter;stroke:rgb(0%,10%,0%);stroke-opacity:1;stroke-miterlimit:10;" d="M 1721.765625 1682.121094 L 1634.359375 2424.34375 "/>
<path style="fill:none;stroke-width:10;stroke-linecap:butt;stroke-linejoin:miter;stroke:rgb(0%,10%,0%);stroke-opacity:1;stroke-miterlimit:10;" d="M 1721.765625 1682.121094 L 1527.132813 2590.8125 "/>
<path style="fill:none;stroke-width:10;stroke-linecap:butt;stroke-linejoin:miter;stroke:rgb(0%,10%,0%);stroke-opacity:1;stroke-miterlimit:10;" d="M 1721.765625 1682.121094 L 1537.753906 2267.0625 "/>
<path style="fill:none;stroke-width:10;stroke-linecap:butt;stroke-linejoin:miter;stroke:rgb(0%,10%,0%);stroke-opacity:1;stroke-miterlimit:10;" d="M 1721.765625 1682.121094 L 1392.199219 2464.753906 "/>
<path style="fill:none;stroke-width:10;stroke-linecap:butt;stroke-linejoin:miter;stroke:rgb(0%,10%,0%);stroke-opacity:1;stroke-miterlimit:10;" d="M 1721.765625 1682.121094 L 1271.421875 2521.695313 "/>
<path style="fill:none;stroke-width:10;stroke-linecap:butt;stroke-linejoin:miter;stroke:rgb(0%,10%,0%);stroke-opacity:1;stroke-miterlimit:10;" d="M 1721.765625 1682.121094 L 1305.238281 2309.46875 "/>
<path style="fill:none;stroke-width:10;stroke-linecap:butt;stroke-linejoin:miter;stroke:rgb(0%,10%,0%);stroke-opacity:1;stroke-miterlimit:10;" d="M 1721.765625 1682.121094 L 1289.839844 2216.355469 "/>
<path style="fill:none;stroke-width:10;stroke-linecap:butt;stroke-linejoin:miter;stroke:rgb(0%,10%,0%);stroke-opacity:1;stroke-miterlimit:10;" d="M 1721.765625 1682.121094 L 1312.101563 2101.5 "/>
<path style="fill:none;stroke-width:10;stroke-linecap:butt;stroke-linejoin:miter;stroke:rgb(0%,10%,0%);stroke-opacity:1;stroke-miterlimit:10;" d="M 1721.765625 1682.121094 L 1113.695313 2197.773438 "/>
<path style="fill:none;stroke-width:10;stroke-linecap:butt;stroke-linejoin:miter;stroke:rgb(0%,10%,0%);stroke-opacity:1;stroke-miterlimit:10;" d="M 1721.765625 1682.121094 L 972.3125 2205.441406 "/>
<path style="fill:none;stroke-width:10;stroke-linecap:butt;stroke-linejoin:miter;stroke:rgb(0%,10%,0%);stroke-opacity:1;stroke-miterlimit:10;" d="M 1721.765625 1682.121094 L 1005.019531 2088.5 "/>
<path style="fill:none;stroke-width:10;stroke-linecap:butt;stroke-linejoin:miter;stroke:rgb(0%,10%,0%);stroke-opacity:1;stroke-miterlimit:10;" d="M 1721.765625 1682.121094 L 895.664063 2053.023438 "/>
<path style="fill:none;stroke-width:10;stroke-linecap:butt;stroke-linejoin:miter;stroke:rgb(0%,10%,0%);stroke-opacity:1;stroke-miterlimit:10;" d="M 1721.765625 1682.121094 L 928.074219 1952.40625 "/>
<path style="fill:none;stroke-width:10;stroke-linecap:butt;stroke-linejoin:miter;stroke:rgb(0%,10%,0%);stroke-opacity:1;stroke-miterlimit:10;" d="M 1721.765625 1682.121094 L 1055.65625 1841.214844 "/>
<path style="fill:none;stroke-width:10;stroke-linecap:butt;stroke-linejoin:miter;stroke:rgb(0%,10%,0%);stroke-opacity:1;stroke-miterlimit:10;" d="M 1721.765625 1682.121094 L 1120.257813 1767.296875 "/>
<path style="fill:none;stroke-width:10;stroke-linecap:butt;stroke-linejoin:miter;stroke:rgb(0%,10%,0%);stroke-opacity:1;stroke-miterlimit:10;" d="M 1721.765625 1682.121094 L 1121.050781 1710.308594 "/>
<path style="fill:none;stroke-width:10;stroke-linecap:butt;stroke-linejoin:miter;stroke:rgb(0%,10%,0%);stroke-opacity:1;stroke-miterlimit:10;" d="M 1721.765625 1682.121094 L 1039.273438 1650.097656 "/>
<path style="fill:none;stroke-width:10;stroke-linecap:butt;stroke-linejoin:miter;stroke:rgb(0%,10%,0%);stroke-opacity:1;stroke-miterlimit:10;" d="M 1721.765625 1682.121094 L 1042.796875 1585.976563 "/>
<path style="fill:none;stroke-width:10;stroke-linecap:butt;stroke-linejoin:miter;stroke:rgb(0%,10%,0%);stroke-opacity:1;stroke-miterlimit:10;" d="M 1721.765625 1682.121094 L 1184.355469 1553.765625 "/>
<path style="fill:none;stroke-width:10;stroke-linecap:butt;stroke-linejoin:miter;stroke:rgb(0%,10%,0%);stroke-opacity:1;stroke-miterlimit:10;" d="M 1721.765625 1682.121094 L 1140.34375 1484.121094 "/>
<path style="fill:none;stroke-width:10;stroke-linecap:butt;stroke-linejoin:miter;stroke:rgb(0%,10%,0%);stroke-opacity:1;stroke-miterlimit:10;" d="M 1721.765625 1682.121094 L 1159.875 1429.84375 "/>
<path style="fill:none;stroke-width:10;stroke-linecap:butt;stroke-linejoin:miter;stroke:rgb(0%,10%,0%);stroke-opacity:1;stroke-miterlimit:10;" d="M 1721.765625 1682.121094 L 1219.703125 1397.464844 "/>
<path style="fill:none;stroke-width:10;stroke-linecap:butt;stroke-linejoin:miter;stroke:rgb(0%,10%,0%);stroke-opacity:1;stroke-miterlimit:10;" d="M 1721.765625 1682.121094 L 1143.773438 1278.527344 "/>
<path style="fill:none;stroke-width:10;stroke-linecap:butt;stroke-linejoin:miter;stroke:rgb(0%,10%,0%);stroke-opacity:1;stroke-miterlimit:10;" d="M 1721.765625 1682.121094 L 1138.367188 1187.390625 "/>
<path style="fill:none;stroke-width:10;stroke-linecap:butt;stroke-linejoin:miter;stroke:rgb(0%,10%,0%);stroke-opacity:1;stroke-miterlimit:10;" d="M 1721.765625 1682.121094 L 1320.746094 1271.585938 "/>
<path style="fill:none;stroke-width:10;stroke-linecap:butt;stroke-linejoin:miter;stroke:rgb(0%,10%,0%);stroke-opacity:1;stroke-miterlimit:10;" d="M 1721.765625 1682.121094 L 1301 1161.6875 "/>
<path style="fill:none;stroke-width:10;stroke-linecap:butt;stroke-linejoin:miter;stroke:rgb(0%,10%,0%);stroke-opacity:1;stroke-miterlimit:10;" d="M 1721.765625 1682.121094 L 1318.980469 1075.472656 "/>
<path style="fill:none;stroke-width:10;stroke-linecap:butt;stroke-linejoin:miter;stroke:rgb(0%,10%,0%);stroke-opacity:1;stroke-miterlimit:10;" d="M 1721.765625 1682.121094 L 1436.664063 1150.605469 "/>
<path style="fill:none;stroke-width:10;stroke-linecap:butt;stroke-linejoin:miter;stroke:rgb(0%,10%,0%);stroke-opacity:1;stroke-miterlimit:10;" d="M 1721.765625 1682.121094 L 1439.835938 1012.609375 "/>
<path style="fill:none;stroke-width:10;stroke-linecap:butt;stroke-linejoin:miter;stroke:rgb(0%,10%,0%);stroke-opacity:1;stroke-miterlimit:10;" d="M 1721.765625 1682.121094 L 1477.027344 904.144531 "/>
<path style="fill:none;stroke-width:10;stroke-linecap:butt;stroke-linejoin:miter;stroke:rgb(0%,10%,0%);stroke-opacity:1;stroke-miterlimit:10;" d="M 1721.765625 1682.121094 L 1528.34375 779.09375 "/>
<path style="fill:none;stroke-width:10;stroke-linecap:butt;stroke-linejoin:miter;stroke:rgb(0%,10%,0%);stroke-opacity:1;stroke-miterlimit:10;" d="M 1721.765625 1682.121094 L 1621.375 829.644531 "/>
<path style="fill:none;stroke-width:10;stroke-linecap:butt;stroke-linejoin:miter;stroke:rgb(0%,10%,0%);stroke-opacity:1;stroke-miterlimit:10;" d="M 1721.765625 1682.121094 L 1699.488281 732.167969 "/>
<path style="fill:none;stroke-width:10;stroke-linecap:butt;stroke-linejoin:miter;stroke:rgb(0%,10%,0%);stroke-opacity:1;stroke-miterlimit:10;" d="M 1721.765625 1682.121094 L 1787.0625 755.261719 "/>
<path style="fill:none;stroke-width:10;stroke-linecap:butt;stroke-linejoin:miter;stroke:rgb(0%,10%,0%);stroke-opacity:1;stroke-miterlimit:10;" d="M 1721.765625 1682.121094 L 1855.0625 877.1875 "/>
<path style="fill:none;stroke-width:10;stroke-linecap:butt;stroke-linejoin:miter;stroke:rgb(0%,10%,0%);stroke-opacity:1;stroke-miterlimit:10;" d="M 1721.765625 1682.121094 L 1881.316406 1077.222656 "/>
<path style="fill:none;stroke-width:10;stroke-linecap:butt;stroke-linejoin:miter;stroke:rgb(0%,10%,0%);stroke-opacity:1;stroke-miterlimit:10;" d="M 1721.765625 1682.121094 L 2043.875 804.25 "/>
<path style="fill:none;stroke-width:10;stroke-linecap:butt;stroke-linejoin:miter;stroke:rgb(0%,10%,0%);stroke-opacity:1;stroke-miterlimit:10;" d="M 1721.765625 1682.121094 L 2073.042969 946.386719 "/>
<path style="fill:none;stroke-width:10;stroke-linecap:butt;stroke-linejoin:miter;stroke:rgb(0%,10%,0%);stroke-opacity:1;stroke-miterlimit:10;" d="M 1721.765625 1682.121094 L 2054.003906 1126.890625 "/>
<path style="fill:none;stroke-width:10;stroke-linecap:butt;stroke-linejoin:miter;stroke:rgb(0%,10%,0%);stroke-opacity:1;stroke-miterlimit:10;" d="M 1721.765625 1682.121094 L 2112.070313 1150.171875 "/>
<path style="fill:none;stroke-width:10;stroke-linecap:butt;stroke-linejoin:miter;stroke:rgb(0%,10%,0%);stroke-opacity:1;stroke-miterlimit:10;" d="M 1721.765625 1682.121094 L 2218.921875 1122.980469 "/>
<path style="fill:none;stroke-width:10;stroke-linecap:butt;stroke-linejoin:miter;stroke:rgb(0%,10%,0%);stroke-opacity:1;stroke-miterlimit:10;" d="M 1721.765625 1682.121094 L 2210.5625 1226.546875 "/>
<path style="fill:none;stroke-width:10;stroke-linecap:butt;stroke-linejoin:miter;stroke:rgb(0%,10%,0%);stroke-opacity:1;stroke-miterlimit:10;" d="M 1721.765625 1682.121094 L 2158.875 1345.355469 "/>
<path style="fill:none;stroke-width:10;stroke-linecap:butt;stroke-linejoin:miter;stroke:rgb(0%,10%,0%);stroke-opacity:1;stroke-miterlimit:10;" d="M 1721.765625 1682.121094 L 2368.316406 1274.355469 "/>
<path style="fill:none;stroke-width:10;stroke-linecap:butt;stroke-linejoin:miter;stroke:rgb(0%,10%,0%);stroke-opacity:1;stroke-miterlimit:10;" d="M 1721.765625 1682.121094 L 2348.742188 1364.507813 "/>
<path style="fill:none;stroke-width:10;stroke-linecap:butt;stroke-linejoin:miter;stroke:rgb(0%,10%,0%);stroke-opacity:1;stroke-miterlimit:10;" d="M 1721.765625 1682.121094 L 2397.742188 1415.949219 "/>
<path style="fill:none;stroke-width:10;stroke-linecap:butt;stroke-linejoin:miter;stroke:rgb(0%,10%,0%);stroke-opacity:1;stroke-miterlimit:10;" d="M 1721.765625 1682.121094 L 2602.136719 1427.691406 "/>
<path style="fill:none;stroke-width:10;stroke-linecap:butt;stroke-linejoin:miter;stroke:rgb(0%,10%,0%);stroke-opacity:1;stroke-miterlimit:10;" d="M 1721.765625 1682.121094 L 2529.078125 1528.902344 "/>
<path style="fill:none;stroke-width:10;stroke-linecap:butt;stroke-linejoin:miter;stroke:rgb(0%,10%,0%);stroke-opacity:1;stroke-miterlimit:10;" d="M 1721.765625 1682.121094 L 2586.820313 1600.757813 "/>
</g>
</svg>
