<?xml version="1.0" encoding="UTF-8"?>
<svg xmlns="http://www.w3.org/2000/svg" xmlns:xlink="http://www.w3.org/1999/xlink" width="680pt" height="660pt" viewBox="0 0 680 660" version="1.1">
<defs>
<clipPath id="clip1">
  <path d="M 232 225 L 448 225 L 448 435 L 232 435 Z M 232 225 "/>
</clipPath>
<clipPath id="clip2">
  <path d="M 447.441406 330 C 447.441406 387.59375 399.335938 434.28125 340 434.28125 C 280.664063 434.28125 232.558594 387.59375 232.558594 330 C 232.558594 272.40625 280.664063 225.71875 340 225.71875 C 399.335938 225.71875 447.441406 272.40625 447.441406 330 "/>
</clipPath>
<clipPath id="clip3">
  <path d="M 232 225 L 278 225 L 278 270 L 232 270 Z M 232 225 "/>
</clipPath>
<clipPath id="clip4">
  <path d="M 447.441406 330 C 447.441406 387.59375 399.335938 434.28125 340 434.28125 C 280.664063 434.28125 232.558594 387.59375 232.558594 330 C 232.558594 272.40625 280.664063 225.71875 340 225.71875 C 399.335938 225.71875 447.441406 272.40625 447.441406 330 "/>
</clipPath>
<clipPath id="clip5">
  <path d="M 232 225 L 448 225 L 448 435 L 232 435 Z M 232 225 "/>
</clipPath>
<clipPath id="clip6">
  <path d="M 447.441406 330 C 447.441406 387.59375 399.335938 434.28125 340 434.28125 C 280.664063 434.28125 232.558594 387.59375 232.558594 330 C 232.558594 272.40625 280.664063 225.71875 340 225.71875 C 399.335938 225.71875 447.441406 272.40625 447.441406 330 "/>
</clipPath>
<clipPath id="clip7">
  <path d="M 388 376 L 448 376 L 448 435 L 388 435 Z M 388 376 "/>
</clipPath>
<clipPath id="clip8">
  <path d="M 447.441406 330 C 447.441406 387.59375 399.335938 434.28125 340 434.28125 C 280.664063 434.28125 232.558594 387.59375 232.558594 330 C 232.558594 272.40625 280.664063 225.71875 340 225.71875 C 399.335938 225.71875 447.441406 272.40625 447.441406 330 "/>
</clipPath>
<clipPath id="clip9">
  <path d="M 232 225 L 448 225 L 448 435 L 232 435 Z M 232 225 "/>
</clipPath>
<clipPath id="clip10">
  <path d="M 447.441406 330 C 447.441406 387.59375 399.335938 434.28125 340 434.28125 C 280.664063 434.28125 232.558594 387.59375 232.558594 330 C 232.558594 272.40625 280.664063 225.71875 340 225.71875 C 399.335938 225.71875 447.441406 272.40625 447.441406 330 "/>
</clipPath>
</defs>
<g id="surface1">
<rect x="0" y="0" width="680" height="660" style="fill:rgb(26.865672%,61.19403%,11.940299%);fill-opacity:0.5;stroke:none;"/>
<path style="fill:none;stroke-width:0.005;stroke-linecap:butt;stroke-linejoin:miter;stroke:rgb(26.865672%,0%,11.940299%);stroke-opacity:0.6;stroke-miterlimit:10;" d="M 0.449288 0.5 L 0.330951 0.5 " transform="matrix(680,0,0,660,0,0)"/>
<path style="fill:none;stroke-width:0.005;stroke-linecap:butt;stroke-linejoin:miter;stroke:rgb(26.865672%,0%,11.940299%);stroke-opacity:0.6;stroke-miterlimit:10;" d="M 0.646335 0.490779 L 0.987776 0.469265 " transform="matrix(680,0,0,660,0,0)"/>
<path style="fill:none;stroke-width:0.005;stroke-linecap:butt;stroke-linejoin:miter;stroke:rgb(26.865672%,0%,11.940299%);stroke-opacity:0.6;stroke-miterlimit:10;" d="M 0.815074 0.476746 L 1.550253 0.422479 " transform="matrix(680,0,0,660,0,0)"/>
<path style="fill:none;stroke-width:0.005;stroke-linecap:butt;stroke-linejoin:miter;stroke:rgb(26.865672%,0%,11.940299%);stroke-opacity:0.6;stroke-miterlimit:10;" d="M 0.483134 0.506043 L 0.443779 0.520147 " transform="matrix(680,0,0,660,0,0)"/>
<path style="fill:none;stroke-width:0.005;stroke-linecap:butt;stroke-linejoin:miter;stroke:rgb(26.865672%,0%,11.940299%);stroke-opacity:0.6;stroke-miterlimit:10;" d="M 0.48804 0.535215 L 0.460133 0.617395 " transform="matrix(680,0,0,660,0,0)"/>
<path style="fill:none;stroke-width:0.005;stroke-linecap:butt;stroke-linejoin:miter;stroke:rgb(26.865672%,0%,11.940299%);stroke-opacity:0.6;stroke-miterlimit:10;" d="M 0.464396 0.493129 L 0.381313 0.477101 " transform="matrix(680,0,0,660,0,0)"/>
<path style="fill:none;stroke-width:0.005;stroke-linecap:butt;stroke-linejoin:miter;stroke:rgb(26.865672%,0%,11.940299%);stroke-opacity:0.6;stroke-miterlimit:10;" d="M 0.640338 0.42387 L 0.967791 0.246224 " transform="matrix(680,0,0,660,0,0)"/>
<path style="fill:none;stroke-width:0.005;stroke-linecap:butt;stroke-linejoin:miter;stroke:rgb(26.865672%,0%,11.940299%);stroke-opacity:0.6;stroke-miterlimit:10;" d="M 0.457956 0.514057 L 0.359858 0.546851 " transform="matrix(680,0,0,660,0,0)"/>
<path style="fill:none;stroke-width:0.005;stroke-linecap:butt;stroke-linejoin:miter;stroke:rgb(26.865672%,0%,11.940299%);stroke-opacity:0.6;stroke-miterlimit:10;" d="M 0.602832 0.414335 L 0.842773 0.214447 " transform="matrix(680,0,0,660,0,0)"/>
<path style="fill:none;stroke-width:0.005;stroke-linecap:butt;stroke-linejoin:miter;stroke:rgb(26.865672%,0%,11.940299%);stroke-opacity:0.6;stroke-miterlimit:10;" d="M 0.399902 0.0937973 L 0.166337 -0.854019 " transform="matrix(680,0,0,660,0,0)"/>
<path style="fill:none;stroke-width:0.005;stroke-linecap:butt;stroke-linejoin:miter;stroke:rgb(26.865672%,0%,11.940299%);stroke-opacity:0.6;stroke-miterlimit:10;" d="M 0.583984 0.278912 L 0.77994 -0.236961 " transform="matrix(680,0,0,660,0,0)"/>
<path style="fill:none;stroke-width:0.005;stroke-linecap:butt;stroke-linejoin:miter;stroke:rgb(26.865672%,0%,11.940299%);stroke-opacity:0.6;stroke-miterlimit:10;" d="M 0.671232 0.562772 L 1.070772 0.709239 " transform="matrix(680,0,0,660,0,0)"/>
<path style="fill:none;stroke-width:0.005;stroke-linecap:butt;stroke-linejoin:miter;stroke:rgb(26.865672%,0%,11.940299%);stroke-opacity:0.6;stroke-miterlimit:10;" d="M 0.635989 0.606931 L 0.953303 0.856445 " transform="matrix(680,0,0,660,0,0)"/>
<path style="fill:none;stroke-width:0.005;stroke-linecap:butt;stroke-linejoin:miter;stroke:rgb(26.865672%,0%,11.940299%);stroke-opacity:0.6;stroke-miterlimit:10;" d="M 0.660265 0.561766 L 1.03422 0.705883 " transform="matrix(680,0,0,660,0,0)"/>
<path style="fill:none;stroke-width:0.005;stroke-linecap:butt;stroke-linejoin:miter;stroke:rgb(26.865672%,0%,11.940299%);stroke-opacity:0.6;stroke-miterlimit:10;" d="M 0.309025 0.670466 L -0.136581 1.068223 " transform="matrix(680,0,0,660,0,0)"/>
<path style="fill:none;stroke-width:0.005;stroke-linecap:butt;stroke-linejoin:miter;stroke:rgb(26.865672%,0%,11.940299%);stroke-opacity:0.6;stroke-miterlimit:10;" d="M 0.478539 0.4491 L 0.42847 0.330339 " transform="matrix(680,0,0,660,0,0)"/>
<path style="fill:none;stroke-width:0.005;stroke-linecap:butt;stroke-linejoin:miter;stroke:rgb(26.865672%,0%,11.940299%);stroke-opacity:0.6;stroke-miterlimit:10;" d="M 0.489832 0.533351 L 0.466096 0.611162 " transform="matrix(680,0,0,660,0,0)"/>
<path style="fill:none;stroke-width:0.005;stroke-linecap:butt;stroke-linejoin:miter;stroke:rgb(26.865672%,0%,11.940299%);stroke-opacity:0.6;stroke-miterlimit:10;" d="M 0.930067 0.220555 L 1.933548 -0.431487 " transform="matrix(680,0,0,660,0,0)"/>
<path style="fill:none;stroke-width:0.005;stroke-linecap:butt;stroke-linejoin:miter;stroke:rgb(26.865672%,0%,11.940299%);stroke-opacity:0.6;stroke-miterlimit:10;" d="M 0.474161 0.456824 L 0.413873 0.356078 " transform="matrix(680,0,0,660,0,0)"/>
<path style="fill:none;stroke-width:0.005;stroke-linecap:butt;stroke-linejoin:miter;stroke:rgb(26.865672%,0%,11.940299%);stroke-opacity:0.6;stroke-miterlimit:10;" d="M 0.417572 0.559428 L 0.22523 0.698094 " transform="matrix(680,0,0,660,0,0)"/>
<path style="fill:none;stroke-width:0.005;stroke-linecap:butt;stroke-linejoin:miter;stroke:rgb(26.865672%,0%,11.940299%);stroke-opacity:0.6;stroke-miterlimit:10;" d="M 0.38889 0.669792 L 0.129636 1.06598 " transform="matrix(680,0,0,660,0,0)"/>
<path style="fill:none;stroke-width:0.005;stroke-linecap:butt;stroke-linejoin:miter;stroke:rgb(26.865672%,0%,11.940299%);stroke-opacity:0.6;stroke-miterlimit:10;" d="M 0.608519 0.617584 L 0.861724 0.891951 " transform="matrix(680,0,0,660,0,0)"/>
<path style="fill:none;stroke-width:0.005;stroke-linecap:butt;stroke-linejoin:miter;stroke:rgb(26.865672%,0%,11.940299%);stroke-opacity:0.6;stroke-miterlimit:10;" d="M 0.49776 0.4769 L 0.492526 0.423 " transform="matrix(680,0,0,660,0,0)"/>
<path style="fill:none;stroke-width:0.005;stroke-linecap:butt;stroke-linejoin:miter;stroke:rgb(26.865672%,0%,11.940299%);stroke-opacity:0.6;stroke-miterlimit:10;" d="M 0.460122 0.468626 L 0.367067 0.395413 " transform="matrix(680,0,0,660,0,0)"/>
<path style="fill:none;stroke-width:0.005;stroke-linecap:butt;stroke-linejoin:miter;stroke:rgb(26.865672%,0%,11.940299%);stroke-opacity:0.6;stroke-miterlimit:10;" d="M 0.429762 0.681303 L 0.265872 1.104344 " transform="matrix(680,0,0,660,0,0)"/>
<path style="fill:none;stroke-width:0.005;stroke-linecap:butt;stroke-linejoin:miter;stroke:rgb(26.865672%,0%,11.940299%);stroke-opacity:0.6;stroke-miterlimit:10;" d="M 0.396967 0.608416 L 0.156549 0.861393 " transform="matrix(680,0,0,660,0,0)"/>
<path style="fill:none;stroke-width:0.005;stroke-linecap:butt;stroke-linejoin:miter;stroke:rgb(26.865672%,0%,11.940299%);stroke-opacity:0.6;stroke-miterlimit:10;" d="M 0.603929 0.30554 L 0.846438 -0.148195 " transform="matrix(680,0,0,660,0,0)"/>
<path style="fill:none;stroke-width:0.005;stroke-linecap:butt;stroke-linejoin:miter;stroke:rgb(26.865672%,0%,11.940299%);stroke-opacity:0.6;stroke-miterlimit:10;" d="M 0.464827 0.472053 L 0.382749 0.406842 " transform="matrix(680,0,0,660,0,0)"/>
<path style="fill:none;stroke-width:0.005;stroke-linecap:butt;stroke-linejoin:miter;stroke:rgb(26.865672%,0%,11.940299%);stroke-opacity:0.6;stroke-miterlimit:10;" d="M 0.588994 0.596319 L 0.796639 0.821058 " transform="matrix(680,0,0,660,0,0)"/>
<path style="fill:none;stroke-width:0.005;stroke-linecap:butt;stroke-linejoin:miter;stroke:rgb(26.865672%,0%,11.940299%);stroke-opacity:0.6;stroke-miterlimit:10;" d="M 0.135317 0.878273 L -0.715602 1.760908 " transform="matrix(680,0,0,660,0,0)"/>
<path style="fill:none;stroke-width:0.005;stroke-linecap:butt;stroke-linejoin:miter;stroke:rgb(26.865672%,0%,11.940299%);stroke-opacity:0.6;stroke-miterlimit:10;" d="M 0.467837 0.640116 L 0.392796 0.967045 " transform="matrix(680,0,0,660,0,0)"/>
<path style="fill:none;stroke-width:0.005;stroke-linecap:butt;stroke-linejoin:miter;stroke:rgb(26.865672%,0%,11.940299%);stroke-opacity:0.6;stroke-miterlimit:10;" d="M 0.652786 0.116945 L 1.009283 -0.776847 " transform="matrix(680,0,0,660,0,0)"/>
<path style="fill:none;stroke-width:0.005;stroke-linecap:butt;stroke-linejoin:miter;stroke:rgb(26.865672%,0%,11.940299%);stroke-opacity:0.6;stroke-miterlimit:10;" d="M 0.372564 0.506001 L 0.0752183 0.519999 " transform="matrix(680,0,0,660,0,0)"/>
<path style="fill:none;stroke-width:0.005;stroke-linecap:butt;stroke-linejoin:miter;stroke:rgb(26.865672%,0%,11.940299%);stroke-opacity:0.6;stroke-miterlimit:10;" d="M 0.581164 0.474728 L 0.770542 0.415767 " transform="matrix(680,0,0,660,0,0)"/>
<path style="fill:none;stroke-width:0.005;stroke-linecap:butt;stroke-linejoin:miter;stroke:rgb(26.865672%,0%,11.940299%);stroke-opacity:0.6;stroke-miterlimit:10;" d="M 0.642389 0.674704 L 0.974638 1.082339 " transform="matrix(680,0,0,660,0,0)"/>
<path style="fill:none;stroke-width:0.005;stroke-linecap:butt;stroke-linejoin:miter;stroke:rgb(26.865672%,0%,11.940299%);stroke-opacity:0.6;stroke-miterlimit:10;" d="M 0.608404 0.202214 L 0.861345 -0.492631 " transform="matrix(680,0,0,660,0,0)"/>
<path style="fill:none;stroke-width:0.005;stroke-linecap:butt;stroke-linejoin:miter;stroke:rgb(26.865672%,0%,11.940299%);stroke-opacity:0.6;stroke-miterlimit:10;" d="M 0.490487 0.514921 L 0.46829 0.54974 " transform="matrix(680,0,0,660,0,0)"/>
<path style="fill:none;stroke-width:0.005;stroke-linecap:butt;stroke-linejoin:miter;stroke:rgb(26.865672%,0%,11.940299%);stroke-opacity:0.6;stroke-miterlimit:10;" d="M 0.370738 0.753143 L 0.0691234 1.343809 " transform="matrix(680,0,0,660,0,0)"/>
<path style="fill:none;stroke-width:0.005;stroke-linecap:butt;stroke-linejoin:miter;stroke:rgb(26.865672%,0%,11.940299%);stroke-opacity:0.6;stroke-miterlimit:10;" d="M 0.401086 0.462322 L 0.170295 0.374408 " transform="matrix(680,0,0,660,0,0)"/>
<path style="fill:none;stroke-width:0.005;stroke-linecap:butt;stroke-linejoin:miter;stroke:rgb(26.865672%,0%,11.940299%);stroke-opacity:0.6;stroke-miterlimit:10;" d="M 0.590481 0.882025 L 0.801614 1.773426 " transform="matrix(680,0,0,660,0,0)"/>
<path style="fill:none;stroke-width:0.005;stroke-linecap:butt;stroke-linejoin:miter;stroke:rgb(26.865672%,0%,11.940299%);stroke-opacity:0.6;stroke-miterlimit:10;" d="M 0.518491 0.474171 L 0.561633 0.413903 " transform="matrix(680,0,0,660,0,0)"/>
<path style="fill:none;stroke-width:0.005;stroke-linecap:butt;stroke-linejoin:miter;stroke:rgb(26.865672%,0%,11.940299%);stroke-opacity:0.6;stroke-miterlimit:10;" d="M 0.489832 0.598479 L 0.466096 0.828273 " transform="matrix(680,0,0,660,0,0)"/>
<path style="fill:none;stroke-width:0.005;stroke-linecap:butt;stroke-linejoin:miter;stroke:rgb(26.865672%,0%,11.940299%);stroke-opacity:0.6;stroke-miterlimit:10;" d="M 0.607198 0.41276 L 0.857324 0.209203 " transform="matrix(680,0,0,660,0,0)"/>
<path style="fill:none;stroke-width:0.005;stroke-linecap:butt;stroke-linejoin:miter;stroke:rgb(26.865672%,0%,11.940299%);stroke-opacity:0.6;stroke-miterlimit:10;" d="M 0.475672 0.524319 L 0.418899 0.581067 " transform="matrix(680,0,0,660,0,0)"/>
<path style="fill:none;stroke-width:0.005;stroke-linecap:butt;stroke-linejoin:miter;stroke:rgb(26.865672%,0%,11.940299%);stroke-opacity:0.6;stroke-miterlimit:10;" d="M 0.636506 0.474491 L 0.955021 0.414974 " transform="matrix(680,0,0,660,0,0)"/>
<path style="fill:none;stroke-width:0.005;stroke-linecap:butt;stroke-linejoin:miter;stroke:rgb(26.865672%,0%,11.940299%);stroke-opacity:0.6;stroke-miterlimit:10;" d="M 0.374345 0.552409 L 0.0811581 0.674698 " transform="matrix(680,0,0,660,0,0)"/>
<path style="fill:none;stroke-width:0.005;stroke-linecap:butt;stroke-linejoin:miter;stroke:rgb(26.865672%,0%,11.940299%);stroke-opacity:0.6;stroke-miterlimit:10;" d="M 1.051379 0.625296 L 2.337937 0.917649 " transform="matrix(680,0,0,660,0,0)"/>
<path style="fill:none;stroke-width:0.005;stroke-linecap:butt;stroke-linejoin:miter;stroke:rgb(26.865672%,0%,11.940299%);stroke-opacity:0.6;stroke-miterlimit:10;" d="M 0.484524 0.507191 L 0.44842 0.52397 " transform="matrix(680,0,0,660,0,0)"/>
<path style="fill:none;stroke-width:0.005;stroke-linecap:butt;stroke-linejoin:miter;stroke:rgb(26.865672%,0%,11.940299%);stroke-opacity:0.6;stroke-miterlimit:10;" d="M 0.486747 0.475112 L 0.455819 0.417034 " transform="matrix(680,0,0,660,0,0)"/>
<path style="fill:none;stroke-width:0.005;stroke-linecap:butt;stroke-linejoin:miter;stroke:rgb(26.865672%,0%,11.940299%);stroke-opacity:0.6;stroke-miterlimit:10;" d="M 0.668491 0.976444 L 1.061638 2.088145 " transform="matrix(680,0,0,660,0,0)"/>
<path style="fill:none;stroke-width:0.005;stroke-linecap:butt;stroke-linejoin:miter;stroke:rgb(26.865672%,0%,11.940299%);stroke-opacity:0.6;stroke-miterlimit:10;" d="M 0.514551 0.461358 L 0.548501 0.371183 " transform="matrix(680,0,0,660,0,0)"/>
<path style="fill:none;stroke-width:0.005;stroke-linecap:butt;stroke-linejoin:miter;stroke:rgb(26.865672%,0%,11.940299%);stroke-opacity:0.6;stroke-miterlimit:10;" d="M 0.48067 0.441613 L 0.435558 0.305386 " transform="matrix(680,0,0,660,0,0)"/>
<path style="fill:none;stroke-width:0.005;stroke-linecap:butt;stroke-linejoin:miter;stroke:rgb(26.865672%,0%,11.940299%);stroke-opacity:0.6;stroke-miterlimit:10;" d="M 0.613844 0.600698 L 0.879486 0.835659 " transform="matrix(680,0,0,660,0,0)"/>
<path style="fill:none;stroke-width:0.005;stroke-linecap:butt;stroke-linejoin:miter;stroke:rgb(26.865672%,0%,11.940299%);stroke-opacity:0.6;stroke-miterlimit:10;" d="M 0.494721 0.552545 L 0.482399 0.675154 " transform="matrix(680,0,0,660,0,0)"/>
<path style="fill:none;stroke-width:0.005;stroke-linecap:butt;stroke-linejoin:miter;stroke:rgb(26.865672%,0%,11.940299%);stroke-opacity:0.6;stroke-miterlimit:10;" d="M 0.553326 0.453687 L 0.677752 0.345626 " transform="matrix(680,0,0,660,0,0)"/>
<path style="fill:none;stroke-width:0.005;stroke-linecap:butt;stroke-linejoin:miter;stroke:rgb(26.865672%,0%,11.940299%);stroke-opacity:0.6;stroke-miterlimit:10;" d="M 0.621542 0.631866 L 0.905147 0.939554 " transform="matrix(680,0,0,660,0,0)"/>
<path style="fill:none;stroke-width:0.005;stroke-linecap:butt;stroke-linejoin:miter;stroke:rgb(26.865672%,0%,11.940299%);stroke-opacity:0.6;stroke-miterlimit:10;" d="M 0.668354 0.465051 L 1.061179 0.383499 " transform="matrix(680,0,0,660,0,0)"/>
<path style="fill:none;stroke-width:0.005;stroke-linecap:butt;stroke-linejoin:miter;stroke:rgb(26.865672%,0%,11.940299%);stroke-opacity:0.6;stroke-miterlimit:10;" d="M 0.536455 0.675071 L 0.621507 1.083576 " transform="matrix(680,0,0,660,0,0)"/>
<path style="fill:none;stroke-width:0.005;stroke-linecap:butt;stroke-linejoin:miter;stroke:rgb(26.865672%,0%,11.940299%);stroke-opacity:0.6;stroke-miterlimit:10;" d="M 0.388712 0.419957 L 0.129044 0.233197 " transform="matrix(680,0,0,660,0,0)"/>
<path style="fill:none;stroke-width:0.005;stroke-linecap:butt;stroke-linejoin:miter;stroke:rgb(26.865672%,0%,11.940299%);stroke-opacity:0.6;stroke-miterlimit:10;" d="M 0.52095 0.490175 L 0.569836 0.467259 " transform="matrix(680,0,0,660,0,0)"/>
<path style="fill:none;stroke-width:0.005;stroke-linecap:butt;stroke-linejoin:miter;stroke:rgb(26.865672%,0%,11.940299%);stroke-opacity:0.6;stroke-miterlimit:10;" d="M 0.491337 0.467649 L 0.471117 0.392158 " transform="matrix(680,0,0,660,0,0)"/>
<path style="fill:none;stroke-width:0.005;stroke-linecap:butt;stroke-linejoin:miter;stroke:rgb(26.865672%,0%,11.940299%);stroke-opacity:0.6;stroke-miterlimit:10;" d="M 0.608674 0.613246 L 0.862236 0.877486 " transform="matrix(680,0,0,660,0,0)"/>
<path style=" stroke:none;fill-rule:nonzero;fill:rgb(0%,61.19403%,0%);fill-opacity:0.7;" d="M 447.441406 330 C 447.441406 387.59375 399.335938 434.28125 340 434.28125 C 280.664063 434.28125 232.558594 387.59375 232.558594 330 C 232.558594 272.40625 280.664063 225.71875 340 225.71875 C 399.335938 225.71875 447.441406 272.40625 447.441406 330 "/>
<g clip-path="url(#clip1)" clip-rule="nonzero">
<g clip-path="url(#clip2)" clip-rule="nonzero">
<path style="fill:none;stroke-width:9;stroke-linecap:butt;stroke-linejoin:miter;stroke:rgb(61.19403%,0%,0%);stroke-opacity:1;stroke-miterlimit:10;" d="M 0.408335 0.333333 C 0.408335 0.374757 0.374753 0.408333 0.333335 0.408333 C 0.291912 0.408333 0.258335 0.374757 0.258335 0.333333 C 0.258335 0.291909 0.291912 0.258333 0.333335 0.258333 C 0.374753 0.258333 0.408335 0.291909 0.408335 0.333333 " transform="matrix(680,0,0,660,0,0)"/>
</g>
</g>
<g clip-path="url(#clip3)" clip-rule="nonzero">
<g clip-path="url(#clip4)" clip-rule="nonzero">
<path style=" stroke:none;fill-rule:nonzero;fill:rgb(61.19403%,11.940299%,0%);fill-opacity:0.3;" d="M 277.667969 220 C 277.667969 247.339844 254.832031 269.5 226.667969 269.5 C 198.5 269.5 175.667969 247.339844 175.667969 220 C 175.667969 192.660156 198.5 170.5 226.667969 170.5 C 254.832031 170.5 277.667969 192.660156 277.667969 220 "/>
</g>
</g>
<g clip-path="url(#clip5)" clip-rule="nonzero">
<g clip-path="url(#clip6)" clip-rule="nonzero">
<path style="fill:none;stroke-width:9;stroke-linecap:butt;stroke-linejoin:miter;stroke:rgb(61.19403%,0%,0%);stroke-opacity:1;stroke-miterlimit:10;" d="M 0.762667 0.666667 C 0.762667 0.719685 0.719686 0.762666 0.666665 0.762666 C 0.613649 0.762666 0.570669 0.719685 0.570669 0.666667 C 0.570669 0.613648 0.613649 0.570668 0.666665 0.570668 C 0.719686 0.570668 0.762667 0.613648 0.762667 0.666667 " transform="matrix(680,0,0,660,0,0)"/>
</g>
</g>
<g clip-path="url(#clip7)" clip-rule="nonzero">
<g clip-path="url(#clip8)" clip-rule="nonzero">
<path style=" stroke:none;fill-rule:nonzero;fill:rgb(61.19403%,11.940299%,0%);fill-opacity:0.3;" d="M 518.613281 440 C 518.613281 474.992188 489.386719 503.359375 453.332031 503.359375 C 417.28125 503.359375 388.054688 474.992188 388.054688 440 C 388.054688 405.007813 417.28125 376.640625 453.332031 376.640625 C 489.386719 376.640625 518.613281 405.007813 518.613281 440 "/>
</g>
</g>
<g clip-path="url(#clip9)" clip-rule="nonzero">
<g clip-path="url(#clip10)" clip-rule="nonzero">
<rect x="0" y="0" width="680" height="660" style="fill:rgb(61.19403%,11.940299%,0%);fill-opacity:0.3;stroke:none;"/>
</g>
</g>
</g>
</svg>
