<?xml version="1.0" encoding="UTF-8"?>
<svg xmlns="http://www.w3.org/2000/svg" xmlns:xlink="http://www.w3.org/1999/xlink" width="680pt" height="660pt" viewBox="0 0 680 660" version="1.1">
<g id="surface1">
<rect x="0" y="0" width="680" height="660" style="fill:rgb(26.865672%,61.19403%,11.940299%);fill-opacity:0.5;stroke:none;"/>
<path style="fill:none;stroke-width:0.005;stroke-linecap:butt;stroke-linejoin:miter;stroke:rgb(26.865672%,0%,11.940299%);stroke-opacity:0.6;stroke-miterlimit:10;" d="M 0.177884 0.320703 L -0.912506 0.320703 " transform="matrix(680,0,0,660,0,0)"/>
<path style="fill:none;stroke-width:0.005;stroke-linecap:butt;stroke-linejoin:miter;stroke:rgb(26.865672%,0%,11.940299%);stroke-opacity:0.6;stroke-miterlimit:10;" d="M 0.796002 0.314589 L 1.14788 0.300326 " transform="matrix(680,0,0,660,0,0)"/>
<path style="fill:none;stroke-width:0.005;stroke-linecap:butt;stroke-linejoin:miter;stroke:rgb(26.865672%,0%,11.940299%);stroke-opacity:0.6;stroke-miterlimit:10;" d="M 0.787644 0.328581 L 1.120025 0.346958 " transform="matrix(680,0,0,660,0,0)"/>
<path style="fill:none;stroke-width:0.005;stroke-linecap:butt;stroke-linejoin:miter;stroke:rgb(26.865672%,0%,11.940299%);stroke-opacity:0.6;stroke-miterlimit:10;" d="M 0.776011 0.336725 L 1.08125 0.374106 " transform="matrix(680,0,0,660,0,0)"/>
<path style="fill:none;stroke-width:0.005;stroke-linecap:butt;stroke-linejoin:miter;stroke:rgb(26.865672%,0%,11.940299%);stroke-opacity:0.6;stroke-miterlimit:10;" d="M 0.613218 0.314601 L 0.538603 0.300373 " transform="matrix(680,0,0,660,0,0)"/>
<path style="fill:none;stroke-width:0.005;stroke-linecap:butt;stroke-linejoin:miter;stroke:rgb(26.865672%,0%,11.940299%);stroke-opacity:0.6;stroke-miterlimit:10;" d="M 0.769784 0.360411 L 1.060484 0.453072 " transform="matrix(680,0,0,660,0,0)"/>
<path style="fill:none;stroke-width:0.005;stroke-linecap:butt;stroke-linejoin:miter;stroke:rgb(26.865672%,0%,11.940299%);stroke-opacity:0.6;stroke-miterlimit:10;" d="M 0.563683 0.333375 L 0.373489 0.362938 " transform="matrix(680,0,0,660,0,0)"/>
<path style="fill:none;stroke-width:0.005;stroke-linecap:butt;stroke-linejoin:miter;stroke:rgb(26.865672%,0%,11.940299%);stroke-opacity:0.6;stroke-miterlimit:10;" d="M 0.518193 0.202788 L 0.221858 -0.0723544 " transform="matrix(680,0,0,660,0,0)"/>
<path style="fill:none;stroke-width:0.005;stroke-linecap:butt;stroke-linejoin:miter;stroke:rgb(26.865672%,0%,11.940299%);stroke-opacity:0.6;stroke-miterlimit:10;" d="M 0.847116 0.34362 L 1.318273 0.3971 " transform="matrix(680,0,0,660,0,0)"/>
<path style="fill:none;stroke-width:0.005;stroke-linecap:butt;stroke-linejoin:miter;stroke:rgb(26.865672%,0%,11.940299%);stroke-opacity:0.6;stroke-miterlimit:10;" d="M 0.622088 0.299237 L 0.568164 0.24916 " transform="matrix(680,0,0,660,0,0)"/>
<path style="fill:none;stroke-width:0.005;stroke-linecap:butt;stroke-linejoin:miter;stroke:rgb(26.865672%,0%,11.940299%);stroke-opacity:0.6;stroke-miterlimit:10;" d="M 0.670692 0.339962 L 0.730176 0.384896 " transform="matrix(680,0,0,660,0,0)"/>
<path style="fill:none;stroke-width:0.005;stroke-linecap:butt;stroke-linejoin:miter;stroke:rgb(26.865672%,0%,11.940299%);stroke-opacity:0.6;stroke-miterlimit:10;" d="M 0.783714 0.367063 L 1.106922 0.475243 " transform="matrix(680,0,0,660,0,0)"/>
<path style="fill:none;stroke-width:0.005;stroke-linecap:butt;stroke-linejoin:miter;stroke:rgb(26.865672%,0%,11.940299%);stroke-opacity:0.6;stroke-miterlimit:10;" d="M 0.803929 0.106143 L 1.174316 -0.394496 " transform="matrix(680,0,0,660,0,0)"/>
<path style="fill:none;stroke-width:0.005;stroke-linecap:butt;stroke-linejoin:miter;stroke:rgb(26.865672%,0%,11.940299%);stroke-opacity:0.6;stroke-miterlimit:10;" d="M 0.545588 0.455155 L 0.313178 0.768874 " transform="matrix(680,0,0,660,0,0)"/>
<path style="fill:none;stroke-width:0.005;stroke-linecap:butt;stroke-linejoin:miter;stroke:rgb(26.865672%,0%,11.940299%);stroke-opacity:0.6;stroke-miterlimit:10;" d="M 0.755928 0.240737 L 1.01431 0.0541607 " transform="matrix(680,0,0,660,0,0)"/>
<path style="fill:none;stroke-width:0.005;stroke-linecap:butt;stroke-linejoin:miter;stroke:rgb(26.865672%,0%,11.940299%);stroke-opacity:0.6;stroke-miterlimit:10;" d="M 0.411483 0.70641 L -0.133847 1.606392 " transform="matrix(680,0,0,660,0,0)"/>
<path style="fill:none;stroke-width:0.005;stroke-linecap:butt;stroke-linejoin:miter;stroke:rgb(26.865672%,0%,11.940299%);stroke-opacity:0.6;stroke-miterlimit:10;" d="M 0.753676 0.465879 L 1.006807 0.804622 " transform="matrix(680,0,0,660,0,0)"/>
<path style="fill:none;stroke-width:0.005;stroke-linecap:butt;stroke-linejoin:miter;stroke:rgb(26.865672%,0%,11.940299%);stroke-opacity:0.6;stroke-miterlimit:10;" d="M 0.634662 0.303504 L 0.610093 0.263364 " transform="matrix(680,0,0,660,0,0)"/>
<path style="fill:none;stroke-width:0.005;stroke-linecap:butt;stroke-linejoin:miter;stroke:rgb(26.865672%,0%,11.940299%);stroke-opacity:0.6;stroke-miterlimit:10;" d="M 0.802068 0.468353 L 1.168095 0.812885 " transform="matrix(680,0,0,660,0,0)"/>
<path style="fill:none;stroke-width:0.005;stroke-linecap:butt;stroke-linejoin:miter;stroke:rgb(26.865672%,0%,11.940299%);stroke-opacity:0.6;stroke-miterlimit:10;" d="M 0.867314 0.47004 L 1.385604 0.81849 " transform="matrix(680,0,0,660,0,0)"/>
<path style="fill:none;stroke-width:0.005;stroke-linecap:butt;stroke-linejoin:miter;stroke:rgb(26.865672%,0%,11.940299%);stroke-opacity:0.6;stroke-miterlimit:10;" d="M 0.759662 0.448106 L 1.026764 0.745372 " transform="matrix(680,0,0,660,0,0)"/>
<path style="fill:none;stroke-width:0.005;stroke-linecap:butt;stroke-linejoin:miter;stroke:rgb(26.865672%,0%,11.940299%);stroke-opacity:0.6;stroke-miterlimit:10;" d="M 0.0488396 0.745295 L -1.342647 1.73602 " transform="matrix(680,0,0,660,0,0)"/>
<path style="fill:none;stroke-width:0.005;stroke-linecap:butt;stroke-linejoin:miter;stroke:rgb(26.865672%,0%,11.940299%);stroke-opacity:0.6;stroke-miterlimit:10;" d="M 0.383772 0.136375 L -0.226206 -0.293714 " transform="matrix(680,0,0,660,0,0)"/>
<path style="fill:none;stroke-width:0.005;stroke-linecap:butt;stroke-linejoin:miter;stroke:rgb(26.865672%,0%,11.940299%);stroke-opacity:0.6;stroke-miterlimit:10;" d="M 0.94043 0.600906 L 1.629314 1.254723 " transform="matrix(680,0,0,660,0,0)"/>
<path style="fill:none;stroke-width:0.005;stroke-linecap:butt;stroke-linejoin:miter;stroke:rgb(26.865672%,0%,11.940299%);stroke-opacity:0.6;stroke-miterlimit:10;" d="M 0.584111 0.384558 L 0.44159 0.533558 " transform="matrix(680,0,0,660,0,0)"/>
<path style="fill:none;stroke-width:0.005;stroke-linecap:butt;stroke-linejoin:miter;stroke:rgb(26.865672%,0%,11.940299%);stroke-opacity:0.6;stroke-miterlimit:10;" d="M 0.524943 0.197153 L 0.244353 -0.0911281 " transform="matrix(680,0,0,660,0,0)"/>
<path style="fill:none;stroke-width:0.005;stroke-linecap:butt;stroke-linejoin:miter;stroke:rgb(26.865672%,0%,11.940299%);stroke-opacity:0.6;stroke-miterlimit:10;" d="M 0.638999 0.341909 L 0.62454 0.391388 " transform="matrix(680,0,0,660,0,0)"/>
<path style="fill:none;stroke-width:0.005;stroke-linecap:butt;stroke-linejoin:miter;stroke:rgb(26.865672%,0%,11.940299%);stroke-opacity:0.6;stroke-miterlimit:10;" d="M 0.410168 0.169425 L -0.13823 -0.183564 " transform="matrix(680,0,0,660,0,0)"/>
<path style="fill:none;stroke-width:0.005;stroke-linecap:butt;stroke-linejoin:miter;stroke:rgb(26.865672%,0%,11.940299%);stroke-opacity:0.6;stroke-miterlimit:10;" d="M 0.751212 0.0742661 L 0.998581 -0.500758 " transform="matrix(680,0,0,660,0,0)"/>
<path style="fill:none;stroke-width:0.005;stroke-linecap:butt;stroke-linejoin:miter;stroke:rgb(26.865672%,0%,11.940299%);stroke-opacity:0.6;stroke-miterlimit:10;" d="M 0.627562 0.348674 L 0.586426 0.413944 " transform="matrix(680,0,0,660,0,0)"/>
<path style="fill:none;stroke-width:0.005;stroke-linecap:butt;stroke-linejoin:miter;stroke:rgb(26.865672%,0%,11.940299%);stroke-opacity:0.6;stroke-miterlimit:10;" d="M 0.748277 0.0416371 L 0.988798 -0.609511 " transform="matrix(680,0,0,660,0,0)"/>
<path style="fill:none;stroke-width:0.005;stroke-linecap:butt;stroke-linejoin:miter;stroke:rgb(26.865672%,0%,11.940299%);stroke-opacity:0.6;stroke-miterlimit:10;" d="M 0.70598 0.164151 L 0.847811 -0.201136 " transform="matrix(680,0,0,660,0,0)"/>
<path style="fill:none;stroke-width:0.005;stroke-linecap:butt;stroke-linejoin:miter;stroke:rgb(26.865672%,0%,11.940299%);stroke-opacity:0.6;stroke-miterlimit:10;" d="M 0.734019 0.331457 L 0.94128 0.356546 " transform="matrix(680,0,0,660,0,0)"/>
<path style="fill:none;stroke-width:0.005;stroke-linecap:butt;stroke-linejoin:miter;stroke:rgb(26.865672%,0%,11.940299%);stroke-opacity:0.6;stroke-miterlimit:10;" d="M 0.746777 0.100373 L 0.983801 -0.413737 " transform="matrix(680,0,0,660,0,0)"/>
<path style="fill:none;stroke-width:0.005;stroke-linecap:butt;stroke-linejoin:miter;stroke:rgb(26.865672%,0%,11.940299%);stroke-opacity:0.6;stroke-miterlimit:10;" d="M 0.14001 0.151971 L -1.038752 -0.241738 " transform="matrix(680,0,0,660,0,0)"/>
<path style="fill:none;stroke-width:0.005;stroke-linecap:butt;stroke-linejoin:miter;stroke:rgb(26.865672%,0%,11.940299%);stroke-opacity:0.6;stroke-miterlimit:10;" d="M 0.301206 0.619644 L -0.501436 1.317182 " transform="matrix(680,0,0,660,0,0)"/>
<path style="fill:none;stroke-width:0.005;stroke-linecap:butt;stroke-linejoin:miter;stroke:rgb(26.865672%,0%,11.940299%);stroke-opacity:0.6;stroke-miterlimit:10;" d="M 0.582341 0.305185 L 0.435679 0.268981 " transform="matrix(680,0,0,660,0,0)"/>
<path style="fill:none;stroke-width:0.005;stroke-linecap:butt;stroke-linejoin:miter;stroke:rgb(26.865672%,0%,11.940299%);stroke-opacity:0.6;stroke-miterlimit:10;" d="M 0.699724 0.136263 L 0.826959 -0.294093 " transform="matrix(680,0,0,660,0,0)"/>
<path style="fill:none;stroke-width:0.005;stroke-linecap:butt;stroke-linejoin:miter;stroke:rgb(26.865672%,0%,11.940299%);stroke-opacity:0.6;stroke-miterlimit:10;" d="M 0.661702 0.348011 L 0.700213 0.411725 " transform="matrix(680,0,0,660,0,0)"/>
<path style="fill:none;stroke-width:0.005;stroke-linecap:butt;stroke-linejoin:miter;stroke:rgb(26.865672%,0%,11.940299%);stroke-opacity:0.6;stroke-miterlimit:10;" d="M 0.625385 0.44871 L 0.57917 0.747402 " transform="matrix(680,0,0,660,0,0)"/>
<path style="fill:none;stroke-width:0.005;stroke-linecap:butt;stroke-linejoin:miter;stroke:rgb(26.865672%,0%,11.940299%);stroke-opacity:0.6;stroke-miterlimit:10;" d="M 0.345577 0.0819839 L -0.353527 -0.475018 " transform="matrix(680,0,0,660,0,0)"/>
<path style="fill:none;stroke-width:0.005;stroke-linecap:butt;stroke-linejoin:miter;stroke:rgb(26.865672%,0%,11.940299%);stroke-opacity:0.6;stroke-miterlimit:10;" d="M 0.628573 0.287973 L 0.589792 0.2116 " transform="matrix(680,0,0,660,0,0)"/>
<path style="fill:none;stroke-width:0.005;stroke-linecap:butt;stroke-linejoin:miter;stroke:rgb(26.865672%,0%,11.940299%);stroke-opacity:0.6;stroke-miterlimit:10;" d="M 0.749075 0.43328 L 0.991464 0.695952 " transform="matrix(680,0,0,660,0,0)"/>
<path style="fill:none;stroke-width:0.005;stroke-linecap:butt;stroke-linejoin:miter;stroke:rgb(26.865672%,0%,11.940299%);stroke-opacity:0.6;stroke-miterlimit:10;" d="M 0.695646 0.166471 L 0.813367 -0.193407 " transform="matrix(680,0,0,660,0,0)"/>
<path style="fill:none;stroke-width:0.005;stroke-linecap:butt;stroke-linejoin:miter;stroke:rgb(26.865672%,0%,11.940299%);stroke-opacity:0.6;stroke-miterlimit:10;" d="M 0.587345 0.323574 L 0.452372 0.330279 " transform="matrix(680,0,0,660,0,0)"/>
<path style="fill:none;stroke-width:0.005;stroke-linecap:butt;stroke-linejoin:miter;stroke:rgb(26.865672%,0%,11.940299%);stroke-opacity:0.6;stroke-miterlimit:10;" d="M 0.661104 0.464607 L 0.698225 0.800385 " transform="matrix(680,0,0,660,0,0)"/>
<path style="fill:none;stroke-width:0.005;stroke-linecap:butt;stroke-linejoin:miter;stroke:rgb(26.865672%,0%,11.940299%);stroke-opacity:0.6;stroke-miterlimit:10;" d="M 0.836885 0.180895 L 1.284157 -0.145313 " transform="matrix(680,0,0,660,0,0)"/>
<path style="fill:none;stroke-width:0.005;stroke-linecap:butt;stroke-linejoin:miter;stroke:rgb(26.865672%,0%,11.940299%);stroke-opacity:0.6;stroke-miterlimit:10;" d="M 0.741797 0.490903 L 0.96721 0.888045 " transform="matrix(680,0,0,660,0,0)"/>
<path style="fill:none;stroke-width:0.005;stroke-linecap:butt;stroke-linejoin:miter;stroke:rgb(26.865672%,0%,11.940299%);stroke-opacity:0.6;stroke-miterlimit:10;" d="M 0.639591 0.457197 L 0.626511 0.775692 " transform="matrix(680,0,0,660,0,0)"/>
<path style="fill:none;stroke-width:0.005;stroke-linecap:butt;stroke-linejoin:miter;stroke:rgb(26.865672%,0%,11.940299%);stroke-opacity:0.6;stroke-miterlimit:10;" d="M 0.680497 0.275379 L 0.762873 0.16962 " transform="matrix(680,0,0,660,0,0)"/>
<path style="fill:none;stroke-width:0.005;stroke-linecap:butt;stroke-linejoin:miter;stroke:rgb(26.865672%,0%,11.940299%);stroke-opacity:0.6;stroke-miterlimit:10;" d="M 0.644698 0.468762 L 0.643549 0.814246 " transform="matrix(680,0,0,660,0,0)"/>
<path style="fill:none;stroke-width:0.005;stroke-linecap:butt;stroke-linejoin:miter;stroke:rgb(26.865672%,0%,11.940299%);stroke-opacity:0.6;stroke-miterlimit:10;" d="M 0.655796 0.364844 L 0.680532 0.46785 " transform="matrix(680,0,0,660,0,0)"/>
<path style="fill:none;stroke-width:0.005;stroke-linecap:butt;stroke-linejoin:miter;stroke:rgb(26.865672%,0%,11.940299%);stroke-opacity:0.6;stroke-miterlimit:10;" d="M 0.96655 0.490803 L 1.716378 0.887713 " transform="matrix(680,0,0,660,0,0)"/>
<path style="fill:none;stroke-width:0.005;stroke-linecap:butt;stroke-linejoin:miter;stroke:rgb(26.865672%,0%,11.940299%);stroke-opacity:0.6;stroke-miterlimit:10;" d="M 0.629797 0.288826 L 0.593865 0.214441 " transform="matrix(680,0,0,660,0,0)"/>
<path style="fill:none;stroke-width:0.005;stroke-linecap:butt;stroke-linejoin:miter;stroke:rgb(26.865672%,0%,11.940299%);stroke-opacity:0.6;stroke-miterlimit:10;" d="M 0.672461 0.372603 L 0.736075 0.493709 " transform="matrix(680,0,0,660,0,0)"/>
<path style="fill:none;stroke-width:0.005;stroke-linecap:butt;stroke-linejoin:miter;stroke:rgb(26.865672%,0%,11.940299%);stroke-opacity:0.6;stroke-miterlimit:10;" d="M 0.667463 0.387228 L 0.719428 0.54246 " transform="matrix(680,0,0,660,0,0)"/>
<path style="fill:none;stroke-width:0.005;stroke-linecap:butt;stroke-linejoin:miter;stroke:rgb(26.865672%,0%,11.940299%);stroke-opacity:0.6;stroke-miterlimit:10;" d="M 0.348432 0.369886 L -0.344014 0.484647 " transform="matrix(680,0,0,660,0,0)"/>
<path style="fill:none;stroke-width:0.00333333;stroke-linecap:butt;stroke-linejoin:miter;stroke:rgb(0%,61.19403%,0%);stroke-opacity:0.7;stroke-miterlimit:10;" d="M 0.764212 0.5 C 0.764212 0.645922 0.645921 0.764216 0.5 0.764216 C 0.354079 0.764216 0.235788 0.645922 0.235788 0.5 C 0.235788 0.354078 0.354079 0.235784 0.5 0.235784 C 0.645921 0.235784 0.764212 0.354078 0.764212 0.5 " transform="matrix(680,0,0,660,0,0)"/>
<path style=" stroke:none;fill-rule:nonzero;fill:rgb(0%,61.19403%,0%);fill-opacity:0.7;" d="M 519.664063 330 C 519.664063 426.308594 439.226563 504.382813 340 504.382813 C 240.773438 504.382813 160.335938 426.308594 160.335938 330 C 160.335938 233.691406 240.773438 155.617188 340 155.617188 C 439.226563 155.617188 519.664063 233.691406 519.664063 330 "/>
<path style="fill:none;stroke-width:0.00333333;stroke-linecap:butt;stroke-linejoin:miter;stroke:rgb(61.19403%,0%,0%);stroke-opacity:1;stroke-miterlimit:10;" d="M 0.458749 0.333333 C 0.458749 0.402598 0.402602 0.458754 0.333335 0.458754 C 0.264068 0.458754 0.207916 0.402598 0.207916 0.333333 C 0.207916 0.264068 0.264068 0.207913 0.333335 0.207913 C 0.402602 0.207913 0.458749 0.264068 0.458749 0.333333 " transform="matrix(680,0,0,660,0,0)"/>
<path style=" stroke:none;fill-rule:nonzero;fill:rgb(61.19403%,11.940299%,0%);fill-opacity:0.3;" d="M 311.949219 220 C 311.949219 265.714844 273.769531 302.777344 226.667969 302.777344 C 179.566406 302.777344 141.382813 265.714844 141.382813 220 C 141.382813 174.285156 179.566406 137.222656 226.667969 137.222656 C 273.769531 137.222656 311.949219 174.285156 311.949219 220 "/>
<path style="fill:none;stroke-width:0.00333333;stroke-linecap:butt;stroke-linejoin:miter;stroke:rgb(61.19403%,0%,0%);stroke-opacity:1;stroke-miterlimit:10;" d="M 0.8272 0.666667 C 0.8272 0.755327 0.755325 0.827202 0.666665 0.827202 C 0.578004 0.827202 0.506129 0.755327 0.506129 0.666667 C 0.506129 0.578007 0.578004 0.506132 0.666665 0.506132 C 0.755325 0.506132 0.8272 0.578007 0.8272 0.666667 " transform="matrix(680,0,0,660,0,0)"/>
<path style=" stroke:none;fill-rule:nonzero;fill:rgb(61.19403%,11.940299%,0%);fill-opacity:0.3;" d="M 562.496094 440 C 562.496094 498.515625 513.621094 545.953125 453.332031 545.953125 C 393.042969 545.953125 344.167969 498.515625 344.167969 440 C 344.167969 381.484375 393.042969 334.046875 453.332031 334.046875 C 513.621094 334.046875 562.496094 381.484375 562.496094 440 "/>
<path style="fill:none;stroke-width:0.05;stroke-linecap:butt;stroke-linejoin:miter;stroke:rgb(61.19403%,11.940299%,26.865672%);stroke-opacity:0.5;stroke-miterlimit:10;" d="M 0.5 0.2 C 0.833335 0.533333 1.033335 0.733333 0 0.3 " transform="matrix(680,0,0,660,0,0)"/>
<path style="fill:none;stroke-width:0.03;stroke-linecap:butt;stroke-linejoin:miter;stroke:rgb(61.19403%,11.940299%,26.865672%);stroke-opacity:0.5;stroke-miterlimit:10;" d="M 0.823127 0.533333 L 0.823127 0.533333 " transform="matrix(680,0,0,660,0,0)"/>
<path style="fill:none;stroke-width:0.03;stroke-linecap:butt;stroke-linejoin:miter;stroke:rgb(61.19403%,11.940299%,26.865672%);stroke-opacity:0.5;stroke-miterlimit:10;" d="M 0.812925 0.533333 L 0.187075 0.187074 " transform="matrix(680,0,0,660,0,0)"/>
<path style="fill:none;stroke-width:0.03;stroke-linecap:butt;stroke-linejoin:miter;stroke:rgb(61.19403%,11.940299%,26.865672%);stroke-opacity:0.5;stroke-miterlimit:10;" d="M 0.469388 0.2 C 1.469388 1.2 1.802723 1.533333 0.0306124 0.3 " transform="matrix(680,0,0,660,0,0)"/>
<path style="fill:none;stroke-width:0.03;stroke-linecap:butt;stroke-linejoin:miter;stroke:rgb(61.19403%,11.940299%,26.865672%);stroke-opacity:0.5;stroke-miterlimit:10;" d="M 0.459185 0.2 C 1.459185 1.2 1.792515 1.533333 0.0408146 0.3 " transform="matrix(680,0,0,660,0,0)"/>
<path style="fill:none;stroke-width:0.03;stroke-linecap:butt;stroke-linejoin:miter;stroke:rgb(61.19403%,11.940299%,26.865672%);stroke-opacity:0.5;stroke-miterlimit:10;" d="M 0.782313 0.533333 L 0.217687 0.217685 " transform="matrix(680,0,0,660,0,0)"/>
<path style="fill:none;stroke-width:0.02;stroke-linecap:butt;stroke-linejoin:miter;stroke:rgb(61.19403%,11.940299%,26.865672%);stroke-opacity:0.5;stroke-miterlimit:10;" d="M 0.438775 0.2 C 1.438775 1.2 1.938775 1.7 -0.438775 -0.2 " transform="matrix(680,0,0,660,0,0)"/>
<path style="fill:none;stroke-width:0.02;stroke-linecap:butt;stroke-linejoin:miter;stroke:rgb(61.19403%,11.940299%,26.865672%);stroke-opacity:0.5;stroke-miterlimit:10;" d="M 0.928573 0.7 L 0.0714269 0.0714311 " transform="matrix(680,0,0,660,0,0)"/>
<path style="fill:none;stroke-width:0.02;stroke-linecap:butt;stroke-linejoin:miter;stroke:rgb(61.19403%,11.940299%,26.865672%);stroke-opacity:0.5;stroke-miterlimit:10;" d="M 0.418365 0.2 C 1.418365 1.2 1.918365 1.7 -0.418365 -0.2 " transform="matrix(680,0,0,660,0,0)"/>
<path style="fill:none;stroke-width:0.02;stroke-linecap:butt;stroke-linejoin:miter;stroke:rgb(61.19403%,11.940299%,26.865672%);stroke-opacity:0.5;stroke-miterlimit:10;" d="M 0.408163 0.2 C 1.408163 1.2 1.908163 1.7 -0.408163 -0.2 " transform="matrix(680,0,0,660,0,0)"/>
<path style="fill:none;stroke-width:0.02;stroke-linecap:butt;stroke-linejoin:miter;stroke:rgb(61.19403%,11.940299%,26.865672%);stroke-opacity:0.5;stroke-miterlimit:10;" d="M 0.897961 0.7 L -0.397961 -0.397958 " transform="matrix(680,0,0,660,0,0)"/>
<path style="fill:none;stroke-width:0.02;stroke-linecap:butt;stroke-linejoin:miter;stroke:rgb(61.19403%,11.940299%,26.865672%);stroke-opacity:0.5;stroke-miterlimit:10;" d="M 0.887753 0.7 L 0.112247 0.112246 " transform="matrix(680,0,0,660,0,0)"/>
<path style="fill:none;stroke-width:0.02;stroke-linecap:butt;stroke-linejoin:miter;stroke:rgb(61.19403%,11.940299%,26.865672%);stroke-opacity:0.5;stroke-miterlimit:10;" d="M 0.877551 0.7 L 0.122449 0.122449 " transform="matrix(680,0,0,660,0,0)"/>
<path style="fill:none;stroke-width:0.02;stroke-linecap:butt;stroke-linejoin:miter;stroke:rgb(61.19403%,11.940299%,26.865672%);stroke-opacity:0.5;stroke-miterlimit:10;" d="M 0.367348 0.2 C 1.367348 1.2 1.867348 1.7 -0.367348 -0.2 " transform="matrix(680,0,0,660,0,0)"/>
<path style="fill:none;stroke-width:0.02;stroke-linecap:butt;stroke-linejoin:miter;stroke:rgb(61.19403%,11.940299%,26.865672%);stroke-opacity:0.5;stroke-miterlimit:10;" d="M 0.85714 0.7 L 0.14286 0.142856 " transform="matrix(680,0,0,660,0,0)"/>
<path style="fill:none;stroke-width:0.02;stroke-linecap:butt;stroke-linejoin:miter;stroke:rgb(61.19403%,11.940299%,26.865672%);stroke-opacity:0.5;stroke-miterlimit:10;" d="M 0.346938 0.2 C 1.346938 1.2 1.846938 1.7 -0.346938 -0.2 " transform="matrix(680,0,0,660,0,0)"/>
<path style="fill:none;stroke-width:0.02;stroke-linecap:butt;stroke-linejoin:miter;stroke:rgb(61.19403%,11.940299%,26.865672%);stroke-opacity:0.5;stroke-miterlimit:10;" d="M 0.836736 0.7 L 0.163264 0.163263 " transform="matrix(680,0,0,660,0,0)"/>
<path style="fill:none;stroke-width:0.02;stroke-linecap:butt;stroke-linejoin:miter;stroke:rgb(61.19403%,11.940299%,26.865672%);stroke-opacity:0.5;stroke-miterlimit:10;" d="M 0.826528 0.7 L 0.173472 0.173467 " transform="matrix(680,0,0,660,0,0)"/>
<path style="fill:none;stroke-width:0.02;stroke-linecap:butt;stroke-linejoin:miter;stroke:rgb(61.19403%,11.940299%,26.865672%);stroke-opacity:0.5;stroke-miterlimit:10;" d="M 0.816326 0.7 L 0.816326 0.7 " transform="matrix(680,0,0,660,0,0)"/>
<path style="fill:none;stroke-width:0.02;stroke-linecap:butt;stroke-linejoin:miter;stroke:rgb(61.19403%,11.940299%,26.865672%);stroke-opacity:0.5;stroke-miterlimit:10;" d="M 0.806124 0.7 L 0.193876 0.19388 " transform="matrix(680,0,0,660,0,0)"/>
<path style="fill:none;stroke-width:0.02;stroke-linecap:butt;stroke-linejoin:miter;stroke:rgb(61.19403%,11.940299%,26.865672%);stroke-opacity:0.5;stroke-miterlimit:10;" d="M 0.795916 0.7 L 0.204084 0.204084 " transform="matrix(680,0,0,660,0,0)"/>
<path style="fill:none;stroke-width:0.02;stroke-linecap:butt;stroke-linejoin:miter;stroke:rgb(61.19403%,11.940299%,26.865672%);stroke-opacity:0.5;stroke-miterlimit:10;" d="M 0.285713 0.2 C 1.285713 1.2 1.785713 1.7 -0.285713 -0.2 " transform="matrix(680,0,0,660,0,0)"/>
<path style="fill:none;stroke-width:0.01;stroke-linecap:butt;stroke-linejoin:miter;stroke:rgb(61.19403%,11.940299%,26.865672%);stroke-opacity:0.5;stroke-miterlimit:10;" d="M 1.163264 1.2 L -0.163264 -0.163263 " transform="matrix(680,0,0,660,0,0)"/>
<path style="fill:none;stroke-width:0.01;stroke-linecap:butt;stroke-linejoin:miter;stroke:rgb(61.19403%,11.940299%,26.865672%);stroke-opacity:0.5;stroke-miterlimit:10;" d="M 1.153062 1.2 L -0.153062 -0.15306 " transform="matrix(680,0,0,660,0,0)"/>
<path style="fill:none;stroke-width:0.01;stroke-linecap:butt;stroke-linejoin:miter;stroke:rgb(61.19403%,11.940299%,26.865672%);stroke-opacity:0.5;stroke-miterlimit:10;" d="M 1.14286 1.2 L -0.14286 -0.142856 " transform="matrix(680,0,0,660,0,0)"/>
<path style="fill:none;stroke-width:0.01;stroke-linecap:butt;stroke-linejoin:miter;stroke:rgb(61.19403%,11.940299%,26.865672%);stroke-opacity:0.5;stroke-miterlimit:10;" d="M 1.132652 1.2 L -0.132652 -0.132653 " transform="matrix(680,0,0,660,0,0)"/>
<path style="fill:none;stroke-width:0.01;stroke-linecap:butt;stroke-linejoin:miter;stroke:rgb(61.19403%,11.940299%,26.865672%);stroke-opacity:0.5;stroke-miterlimit:10;" d="M 1.091837 1.2 L -0.0918371 -0.0918383 " transform="matrix(680,0,0,660,0,0)"/>
<path style="fill:none;stroke-width:0.01;stroke-linecap:butt;stroke-linejoin:miter;stroke:rgb(61.19403%,11.940299%,26.865672%);stroke-opacity:0.5;stroke-miterlimit:10;" d="M 1.081635 1.2 L -0.0816349 -0.0816347 " transform="matrix(680,0,0,660,0,0)"/>
<path style="fill:none;stroke-width:0.01;stroke-linecap:butt;stroke-linejoin:miter;stroke:rgb(61.19403%,11.940299%,26.865672%);stroke-opacity:0.5;stroke-miterlimit:10;" d="M 1.071427 1.2 L -0.0714269 -0.0714311 " transform="matrix(680,0,0,660,0,0)"/>
<path style="fill:none;stroke-width:0.01;stroke-linecap:butt;stroke-linejoin:miter;stroke:rgb(61.19403%,11.940299%,26.865672%);stroke-opacity:0.5;stroke-miterlimit:10;" d="M 1.061225 1.2 L -0.0612247 -0.0612216 " transform="matrix(680,0,0,660,0,0)"/>
<path style="fill:none;stroke-width:0.01;stroke-linecap:butt;stroke-linejoin:miter;stroke:rgb(61.19403%,11.940299%,26.865672%);stroke-opacity:0.5;stroke-miterlimit:10;" d="M 1.030612 1.2 L -0.0306124 -0.0306108 " transform="matrix(680,0,0,660,0,0)"/>
<path style="fill:none;stroke-width:0.01;stroke-linecap:butt;stroke-linejoin:miter;stroke:rgb(61.19403%,11.940299%,26.865672%);stroke-opacity:0.5;stroke-miterlimit:10;" d="M 1.02041 1.2 L -0.0204102 -0.0204072 " transform="matrix(680,0,0,660,0,0)"/>
<path style="fill:none;stroke-width:0.01;stroke-linecap:butt;stroke-linejoin:miter;stroke:rgb(61.19403%,11.940299%,26.865672%);stroke-opacity:0.5;stroke-miterlimit:10;" d="M 1.010202 1.2 L -0.0102022 -0.0102036 " transform="matrix(680,0,0,660,0,0)"/>
<path style="fill:none;stroke-width:0.01;stroke-linecap:butt;stroke-linejoin:miter;stroke:rgb(61.19403%,11.940299%,26.865672%);stroke-opacity:0.5;stroke-miterlimit:10;" d="M 1 1.2 L 0 0 " transform="matrix(680,0,0,660,0,0)"/>
</g>
</svg>
