<?xml version="1.0" encoding="UTF-8"?>
<svg xmlns="http://www.w3.org/2000/svg" xmlns:xlink="http://www.w3.org/1999/xlink" width="680pt" height="660pt" viewBox="0 0 680 660" version="1.1">
<defs>
<clipPath id="clip1">
  <path d="M 232 225 L 448 225 L 448 435 L 232 435 Z M 232 225 "/>
</clipPath>
<clipPath id="clip2">
  <path d="M 447.441406 330 C 447.441406 387.59375 399.335938 434.28125 340 434.28125 C 280.664063 434.28125 232.558594 387.59375 232.558594 330 C 232.558594 272.40625 280.664063 225.71875 340 225.71875 C 399.335938 225.71875 447.441406 272.40625 447.441406 330 "/>
</clipPath>
<clipPath id="clip3">
  <path d="M 232 225 L 278 225 L 278 270 L 232 270 Z M 232 225 "/>
</clipPath>
<clipPath id="clip4">
  <path d="M 447.441406 330 C 447.441406 387.59375 399.335938 434.28125 340 434.28125 C 280.664063 434.28125 232.558594 387.59375 232.558594 330 C 232.558594 272.40625 280.664063 225.71875 340 225.71875 C 399.335938 225.71875 447.441406 272.40625 447.441406 330 "/>
</clipPath>
<clipPath id="clip5">
  <path d="M 232 225 L 448 225 L 448 435 L 232 435 Z M 232 225 "/>
</clipPath>
<clipPath id="clip6">
  <path d="M 447.441406 330 C 447.441406 387.59375 399.335938 434.28125 340 434.28125 C 280.664063 434.28125 232.558594 387.59375 232.558594 330 C 232.558594 272.40625 280.664063 225.71875 340 225.71875 C 399.335938 225.71875 447.441406 272.40625 447.441406 330 "/>
</clipPath>
<clipPath id="clip7">
  <path d="M 388 376 L 448 376 L 448 435 L 388 435 Z M 388 376 "/>
</clipPath>
<clipPath id="clip8">
  <path d="M 447.441406 330 C 447.441406 387.59375 399.335938 434.28125 340 434.28125 C 280.664063 434.28125 232.558594 387.59375 232.558594 330 C 232.558594 272.40625 280.664063 225.71875 340 225.71875 C 399.335938 225.71875 447.441406 272.40625 447.441406 330 "/>
</clipPath>
<clipPath id="clip9">
  <path d="M 232 225 L 448 225 L 448 435 L 232 435 Z M 232 225 "/>
</clipPath>
<clipPath id="clip10">
  <path d="M 447.441406 330 C 447.441406 387.59375 399.335938 434.28125 340 434.28125 C 280.664063 434.28125 232.558594 387.59375 232.558594 330 C 232.558594 272.40625 280.664063 225.71875 340 225.71875 C 399.335938 225.71875 447.441406 272.40625 447.441406 330 "/>
</clipPath>
</defs>
<g id="surface1">
<rect x="0" y="0" width="680" height="660" style="fill:rgb(26.865672%,61.19403%,11.940299%);fill-opacity:1;stroke:none;"/>
<path style=" stroke:none;fill-rule:nonzero;fill:rgb(100%,0%,86.569921%);fill-opacity:0.7;" d="M 447.441406 330 C 447.441406 387.59375 399.335938 434.28125 340 434.28125 C 280.664063 434.28125 232.558594 387.59375 232.558594 330 C 232.558594 272.40625 280.664063 225.71875 340 225.71875 C 399.335938 225.71875 447.441406 272.40625 447.441406 330 "/>
<g clip-path="url(#clip1)" clip-rule="nonzero">
<g clip-path="url(#clip2)" clip-rule="nonzero">
<path style="fill:none;stroke-width:9;stroke-linecap:butt;stroke-linejoin:miter;stroke:rgb(61.19403%,11.940299%,26.865672%);stroke-opacity:1;stroke-miterlimit:10;" d="M 0.408335 0.333333 C 0.408335 0.374757 0.374753 0.408333 0.333335 0.408333 C 0.291912 0.408333 0.258335 0.374757 0.258335 0.333333 C 0.258335 0.291909 0.291912 0.258333 0.333335 0.258333 C 0.374753 0.258333 0.408335 0.291909 0.408335 0.333333 " transform="matrix(680,0,0,660,0,0)"/>
</g>
</g>
<g clip-path="url(#clip3)" clip-rule="nonzero">
<g clip-path="url(#clip4)" clip-rule="nonzero">
<path style=" stroke:none;fill-rule:nonzero;fill:rgb(30%,40%,0%);fill-opacity:0.3;" d="M 277.667969 220 C 277.667969 247.339844 254.832031 269.5 226.667969 269.5 C 198.5 269.5 175.667969 247.339844 175.667969 220 C 175.667969 192.660156 198.5 170.5 226.667969 170.5 C 254.832031 170.5 277.667969 192.660156 277.667969 220 "/>
</g>
</g>
<g clip-path="url(#clip5)" clip-rule="nonzero">
<g clip-path="url(#clip6)" clip-rule="nonzero">
<path style="fill:none;stroke-width:9;stroke-linecap:butt;stroke-linejoin:miter;stroke:rgb(61.19403%,11.940299%,26.865672%);stroke-opacity:1;stroke-miterlimit:10;" d="M 0.762667 0.666667 C 0.762667 0.719685 0.719686 0.762666 0.666665 0.762666 C 0.613649 0.762666 0.570669 0.719685 0.570669 0.666667 C 0.570669 0.613648 0.613649 0.570668 0.666665 0.570668 C 0.719686 0.570668 0.762667 0.613648 0.762667 0.666667 " transform="matrix(680,0,0,660,0,0)"/>
</g>
</g>
<g clip-path="url(#clip7)" clip-rule="nonzero">
<g clip-path="url(#clip8)" clip-rule="nonzero">
<path style=" stroke:none;fill-rule:nonzero;fill:rgb(30%,40%,0%);fill-opacity:0.3;" d="M 518.613281 440 C 518.613281 474.992188 489.386719 503.359375 453.332031 503.359375 C 417.28125 503.359375 388.054688 474.992188 388.054688 440 C 388.054688 405.007813 417.28125 376.640625 453.332031 376.640625 C 489.386719 376.640625 518.613281 405.007813 518.613281 440 "/>
</g>
</g>
<g clip-path="url(#clip9)" clip-rule="nonzero">
<g clip-path="url(#clip10)" clip-rule="nonzero">
<rect x="0" y="0" width="680" height="660" style="fill:rgb(30%,40%,0%);fill-opacity:0.3;stroke:none;"/>
</g>
</g>
<path style="fill:none;stroke-width:0.001;stroke-linecap:butt;stroke-linejoin:miter;stroke:rgb(0%,10%,0%);stroke-opacity:1;stroke-miterlimit:10;" d="M 0.729728 0.655658 L 1.297679 0.655658 " transform="matrix(680,0,0,660,0,0)"/>
<path style="fill:none;stroke-width:0.001;stroke-linecap:butt;stroke-linejoin:miter;stroke:rgb(0%,10%,0%);stroke-opacity:1;stroke-miterlimit:10;" d="M 0.729728 0.655658 L 1.222685 0.702024 " transform="matrix(680,0,0,660,0,0)"/>
<path style="fill:none;stroke-width:0.001;stroke-linecap:butt;stroke-linejoin:miter;stroke:rgb(0%,10%,0%);stroke-opacity:1;stroke-miterlimit:10;" d="M 0.729728 0.655658 L 1.526729 0.806925 " transform="matrix(680,0,0,660,0,0)"/>
<path style="fill:none;stroke-width:0.001;stroke-linecap:butt;stroke-linejoin:miter;stroke:rgb(0%,10%,0%);stroke-opacity:1;stroke-miterlimit:10;" d="M 0.729728 0.655658 L 1.820525 0.970904 " transform="matrix(680,0,0,660,0,0)"/>
<path style="fill:none;stroke-width:0.001;stroke-linecap:butt;stroke-linejoin:miter;stroke:rgb(0%,10%,0%);stroke-opacity:1;stroke-miterlimit:10;" d="M 0.729728 0.655658 L 1.494054 0.956623 " transform="matrix(680,0,0,660,0,0)"/>
<path style="fill:none;stroke-width:0.001;stroke-linecap:butt;stroke-linejoin:miter;stroke:rgb(0%,10%,0%);stroke-opacity:1;stroke-miterlimit:10;" d="M 0.729728 0.655658 L 1.997943 1.298106 " transform="matrix(680,0,0,660,0,0)"/>
<path style="fill:none;stroke-width:0.001;stroke-linecap:butt;stroke-linejoin:miter;stroke:rgb(0%,10%,0%);stroke-opacity:1;stroke-miterlimit:10;" d="M 0.729728 0.655658 L 2.717636 1.909393 " transform="matrix(680,0,0,660,0,0)"/>
<path style="fill:none;stroke-width:0.001;stroke-linecap:butt;stroke-linejoin:miter;stroke:rgb(0%,10%,0%);stroke-opacity:1;stroke-miterlimit:10;" d="M 0.729728 0.655658 L 1.190481 1.010642 " transform="matrix(680,0,0,660,0,0)"/>
<path style="fill:none;stroke-width:0.001;stroke-linecap:butt;stroke-linejoin:miter;stroke:rgb(0%,10%,0%);stroke-opacity:1;stroke-miterlimit:10;" d="M 0.729728 0.655658 L 1.488821 1.363157 " transform="matrix(680,0,0,660,0,0)"/>
<path style="fill:none;stroke-width:0.001;stroke-linecap:butt;stroke-linejoin:miter;stroke:rgb(0%,10%,0%);stroke-opacity:1;stroke-miterlimit:10;" d="M 0.729728 0.655658 L 1.029808 0.993152 " transform="matrix(680,0,0,660,0,0)"/>
<path style="fill:none;stroke-width:0.001;stroke-linecap:butt;stroke-linejoin:miter;stroke:rgb(0%,10%,0%);stroke-opacity:1;stroke-miterlimit:10;" d="M 0.729728 0.655658 L 1.201672 1.29887 " transform="matrix(680,0,0,660,0,0)"/>
<path style="fill:none;stroke-width:0.001;stroke-linecap:butt;stroke-linejoin:miter;stroke:rgb(0%,10%,0%);stroke-opacity:1;stroke-miterlimit:10;" d="M 0.729728 0.655658 L 2.208778 3.127409 " transform="matrix(680,0,0,660,0,0)"/>
<path style="fill:none;stroke-width:0.001;stroke-linecap:butt;stroke-linejoin:miter;stroke:rgb(0%,10%,0%);stroke-opacity:1;stroke-miterlimit:10;" d="M 0.729728 0.655658 L 1.026867 1.277995 " transform="matrix(680,0,0,660,0,0)"/>
<path style="fill:none;stroke-width:0.001;stroke-linecap:butt;stroke-linejoin:miter;stroke:rgb(0%,10%,0%);stroke-opacity:1;stroke-miterlimit:10;" d="M 0.729728 0.655658 L 0.893899 1.103078 " transform="matrix(680,0,0,660,0,0)"/>
<path style="fill:none;stroke-width:0.001;stroke-linecap:butt;stroke-linejoin:miter;stroke:rgb(0%,10%,0%);stroke-opacity:1;stroke-miterlimit:10;" d="M 0.729728 0.655658 L 0.885599 1.246591 " transform="matrix(680,0,0,660,0,0)"/>
<path style="fill:none;stroke-width:0.001;stroke-linecap:butt;stroke-linejoin:miter;stroke:rgb(0%,10%,0%);stroke-opacity:1;stroke-miterlimit:10;" d="M 0.729728 0.655658 L 0.977102 2.149438 " transform="matrix(680,0,0,660,0,0)"/>
<path style="fill:none;stroke-width:0.001;stroke-linecap:butt;stroke-linejoin:miter;stroke:rgb(0%,10%,0%);stroke-opacity:1;stroke-miterlimit:10;" d="M 0.729728 0.655658 L 0.764878 1.154581 " transform="matrix(680,0,0,660,0,0)"/>
<path style="fill:none;stroke-width:0.001;stroke-linecap:butt;stroke-linejoin:miter;stroke:rgb(0%,10%,0%);stroke-opacity:1;stroke-miterlimit:10;" d="M 0.729728 0.655658 L 0.717871 1.161387 " transform="matrix(680,0,0,660,0,0)"/>
<path style="fill:none;stroke-width:0.001;stroke-linecap:butt;stroke-linejoin:miter;stroke:rgb(0%,10%,0%);stroke-opacity:1;stroke-miterlimit:10;" d="M 0.729728 0.655658 L 0.651482 1.320129 " transform="matrix(680,0,0,660,0,0)"/>
<path style="fill:none;stroke-width:0.001;stroke-linecap:butt;stroke-linejoin:miter;stroke:rgb(0%,10%,0%);stroke-opacity:1;stroke-miterlimit:10;" d="M 0.729728 0.655658 L 0.630572 1.118614 " transform="matrix(680,0,0,660,0,0)"/>
<path style="fill:none;stroke-width:0.001;stroke-linecap:butt;stroke-linejoin:miter;stroke:rgb(0%,10%,0%);stroke-opacity:1;stroke-miterlimit:10;" d="M 0.729728 0.655658 L 0.511483 1.34942 " transform="matrix(680,0,0,660,0,0)"/>
<path style="fill:none;stroke-width:0.001;stroke-linecap:butt;stroke-linejoin:miter;stroke:rgb(0%,10%,0%);stroke-opacity:1;stroke-miterlimit:10;" d="M 0.729728 0.655658 L -0.368164 3.262885 " transform="matrix(680,0,0,660,0,0)"/>
<path style="fill:none;stroke-width:0.001;stroke-linecap:butt;stroke-linejoin:miter;stroke:rgb(0%,10%,0%);stroke-opacity:1;stroke-miterlimit:10;" d="M 0.729728 0.655658 L 0.0399184 1.941673 " transform="matrix(680,0,0,660,0,0)"/>
<path style="fill:none;stroke-width:0.001;stroke-linecap:butt;stroke-linejoin:miter;stroke:rgb(0%,10%,0%);stroke-opacity:1;stroke-miterlimit:10;" d="M 0.729728 0.655658 L 0.485978 1.022786 " transform="matrix(680,0,0,660,0,0)"/>
<path style="fill:none;stroke-width:0.001;stroke-linecap:butt;stroke-linejoin:miter;stroke:rgb(0%,10%,0%);stroke-opacity:1;stroke-miterlimit:10;" d="M 0.729728 0.655658 L 0.410989 1.049905 " transform="matrix(680,0,0,660,0,0)"/>
<path style="fill:none;stroke-width:0.001;stroke-linecap:butt;stroke-linejoin:miter;stroke:rgb(0%,10%,0%);stroke-opacity:1;stroke-miterlimit:10;" d="M 0.729728 0.655658 L 0.327838 1.067087 " transform="matrix(680,0,0,660,0,0)"/>
<path style="fill:none;stroke-width:0.001;stroke-linecap:butt;stroke-linejoin:miter;stroke:rgb(0%,10%,0%);stroke-opacity:1;stroke-miterlimit:10;" d="M 0.729728 0.655658 L 0.287408 1.030759 " transform="matrix(680,0,0,660,0,0)"/>
<path style="fill:none;stroke-width:0.001;stroke-linecap:butt;stroke-linejoin:miter;stroke:rgb(0%,10%,0%);stroke-opacity:1;stroke-miterlimit:10;" d="M 0.729728 0.655658 L 0.312259 0.947165 " transform="matrix(680,0,0,660,0,0)"/>
<path style="fill:none;stroke-width:0.001;stroke-linecap:butt;stroke-linejoin:miter;stroke:rgb(0%,10%,0%);stroke-opacity:1;stroke-miterlimit:10;" d="M 0.729728 0.655658 L 0.205773 0.952728 " transform="matrix(680,0,0,660,0,0)"/>
<path style="fill:none;stroke-width:0.001;stroke-linecap:butt;stroke-linejoin:miter;stroke:rgb(0%,10%,0%);stroke-opacity:1;stroke-miterlimit:10;" d="M 0.729728 0.655658 L 0.227493 0.881155 " transform="matrix(680,0,0,660,0,0)"/>
<path style="fill:none;stroke-width:0.001;stroke-linecap:butt;stroke-linejoin:miter;stroke:rgb(0%,10%,0%);stroke-opacity:1;stroke-miterlimit:10;" d="M 0.729728 0.655658 L 0.159496 0.849852 " transform="matrix(680,0,0,660,0,0)"/>
<path style="fill:none;stroke-width:0.001;stroke-linecap:butt;stroke-linejoin:miter;stroke:rgb(0%,10%,0%);stroke-opacity:1;stroke-miterlimit:10;" d="M 0.729728 0.655658 L 0.0446117 0.819295 " transform="matrix(680,0,0,660,0,0)"/>
<path style="fill:none;stroke-width:0.001;stroke-linecap:butt;stroke-linejoin:miter;stroke:rgb(0%,10%,0%);stroke-opacity:1;stroke-miterlimit:10;" d="M 0.729728 0.655658 L 0.120175 0.741974 " transform="matrix(680,0,0,660,0,0)"/>
<path style="fill:none;stroke-width:0.001;stroke-linecap:butt;stroke-linejoin:miter;stroke:rgb(0%,10%,0%);stroke-opacity:1;stroke-miterlimit:10;" d="M 0.729728 0.655658 L -0.0913201 0.694188 " transform="matrix(680,0,0,660,0,0)"/>
<path style="fill:none;stroke-width:0.001;stroke-linecap:butt;stroke-linejoin:miter;stroke:rgb(0%,10%,0%);stroke-opacity:1;stroke-miterlimit:10;" d="M 0.729728 0.655658 L 0.238356 0.632605 " transform="matrix(680,0,0,660,0,0)"/>
<path style="fill:none;stroke-width:0.001;stroke-linecap:butt;stroke-linejoin:miter;stroke:rgb(0%,10%,0%);stroke-opacity:1;stroke-miterlimit:10;" d="M 0.729728 0.655658 L 0.25521 0.588465 " transform="matrix(680,0,0,660,0,0)"/>
<path style="fill:none;stroke-width:0.001;stroke-linecap:butt;stroke-linejoin:miter;stroke:rgb(0%,10%,0%);stroke-opacity:1;stroke-miterlimit:10;" d="M 0.729728 0.655658 L 0.269342 0.545703 " transform="matrix(680,0,0,660,0,0)"/>
<path style="fill:none;stroke-width:0.001;stroke-linecap:butt;stroke-linejoin:miter;stroke:rgb(0%,10%,0%);stroke-opacity:1;stroke-miterlimit:10;" d="M 0.729728 0.655658 L 0.16096 0.461967 " transform="matrix(680,0,0,660,0,0)"/>
<path style="fill:none;stroke-width:0.001;stroke-linecap:butt;stroke-linejoin:miter;stroke:rgb(0%,10%,0%);stroke-opacity:1;stroke-miterlimit:10;" d="M 0.729728 0.655658 L -4.542957 -1.711665 " transform="matrix(680,0,0,660,0,0)"/>
<path style="fill:none;stroke-width:0.001;stroke-linecap:butt;stroke-linejoin:miter;stroke:rgb(0%,10%,0%);stroke-opacity:1;stroke-miterlimit:10;" d="M 0.729728 0.655658 L -1.188436 -0.431895 " transform="matrix(680,0,0,660,0,0)"/>
<path style="fill:none;stroke-width:0.001;stroke-linecap:butt;stroke-linejoin:miter;stroke:rgb(0%,10%,0%);stroke-opacity:1;stroke-miterlimit:10;" d="M 0.729728 0.655658 L 0.257985 0.326255 " transform="matrix(680,0,0,660,0,0)"/>
<path style="fill:none;stroke-width:0.001;stroke-linecap:butt;stroke-linejoin:miter;stroke:rgb(0%,10%,0%);stroke-opacity:1;stroke-miterlimit:10;" d="M 0.729728 0.655658 L 0.39672 0.373266 " transform="matrix(680,0,0,660,0,0)"/>
<path style="fill:none;stroke-width:0.001;stroke-linecap:butt;stroke-linejoin:miter;stroke:rgb(0%,10%,0%);stroke-opacity:1;stroke-miterlimit:10;" d="M 0.729728 0.655658 L 0.380331 0.29797 " transform="matrix(680,0,0,660,0,0)"/>
<path style="fill:none;stroke-width:0.001;stroke-linecap:butt;stroke-linejoin:miter;stroke:rgb(0%,10%,0%);stroke-opacity:1;stroke-miterlimit:10;" d="M 0.729728 0.655658 L 0.32936 0.160458 " transform="matrix(680,0,0,660,0,0)"/>
<path style="fill:none;stroke-width:0.001;stroke-linecap:butt;stroke-linejoin:miter;stroke:rgb(0%,10%,0%);stroke-opacity:1;stroke-miterlimit:10;" d="M 0.729728 0.655658 L 0.437098 0.214921 " transform="matrix(680,0,0,660,0,0)"/>
<path style="fill:none;stroke-width:0.001;stroke-linecap:butt;stroke-linejoin:miter;stroke:rgb(0%,10%,0%);stroke-opacity:1;stroke-miterlimit:10;" d="M 0.729728 0.655658 L 0.216406 -0.301326 " transform="matrix(680,0,0,660,0,0)"/>
<path style="fill:none;stroke-width:0.001;stroke-linecap:butt;stroke-linejoin:miter;stroke:rgb(0%,10%,0%);stroke-opacity:1;stroke-miterlimit:10;" d="M 0.729728 0.655658 L 0.443193 -0.0247869 " transform="matrix(680,0,0,660,0,0)"/>
<path style="fill:none;stroke-width:0.001;stroke-linecap:butt;stroke-linejoin:miter;stroke:rgb(0%,10%,0%);stroke-opacity:1;stroke-miterlimit:10;" d="M 0.729728 0.655658 L 0.42473 -0.313879 " transform="matrix(680,0,0,660,0,0)"/>
<path style="fill:none;stroke-width:0.001;stroke-linecap:butt;stroke-linejoin:miter;stroke:rgb(0%,10%,0%);stroke-opacity:1;stroke-miterlimit:10;" d="M 0.729728 0.655658 L 0.625948 0.171129 " transform="matrix(680,0,0,660,0,0)"/>
<path style="fill:none;stroke-width:0.001;stroke-linecap:butt;stroke-linejoin:miter;stroke:rgb(0%,10%,0%);stroke-opacity:1;stroke-miterlimit:10;" d="M 0.729728 0.655658 L 0.617492 -0.297396 " transform="matrix(680,0,0,660,0,0)"/>
<path style="fill:none;stroke-width:0.001;stroke-linecap:butt;stroke-linejoin:miter;stroke:rgb(0%,10%,0%);stroke-opacity:1;stroke-miterlimit:10;" d="M 0.729728 0.655658 L 0.711966 -0.10187 " transform="matrix(680,0,0,660,0,0)"/>
<path style="fill:none;stroke-width:0.001;stroke-linecap:butt;stroke-linejoin:miter;stroke:rgb(0%,10%,0%);stroke-opacity:1;stroke-miterlimit:10;" d="M 0.729728 0.655658 L 0.76115 0.209641 " transform="matrix(680,0,0,660,0,0)"/>
<path style="fill:none;stroke-width:0.001;stroke-linecap:butt;stroke-linejoin:miter;stroke:rgb(0%,10%,0%);stroke-opacity:1;stroke-miterlimit:10;" d="M 0.729728 0.655658 L 11.154676 -62.295987 " transform="matrix(680,0,0,660,0,0)"/>
<path style="fill:none;stroke-width:0.001;stroke-linecap:butt;stroke-linejoin:miter;stroke:rgb(0%,10%,0%);stroke-opacity:1;stroke-miterlimit:10;" d="M 0.729728 0.655658 L 0.847702 0.208393 " transform="matrix(680,0,0,660,0,0)"/>
<path style="fill:none;stroke-width:0.001;stroke-linecap:butt;stroke-linejoin:miter;stroke:rgb(0%,10%,0%);stroke-opacity:1;stroke-miterlimit:10;" d="M 0.729728 0.655658 L 0.894503 0.206587 " transform="matrix(680,0,0,660,0,0)"/>
<path style="fill:none;stroke-width:0.001;stroke-linecap:butt;stroke-linejoin:miter;stroke:rgb(0%,10%,0%);stroke-opacity:1;stroke-miterlimit:10;" d="M 0.729728 0.655658 L 0.997806 0.0941939 " transform="matrix(680,0,0,660,0,0)"/>
<path style="fill:none;stroke-width:0.001;stroke-linecap:butt;stroke-linejoin:miter;stroke:rgb(0%,10%,0%);stroke-opacity:1;stroke-miterlimit:10;" d="M 0.729728 0.655658 L 0.950781 0.286245 " transform="matrix(680,0,0,660,0,0)"/>
<path style="fill:none;stroke-width:0.001;stroke-linecap:butt;stroke-linejoin:miter;stroke:rgb(0%,10%,0%);stroke-opacity:1;stroke-miterlimit:10;" d="M 0.729728 0.655658 L 1.016021 0.265477 " transform="matrix(680,0,0,660,0,0)"/>
<path style="fill:none;stroke-width:0.001;stroke-linecap:butt;stroke-linejoin:miter;stroke:rgb(0%,10%,0%);stroke-opacity:1;stroke-miterlimit:10;" d="M 0.729728 0.655658 L 2.696806 -1.556658 " transform="matrix(680,0,0,660,0,0)"/>
<path style="fill:none;stroke-width:0.001;stroke-linecap:butt;stroke-linejoin:miter;stroke:rgb(0%,10%,0%);stroke-opacity:1;stroke-miterlimit:10;" d="M 0.729728 0.655658 L 2.157416 -0.674982 " transform="matrix(680,0,0,660,0,0)"/>
<path style="fill:none;stroke-width:0.001;stroke-linecap:butt;stroke-linejoin:miter;stroke:rgb(0%,10%,0%);stroke-opacity:1;stroke-miterlimit:10;" d="M 0.729728 0.655658 L 1.080894 0.385115 " transform="matrix(680,0,0,660,0,0)"/>
<path style="fill:none;stroke-width:0.001;stroke-linecap:butt;stroke-linejoin:miter;stroke:rgb(0%,10%,0%);stroke-opacity:1;stroke-miterlimit:10;" d="M 0.729728 0.655658 L 1.782801 -0.00849313 " transform="matrix(680,0,0,660,0,0)"/>
<path style="fill:none;stroke-width:0.001;stroke-linecap:butt;stroke-linejoin:miter;stroke:rgb(0%,10%,0%);stroke-opacity:1;stroke-miterlimit:10;" d="M 0.729728 0.655658 L 2.045209 -0.0107304 " transform="matrix(680,0,0,660,0,0)"/>
<path style="fill:none;stroke-width:0.001;stroke-linecap:butt;stroke-linejoin:miter;stroke:rgb(0%,10%,0%);stroke-opacity:1;stroke-miterlimit:10;" d="M 0.729728 0.655658 L 1.22419 0.460961 " transform="matrix(680,0,0,660,0,0)"/>
<path style="fill:none;stroke-width:0.001;stroke-linecap:butt;stroke-linejoin:miter;stroke:rgb(0%,10%,0%);stroke-opacity:1;stroke-miterlimit:10;" d="M 0.729728 0.655658 L 4.11501 -0.322692 " transform="matrix(680,0,0,660,0,0)"/>
<path style="fill:none;stroke-width:0.001;stroke-linecap:butt;stroke-linejoin:miter;stroke:rgb(0%,10%,0%);stroke-opacity:1;stroke-miterlimit:10;" d="M 0.729728 0.655658 L 1.159128 0.574165 " transform="matrix(680,0,0,660,0,0)"/>
<path style="fill:none;stroke-width:0.001;stroke-linecap:butt;stroke-linejoin:miter;stroke:rgb(0%,10%,0%);stroke-opacity:1;stroke-miterlimit:10;" d="M 0.729728 0.655658 L 1.906451 0.544981 " transform="matrix(680,0,0,660,0,0)"/>
<path style="fill:none;stroke-width:2.5;stroke-linecap:butt;stroke-linejoin:miter;stroke:rgb(61.19403%,11.940299%,26.865672%);stroke-opacity:0.5;stroke-miterlimit:10;" d="M 0 10 C 0.333359 10.333359 0.533359 10.533359 49.5 39.5 " transform="matrix(50,0,0,50,0,0)"/>
<path style="fill:none;stroke-width:1.5;stroke-linecap:butt;stroke-linejoin:miter;stroke:rgb(61.19403%,11.940299%,26.865672%);stroke-opacity:0.5;stroke-miterlimit:10;" d="M 1.333359 10.333359 L 1.333359 10.333359 " transform="matrix(50,0,0,50,0,0)"/>
<path style="fill:none;stroke-width:1.5;stroke-linecap:butt;stroke-linejoin:miter;stroke:rgb(61.19403%,11.940299%,26.865672%);stroke-opacity:0.5;stroke-miterlimit:10;" d="M 2.333359 10.333359 L 47.666641 47.666641 " transform="matrix(50,0,0,50,0,0)"/>
<path style="fill:none;stroke-width:1.5;stroke-linecap:butt;stroke-linejoin:miter;stroke:rgb(61.19403%,11.940299%,26.865672%);stroke-opacity:0.5;stroke-miterlimit:10;" d="M 3 10 C 4 11 4.333359 11.333359 46.5 39.5 " transform="matrix(50,0,0,50,0,0)"/>
<path style="fill:none;stroke-width:1.5;stroke-linecap:butt;stroke-linejoin:miter;stroke:rgb(61.19403%,11.940299%,26.865672%);stroke-opacity:0.5;stroke-miterlimit:10;" d="M 4 10 C 5 11 5.333359 11.333359 45.5 39.5 " transform="matrix(50,0,0,50,0,0)"/>
<path style="fill:none;stroke-width:1.5;stroke-linecap:butt;stroke-linejoin:miter;stroke:rgb(61.19403%,11.940299%,26.865672%);stroke-opacity:0.5;stroke-miterlimit:10;" d="M 5.333359 10.333359 L 44.666641 44.666641 " transform="matrix(50,0,0,50,0,0)"/>
<path style="fill:none;stroke-width:1;stroke-linecap:butt;stroke-linejoin:miter;stroke:rgb(61.19403%,11.940299%,26.865672%);stroke-opacity:0.5;stroke-miterlimit:10;" d="M 6 10 C 7 11 7.5 11.5 43 39 " transform="matrix(50,0,0,50,0,0)"/>
<path style="fill:none;stroke-width:1;stroke-linecap:butt;stroke-linejoin:miter;stroke:rgb(61.19403%,11.940299%,26.865672%);stroke-opacity:0.5;stroke-miterlimit:10;" d="M 7.5 10.5 L 42.5 42.5 " transform="matrix(50,0,0,50,0,0)"/>
<path style="fill:none;stroke-width:1;stroke-linecap:butt;stroke-linejoin:miter;stroke:rgb(61.19403%,11.940299%,26.865672%);stroke-opacity:0.5;stroke-miterlimit:10;" d="M 8 10 C 9 11 9.5 11.5 41 39 " transform="matrix(50,0,0,50,0,0)"/>
<path style="fill:none;stroke-width:1;stroke-linecap:butt;stroke-linejoin:miter;stroke:rgb(61.19403%,11.940299%,26.865672%);stroke-opacity:0.5;stroke-miterlimit:10;" d="M 9 10 C 10 11 10.5 11.5 40 39 " transform="matrix(50,0,0,50,0,0)"/>
<path style="fill:none;stroke-width:1;stroke-linecap:butt;stroke-linejoin:miter;stroke:rgb(61.19403%,11.940299%,26.865672%);stroke-opacity:0.5;stroke-miterlimit:10;" d="M 10.5 10.5 L 39 39 " transform="matrix(50,0,0,50,0,0)"/>
<path style="fill:none;stroke-width:1;stroke-linecap:butt;stroke-linejoin:miter;stroke:rgb(61.19403%,11.940299%,26.865672%);stroke-opacity:0.5;stroke-miterlimit:10;" d="M 11.5 10.5 L 38.5 38.5 " transform="matrix(50,0,0,50,0,0)"/>
<path style="fill:none;stroke-width:1;stroke-linecap:butt;stroke-linejoin:miter;stroke:rgb(61.19403%,11.940299%,26.865672%);stroke-opacity:0.5;stroke-miterlimit:10;" d="M 12.5 10.5 L 37.5 37.5 " transform="matrix(50,0,0,50,0,0)"/>
<path style="fill:none;stroke-width:1;stroke-linecap:butt;stroke-linejoin:miter;stroke:rgb(61.19403%,11.940299%,26.865672%);stroke-opacity:0.5;stroke-miterlimit:10;" d="M 13 10 C 14 11 14.5 11.5 36 39 " transform="matrix(50,0,0,50,0,0)"/>
<path style="fill:none;stroke-width:1;stroke-linecap:butt;stroke-linejoin:miter;stroke:rgb(61.19403%,11.940299%,26.865672%);stroke-opacity:0.5;stroke-miterlimit:10;" d="M 14.5 10.5 L 35.5 35.5 " transform="matrix(50,0,0,50,0,0)"/>
<path style="fill:none;stroke-width:1;stroke-linecap:butt;stroke-linejoin:miter;stroke:rgb(61.19403%,11.940299%,26.865672%);stroke-opacity:0.5;stroke-miterlimit:10;" d="M 15 10 C 16 11 16.5 11.5 34 39 " transform="matrix(50,0,0,50,0,0)"/>
<path style="fill:none;stroke-width:1;stroke-linecap:butt;stroke-linejoin:miter;stroke:rgb(61.19403%,11.940299%,26.865672%);stroke-opacity:0.5;stroke-miterlimit:10;" d="M 16.5 10.5 L 33.5 33.5 " transform="matrix(50,0,0,50,0,0)"/>
<path style="fill:none;stroke-width:1;stroke-linecap:butt;stroke-linejoin:miter;stroke:rgb(61.19403%,11.940299%,26.865672%);stroke-opacity:0.5;stroke-miterlimit:10;" d="M 17.5 10.5 L 32.5 32.5 " transform="matrix(50,0,0,50,0,0)"/>
<path style="fill:none;stroke-width:1;stroke-linecap:butt;stroke-linejoin:miter;stroke:rgb(61.19403%,11.940299%,26.865672%);stroke-opacity:0.5;stroke-miterlimit:10;" d="M 19.5 10.5 L 30.5 30.5 " transform="matrix(50,0,0,50,0,0)"/>
<path style="fill:none;stroke-width:1;stroke-linecap:butt;stroke-linejoin:miter;stroke:rgb(61.19403%,11.940299%,26.865672%);stroke-opacity:0.5;stroke-miterlimit:10;" d="M 20.5 10.5 L 29.5 29.5 " transform="matrix(50,0,0,50,0,0)"/>
<path style="fill:none;stroke-width:1;stroke-linecap:butt;stroke-linejoin:miter;stroke:rgb(61.19403%,11.940299%,26.865672%);stroke-opacity:0.5;stroke-miterlimit:10;" d="M 21 10 C 22 11 22.5 11.5 28 39 " transform="matrix(50,0,0,50,0,0)"/>
<path style="fill:none;stroke-width:0.5;stroke-linecap:butt;stroke-linejoin:miter;stroke:rgb(61.19403%,11.940299%,26.865672%);stroke-opacity:0.5;stroke-miterlimit:10;" d="M 34 11 L 16 16 " transform="matrix(50,0,0,50,0,0)"/>
<path style="fill:none;stroke-width:0.5;stroke-linecap:butt;stroke-linejoin:miter;stroke:rgb(61.19403%,11.940299%,26.865672%);stroke-opacity:0.5;stroke-miterlimit:10;" d="M 35 11 L 15 15 " transform="matrix(50,0,0,50,0,0)"/>
<path style="fill:none;stroke-width:0.5;stroke-linecap:butt;stroke-linejoin:miter;stroke:rgb(61.19403%,11.940299%,26.865672%);stroke-opacity:0.5;stroke-miterlimit:10;" d="M 36 11 L 14 14 " transform="matrix(50,0,0,50,0,0)"/>
<path style="fill:none;stroke-width:0.5;stroke-linecap:butt;stroke-linejoin:miter;stroke:rgb(61.19403%,11.940299%,26.865672%);stroke-opacity:0.5;stroke-miterlimit:10;" d="M 37 11 L 13 13 " transform="matrix(50,0,0,50,0,0)"/>
<path style="fill:none;stroke-width:0.5;stroke-linecap:butt;stroke-linejoin:miter;stroke:rgb(61.19403%,11.940299%,26.865672%);stroke-opacity:0.5;stroke-miterlimit:10;" d="M 41 11 L 9 9 " transform="matrix(50,0,0,50,0,0)"/>
<path style="fill:none;stroke-width:0.5;stroke-linecap:butt;stroke-linejoin:miter;stroke:rgb(61.19403%,11.940299%,26.865672%);stroke-opacity:0.5;stroke-miterlimit:10;" d="M 42 11 L 8 8 " transform="matrix(50,0,0,50,0,0)"/>
<path style="fill:none;stroke-width:0.5;stroke-linecap:butt;stroke-linejoin:miter;stroke:rgb(61.19403%,11.940299%,26.865672%);stroke-opacity:0.5;stroke-miterlimit:10;" d="M 43 11 L 7 7 " transform="matrix(50,0,0,50,0,0)"/>
<path style="fill:none;stroke-width:0.5;stroke-linecap:butt;stroke-linejoin:miter;stroke:rgb(61.19403%,11.940299%,26.865672%);stroke-opacity:0.5;stroke-miterlimit:10;" d="M 44 11 L 6 6 " transform="matrix(50,0,0,50,0,0)"/>
<path style="fill:none;stroke-width:0.5;stroke-linecap:butt;stroke-linejoin:miter;stroke:rgb(61.19403%,11.940299%,26.865672%);stroke-opacity:0.5;stroke-miterlimit:10;" d="M 47 11 L 3 3 " transform="matrix(50,0,0,50,0,0)"/>
<path style="fill:none;stroke-width:0.5;stroke-linecap:butt;stroke-linejoin:miter;stroke:rgb(61.19403%,11.940299%,26.865672%);stroke-opacity:0.5;stroke-miterlimit:10;" d="M 48 11 L 2 2 " transform="matrix(50,0,0,50,0,0)"/>
<path style="fill:none;stroke-width:0.5;stroke-linecap:butt;stroke-linejoin:miter;stroke:rgb(61.19403%,11.940299%,26.865672%);stroke-opacity:0.5;stroke-miterlimit:10;" d="M 49 11 L 1 1 " transform="matrix(50,0,0,50,0,0)"/>
<path style="fill:none;stroke-width:0.5;stroke-linecap:butt;stroke-linejoin:miter;stroke:rgb(61.19403%,11.940299%,26.865672%);stroke-opacity:0.5;stroke-miterlimit:10;" d="M 50 11 L 0 0 " transform="matrix(50,0,0,50,0,0)"/>
</g>
</svg>
