<?xml version="1.0" encoding="UTF-8"?>
<svg xmlns="http://www.w3.org/2000/svg" xmlns:xlink="http://www.w3.org/1999/xlink" width="680pt" height="660pt" viewBox="0 0 680 660" version="1.1">
<g id="surface1">
<rect x="0" y="0" width="680" height="660" style="fill:rgb(26.865672%,61.19403%,11.940299%);fill-opacity:0.5;stroke:none;"/>
<path style="fill:none;stroke-width:0.005;stroke-linecap:butt;stroke-linejoin:miter;stroke:rgb(26.865672%,0%,11.940299%);stroke-opacity:0.6;stroke-miterlimit:10;" d="M 0.407135 0.5 L 0.190441 0.5 " transform="matrix(680,0,0,660,0,0)"/>
<path style="fill:none;stroke-width:0.005;stroke-linecap:butt;stroke-linejoin:miter;stroke:rgb(26.865672%,0%,11.940299%);stroke-opacity:0.6;stroke-miterlimit:10;" d="M 0.663304 0.515501 L 1.044353 0.551663 " transform="matrix(680,0,0,660,0,0)"/>
<path style="fill:none;stroke-width:0.005;stroke-linecap:butt;stroke-linejoin:miter;stroke:rgb(26.865672%,0%,11.940299%);stroke-opacity:0.6;stroke-miterlimit:10;" d="M 0.481382 0.502249 L 0.437948 0.507499 " transform="matrix(680,0,0,660,0,0)"/>
<path style="fill:none;stroke-width:0.005;stroke-linecap:butt;stroke-linejoin:miter;stroke:rgb(26.865672%,0%,11.940299%);stroke-opacity:0.6;stroke-miterlimit:10;" d="M 0.142044 0.580049 L -0.693199 0.766832 " transform="matrix(680,0,0,660,0,0)"/>
<path style="fill:none;stroke-width:0.005;stroke-linecap:butt;stroke-linejoin:miter;stroke:rgb(26.865672%,0%,11.940299%);stroke-opacity:0.6;stroke-miterlimit:10;" d="M -0.0281537 0.62674 L -1.260512 0.922467 " transform="matrix(680,0,0,660,0,0)"/>
<path style="fill:none;stroke-width:0.005;stroke-linecap:butt;stroke-linejoin:miter;stroke:rgb(26.865672%,0%,11.940299%);stroke-opacity:0.6;stroke-miterlimit:10;" d="M 0.623271 0.538915 L 0.910903 0.629711 " transform="matrix(680,0,0,660,0,0)"/>
<path style="fill:none;stroke-width:0.005;stroke-linecap:butt;stroke-linejoin:miter;stroke:rgb(26.865672%,0%,11.940299%);stroke-opacity:0.6;stroke-miterlimit:10;" d="M 0.467618 0.471798 L 0.392055 0.405996 " transform="matrix(680,0,0,660,0,0)"/>
<path style="fill:none;stroke-width:0.005;stroke-linecap:butt;stroke-linejoin:miter;stroke:rgb(26.865672%,0%,11.940299%);stroke-opacity:0.6;stroke-miterlimit:10;" d="M 0.646019 0.542099 L 0.98673 0.640335 " transform="matrix(680,0,0,660,0,0)"/>
<path style="fill:none;stroke-width:0.005;stroke-linecap:butt;stroke-linejoin:miter;stroke:rgb(26.865672%,0%,11.940299%);stroke-opacity:0.6;stroke-miterlimit:10;" d="M 0.397742 0.678344 L 0.159139 1.09449 " transform="matrix(680,0,0,660,0,0)"/>
<path style="fill:none;stroke-width:0.005;stroke-linecap:butt;stroke-linejoin:miter;stroke:rgb(26.865672%,0%,11.940299%);stroke-opacity:0.6;stroke-miterlimit:10;" d="M 0.526631 0.40161 L 0.588775 0.172035 " transform="matrix(680,0,0,660,0,0)"/>
<path style="fill:none;stroke-width:0.005;stroke-linecap:butt;stroke-linejoin:miter;stroke:rgb(26.865672%,0%,11.940299%);stroke-opacity:0.6;stroke-miterlimit:10;" d="M 0.617165 0.556155 L 0.890539 0.68718 " transform="matrix(680,0,0,660,0,0)"/>
<path style="fill:none;stroke-width:0.005;stroke-linecap:butt;stroke-linejoin:miter;stroke:rgb(26.865672%,0%,11.940299%);stroke-opacity:0.6;stroke-miterlimit:10;" d="M 0.719233 0.393223 L 1.230779 0.144087 " transform="matrix(680,0,0,660,0,0)"/>
<path style="fill:none;stroke-width:0.005;stroke-linecap:butt;stroke-linejoin:miter;stroke:rgb(26.865672%,0%,11.940299%);stroke-opacity:0.6;stroke-miterlimit:10;" d="M 0.473644 0.518999 L 0.412155 0.563329 " transform="matrix(680,0,0,660,0,0)"/>
<path style="fill:none;stroke-width:0.005;stroke-linecap:butt;stroke-linejoin:miter;stroke:rgb(26.865672%,0%,11.940299%);stroke-opacity:0.6;stroke-miterlimit:10;" d="M 0.264562 0.981806 L -0.284789 2.106013 " transform="matrix(680,0,0,660,0,0)"/>
<path style="fill:none;stroke-width:0.005;stroke-linecap:butt;stroke-linejoin:miter;stroke:rgb(26.865672%,0%,11.940299%);stroke-opacity:0.6;stroke-miterlimit:10;" d="M 0.533519 0.658292 L 0.61173 1.027634 " transform="matrix(680,0,0,660,0,0)"/>
<path style="fill:none;stroke-width:0.005;stroke-linecap:butt;stroke-linejoin:miter;stroke:rgb(26.865672%,0%,11.940299%);stroke-opacity:0.6;stroke-miterlimit:10;" d="M 0.501338 0.466087 L 0.504458 0.386955 " transform="matrix(680,0,0,660,0,0)"/>
<path style="fill:none;stroke-width:0.005;stroke-linecap:butt;stroke-linejoin:miter;stroke:rgb(26.865672%,0%,11.940299%);stroke-opacity:0.6;stroke-miterlimit:10;" d="M 0.495525 0.440607 L 0.485076 0.30203 " transform="matrix(680,0,0,660,0,0)"/>
<path style="fill:none;stroke-width:0.005;stroke-linecap:butt;stroke-linejoin:miter;stroke:rgb(26.865672%,0%,11.940299%);stroke-opacity:0.6;stroke-miterlimit:10;" d="M 0.641021 0.583558 L 0.970077 0.778527 " transform="matrix(680,0,0,660,0,0)"/>
<path style="fill:none;stroke-width:0.005;stroke-linecap:butt;stroke-linejoin:miter;stroke:rgb(26.865672%,0%,11.940299%);stroke-opacity:0.6;stroke-miterlimit:10;" d="M 0.696134 0.27136 L 1.15378 -0.262133 " transform="matrix(680,0,0,660,0,0)"/>
<path style="fill:none;stroke-width:0.005;stroke-linecap:butt;stroke-linejoin:miter;stroke:rgb(26.865672%,0%,11.940299%);stroke-opacity:0.6;stroke-miterlimit:10;" d="M 0.0585708 0.86994 L -0.971427 1.733126 " transform="matrix(680,0,0,660,0,0)"/>
<path style="fill:none;stroke-width:0.005;stroke-linecap:butt;stroke-linejoin:miter;stroke:rgb(26.865672%,0%,11.940299%);stroke-opacity:0.6;stroke-miterlimit:10;" d="M 0.35594 0.33383 L 0.0198012 -0.0539063 " transform="matrix(680,0,0,660,0,0)"/>
<path style="fill:none;stroke-width:0.005;stroke-linecap:butt;stroke-linejoin:miter;stroke:rgb(26.865672%,0%,11.940299%);stroke-opacity:0.6;stroke-miterlimit:10;" d="M 0.551063 0.65406 L 0.670203 1.013542 " transform="matrix(680,0,0,660,0,0)"/>
<path style="fill:none;stroke-width:0.005;stroke-linecap:butt;stroke-linejoin:miter;stroke:rgb(26.865672%,0%,11.940299%);stroke-opacity:0.6;stroke-miterlimit:10;" d="M 0.487201 0.512743 L 0.457336 0.542472 " transform="matrix(680,0,0,660,0,0)"/>
<path style="fill:none;stroke-width:0.005;stroke-linecap:butt;stroke-linejoin:miter;stroke:rgb(26.865672%,0%,11.940299%);stroke-opacity:0.6;stroke-miterlimit:10;" d="M 0.486242 0.523041 L 0.454148 0.576799 " transform="matrix(680,0,0,660,0,0)"/>
<path style="fill:none;stroke-width:0.005;stroke-linecap:butt;stroke-linejoin:miter;stroke:rgb(26.865672%,0%,11.940299%);stroke-opacity:0.6;stroke-miterlimit:10;" d="M 0.382904 0.563796 L 0.109679 0.71266 " transform="matrix(680,0,0,660,0,0)"/>
<path style="fill:none;stroke-width:0.005;stroke-linecap:butt;stroke-linejoin:miter;stroke:rgb(26.865672%,0%,11.940299%);stroke-opacity:0.6;stroke-miterlimit:10;" d="M -0.00134995 0.910138 L -1.171168 1.867134 " transform="matrix(680,0,0,660,0,0)"/>
<path style="fill:none;stroke-width:0.005;stroke-linecap:butt;stroke-linejoin:miter;stroke:rgb(26.865672%,0%,11.940299%);stroke-opacity:0.6;stroke-miterlimit:10;" d="M 0.505767 0.459629 L 0.519221 0.365442 " transform="matrix(680,0,0,660,0,0)"/>
<path style="fill:none;stroke-width:0.005;stroke-linecap:butt;stroke-linejoin:miter;stroke:rgb(26.865672%,0%,11.940299%);stroke-opacity:0.6;stroke-miterlimit:10;" d="M 0.470611 0.685038 L 0.402028 1.116797 " transform="matrix(680,0,0,660,0,0)"/>
<path style="fill:none;stroke-width:0.005;stroke-linecap:butt;stroke-linejoin:miter;stroke:rgb(26.865672%,0%,11.940299%);stroke-opacity:0.6;stroke-miterlimit:10;" d="M 0.390648 0.575982 L 0.135489 0.753267 " transform="matrix(680,0,0,660,0,0)"/>
<path style="fill:none;stroke-width:0.005;stroke-linecap:butt;stroke-linejoin:miter;stroke:rgb(26.865672%,0%,11.940299%);stroke-opacity:0.6;stroke-miterlimit:10;" d="M 0.299494 0.880623 L -0.168354 1.76875 " transform="matrix(680,0,0,660,0,0)"/>
<path style="fill:none;stroke-width:0.005;stroke-linecap:butt;stroke-linejoin:miter;stroke:rgb(26.865672%,0%,11.940299%);stroke-opacity:0.6;stroke-miterlimit:10;" d="M 0.491142 0.314607 L 0.470479 -0.117969 " transform="matrix(680,0,0,660,0,0)"/>
<path style="fill:none;stroke-width:0.005;stroke-linecap:butt;stroke-linejoin:miter;stroke:rgb(26.865672%,0%,11.940299%);stroke-opacity:0.6;stroke-miterlimit:10;" d="M 0.464809 0.536778 L 0.382698 0.622585 " transform="matrix(680,0,0,660,0,0)"/>
<path style="fill:none;stroke-width:0.005;stroke-linecap:butt;stroke-linejoin:miter;stroke:rgb(26.865672%,0%,11.940299%);stroke-opacity:0.6;stroke-miterlimit:10;" d="M 0.146909 1.044715 L -0.67697 2.315708 " transform="matrix(680,0,0,660,0,0)"/>
<path style="fill:none;stroke-width:0.005;stroke-linecap:butt;stroke-linejoin:miter;stroke:rgb(26.865672%,0%,11.940299%);stroke-opacity:0.6;stroke-miterlimit:10;" d="M 0.493813 0.444537 L 0.479383 0.315122 " transform="matrix(680,0,0,660,0,0)"/>
<path style="fill:none;stroke-width:0.005;stroke-linecap:butt;stroke-linejoin:miter;stroke:rgb(26.865672%,0%,11.940299%);stroke-opacity:0.6;stroke-miterlimit:10;" d="M 0.652671 0.224763 L 1.008915 -0.417454 " transform="matrix(680,0,0,660,0,0)"/>
<path style="fill:none;stroke-width:0.005;stroke-linecap:butt;stroke-linejoin:miter;stroke:rgb(26.865672%,0%,11.940299%);stroke-opacity:0.6;stroke-miterlimit:10;" d="M 0.505635 0.517335 L 0.518779 0.557777 " transform="matrix(680,0,0,660,0,0)"/>
<path style="fill:none;stroke-width:0.005;stroke-linecap:butt;stroke-linejoin:miter;stroke:rgb(26.865672%,0%,11.940299%);stroke-opacity:0.6;stroke-miterlimit:10;" d="M 0.490033 0.522307 L 0.466768 0.574361 " transform="matrix(680,0,0,660,0,0)"/>
<path style="fill:none;stroke-width:0.005;stroke-linecap:butt;stroke-linejoin:miter;stroke:rgb(26.865672%,0%,11.940299%);stroke-opacity:0.6;stroke-miterlimit:10;" d="M 0.618411 0.605333 L 0.894709 0.851107 " transform="matrix(680,0,0,660,0,0)"/>
<path style="fill:none;stroke-width:0.005;stroke-linecap:butt;stroke-linejoin:miter;stroke:rgb(26.865672%,0%,11.940299%);stroke-opacity:0.6;stroke-miterlimit:10;" d="M 0.533111 0.506907 L 0.610375 0.523029 " transform="matrix(680,0,0,660,0,0)"/>
<path style="fill:none;stroke-width:0.005;stroke-linecap:butt;stroke-linejoin:miter;stroke:rgb(26.865672%,0%,11.940299%);stroke-opacity:0.6;stroke-miterlimit:10;" d="M 0.386845 0.90554 L 0.122806 1.851793 " transform="matrix(680,0,0,660,0,0)"/>
<path style="fill:none;stroke-width:0.005;stroke-linecap:butt;stroke-linejoin:miter;stroke:rgb(26.865672%,0%,11.940299%);stroke-opacity:0.6;stroke-miterlimit:10;" d="M 0.511093 0.567371 L 0.536977 0.724574 " transform="matrix(680,0,0,660,0,0)"/>
<path style="fill:none;stroke-width:0.005;stroke-linecap:butt;stroke-linejoin:miter;stroke:rgb(26.865672%,0%,11.940299%);stroke-opacity:0.6;stroke-miterlimit:10;" d="M 0.412667 0.342904 L 0.208892 -0.0236506 " transform="matrix(680,0,0,660,0,0)"/>
<path style="fill:none;stroke-width:0.005;stroke-linecap:butt;stroke-linejoin:miter;stroke:rgb(26.865672%,0%,11.940299%);stroke-opacity:0.6;stroke-miterlimit:10;" d="M 0.40073 0.213619 L 0.169106 -0.454611 " transform="matrix(680,0,0,660,0,0)"/>
<path style="fill:none;stroke-width:0.005;stroke-linecap:butt;stroke-linejoin:miter;stroke:rgb(26.865672%,0%,11.940299%);stroke-opacity:0.6;stroke-miterlimit:10;" d="M 0.659082 0.323532 L 1.030268 -0.0882221 " transform="matrix(680,0,0,660,0,0)"/>
<path style="fill:none;stroke-width:0.005;stroke-linecap:butt;stroke-linejoin:miter;stroke:rgb(26.865672%,0%,11.940299%);stroke-opacity:0.6;stroke-miterlimit:10;" d="M 0.375764 0.589382 L 0.0858743 0.79794 " transform="matrix(680,0,0,660,0,0)"/>
<path style="fill:none;stroke-width:0.005;stroke-linecap:butt;stroke-linejoin:miter;stroke:rgb(26.865672%,0%,11.940299%);stroke-opacity:0.6;stroke-miterlimit:10;" d="M 0.463896 0.349165 L 0.379659 -0.00278764 " transform="matrix(680,0,0,660,0,0)"/>
<path style="fill:none;stroke-width:0.005;stroke-linecap:butt;stroke-linejoin:miter;stroke:rgb(26.865672%,0%,11.940299%);stroke-opacity:0.6;stroke-miterlimit:10;" d="M 0.696835 0.615554 L 1.156112 0.885168 " transform="matrix(680,0,0,660,0,0)"/>
<path style="fill:none;stroke-width:0.005;stroke-linecap:butt;stroke-linejoin:miter;stroke:rgb(26.865672%,0%,11.940299%);stroke-opacity:0.6;stroke-miterlimit:10;" d="M 0.604234 0.588299 L 0.847438 0.79433 " transform="matrix(680,0,0,660,0,0)"/>
<path style="fill:none;stroke-width:0.005;stroke-linecap:butt;stroke-linejoin:miter;stroke:rgb(26.865672%,0%,11.940299%);stroke-opacity:0.6;stroke-miterlimit:10;" d="M 0.474403 0.659801 L 0.414677 1.03267 " transform="matrix(680,0,0,660,0,0)"/>
<path style="fill:none;stroke-width:0.005;stroke-linecap:butt;stroke-linejoin:miter;stroke:rgb(26.865672%,0%,11.940299%);stroke-opacity:0.6;stroke-miterlimit:10;" d="M 0.495784 0.536867 L 0.485949 0.622899 " transform="matrix(680,0,0,660,0,0)"/>
<path style="fill:none;stroke-width:0.005;stroke-linecap:butt;stroke-linejoin:miter;stroke:rgb(26.865672%,0%,11.940299%);stroke-opacity:0.6;stroke-miterlimit:10;" d="M 0.452671 0.777965 L 0.342245 1.426545 " transform="matrix(680,0,0,660,0,0)"/>
<path style="fill:none;stroke-width:0.005;stroke-linecap:butt;stroke-linejoin:miter;stroke:rgb(26.865672%,0%,11.940299%);stroke-opacity:0.6;stroke-miterlimit:10;" d="M 0.52253 0.681244 L 0.575092 1.104143 " transform="matrix(680,0,0,660,0,0)"/>
<path style="fill:none;stroke-width:0.005;stroke-linecap:butt;stroke-linejoin:miter;stroke:rgb(26.865672%,0%,11.940299%);stroke-opacity:0.6;stroke-miterlimit:10;" d="M 0.486644 0.302723 L 0.455492 -0.157588 " transform="matrix(680,0,0,660,0,0)"/>
<path style="fill:none;stroke-width:0.005;stroke-linecap:butt;stroke-linejoin:miter;stroke:rgb(26.865672%,0%,11.940299%);stroke-opacity:0.6;stroke-miterlimit:10;" d="M 0.518015 0.295478 L 0.560047 -0.181729 " transform="matrix(680,0,0,660,0,0)"/>
<path style="fill:none;stroke-width:0.005;stroke-linecap:butt;stroke-linejoin:miter;stroke:rgb(26.865672%,0%,11.940299%);stroke-opacity:0.6;stroke-miterlimit:10;" d="M 0.545152 0.512636 L 0.6505 0.542116 " transform="matrix(680,0,0,660,0,0)"/>
<path style="fill:none;stroke-width:0.005;stroke-linecap:butt;stroke-linejoin:miter;stroke:rgb(26.865672%,0%,11.940299%);stroke-opacity:0.6;stroke-miterlimit:10;" d="M 0.505262 0.652545 L 0.517544 1.008487 " transform="matrix(680,0,0,660,0,0)"/>
<path style="fill:none;stroke-width:0.005;stroke-linecap:butt;stroke-linejoin:miter;stroke:rgb(26.865672%,0%,11.940299%);stroke-opacity:0.6;stroke-miterlimit:10;" d="M 0.944468 0.216051 L 1.981554 -0.446496 " transform="matrix(680,0,0,660,0,0)"/>
<path style="fill:none;stroke-width:0.005;stroke-linecap:butt;stroke-linejoin:miter;stroke:rgb(26.865672%,0%,11.940299%);stroke-opacity:0.6;stroke-miterlimit:10;" d="M 0.489534 0.631647 L 0.465114 0.938826 " transform="matrix(680,0,0,660,0,0)"/>
<path style="fill:none;stroke-width:0.005;stroke-linecap:butt;stroke-linejoin:miter;stroke:rgb(26.865672%,0%,11.940299%);stroke-opacity:0.6;stroke-miterlimit:10;" d="M 0.642366 0.749663 L 0.974558 1.332203 " transform="matrix(680,0,0,660,0,0)"/>
<path style=" stroke:none;fill-rule:nonzero;fill:rgb(0%,61.19403%,0%);fill-opacity:0.7;" d="M 498 330 C 498 417.261719 427.261719 488 340 488 C 252.738281 488 182 417.261719 182 330 C 182 242.738281 252.738281 172 340 172 C 427.261719 172 498 242.738281 498 330 "/>
<path style="fill:none;stroke-width:9;stroke-linecap:butt;stroke-linejoin:miter;stroke:rgb(61.19403%,0%,0%);stroke-opacity:1;stroke-miterlimit:10;" d="M 498 330 C 498 417.261719 427.261719 488 340 488 C 252.738281 488 182 417.261719 182 330 C 182 242.738281 252.738281 172 340 172 C 427.261719 172 498 242.738281 498 330 L 301.667969 220 C 301.667969 261.421875 268.089844 295 226.667969 295 C 185.246094 295 151.667969 261.421875 151.667969 220 C 151.667969 178.578125 185.246094 145 226.667969 145 C 268.089844 145 301.667969 178.578125 301.667969 220 "/>
<path style=" stroke:none;fill-rule:nonzero;fill:rgb(61.19403%,11.940299%,0%);fill-opacity:0.3;" d="M 498 330 C 498 417.261719 427.261719 488 340 488 C 252.738281 488 182 417.261719 182 330 C 182 242.738281 252.738281 172 340 172 C 427.261719 172 498 242.738281 498 330 L 301.667969 220 C 301.667969 261.421875 268.089844 295 226.667969 295 C 185.246094 295 151.667969 261.421875 151.667969 220 C 151.667969 178.578125 185.246094 145 226.667969 145 C 268.089844 145 301.667969 178.578125 301.667969 220 "/>
<path style="fill:none;stroke-width:9;stroke-linecap:butt;stroke-linejoin:miter;stroke:rgb(61.19403%,0%,0%);stroke-opacity:1;stroke-miterlimit:10;" d="M 549.332031 440 C 549.332031 493.019531 506.351563 536 453.332031 536 C 400.3125 536 357.332031 493.019531 357.332031 440 C 357.332031 386.980469 400.3125 344 453.332031 344 C 506.351563 344 549.332031 386.980469 549.332031 440 "/>
<path style=" stroke:none;fill-rule:nonzero;fill:rgb(61.19403%,11.940299%,0%);fill-opacity:0.3;" d="M 549.332031 440 C 549.332031 493.019531 506.351563 536 453.332031 536 C 400.3125 536 357.332031 493.019531 357.332031 440 C 357.332031 386.980469 400.3125 344 453.332031 344 C 506.351563 344 549.332031 386.980469 549.332031 440 "/>
</g>
</svg>
