<?xml version="1.0" encoding="UTF-8"?>
<svg xmlns="http://www.w3.org/2000/svg" xmlns:xlink="http://www.w3.org/1999/xlink" width="680pt" height="660pt" viewBox="0 0 680 660" version="1.1">
<g id="surface1">
<rect x="0" y="0" width="680" height="660" style="fill:rgb(11.940299%,61.19403%,26.865672%);fill-opacity:1;stroke:none;"/>
<path style="fill:none;stroke-width:0.005;stroke-linecap:butt;stroke-linejoin:miter;stroke:rgb(26.865672%,0%,11.940299%);stroke-opacity:0.6;stroke-miterlimit:10;" d="M 0.773972 0.679297 L 1.07446 0.679297 " transform="matrix(680,0,0,660,0,0)"/>
<path style="fill:none;stroke-width:0.005;stroke-linecap:butt;stroke-linejoin:miter;stroke:rgb(26.865672%,0%,11.940299%);stroke-opacity:0.6;stroke-miterlimit:10;" d="M 0.777798 0.674272 L 1.087196 0.662541 " transform="matrix(680,0,0,660,0,0)"/>
<path style="fill:none;stroke-width:0.005;stroke-linecap:butt;stroke-linejoin:miter;stroke:rgb(26.865672%,0%,11.940299%);stroke-opacity:0.6;stroke-miterlimit:10;" d="M 0.613132 0.677817 L 0.538321 0.674367 " transform="matrix(680,0,0,660,0,0)"/>
<path style="fill:none;stroke-width:0.005;stroke-linecap:butt;stroke-linejoin:miter;stroke:rgb(26.865672%,0%,11.940299%);stroke-opacity:0.6;stroke-miterlimit:10;" d="M 0.636472 0.698082 L 0.616125 0.741915 " transform="matrix(680,0,0,660,0,0)"/>
<path style="fill:none;stroke-width:0.005;stroke-linecap:butt;stroke-linejoin:miter;stroke:rgb(26.865672%,0%,11.940299%);stroke-opacity:0.6;stroke-miterlimit:10;" d="M 0.921881 0.872727 L 1.56748 1.324065 " transform="matrix(680,0,0,660,0,0)"/>
<path style="fill:none;stroke-width:0.005;stroke-linecap:butt;stroke-linejoin:miter;stroke:rgb(26.865672%,0%,11.940299%);stroke-opacity:0.6;stroke-miterlimit:10;" d="M 0.48858 0.703007 L 0.123145 0.758333 " transform="matrix(680,0,0,660,0,0)"/>
<path style="fill:none;stroke-width:0.005;stroke-linecap:butt;stroke-linejoin:miter;stroke:rgb(26.865672%,0%,11.940299%);stroke-opacity:0.6;stroke-miterlimit:10;" d="M 0.538373 0.802942 L 0.289126 1.091442 " transform="matrix(680,0,0,660,0,0)"/>
<path style="fill:none;stroke-width:0.005;stroke-linecap:butt;stroke-linejoin:miter;stroke:rgb(26.865672%,0%,11.940299%);stroke-opacity:0.6;stroke-miterlimit:10;" d="M 0.796829 0.706771 L 1.150649 0.770881 " transform="matrix(680,0,0,660,0,0)"/>
<path style="fill:none;stroke-width:0.005;stroke-linecap:butt;stroke-linejoin:miter;stroke:rgb(26.865672%,0%,11.940299%);stroke-opacity:0.6;stroke-miterlimit:10;" d="M 0.347449 0.555161 L -0.347283 0.265513 " transform="matrix(680,0,0,660,0,0)"/>
<path style="fill:none;stroke-width:0.005;stroke-linecap:butt;stroke-linejoin:miter;stroke:rgb(26.865672%,0%,11.940299%);stroke-opacity:0.6;stroke-miterlimit:10;" d="M 0.27797 0.714045 L -0.578883 0.795123 " transform="matrix(680,0,0,660,0,0)"/>
<path style="fill:none;stroke-width:0.005;stroke-linecap:butt;stroke-linejoin:miter;stroke:rgb(26.865672%,0%,11.940299%);stroke-opacity:0.6;stroke-miterlimit:10;" d="M 0.781692 0.910038 L 1.100195 1.448432 " transform="matrix(680,0,0,660,0,0)"/>
<path style="fill:none;stroke-width:0.005;stroke-linecap:butt;stroke-linejoin:miter;stroke:rgb(26.865672%,0%,11.940299%);stroke-opacity:0.6;stroke-miterlimit:10;" d="M 0.842377 0.615418 L 1.30247 0.466359 " transform="matrix(680,0,0,660,0,0)"/>
<path style="fill:none;stroke-width:0.005;stroke-linecap:butt;stroke-linejoin:miter;stroke:rgb(26.865672%,0%,11.940299%);stroke-opacity:0.6;stroke-miterlimit:10;" d="M 0.611759 0.724793 L 0.533743 0.830948 " transform="matrix(680,0,0,660,0,0)"/>
<path style="fill:none;stroke-width:0.005;stroke-linecap:butt;stroke-linejoin:miter;stroke:rgb(26.865672%,0%,11.940299%);stroke-opacity:0.6;stroke-miterlimit:10;" d="M 0.597559 0.655149 L 0.486409 0.598793 " transform="matrix(680,0,0,660,0,0)"/>
<path style="fill:none;stroke-width:0.005;stroke-linecap:butt;stroke-linejoin:miter;stroke:rgb(26.865672%,0%,11.940299%);stroke-opacity:0.6;stroke-miterlimit:10;" d="M 0.761437 0.789145 L 1.03268 1.04546 " transform="matrix(680,0,0,660,0,0)"/>
<path style="fill:none;stroke-width:0.005;stroke-linecap:butt;stroke-linejoin:miter;stroke:rgb(26.865672%,0%,11.940299%);stroke-opacity:0.6;stroke-miterlimit:10;" d="M 0.555474 0.740477 L 0.346128 0.883239 " transform="matrix(680,0,0,660,0,0)"/>
<path style="fill:none;stroke-width:0.005;stroke-linecap:butt;stroke-linejoin:miter;stroke:rgb(26.865672%,0%,11.940299%);stroke-opacity:0.6;stroke-miterlimit:10;" d="M 0.782824 0.555226 L 1.103964 0.265732 " transform="matrix(680,0,0,660,0,0)"/>
<path style="fill:none;stroke-width:0.005;stroke-linecap:butt;stroke-linejoin:miter;stroke:rgb(26.865672%,0%,11.940299%);stroke-opacity:0.6;stroke-miterlimit:10;" d="M 0.753435 0.612393 L 1.005997 0.456291 " transform="matrix(680,0,0,660,0,0)"/>
<path style="fill:none;stroke-width:0.005;stroke-linecap:butt;stroke-linejoin:miter;stroke:rgb(26.865672%,0%,11.940299%);stroke-opacity:0.6;stroke-miterlimit:10;" d="M 0.632204 0.628575 L 0.601896 0.510221 " transform="matrix(680,0,0,660,0,0)"/>
<path style="fill:none;stroke-width:0.005;stroke-linecap:butt;stroke-linejoin:miter;stroke:rgb(26.865672%,0%,11.940299%);stroke-opacity:0.6;stroke-miterlimit:10;" d="M 0.745295 0.546987 L 0.978866 0.238258 " transform="matrix(680,0,0,660,0,0)"/>
<path style="fill:none;stroke-width:0.005;stroke-linecap:butt;stroke-linejoin:miter;stroke:rgb(26.865672%,0%,11.940299%);stroke-opacity:0.6;stroke-miterlimit:10;" d="M 0.620215 0.717223 L 0.56192 0.805705 " transform="matrix(680,0,0,660,0,0)"/>
<path style="fill:none;stroke-width:0.005;stroke-linecap:butt;stroke-linejoin:miter;stroke:rgb(26.865672%,0%,11.940299%);stroke-opacity:0.6;stroke-miterlimit:10;" d="M 0.469709 0.77996 L 0.0602424 1.014832 " transform="matrix(680,0,0,660,0,0)"/>
<path style="fill:none;stroke-width:0.005;stroke-linecap:butt;stroke-linejoin:miter;stroke:rgb(26.865672%,0%,11.940299%);stroke-opacity:0.6;stroke-miterlimit:10;" d="M 0.620324 0.662157 L 0.562299 0.622159 " transform="matrix(680,0,0,660,0,0)"/>
<path style="fill:none;stroke-width:0.005;stroke-linecap:butt;stroke-linejoin:miter;stroke:rgb(26.865672%,0%,11.940299%);stroke-opacity:0.6;stroke-miterlimit:10;" d="M 0.685869 0.695715 L 0.780767 0.734026 " transform="matrix(680,0,0,660,0,0)"/>
<path style="fill:none;stroke-width:0.005;stroke-linecap:butt;stroke-linejoin:miter;stroke:rgb(26.865672%,0%,11.940299%);stroke-opacity:0.6;stroke-miterlimit:10;" d="M 0.631503 0.840317 L 0.599546 1.216022 " transform="matrix(680,0,0,660,0,0)"/>
<path style="fill:none;stroke-width:0.005;stroke-linecap:butt;stroke-linejoin:miter;stroke:rgb(26.865672%,0%,11.940299%);stroke-opacity:0.6;stroke-miterlimit:10;" d="M 0.712489 0.875462 L 0.869503 1.333179 " transform="matrix(680,0,0,660,0,0)"/>
<path style="fill:none;stroke-width:0.005;stroke-linecap:butt;stroke-linejoin:miter;stroke:rgb(26.865672%,0%,11.940299%);stroke-opacity:0.6;stroke-miterlimit:10;" d="M 0.620824 0.71527 L 0.563971 0.799195 " transform="matrix(680,0,0,660,0,0)"/>
<path style="fill:none;stroke-width:0.005;stroke-linecap:butt;stroke-linejoin:miter;stroke:rgb(26.865672%,0%,11.940299%);stroke-opacity:0.6;stroke-miterlimit:10;" d="M 0.592366 0.721928 L 0.469106 0.821396 " transform="matrix(680,0,0,660,0,0)"/>
<path style="fill:none;stroke-width:0.005;stroke-linecap:butt;stroke-linejoin:miter;stroke:rgb(26.865672%,0%,11.940299%);stroke-opacity:0.6;stroke-miterlimit:10;" d="M 0.710122 0.793555 L 0.861615 1.060156 " transform="matrix(680,0,0,660,0,0)"/>
<path style="fill:none;stroke-width:0.005;stroke-linecap:butt;stroke-linejoin:miter;stroke:rgb(26.865672%,0%,11.940299%);stroke-opacity:0.6;stroke-miterlimit:10;" d="M 0.823236 0.275142 L 1.238672 -0.66788 " transform="matrix(680,0,0,660,0,0)"/>
<path style="fill:none;stroke-width:0.005;stroke-linecap:butt;stroke-linejoin:miter;stroke:rgb(26.865672%,0%,11.940299%);stroke-opacity:0.6;stroke-miterlimit:10;" d="M 0.786713 0.690962 L 1.116935 0.718182 " transform="matrix(680,0,0,660,0,0)"/>
<path style="fill:none;stroke-width:0.005;stroke-linecap:butt;stroke-linejoin:miter;stroke:rgb(26.865672%,0%,11.940299%);stroke-opacity:0.6;stroke-miterlimit:10;" d="M 0.595146 0.454208 L 0.478372 -0.0709931 " transform="matrix(680,0,0,660,0,0)"/>
<path style="fill:none;stroke-width:0.005;stroke-linecap:butt;stroke-linejoin:miter;stroke:rgb(26.865672%,0%,11.940299%);stroke-opacity:0.6;stroke-miterlimit:10;" d="M 0.780882 0.880404 L 1.097478 1.349657 " transform="matrix(680,0,0,660,0,0)"/>
<path style="fill:none;stroke-width:0.005;stroke-linecap:butt;stroke-linejoin:miter;stroke:rgb(26.865672%,0%,11.940299%);stroke-opacity:0.6;stroke-miterlimit:10;" d="M 0.633347 0.806428 L 0.605699 1.103072 " transform="matrix(680,0,0,660,0,0)"/>
<path style="fill:none;stroke-width:0.005;stroke-linecap:butt;stroke-linejoin:miter;stroke:rgb(26.865672%,0%,11.940299%);stroke-opacity:0.6;stroke-miterlimit:10;" d="M 0.730342 0.831055 L 0.929033 1.185162 " transform="matrix(680,0,0,660,0,0)"/>
<path style="fill:none;stroke-width:0.005;stroke-linecap:butt;stroke-linejoin:miter;stroke:rgb(26.865672%,0%,11.940299%);stroke-opacity:0.6;stroke-miterlimit:10;" d="M 0.641688 0.697994 L 0.633496 0.741613 " transform="matrix(680,0,0,660,0,0)"/>
<path style="fill:none;stroke-width:0.005;stroke-linecap:butt;stroke-linejoin:miter;stroke:rgb(26.865672%,0%,11.940299%);stroke-opacity:0.6;stroke-miterlimit:10;" d="M 0.627183 0.341702 L 0.585168 -0.446017 " transform="matrix(680,0,0,660,0,0)"/>
<path style="fill:none;stroke-width:0.005;stroke-linecap:butt;stroke-linejoin:miter;stroke:rgb(26.865672%,0%,11.940299%);stroke-opacity:0.6;stroke-miterlimit:10;" d="M 0.621766 0.544413 L 0.567107 0.229693 " transform="matrix(680,0,0,660,0,0)"/>
<path style="fill:none;stroke-width:0.005;stroke-linecap:butt;stroke-linejoin:miter;stroke:rgb(26.865672%,0%,11.940299%);stroke-opacity:0.6;stroke-miterlimit:10;" d="M 0.686363 0.828823 L 0.782428 1.177723 " transform="matrix(680,0,0,660,0,0)"/>
<path style="fill:none;stroke-width:0.005;stroke-linecap:butt;stroke-linejoin:miter;stroke:rgb(26.865672%,0%,11.940299%);stroke-opacity:0.6;stroke-miterlimit:10;" d="M 0.600517 0.968353 L 0.496266 1.642815 " transform="matrix(680,0,0,660,0,0)"/>
<path style="fill:none;stroke-width:0.005;stroke-linecap:butt;stroke-linejoin:miter;stroke:rgb(26.865672%,0%,11.940299%);stroke-opacity:0.6;stroke-miterlimit:10;" d="M 0.523926 0.816969 L 0.24097 1.138192 " transform="matrix(680,0,0,660,0,0)"/>
<path style="fill:none;stroke-width:0.005;stroke-linecap:butt;stroke-linejoin:miter;stroke:rgb(26.865672%,0%,11.940299%);stroke-opacity:0.6;stroke-miterlimit:10;" d="M 0.70324 0.545537 L 0.838683 0.233422 " transform="matrix(680,0,0,660,0,0)"/>
<path style="fill:none;stroke-width:0.005;stroke-linecap:butt;stroke-linejoin:miter;stroke:rgb(26.865672%,0%,11.940299%);stroke-opacity:0.6;stroke-miterlimit:10;" d="M 0.450707 0.860926 L -0.00310777 1.284724 " transform="matrix(680,0,0,660,0,0)"/>
<path style="fill:none;stroke-width:0.005;stroke-linecap:butt;stroke-linejoin:miter;stroke:rgb(26.865672%,0%,11.940299%);stroke-opacity:0.6;stroke-miterlimit:10;" d="M 0.721697 0.635452 L 0.900213 0.533138 " transform="matrix(680,0,0,660,0,0)"/>
<path style="fill:none;stroke-width:0.005;stroke-linecap:butt;stroke-linejoin:miter;stroke:rgb(26.865672%,0%,11.940299%);stroke-opacity:0.6;stroke-miterlimit:10;" d="M 0.712408 0.556866 L 0.869233 0.271194 " transform="matrix(680,0,0,660,0,0)"/>
<path style="fill:none;stroke-width:0.005;stroke-linecap:butt;stroke-linejoin:miter;stroke:rgb(26.865672%,0%,11.940299%);stroke-opacity:0.6;stroke-miterlimit:10;" d="M 0.681193 0.702456 L 0.765194 0.756487 " transform="matrix(680,0,0,660,0,0)"/>
<path style="fill:none;stroke-width:0.005;stroke-linecap:butt;stroke-linejoin:miter;stroke:rgb(26.865672%,0%,11.940299%);stroke-opacity:0.6;stroke-miterlimit:10;" d="M 0.71084 0.475527 L 0.864017 0.0000651042 " transform="matrix(680,0,0,660,0,0)"/>
<path style="fill:none;stroke-width:0.005;stroke-linecap:butt;stroke-linejoin:miter;stroke:rgb(26.865672%,0%,11.940299%);stroke-opacity:0.6;stroke-miterlimit:10;" d="M 0.783594 0.764009 L 1.106531 0.961671 " transform="matrix(680,0,0,660,0,0)"/>
<path style="fill:none;stroke-width:0.005;stroke-linecap:butt;stroke-linejoin:miter;stroke:rgb(26.865672%,0%,11.940299%);stroke-opacity:0.6;stroke-miterlimit:10;" d="M 0.636225 0.63096 L 0.615286 0.518182 " transform="matrix(680,0,0,660,0,0)"/>
<path style="fill:none;stroke-width:0.005;stroke-linecap:butt;stroke-linejoin:miter;stroke:rgb(26.865672%,0%,11.940299%);stroke-opacity:0.6;stroke-miterlimit:10;" d="M 0.618135 0.912737 L 0.554992 1.457434 " transform="matrix(680,0,0,660,0,0)"/>
<path style="fill:none;stroke-width:0.005;stroke-linecap:butt;stroke-linejoin:miter;stroke:rgb(26.865672%,0%,11.940299%);stroke-opacity:0.6;stroke-miterlimit:10;" d="M 0.211954 0.875071 L -0.798943 1.331866 " transform="matrix(680,0,0,660,0,0)"/>
<path style="fill:none;stroke-width:0.005;stroke-linecap:butt;stroke-linejoin:miter;stroke:rgb(26.865672%,0%,11.940299%);stroke-opacity:0.6;stroke-miterlimit:10;" d="M 0.618026 0.590826 L 0.55463 0.384387 " transform="matrix(680,0,0,660,0,0)"/>
<path style="fill:none;stroke-width:0.005;stroke-linecap:butt;stroke-linejoin:miter;stroke:rgb(26.865672%,0%,11.940299%);stroke-opacity:0.6;stroke-miterlimit:10;" d="M 0.484226 0.543561 L 0.10864 0.226847 " transform="matrix(680,0,0,660,0,0)"/>
<path style="fill:none;stroke-width:0.005;stroke-linecap:butt;stroke-linejoin:miter;stroke:rgb(26.865672%,0%,11.940299%);stroke-opacity:0.6;stroke-miterlimit:10;" d="M 0.0355296 0.273887 L -1.387023 -0.67207 " transform="matrix(680,0,0,660,0,0)"/>
<path style="fill:none;stroke-width:0.005;stroke-linecap:butt;stroke-linejoin:miter;stroke:rgb(26.865672%,0%,11.940299%);stroke-opacity:0.6;stroke-miterlimit:10;" d="M 0.656572 0.657966 L 0.683117 0.608197 " transform="matrix(680,0,0,660,0,0)"/>
<path style="fill:none;stroke-width:0.005;stroke-linecap:butt;stroke-linejoin:miter;stroke:rgb(26.865672%,0%,11.940299%);stroke-opacity:0.6;stroke-miterlimit:10;" d="M 0.54564 0.745455 L 0.31335 0.899822 " transform="matrix(680,0,0,660,0,0)"/>
<path style="fill:none;stroke-width:0.005;stroke-linecap:butt;stroke-linejoin:miter;stroke:rgb(26.865672%,0%,11.940299%);stroke-opacity:0.6;stroke-miterlimit:10;" d="M 0.488936 0.74053 L 0.124339 0.883416 " transform="matrix(680,0,0,660,0,0)"/>
<path style="fill:none;stroke-width:0.005;stroke-linecap:butt;stroke-linejoin:miter;stroke:rgb(26.865672%,0%,11.940299%);stroke-opacity:0.6;stroke-miterlimit:10;" d="M 0.616665 0.486606 L 0.550092 0.0369969 " transform="matrix(680,0,0,660,0,0)"/>
<path style="fill:none;stroke-width:0.00333333;stroke-linecap:butt;stroke-linejoin:miter;stroke:rgb(26.865672%,0%,0%);stroke-opacity:0.4;stroke-miterlimit:10;" d="M 0.764212 0.5 C 0.764212 0.645922 0.645921 0.764216 0.5 0.764216 C 0.354079 0.764216 0.235788 0.645922 0.235788 0.5 C 0.235788 0.354078 0.354079 0.235784 0.5 0.235784 C 0.645921 0.235784 0.764212 0.354078 0.764212 0.5 " transform="matrix(680,0,0,660,0,0)"/>
<path style=" stroke:none;fill-rule:nonzero;fill:rgb(26.865672%,0%,0%);fill-opacity:0.4;" d="M 519.664063 330 C 519.664063 426.308594 439.226563 504.382813 340 504.382813 C 240.773438 504.382813 160.335938 426.308594 160.335938 330 C 160.335938 233.691406 240.773438 155.617188 340 155.617188 C 439.226563 155.617188 519.664063 233.691406 519.664063 330 "/>
<path style="fill:none;stroke-width:0.00333333;stroke-linecap:butt;stroke-linejoin:miter;stroke:rgb(61.19403%,0%,0%);stroke-opacity:1;stroke-miterlimit:10;" d="M 0.458749 0.333333 C 0.458749 0.402598 0.402602 0.458754 0.333335 0.458754 C 0.264068 0.458754 0.207916 0.402598 0.207916 0.333333 C 0.207916 0.264068 0.264068 0.207913 0.333335 0.207913 C 0.402602 0.207913 0.458749 0.264068 0.458749 0.333333 " transform="matrix(680,0,0,660,0,0)"/>
<path style=" stroke:none;fill-rule:nonzero;fill:rgb(11.940299%,26.865672%,0%);fill-opacity:0.4;" d="M 311.949219 220 C 311.949219 265.714844 273.769531 302.777344 226.667969 302.777344 C 179.566406 302.777344 141.382813 265.714844 141.382813 220 C 141.382813 174.285156 179.566406 137.222656 226.667969 137.222656 C 273.769531 137.222656 311.949219 174.285156 311.949219 220 "/>
<path style="fill:none;stroke-width:0.00333333;stroke-linecap:butt;stroke-linejoin:miter;stroke:rgb(61.19403%,0%,0%);stroke-opacity:1;stroke-miterlimit:10;" d="M 0.8272 0.666667 C 0.8272 0.755327 0.755325 0.827202 0.666665 0.827202 C 0.578004 0.827202 0.506129 0.755327 0.506129 0.666667 C 0.506129 0.578007 0.578004 0.506132 0.666665 0.506132 C 0.755325 0.506132 0.8272 0.578007 0.8272 0.666667 " transform="matrix(680,0,0,660,0,0)"/>
<path style=" stroke:none;fill-rule:nonzero;fill:rgb(11.940299%,26.865672%,0%);fill-opacity:0.4;" d="M 562.496094 440 C 562.496094 498.515625 513.621094 545.953125 453.332031 545.953125 C 393.042969 545.953125 344.167969 498.515625 344.167969 440 C 344.167969 381.484375 393.042969 334.046875 453.332031 334.046875 C 513.621094 334.046875 562.496094 381.484375 562.496094 440 "/>
<path style="fill:none;stroke-width:0.0263158;stroke-linecap:butt;stroke-linejoin:miter;stroke:rgb(61.19403%,11.940299%,26.865672%);stroke-opacity:0.4;stroke-miterlimit:10;" d="M 0.734237 0.117495 C 0.703625 0.862098 0.296375 0.137902 0.86582 0.249077 " transform="matrix(680,0,0,660,0,0)"/>
<path style="fill:none;stroke-width:0.0157895;stroke-linecap:butt;stroke-linejoin:miter;stroke:rgb(61.19403%,11.940299%,26.865672%);stroke-opacity:0.4;stroke-miterlimit:10;" d="M 0.153797 0.0306108 L 0.232744 0.0932647 " transform="matrix(680,0,0,660,0,0)"/>
<path style="fill:none;stroke-width:0.0157895;stroke-linecap:butt;stroke-linejoin:miter;stroke:rgb(61.19403%,11.940299%,26.865672%);stroke-opacity:0.4;stroke-miterlimit:10;" d="M 0.0306124 0.703752 L 0.149954 0.7827 " transform="matrix(680,0,0,660,0,0)"/>
<path style="fill:none;stroke-width:0.0157895;stroke-linecap:butt;stroke-linejoin:miter;stroke:rgb(61.19403%,11.940299%,26.865672%);stroke-opacity:0.4;stroke-miterlimit:10;" d="M 0.317659 0.323698 C 0.307451 0.696709 0.661937 0.344105 0.396605 0.402646 " transform="matrix(680,0,0,660,0,0)"/>
<path style="fill:none;stroke-width:0.0157895;stroke-linecap:butt;stroke-linejoin:miter;stroke:rgb(61.19403%,11.940299%,26.865672%);stroke-opacity:0.4;stroke-miterlimit:10;" d="M 0.274443 -0.028492 C 0.284645 1.048899 0.705147 -0.0386955 0.353389 0.0504557 " transform="matrix(680,0,0,660,0,0)"/>
<path style="fill:none;stroke-width:0.0157895;stroke-linecap:butt;stroke-linejoin:miter;stroke:rgb(61.19403%,11.940299%,26.865672%);stroke-opacity:0.4;stroke-miterlimit:10;" d="M 0.0306124 1.021052 L 1.068491 1.099994 " transform="matrix(680,0,0,660,0,0)"/>
<path style="fill:none;stroke-width:0.0105263;stroke-linecap:butt;stroke-linejoin:miter;stroke:rgb(61.19403%,11.940299%,26.865672%);stroke-opacity:0.4;stroke-miterlimit:10;" d="M 0.41389 0.0123698 C 0.403688 0.977427 0.596312 0.0225734 0.466527 0.0649976 " transform="matrix(680,0,0,660,0,0)"/>
<path style="fill:none;stroke-width:0.0105263;stroke-linecap:butt;stroke-linejoin:miter;stroke:rgb(61.19403%,11.940299%,26.865672%);stroke-opacity:0.4;stroke-miterlimit:10;" d="M 0.0204102 0.936926 L 0.416153 0.98956 " transform="matrix(680,0,0,660,0,0)"/>
<path style="fill:none;stroke-width:0.0105263;stroke-linecap:butt;stroke-linejoin:miter;stroke:rgb(61.19403%,11.940299%,26.865672%);stroke-opacity:0.4;stroke-miterlimit:10;" d="M 0.334949 0.499361 C 0.324747 0.490436 0.675253 0.489157 0.38758 0.551995 " transform="matrix(680,0,0,660,0,0)"/>
<path style="fill:none;stroke-width:0.0105263;stroke-linecap:butt;stroke-linejoin:miter;stroke:rgb(61.19403%,11.940299%,26.865672%);stroke-opacity:0.4;stroke-miterlimit:10;" d="M 0.233726 0.120307 C 0.243928 0.86949 0.756072 0.13051 0.286357 0.172934 " transform="matrix(680,0,0,660,0,0)"/>
<path style="fill:none;stroke-width:0.0105263;stroke-linecap:butt;stroke-linejoin:miter;stroke:rgb(61.19403%,11.940299%,26.865672%);stroke-opacity:0.4;stroke-miterlimit:10;" d="M 0.0102022 0.929688 L 0.0151137 0.982315 " transform="matrix(680,0,0,660,0,0)"/>
<path style="fill:none;stroke-width:0.0105263;stroke-linecap:butt;stroke-linejoin:miter;stroke:rgb(61.19403%,11.940299%,26.865672%);stroke-opacity:0.4;stroke-miterlimit:10;" d="M 0.0204102 -0.0369318 L 0.703803 0.015696 " transform="matrix(680,0,0,660,0,0)"/>
<path style="fill:none;stroke-width:0.0105263;stroke-linecap:butt;stroke-linejoin:miter;stroke:rgb(61.19403%,11.940299%,26.865672%);stroke-opacity:0.4;stroke-miterlimit:10;" d="M 0.0204102 0.873035 L 0.734174 0.925669 " transform="matrix(680,0,0,660,0,0)"/>
<path style="fill:none;stroke-width:0.0105263;stroke-linecap:butt;stroke-linejoin:miter;stroke:rgb(61.19403%,11.940299%,26.865672%);stroke-opacity:0.4;stroke-miterlimit:10;" d="M 0.390372 0.90058 C 0.400574 0.0892164 0.599426 0.910784 0.443003 0.953214 " transform="matrix(680,0,0,660,0,0)"/>
<path style="fill:none;stroke-width:0.0105263;stroke-linecap:butt;stroke-linejoin:miter;stroke:rgb(61.19403%,11.940299%,26.865672%);stroke-opacity:0.4;stroke-miterlimit:10;" d="M 0.0204102 0.19768 L 0.274339 0.250308 " transform="matrix(680,0,0,660,0,0)"/>
<path style="fill:none;stroke-width:0.0105263;stroke-linecap:butt;stroke-linejoin:miter;stroke:rgb(61.19403%,11.940299%,26.865672%);stroke-opacity:0.4;stroke-miterlimit:10;" d="M 0.0508215 1.044596 C 0.0406193 -0.0548 0.938976 1.0548 0.103452 1.09723 " transform="matrix(680,0,0,660,0,0)"/>
<path style="fill:none;stroke-width:0.0105263;stroke-linecap:butt;stroke-linejoin:miter;stroke:rgb(61.19403%,11.940299%,26.865672%);stroke-opacity:0.4;stroke-miterlimit:10;" d="M 0.0204102 -0.0138968 L 1.015539 0.0387311 " transform="matrix(680,0,0,660,0,0)"/>
<path style="fill:none;stroke-width:0.0105263;stroke-linecap:butt;stroke-linejoin:miter;stroke:rgb(61.19403%,11.940299%,26.865672%);stroke-opacity:0.4;stroke-miterlimit:10;" d="M 0.0204102 0.532345 L 0.355767 0.584979 " transform="matrix(680,0,0,660,0,0)"/>
<path style="fill:none;stroke-width:0.0105263;stroke-linecap:butt;stroke-linejoin:miter;stroke:rgb(61.19403%,11.940299%,26.865672%);stroke-opacity:0.4;stroke-miterlimit:10;" d="M 0.255446 0.0204072 L 0.308077 0.805646 " transform="matrix(680,0,0,660,0,0)"/>
<path style="fill:none;stroke-width:0.0105263;stroke-linecap:butt;stroke-linejoin:miter;stroke:rgb(61.19403%,11.940299%,26.865672%);stroke-opacity:0.4;stroke-miterlimit:10;" d="M 0.0204102 0.201716 L 0.800586 0.25435 " transform="matrix(680,0,0,660,0,0)"/>
<path style="fill:none;stroke-width:0.0105263;stroke-linecap:butt;stroke-linejoin:miter;stroke:rgb(61.19403%,11.940299%,26.865672%);stroke-opacity:0.4;stroke-miterlimit:10;" d="M 0.0204102 0.928291 L 1.014505 0.980919 " transform="matrix(680,0,0,660,0,0)"/>
<path style="fill:none;stroke-width:0.0105263;stroke-linecap:butt;stroke-linejoin:miter;stroke:rgb(61.19403%,11.940299%,26.865672%);stroke-opacity:0.4;stroke-miterlimit:10;" d="M 1.046479 0.447763 C 1.036276 0.542034 -0.0362764 0.457966 1.099115 0.500391 " transform="matrix(680,0,0,660,0,0)"/>
<path style="fill:none;stroke-width:0.00526316;stroke-linecap:butt;stroke-linejoin:miter;stroke:rgb(61.19403%,11.940299%,26.865672%);stroke-opacity:0.4;stroke-miterlimit:10;" d="M 0.796019 0.0102036 L 0.822335 0.700361 " transform="matrix(680,0,0,660,0,0)"/>
<path style="fill:none;stroke-width:0.00526316;stroke-linecap:butt;stroke-linejoin:miter;stroke:rgb(61.19403%,11.940299%,26.865672%);stroke-opacity:0.4;stroke-miterlimit:10;" d="M 0.28931 0.0102036 L 0.315625 0.639708 " transform="matrix(680,0,0,660,0,0)"/>
<path style="fill:none;stroke-width:0.00526316;stroke-linecap:butt;stroke-linejoin:miter;stroke:rgb(61.19403%,11.940299%,26.865672%);stroke-opacity:0.4;stroke-miterlimit:10;" d="M 0.711885 0.0102036 L 0.738201 0.862902 " transform="matrix(680,0,0,660,0,0)"/>
<path style="fill:none;stroke-width:0.00526316;stroke-linecap:butt;stroke-linejoin:miter;stroke:rgb(61.19403%,11.940299%,26.865672%);stroke-opacity:0.4;stroke-miterlimit:10;" d="M 0.997335 0.0102036 L 1.02365 0.312109 " transform="matrix(680,0,0,660,0,0)"/>
<path style="fill:none;stroke-width:0.00526316;stroke-linecap:butt;stroke-linejoin:miter;stroke:rgb(61.19403%,11.940299%,26.865672%);stroke-opacity:0.4;stroke-miterlimit:10;" d="M -0.0399357 0.0102036 L -0.0136202 0.210949 " transform="matrix(680,0,0,660,0,0)"/>
<path style="fill:none;stroke-width:0.00526316;stroke-linecap:butt;stroke-linejoin:miter;stroke:rgb(61.19403%,11.940299%,26.865672%);stroke-opacity:0.4;stroke-miterlimit:10;" d="M 1.033272 0.0102036 L 1.059588 0.354326 " transform="matrix(680,0,0,660,0,0)"/>
<path style="fill:none;stroke-width:0.00526316;stroke-linecap:butt;stroke-linejoin:miter;stroke:rgb(61.19403%,11.940299%,26.865672%);stroke-opacity:0.4;stroke-miterlimit:10;" d="M 0.166153 0.0102036 L 0.192469 0.631309 " transform="matrix(680,0,0,660,0,0)"/>
<path style="fill:none;stroke-width:0.00526316;stroke-linecap:butt;stroke-linejoin:miter;stroke:rgb(61.19403%,11.940299%,26.865672%);stroke-opacity:0.4;stroke-miterlimit:10;" d="M -0.0302275 0.0102036 L -0.00391199 0.596692 " transform="matrix(680,0,0,660,0,0)"/>
<path style="fill:none;stroke-width:0.00526316;stroke-linecap:butt;stroke-linejoin:miter;stroke:rgb(61.19403%,11.940299%,26.865672%);stroke-opacity:0.4;stroke-miterlimit:10;" d="M 0.0102022 0.280202 L 1.052171 0.306516 " transform="matrix(680,0,0,660,0,0)"/>
<path style="fill:none;stroke-width:0.00526316;stroke-linecap:butt;stroke-linejoin:miter;stroke:rgb(61.19403%,11.940299%,26.865672%);stroke-opacity:0.4;stroke-miterlimit:10;" d="M 0.0102022 0.407949 L 0.643072 0.434268 " transform="matrix(680,0,0,660,0,0)"/>
<path style="fill:none;stroke-width:0.00526316;stroke-linecap:butt;stroke-linejoin:miter;stroke:rgb(61.19403%,11.940299%,26.865672%);stroke-opacity:0.4;stroke-miterlimit:10;" d="M 0.0102022 0.46369 L 0.408858 0.490009 " transform="matrix(680,0,0,660,0,0)"/>
<path style="fill:none;stroke-width:0.00526316;stroke-linecap:butt;stroke-linejoin:miter;stroke:rgb(61.19403%,11.940299%,26.865672%);stroke-opacity:0.4;stroke-miterlimit:10;" d="M 0.0102022 0.290146 L 0.763195 0.31646 " transform="matrix(680,0,0,660,0,0)"/>
<path style="fill:none;stroke-width:0.00526316;stroke-linecap:butt;stroke-linejoin:miter;stroke:rgb(61.19403%,11.940299%,26.865672%);stroke-opacity:0.4;stroke-miterlimit:10;" d="M -0.0491383 0.0102036 L -0.0228228 0.0585642 " transform="matrix(680,0,0,660,0,0)"/>
<path style="fill:none;stroke-width:0.00526316;stroke-linecap:butt;stroke-linejoin:miter;stroke:rgb(61.19403%,11.940299%,26.865672%);stroke-opacity:0.4;stroke-miterlimit:10;" d="M 0.967136 0.0102036 L 0.993451 0.822573 " transform="matrix(680,0,0,660,0,0)"/>
<path style="fill:none;stroke-width:0.00526316;stroke-linecap:butt;stroke-linejoin:miter;stroke:rgb(61.19403%,11.940299%,26.865672%);stroke-opacity:0.4;stroke-miterlimit:10;" d="M 0.536351 0.0102036 L 0.562667 0.96118 " transform="matrix(680,0,0,660,0,0)"/>
<path style="fill:none;stroke-width:0.00526316;stroke-linecap:butt;stroke-linejoin:miter;stroke:rgb(61.19403%,11.940299%,26.865672%);stroke-opacity:0.4;stroke-miterlimit:10;" d="M 0.0102022 0.337021 L -0.00670381 0.363335 " transform="matrix(680,0,0,660,0,0)"/>
<path style="fill:none;stroke-width:0.00526316;stroke-linecap:butt;stroke-linejoin:miter;stroke:rgb(61.19403%,11.940299%,26.865672%);stroke-opacity:0.4;stroke-miterlimit:10;" d="M 0.0102022 0.346976 L 0.52982 0.373295 " transform="matrix(680,0,0,660,0,0)"/>
<path style="fill:none;stroke-width:0.00526316;stroke-linecap:butt;stroke-linejoin:miter;stroke:rgb(61.19403%,11.940299%,26.865672%);stroke-opacity:0.4;stroke-miterlimit:10;" d="M 0.0102022 0.449994 L 0.841625 0.476308 " transform="matrix(680,0,0,660,0,0)"/>
<path style="fill:none;stroke-width:0.00526316;stroke-linecap:butt;stroke-linejoin:miter;stroke:rgb(61.19403%,11.940299%,26.865672%);stroke-opacity:0.4;stroke-miterlimit:10;" d="M 0.0102022 0.581866 L 0.590614 0.608179 " transform="matrix(680,0,0,660,0,0)"/>
<path style="fill:none;stroke-width:0.00526316;stroke-linecap:butt;stroke-linejoin:miter;stroke:rgb(61.19403%,11.940299%,26.865672%);stroke-opacity:0.4;stroke-miterlimit:10;" d="M 0.391245 0.0102036 L 0.417561 0.68051 " transform="matrix(680,0,0,660,0,0)"/>
<path style="fill:none;stroke-width:0.00526316;stroke-linecap:butt;stroke-linejoin:miter;stroke:rgb(61.19403%,11.940299%,26.865672%);stroke-opacity:0.4;stroke-miterlimit:10;" d="M 0.491251 0.0102036 L 0.517567 0.168951 " transform="matrix(680,0,0,660,0,0)"/>
<path style="fill:none;stroke-width:0.00526316;stroke-linecap:butt;stroke-linejoin:miter;stroke:rgb(61.19403%,11.940299%,26.865672%);stroke-opacity:0.4;stroke-miterlimit:10;" d="M 0.0102022 0.943324 L 0.318141 0.969638 " transform="matrix(680,0,0,660,0,0)"/>
<path style="fill:none;stroke-width:0.00526316;stroke-linecap:butt;stroke-linejoin:miter;stroke:rgb(61.19403%,11.940299%,26.865672%);stroke-opacity:0.4;stroke-miterlimit:10;" d="M 0.0102022 0.600953 L 0.203246 0.627267 " transform="matrix(680,0,0,660,0,0)"/>
<path style="fill:none;stroke-width:0.00526316;stroke-linecap:butt;stroke-linejoin:miter;stroke:rgb(61.19403%,11.940299%,26.865672%);stroke-opacity:0.4;stroke-miterlimit:10;" d="M 0.0102022 0.656605 L 0.459266 0.682919 " transform="matrix(680,0,0,660,0,0)"/>
<path style="fill:none;stroke-width:0.00526316;stroke-linecap:butt;stroke-linejoin:miter;stroke:rgb(61.19403%,11.940299%,26.865672%);stroke-opacity:0.4;stroke-miterlimit:10;" d="M 0.0102022 0.51814 L 0.138264 0.544454 " transform="matrix(680,0,0,660,0,0)"/>
</g>
</svg>
