<?xml version="1.0" encoding="UTF-8"?>
<svg xmlns="http://www.w3.org/2000/svg" xmlns:xlink="http://www.w3.org/1999/xlink" width="680pt" height="660pt" viewBox="0 0 680 660" version="1.1">
<g id="surface1">
<rect x="0" y="0" width="680" height="660" style="fill:rgb(26.865672%,61.19403%,11.940299%);fill-opacity:0.5;stroke:none;"/>
<path style="fill:none;stroke-width:0.005;stroke-linecap:butt;stroke-linejoin:miter;stroke:rgb(26.865672%,0%,11.940299%);stroke-opacity:0.6;stroke-miterlimit:10;" d="M 0.209484 0.679297 L -0.129607 0.679297 " transform="matrix(680,0,0,660,0,0)"/>
<path style="fill:none;stroke-width:0.005;stroke-linecap:butt;stroke-linejoin:miter;stroke:rgb(26.865672%,0%,11.940299%);stroke-opacity:0.6;stroke-miterlimit:10;" d="M 0.102585 0.702024 L -0.485937 0.755049 " transform="matrix(680,0,0,660,0,0)"/>
<path style="fill:none;stroke-width:0.005;stroke-linecap:butt;stroke-linejoin:miter;stroke:rgb(26.865672%,0%,11.940299%);stroke-opacity:0.6;stroke-miterlimit:10;" d="M 0.233869 0.688838 L -0.0483111 0.711109 " transform="matrix(680,0,0,660,0,0)"/>
<path style="fill:none;stroke-width:0.005;stroke-linecap:butt;stroke-linejoin:miter;stroke:rgb(26.865672%,0%,11.940299%);stroke-opacity:0.6;stroke-miterlimit:10;" d="M 0.233014 0.724728 L -0.0511604 0.830729 " transform="matrix(680,0,0,660,0,0)"/>
<path style="fill:none;stroke-width:0.005;stroke-linecap:butt;stroke-linejoin:miter;stroke:rgb(26.865672%,0%,11.940299%);stroke-opacity:0.6;stroke-miterlimit:10;" d="M 0.314367 0.671271 L 0.220014 0.652545 " transform="matrix(680,0,0,660,0,0)"/>
<path style="fill:none;stroke-width:0.005;stroke-linecap:butt;stroke-linejoin:miter;stroke:rgb(26.865672%,0%,11.940299%);stroke-opacity:0.6;stroke-miterlimit:10;" d="M 0.47519 0.733227 L 0.756083 0.859067 " transform="matrix(680,0,0,660,0,0)"/>
<path style="fill:none;stroke-width:0.005;stroke-linecap:butt;stroke-linejoin:miter;stroke:rgb(26.865672%,0%,11.940299%);stroke-opacity:0.6;stroke-miterlimit:10;" d="M 0.479096 0.701651 L 0.7691 0.753806 " transform="matrix(680,0,0,660,0,0)"/>
<path style="fill:none;stroke-width:0.005;stroke-linecap:butt;stroke-linejoin:miter;stroke:rgb(26.865672%,0%,11.940299%);stroke-opacity:0.6;stroke-miterlimit:10;" d="M 0.606514 0.547047 L 1.193836 0.238465 " transform="matrix(680,0,0,660,0,0)"/>
<path style="fill:none;stroke-width:0.005;stroke-linecap:butt;stroke-linejoin:miter;stroke:rgb(26.865672%,0%,11.940299%);stroke-opacity:0.6;stroke-miterlimit:10;" d="M 0.649696 0.738625 L 1.33777 0.877048 " transform="matrix(680,0,0,660,0,0)"/>
<path style="fill:none;stroke-width:0.005;stroke-linecap:butt;stroke-linejoin:miter;stroke:rgb(26.865672%,0%,11.940299%);stroke-opacity:0.6;stroke-miterlimit:10;" d="M 0.245789 0.625296 L -0.00858801 0.499296 " transform="matrix(680,0,0,660,0,0)"/>
<path style="fill:none;stroke-width:0.005;stroke-linecap:butt;stroke-linejoin:miter;stroke:rgb(26.865672%,0%,11.940299%);stroke-opacity:0.6;stroke-miterlimit:10;" d="M 1.015929 0.885115 L 2.558548 1.365365 " transform="matrix(680,0,0,660,0,0)"/>
<path style="fill:none;stroke-width:0.005;stroke-linecap:butt;stroke-linejoin:miter;stroke:rgb(26.865672%,0%,11.940299%);stroke-opacity:0.6;stroke-miterlimit:10;" d="M 0.466785 0.744975 L 0.728073 0.89823 " transform="matrix(680,0,0,660,0,0)"/>
<path style="fill:none;stroke-width:0.005;stroke-linecap:butt;stroke-linejoin:miter;stroke:rgb(26.865672%,0%,11.940299%);stroke-opacity:0.6;stroke-miterlimit:10;" d="M 0.085656 0.564098 L -0.542354 0.295295 " transform="matrix(680,0,0,660,0,0)"/>
<path style="fill:none;stroke-width:0.005;stroke-linecap:butt;stroke-linejoin:miter;stroke:rgb(26.865672%,0%,11.940299%);stroke-opacity:0.6;stroke-miterlimit:10;" d="M 0.323656 0.632635 L 0.250965 0.523757 " transform="matrix(680,0,0,660,0,0)"/>
<path style="fill:none;stroke-width:0.005;stroke-linecap:butt;stroke-linejoin:miter;stroke:rgb(26.865672%,0%,11.940299%);stroke-opacity:0.6;stroke-miterlimit:10;" d="M 0.360208 0.852823 L 0.372811 1.257718 " transform="matrix(680,0,0,660,0,0)"/>
<path style="fill:none;stroke-width:0.005;stroke-linecap:butt;stroke-linejoin:miter;stroke:rgb(26.865672%,0%,11.940299%);stroke-opacity:0.6;stroke-miterlimit:10;" d="M 0.347582 0.719117 L 0.330733 0.812032 " transform="matrix(680,0,0,660,0,0)"/>
<path style="fill:none;stroke-width:0.005;stroke-linecap:butt;stroke-linejoin:miter;stroke:rgb(26.865672%,0%,11.940299%);stroke-opacity:0.6;stroke-miterlimit:10;" d="M 0.344508 0.690152 L 0.320485 0.715471 " transform="matrix(680,0,0,660,0,0)"/>
<path style="fill:none;stroke-width:0.005;stroke-linecap:butt;stroke-linejoin:miter;stroke:rgb(26.865672%,0%,11.940299%);stroke-opacity:0.6;stroke-miterlimit:10;" d="M 0.475477 0.607836 L 0.757037 0.441098 " transform="matrix(680,0,0,660,0,0)"/>
<path style="fill:none;stroke-width:0.005;stroke-linecap:butt;stroke-linejoin:miter;stroke:rgb(26.865672%,0%,11.940299%);stroke-opacity:0.6;stroke-miterlimit:10;" d="M 0.436144 0.885594 L 0.625936 1.366957 " transform="matrix(680,0,0,660,0,0)"/>
<path style="fill:none;stroke-width:0.005;stroke-linecap:butt;stroke-linejoin:miter;stroke:rgb(26.865672%,0%,11.940299%);stroke-opacity:0.6;stroke-miterlimit:10;" d="M 0.174839 0.393194 L -0.245083 -0.274384 " transform="matrix(680,0,0,660,0,0)"/>
<path style="fill:none;stroke-width:0.005;stroke-linecap:butt;stroke-linejoin:miter;stroke:rgb(26.865672%,0%,11.940299%);stroke-opacity:0.6;stroke-miterlimit:10;" d="M 0.288689 0.602924 L 0.134415 0.424722 " transform="matrix(680,0,0,660,0,0)"/>
<path style="fill:none;stroke-width:0.005;stroke-linecap:butt;stroke-linejoin:miter;stroke:rgb(26.865672%,0%,11.940299%);stroke-opacity:0.6;stroke-miterlimit:10;" d="M 0.296502 0.750491 L 0.160461 0.916619 " transform="matrix(680,0,0,660,0,0)"/>
<path style="fill:none;stroke-width:0.005;stroke-linecap:butt;stroke-linejoin:miter;stroke:rgb(26.865672%,0%,11.940299%);stroke-opacity:0.6;stroke-miterlimit:10;" d="M 0.283743 0.89488 L 0.117923 1.397899 " transform="matrix(680,0,0,660,0,0)"/>
<path style="fill:none;stroke-width:0.005;stroke-linecap:butt;stroke-linejoin:miter;stroke:rgb(26.865672%,0%,11.940299%);stroke-opacity:0.6;stroke-miterlimit:10;" d="M 0.173369 0.547023 L -0.249989 0.238382 " transform="matrix(680,0,0,660,0,0)"/>
<path style="fill:none;stroke-width:0.005;stroke-linecap:butt;stroke-linejoin:miter;stroke:rgb(26.865672%,0%,11.940299%);stroke-opacity:0.6;stroke-miterlimit:10;" d="M 0.387006 0.861458 L 0.462144 1.286512 " transform="matrix(680,0,0,660,0,0)"/>
<path style="fill:none;stroke-width:0.005;stroke-linecap:butt;stroke-linejoin:miter;stroke:rgb(26.865672%,0%,11.940299%);stroke-opacity:0.6;stroke-miterlimit:10;" d="M 0.488856 0.801054 L 0.801631 1.085144 " transform="matrix(680,0,0,660,0,0)"/>
<path style="fill:none;stroke-width:0.005;stroke-linecap:butt;stroke-linejoin:miter;stroke:rgb(26.865672%,0%,11.940299%);stroke-opacity:0.6;stroke-miterlimit:10;" d="M 0.478711 0.522674 L 0.767831 0.157221 " transform="matrix(680,0,0,660,0,0)"/>
<path style="fill:none;stroke-width:0.005;stroke-linecap:butt;stroke-linejoin:miter;stroke:rgb(26.865672%,0%,11.940299%);stroke-opacity:0.6;stroke-miterlimit:10;" d="M 0.361242 0.747591 L 0.376258 0.906937 " transform="matrix(680,0,0,660,0,0)"/>
<path style="fill:none;stroke-width:0.005;stroke-linecap:butt;stroke-linejoin:miter;stroke:rgb(26.865672%,0%,11.940299%);stroke-opacity:0.6;stroke-miterlimit:10;" d="M 0.444594 0.803646 L 0.654107 1.093786 " transform="matrix(680,0,0,660,0,0)"/>
<path style="fill:none;stroke-width:0.005;stroke-linecap:butt;stroke-linejoin:miter;stroke:rgb(26.865672%,0%,11.940299%);stroke-opacity:0.6;stroke-miterlimit:10;" d="M 0.371163 0.665572 L 0.409318 0.633552 " transform="matrix(680,0,0,660,0,0)"/>
<path style="fill:none;stroke-width:0.005;stroke-linecap:butt;stroke-linejoin:miter;stroke:rgb(26.865672%,0%,11.940299%);stroke-opacity:0.6;stroke-miterlimit:10;" d="M 0.504544 0.502462 L 0.853941 0.0898378 " transform="matrix(680,0,0,660,0,0)"/>
<path style="fill:none;stroke-width:0.005;stroke-linecap:butt;stroke-linejoin:miter;stroke:rgb(26.865672%,0%,11.940299%);stroke-opacity:0.6;stroke-miterlimit:10;" d="M 0.357439 0.760932 L 0.363574 0.951403 " transform="matrix(680,0,0,660,0,0)"/>
<path style="fill:none;stroke-width:0.005;stroke-linecap:butt;stroke-linejoin:miter;stroke:rgb(26.865672%,0%,11.940299%);stroke-opacity:0.6;stroke-miterlimit:10;" d="M 0.24699 0.87687 L -0.00458984 1.337861 " transform="matrix(680,0,0,660,0,0)"/>
<path style="fill:none;stroke-width:0.005;stroke-linecap:butt;stroke-linejoin:miter;stroke:rgb(26.865672%,0%,11.940299%);stroke-opacity:0.6;stroke-miterlimit:10;" d="M 0.311483 0.576776 L 0.210392 0.337559 " transform="matrix(680,0,0,660,0,0)"/>
<path style="fill:none;stroke-width:0.005;stroke-linecap:butt;stroke-linejoin:miter;stroke:rgb(26.865672%,0%,11.940299%);stroke-opacity:0.6;stroke-miterlimit:10;" d="M 0.37257 0.656457 L 0.414022 0.603166 " transform="matrix(680,0,0,660,0,0)"/>
<path style="fill:none;stroke-width:0.005;stroke-linecap:butt;stroke-linejoin:miter;stroke:rgb(26.865672%,0%,11.940299%);stroke-opacity:0.6;stroke-miterlimit:10;" d="M 0.229653 0.791347 L -0.0623679 1.052788 " transform="matrix(680,0,0,660,0,0)"/>
<path style="fill:none;stroke-width:0.005;stroke-linecap:butt;stroke-linejoin:miter;stroke:rgb(26.865672%,0%,11.940299%);stroke-opacity:0.6;stroke-miterlimit:10;" d="M 0.34537 0.520088 L 0.323346 0.148597 " transform="matrix(680,0,0,660,0,0)"/>
<path style="fill:none;stroke-width:0.005;stroke-linecap:butt;stroke-linejoin:miter;stroke:rgb(26.865672%,0%,11.940299%);stroke-opacity:0.6;stroke-miterlimit:10;" d="M 0.482462 0.665968 L 0.780319 0.634878 " transform="matrix(680,0,0,660,0,0)"/>
<path style="fill:none;stroke-width:0.005;stroke-linecap:butt;stroke-linejoin:miter;stroke:rgb(26.865672%,0%,11.940299%);stroke-opacity:0.6;stroke-miterlimit:10;" d="M 0.410524 0.862938 L 0.540527 1.291424 " transform="matrix(680,0,0,660,0,0)"/>
<path style="fill:none;stroke-width:0.005;stroke-linecap:butt;stroke-linejoin:miter;stroke:rgb(26.865672%,0%,11.940299%);stroke-opacity:0.6;stroke-miterlimit:10;" d="M 0.314097 0.629847 L 0.219112 0.514465 " transform="matrix(680,0,0,660,0,0)"/>
<path style="fill:none;stroke-width:0.005;stroke-linecap:butt;stroke-linejoin:miter;stroke:rgb(26.865672%,0%,11.940299%);stroke-opacity:0.6;stroke-miterlimit:10;" d="M 0.0679802 0.166406 L -0.601281 -1.030339 " transform="matrix(680,0,0,660,0,0)"/>
<path style="fill:none;stroke-width:0.005;stroke-linecap:butt;stroke-linejoin:miter;stroke:rgb(26.865672%,0%,11.940299%);stroke-opacity:0.6;stroke-miterlimit:10;" d="M 0.274586 0.787802 L 0.0874138 1.04098 " transform="matrix(680,0,0,660,0,0)"/>
<path style="fill:none;stroke-width:0.005;stroke-linecap:butt;stroke-linejoin:miter;stroke:rgb(26.865672%,0%,11.940299%);stroke-opacity:0.6;stroke-miterlimit:10;" d="M 0.35089 0.658641 L 0.341745 0.61044 " transform="matrix(680,0,0,660,0,0)"/>
<path style="fill:none;stroke-width:0.005;stroke-linecap:butt;stroke-linejoin:miter;stroke:rgb(26.865672%,0%,11.940299%);stroke-opacity:0.6;stroke-miterlimit:10;" d="M 0.301373 0.937683 L 0.176689 1.540572 " transform="matrix(680,0,0,660,0,0)"/>
<path style="fill:none;stroke-width:0.005;stroke-linecap:butt;stroke-linejoin:miter;stroke:rgb(26.865672%,0%,11.940299%);stroke-opacity:0.6;stroke-miterlimit:10;" d="M 0.192182 0.55783 L -0.187264 0.274402 " transform="matrix(680,0,0,660,0,0)"/>
<path style="fill:none;stroke-width:0.005;stroke-linecap:butt;stroke-linejoin:miter;stroke:rgb(26.865672%,0%,11.940299%);stroke-opacity:0.6;stroke-miterlimit:10;" d="M 0.403464 0.52542 L 0.516992 0.166377 " transform="matrix(680,0,0,660,0,0)"/>
<path style="fill:none;stroke-width:0.005;stroke-linecap:butt;stroke-linejoin:miter;stroke:rgb(26.865672%,0%,11.940299%);stroke-opacity:0.6;stroke-miterlimit:10;" d="M 0.359823 0.662074 L 0.37153 0.621887 " transform="matrix(680,0,0,660,0,0)"/>
<path style="fill:none;stroke-width:0.005;stroke-linecap:butt;stroke-linejoin:miter;stroke:rgb(26.865672%,0%,11.940299%);stroke-opacity:0.6;stroke-miterlimit:10;" d="M 0.774121 0.966696 L 1.752516 1.637287 " transform="matrix(680,0,0,660,0,0)"/>
<path style="fill:none;stroke-width:0.005;stroke-linecap:butt;stroke-linejoin:miter;stroke:rgb(26.865672%,0%,11.940299%);stroke-opacity:0.6;stroke-miterlimit:10;" d="M 0.343474 0.540637 L 0.317027 0.217087 " transform="matrix(680,0,0,660,0,0)"/>
<path style="fill:none;stroke-width:0.005;stroke-linecap:butt;stroke-linejoin:miter;stroke:rgb(26.865672%,0%,11.940299%);stroke-opacity:0.6;stroke-miterlimit:10;" d="M 0.393296 0.72384 L 0.4831 0.827764 " transform="matrix(680,0,0,660,0,0)"/>
<path style="fill:none;stroke-width:0.005;stroke-linecap:butt;stroke-linejoin:miter;stroke:rgb(26.865672%,0%,11.940299%);stroke-opacity:0.6;stroke-miterlimit:10;" d="M 0.355986 0.544253 L 0.358737 0.229161 " transform="matrix(680,0,0,660,0,0)"/>
<path style="fill:none;stroke-width:0.005;stroke-linecap:butt;stroke-linejoin:miter;stroke:rgb(26.865672%,0%,11.940299%);stroke-opacity:0.6;stroke-miterlimit:10;" d="M 0.14861 0.502882 L -0.332514 0.0912524 " transform="matrix(680,0,0,660,0,0)"/>
<path style="fill:none;stroke-width:0.005;stroke-linecap:butt;stroke-linejoin:miter;stroke:rgb(26.865672%,0%,11.940299%);stroke-opacity:0.6;stroke-miterlimit:10;" d="M 0.288666 0.801574 L 0.134341 1.086884 " transform="matrix(680,0,0,660,0,0)"/>
<path style="fill:none;stroke-width:0.005;stroke-linecap:butt;stroke-linejoin:miter;stroke:rgb(26.865672%,0%,11.940299%);stroke-opacity:0.6;stroke-miterlimit:10;" d="M 0.34263 0.461245 L 0.314223 -0.0475379 " transform="matrix(680,0,0,660,0,0)"/>
<path style="fill:none;stroke-width:0.005;stroke-linecap:butt;stroke-linejoin:miter;stroke:rgb(26.865672%,0%,11.940299%);stroke-opacity:0.6;stroke-miterlimit:10;" d="M 0.183289 0.554906 L -0.216923 0.264648 " transform="matrix(680,0,0,660,0,0)"/>
<path style="fill:none;stroke-width:0.00333333;stroke-linecap:butt;stroke-linejoin:miter;stroke:rgb(0%,61.19403%,0%);stroke-opacity:0.7;stroke-miterlimit:10;" d="M 0.764212 0.5 C 0.764212 0.645922 0.645921 0.764216 0.5 0.764216 C 0.354079 0.764216 0.235788 0.645922 0.235788 0.5 C 0.235788 0.354078 0.354079 0.235784 0.5 0.235784 C 0.645921 0.235784 0.764212 0.354078 0.764212 0.5 " transform="matrix(680,0,0,660,0,0)"/>
<path style=" stroke:none;fill-rule:nonzero;fill:rgb(0%,61.19403%,0%);fill-opacity:0.7;" d="M 519.664063 330 C 519.664063 426.308594 439.226563 504.382813 340 504.382813 C 240.773438 504.382813 160.335938 426.308594 160.335938 330 C 160.335938 233.691406 240.773438 155.617188 340 155.617188 C 439.226563 155.617188 519.664063 233.691406 519.664063 330 "/>
<path style="fill:none;stroke-width:0.00333333;stroke-linecap:butt;stroke-linejoin:miter;stroke:rgb(61.19403%,0%,0%);stroke-opacity:1;stroke-miterlimit:10;" d="M 0.458749 0.333333 C 0.458749 0.402598 0.402602 0.458754 0.333335 0.458754 C 0.264068 0.458754 0.207916 0.402598 0.207916 0.333333 C 0.207916 0.264068 0.264068 0.207913 0.333335 0.207913 C 0.402602 0.207913 0.458749 0.264068 0.458749 0.333333 " transform="matrix(680,0,0,660,0,0)"/>
<path style=" stroke:none;fill-rule:nonzero;fill:rgb(61.19403%,11.940299%,0%);fill-opacity:0.3;" d="M 311.949219 220 C 311.949219 265.714844 273.769531 302.777344 226.667969 302.777344 C 179.566406 302.777344 141.382813 265.714844 141.382813 220 C 141.382813 174.285156 179.566406 137.222656 226.667969 137.222656 C 273.769531 137.222656 311.949219 174.285156 311.949219 220 "/>
<path style="fill:none;stroke-width:0.00333333;stroke-linecap:butt;stroke-linejoin:miter;stroke:rgb(61.19403%,0%,0%);stroke-opacity:1;stroke-miterlimit:10;" d="M 0.8272 0.666667 C 0.8272 0.755327 0.755325 0.827202 0.666665 0.827202 C 0.578004 0.827202 0.506129 0.755327 0.506129 0.666667 C 0.506129 0.578007 0.578004 0.506132 0.666665 0.506132 C 0.755325 0.506132 0.8272 0.578007 0.8272 0.666667 " transform="matrix(680,0,0,660,0,0)"/>
<path style=" stroke:none;fill-rule:nonzero;fill:rgb(61.19403%,11.940299%,0%);fill-opacity:0.3;" d="M 562.496094 440 C 562.496094 498.515625 513.621094 545.953125 453.332031 545.953125 C 393.042969 545.953125 344.167969 498.515625 344.167969 440 C 344.167969 381.484375 393.042969 334.046875 453.332031 334.046875 C 513.621094 334.046875 562.496094 381.484375 562.496094 440 "/>
<path style="fill:none;stroke-width:0.05;stroke-linecap:butt;stroke-linejoin:miter;stroke:rgb(61.19403%,11.940299%,26.865672%);stroke-opacity:0.5;stroke-miterlimit:10;" d="M 0.5 0.2 C 0.833335 0.533333 1.033335 0.733333 0 0.3 " transform="matrix(680,0,0,660,0,0)"/>
<path style="fill:none;stroke-width:0.03;stroke-linecap:butt;stroke-linejoin:miter;stroke:rgb(61.19403%,11.940299%,26.865672%);stroke-opacity:0.5;stroke-miterlimit:10;" d="M 0.823127 0.533333 L 0.823127 0.533333 " transform="matrix(680,0,0,660,0,0)"/>
<path style="fill:none;stroke-width:0.03;stroke-linecap:butt;stroke-linejoin:miter;stroke:rgb(61.19403%,11.940299%,26.865672%);stroke-opacity:0.5;stroke-miterlimit:10;" d="M 0.812925 0.533333 L 0.187075 0.187074 " transform="matrix(680,0,0,660,0,0)"/>
<path style="fill:none;stroke-width:0.03;stroke-linecap:butt;stroke-linejoin:miter;stroke:rgb(61.19403%,11.940299%,26.865672%);stroke-opacity:0.5;stroke-miterlimit:10;" d="M 0.469388 0.2 C 1.469388 1.2 1.802723 1.533333 0.0306124 0.3 " transform="matrix(680,0,0,660,0,0)"/>
<path style="fill:none;stroke-width:0.03;stroke-linecap:butt;stroke-linejoin:miter;stroke:rgb(61.19403%,11.940299%,26.865672%);stroke-opacity:0.5;stroke-miterlimit:10;" d="M 0.459185 0.2 C 1.459185 1.2 1.792515 1.533333 0.0408146 0.3 " transform="matrix(680,0,0,660,0,0)"/>
<path style="fill:none;stroke-width:0.03;stroke-linecap:butt;stroke-linejoin:miter;stroke:rgb(61.19403%,11.940299%,26.865672%);stroke-opacity:0.5;stroke-miterlimit:10;" d="M 0.782313 0.533333 L 0.217687 0.217685 " transform="matrix(680,0,0,660,0,0)"/>
<path style="fill:none;stroke-width:0.02;stroke-linecap:butt;stroke-linejoin:miter;stroke:rgb(61.19403%,11.940299%,26.865672%);stroke-opacity:0.5;stroke-miterlimit:10;" d="M 0.438775 0.2 C 1.438775 1.2 1.938775 1.7 -0.438775 -0.2 " transform="matrix(680,0,0,660,0,0)"/>
<path style="fill:none;stroke-width:0.02;stroke-linecap:butt;stroke-linejoin:miter;stroke:rgb(61.19403%,11.940299%,26.865672%);stroke-opacity:0.5;stroke-miterlimit:10;" d="M 0.928573 0.7 L 0.0714269 0.0714311 " transform="matrix(680,0,0,660,0,0)"/>
<path style="fill:none;stroke-width:0.02;stroke-linecap:butt;stroke-linejoin:miter;stroke:rgb(61.19403%,11.940299%,26.865672%);stroke-opacity:0.5;stroke-miterlimit:10;" d="M 0.418365 0.2 C 1.418365 1.2 1.918365 1.7 -0.418365 -0.2 " transform="matrix(680,0,0,660,0,0)"/>
<path style="fill:none;stroke-width:0.02;stroke-linecap:butt;stroke-linejoin:miter;stroke:rgb(61.19403%,11.940299%,26.865672%);stroke-opacity:0.5;stroke-miterlimit:10;" d="M 0.408163 0.2 C 1.408163 1.2 1.908163 1.7 -0.408163 -0.2 " transform="matrix(680,0,0,660,0,0)"/>
<path style="fill:none;stroke-width:0.02;stroke-linecap:butt;stroke-linejoin:miter;stroke:rgb(61.19403%,11.940299%,26.865672%);stroke-opacity:0.5;stroke-miterlimit:10;" d="M 0.897961 0.7 L -0.397961 -0.397958 " transform="matrix(680,0,0,660,0,0)"/>
<path style="fill:none;stroke-width:0.02;stroke-linecap:butt;stroke-linejoin:miter;stroke:rgb(61.19403%,11.940299%,26.865672%);stroke-opacity:0.5;stroke-miterlimit:10;" d="M 0.887753 0.7 L 0.112247 0.112246 " transform="matrix(680,0,0,660,0,0)"/>
<path style="fill:none;stroke-width:0.02;stroke-linecap:butt;stroke-linejoin:miter;stroke:rgb(61.19403%,11.940299%,26.865672%);stroke-opacity:0.5;stroke-miterlimit:10;" d="M 0.877551 0.7 L 0.122449 0.122449 " transform="matrix(680,0,0,660,0,0)"/>
<path style="fill:none;stroke-width:0.02;stroke-linecap:butt;stroke-linejoin:miter;stroke:rgb(61.19403%,11.940299%,26.865672%);stroke-opacity:0.5;stroke-miterlimit:10;" d="M 0.367348 0.2 C 1.367348 1.2 1.867348 1.7 -0.367348 -0.2 " transform="matrix(680,0,0,660,0,0)"/>
<path style="fill:none;stroke-width:0.02;stroke-linecap:butt;stroke-linejoin:miter;stroke:rgb(61.19403%,11.940299%,26.865672%);stroke-opacity:0.5;stroke-miterlimit:10;" d="M 0.85714 0.7 L 0.14286 0.142856 " transform="matrix(680,0,0,660,0,0)"/>
<path style="fill:none;stroke-width:0.02;stroke-linecap:butt;stroke-linejoin:miter;stroke:rgb(61.19403%,11.940299%,26.865672%);stroke-opacity:0.5;stroke-miterlimit:10;" d="M 0.346938 0.2 C 1.346938 1.2 1.846938 1.7 -0.346938 -0.2 " transform="matrix(680,0,0,660,0,0)"/>
<path style="fill:none;stroke-width:0.02;stroke-linecap:butt;stroke-linejoin:miter;stroke:rgb(61.19403%,11.940299%,26.865672%);stroke-opacity:0.5;stroke-miterlimit:10;" d="M 0.836736 0.7 L 0.163264 0.163263 " transform="matrix(680,0,0,660,0,0)"/>
<path style="fill:none;stroke-width:0.02;stroke-linecap:butt;stroke-linejoin:miter;stroke:rgb(61.19403%,11.940299%,26.865672%);stroke-opacity:0.5;stroke-miterlimit:10;" d="M 0.826528 0.7 L 0.173472 0.173467 " transform="matrix(680,0,0,660,0,0)"/>
<path style="fill:none;stroke-width:0.02;stroke-linecap:butt;stroke-linejoin:miter;stroke:rgb(61.19403%,11.940299%,26.865672%);stroke-opacity:0.5;stroke-miterlimit:10;" d="M 0.816326 0.7 L 0.816326 0.7 " transform="matrix(680,0,0,660,0,0)"/>
<path style="fill:none;stroke-width:0.02;stroke-linecap:butt;stroke-linejoin:miter;stroke:rgb(61.19403%,11.940299%,26.865672%);stroke-opacity:0.5;stroke-miterlimit:10;" d="M 0.806124 0.7 L 0.193876 0.19388 " transform="matrix(680,0,0,660,0,0)"/>
<path style="fill:none;stroke-width:0.02;stroke-linecap:butt;stroke-linejoin:miter;stroke:rgb(61.19403%,11.940299%,26.865672%);stroke-opacity:0.5;stroke-miterlimit:10;" d="M 0.795916 0.7 L 0.204084 0.204084 " transform="matrix(680,0,0,660,0,0)"/>
<path style="fill:none;stroke-width:0.02;stroke-linecap:butt;stroke-linejoin:miter;stroke:rgb(61.19403%,11.940299%,26.865672%);stroke-opacity:0.5;stroke-miterlimit:10;" d="M 0.285713 0.2 C 1.285713 1.2 1.785713 1.7 -0.285713 -0.2 " transform="matrix(680,0,0,660,0,0)"/>
<path style="fill:none;stroke-width:0.01;stroke-linecap:butt;stroke-linejoin:miter;stroke:rgb(61.19403%,11.940299%,26.865672%);stroke-opacity:0.5;stroke-miterlimit:10;" d="M 1.163264 1.2 L -0.163264 -0.163263 " transform="matrix(680,0,0,660,0,0)"/>
<path style="fill:none;stroke-width:0.01;stroke-linecap:butt;stroke-linejoin:miter;stroke:rgb(61.19403%,11.940299%,26.865672%);stroke-opacity:0.5;stroke-miterlimit:10;" d="M 1.153062 1.2 L -0.153062 -0.15306 " transform="matrix(680,0,0,660,0,0)"/>
<path style="fill:none;stroke-width:0.01;stroke-linecap:butt;stroke-linejoin:miter;stroke:rgb(61.19403%,11.940299%,26.865672%);stroke-opacity:0.5;stroke-miterlimit:10;" d="M 1.14286 1.2 L -0.14286 -0.142856 " transform="matrix(680,0,0,660,0,0)"/>
<path style="fill:none;stroke-width:0.01;stroke-linecap:butt;stroke-linejoin:miter;stroke:rgb(61.19403%,11.940299%,26.865672%);stroke-opacity:0.5;stroke-miterlimit:10;" d="M 1.132652 1.2 L -0.132652 -0.132653 " transform="matrix(680,0,0,660,0,0)"/>
<path style="fill:none;stroke-width:0.01;stroke-linecap:butt;stroke-linejoin:miter;stroke:rgb(61.19403%,11.940299%,26.865672%);stroke-opacity:0.5;stroke-miterlimit:10;" d="M 1.091837 1.2 L -0.0918371 -0.0918383 " transform="matrix(680,0,0,660,0,0)"/>
<path style="fill:none;stroke-width:0.01;stroke-linecap:butt;stroke-linejoin:miter;stroke:rgb(61.19403%,11.940299%,26.865672%);stroke-opacity:0.5;stroke-miterlimit:10;" d="M 1.081635 1.2 L -0.0816349 -0.0816347 " transform="matrix(680,0,0,660,0,0)"/>
<path style="fill:none;stroke-width:0.01;stroke-linecap:butt;stroke-linejoin:miter;stroke:rgb(61.19403%,11.940299%,26.865672%);stroke-opacity:0.5;stroke-miterlimit:10;" d="M 1.071427 1.2 L -0.0714269 -0.0714311 " transform="matrix(680,0,0,660,0,0)"/>
<path style="fill:none;stroke-width:0.01;stroke-linecap:butt;stroke-linejoin:miter;stroke:rgb(61.19403%,11.940299%,26.865672%);stroke-opacity:0.5;stroke-miterlimit:10;" d="M 1.061225 1.2 L -0.0612247 -0.0612216 " transform="matrix(680,0,0,660,0,0)"/>
<path style="fill:none;stroke-width:0.01;stroke-linecap:butt;stroke-linejoin:miter;stroke:rgb(61.19403%,11.940299%,26.865672%);stroke-opacity:0.5;stroke-miterlimit:10;" d="M 1.030612 1.2 L -0.0306124 -0.0306108 " transform="matrix(680,0,0,660,0,0)"/>
<path style="fill:none;stroke-width:0.01;stroke-linecap:butt;stroke-linejoin:miter;stroke:rgb(61.19403%,11.940299%,26.865672%);stroke-opacity:0.5;stroke-miterlimit:10;" d="M 1.02041 1.2 L -0.0204102 -0.0204072 " transform="matrix(680,0,0,660,0,0)"/>
<path style="fill:none;stroke-width:0.01;stroke-linecap:butt;stroke-linejoin:miter;stroke:rgb(61.19403%,11.940299%,26.865672%);stroke-opacity:0.5;stroke-miterlimit:10;" d="M 1.010202 1.2 L -0.0102022 -0.0102036 " transform="matrix(680,0,0,660,0,0)"/>
<path style="fill:none;stroke-width:0.01;stroke-linecap:butt;stroke-linejoin:miter;stroke:rgb(61.19403%,11.940299%,26.865672%);stroke-opacity:0.5;stroke-miterlimit:10;" d="M 1 1.2 L 0 0 " transform="matrix(680,0,0,660,0,0)"/>
</g>
</svg>
