<?xml version="1.0" encoding="UTF-8"?>
<svg xmlns="http://www.w3.org/2000/svg" xmlns:xlink="http://www.w3.org/1999/xlink" width="1320pt" height="1340pt" viewBox="0 0 1320 1340" version="1.1">
<g id="surface1">
<rect x="0" y="0" width="1320" height="1340" style="fill:rgb(40.601504%,43.609023%,15.789474%);fill-opacity:1;stroke:none;"/>
<path style="fill:none;stroke-width:0.005;stroke-linecap:butt;stroke-linejoin:miter;stroke:rgb(40.601504%,0%,15.789474%);stroke-opacity:0.6;stroke-miterlimit:10;" d="M 0.472097 0.356259 L 0.761843 0.356259 " transform="matrix(1320,0,0,1340,0,0)"/>
<path style="fill:none;stroke-width:0.005;stroke-linecap:butt;stroke-linejoin:miter;stroke:rgb(40.601504%,0%,15.789474%);stroke-opacity:0.6;stroke-miterlimit:10;" d="M 0.32405 0.355134 L 0.26835 0.352513 " transform="matrix(1320,0,0,1340,0,0)"/>
<path style="fill:none;stroke-width:0.005;stroke-linecap:butt;stroke-linejoin:miter;stroke:rgb(40.601504%,0%,15.789474%);stroke-opacity:0.6;stroke-miterlimit:10;" d="M 0.843981 0.363549 L 2.001453 0.380559 " transform="matrix(1320,0,0,1340,0,0)"/>
<path style="fill:none;stroke-width:0.005;stroke-linecap:butt;stroke-linejoin:miter;stroke:rgb(40.601504%,0%,15.789474%);stroke-opacity:0.6;stroke-miterlimit:10;" d="M 0.289459 0.357952 L 0.153048 0.361902 " transform="matrix(1320,0,0,1340,0,0)"/>
<path style="fill:none;stroke-width:0.005;stroke-linecap:butt;stroke-linejoin:miter;stroke:rgb(40.601504%,0%,15.789474%);stroke-opacity:0.6;stroke-miterlimit:10;" d="M 0.441368 0.360678 L 0.659413 0.370995 " transform="matrix(1320,0,0,1340,0,0)"/>
<path style="fill:none;stroke-width:0.005;stroke-linecap:butt;stroke-linejoin:miter;stroke:rgb(40.601504%,0%,15.789474%);stroke-opacity:0.6;stroke-miterlimit:10;" d="M 0.33357 0.2645 L 0.300083 0.0503994 " transform="matrix(1320,0,0,1340,0,0)"/>
<path style="fill:none;stroke-width:0.005;stroke-linecap:butt;stroke-linejoin:miter;stroke:rgb(40.601504%,0%,15.789474%);stroke-opacity:0.6;stroke-miterlimit:10;" d="M 0.477225 0.364748 L 0.778936 0.384562 " transform="matrix(1320,0,0,1340,0,0)"/>
<path style="fill:none;stroke-width:0.005;stroke-linecap:butt;stroke-linejoin:miter;stroke:rgb(40.601504%,0%,15.789474%);stroke-opacity:0.6;stroke-miterlimit:10;" d="M 0.193522 0.343829 L -0.166738 0.314823 " transform="matrix(1320,0,0,1340,0,0)"/>
<path style="fill:none;stroke-width:0.005;stroke-linecap:butt;stroke-linejoin:miter;stroke:rgb(40.601504%,0%,15.789474%);stroke-opacity:0.6;stroke-miterlimit:10;" d="M 0.323213 0.354588 L 0.265563 0.350694 " transform="matrix(1320,0,0,1340,0,0)"/>
<path style="fill:none;stroke-width:0.005;stroke-linecap:butt;stroke-linejoin:miter;stroke:rgb(40.601504%,0%,15.789474%);stroke-opacity:0.6;stroke-miterlimit:10;" d="M 0.466563 0.282238 L 0.743398 0.109527 " transform="matrix(1320,0,0,1340,0,0)"/>
<path style="fill:none;stroke-width:0.005;stroke-linecap:butt;stroke-linejoin:miter;stroke:rgb(40.601504%,0%,15.789474%);stroke-opacity:0.6;stroke-miterlimit:10;" d="M 0.335159 0.352921 L 0.30538 0.345138 " transform="matrix(1320,0,0,1340,0,0)"/>
<path style="fill:none;stroke-width:0.005;stroke-linecap:butt;stroke-linejoin:miter;stroke:rgb(40.601504%,0%,15.789474%);stroke-opacity:0.6;stroke-miterlimit:10;" d="M 0.462704 0.201956 L 0.730537 -0.158084 " transform="matrix(1320,0,0,1340,0,0)"/>
<path style="fill:none;stroke-width:0.005;stroke-linecap:butt;stroke-linejoin:miter;stroke:rgb(40.601504%,0%,15.789474%);stroke-opacity:0.6;stroke-miterlimit:10;" d="M 0.310159 0.339427 L 0.222047 0.300152 " transform="matrix(1320,0,0,1340,0,0)"/>
<path style="fill:none;stroke-width:0.005;stroke-linecap:butt;stroke-linejoin:miter;stroke:rgb(40.601504%,0%,15.789474%);stroke-opacity:0.6;stroke-miterlimit:10;" d="M 0.400837 0.271706 L 0.524308 0.0744199 " transform="matrix(1320,0,0,1340,0,0)"/>
<path style="fill:none;stroke-width:0.005;stroke-linecap:butt;stroke-linejoin:miter;stroke:rgb(40.601504%,0%,15.789474%);stroke-opacity:0.6;stroke-miterlimit:10;" d="M 0.42851 0.374006 L 0.616548 0.415421 " transform="matrix(1320,0,0,1340,0,0)"/>
<path style="fill:none;stroke-width:0.005;stroke-linecap:butt;stroke-linejoin:miter;stroke:rgb(40.601504%,0%,15.789474%);stroke-opacity:0.6;stroke-miterlimit:10;" d="M 0.303326 0.349662 L 0.199275 0.334273 " transform="matrix(1320,0,0,1340,0,0)"/>
<path style="fill:none;stroke-width:0.005;stroke-linecap:butt;stroke-linejoin:miter;stroke:rgb(40.601504%,0%,15.789474%);stroke-opacity:0.6;stroke-miterlimit:10;" d="M 0.305821 0.348102 L 0.207594 0.329072 " transform="matrix(1320,0,0,1340,0,0)"/>
<path style="fill:none;stroke-width:0.005;stroke-linecap:butt;stroke-linejoin:miter;stroke:rgb(40.601504%,0%,15.789474%);stroke-opacity:0.6;stroke-miterlimit:10;" d="M 0.309061 0.367307 L 0.218386 0.393091 " transform="matrix(1320,0,0,1340,0,0)"/>
<path style="fill:none;stroke-width:0.005;stroke-linecap:butt;stroke-linejoin:miter;stroke:rgb(40.601504%,0%,15.789474%);stroke-opacity:0.6;stroke-miterlimit:10;" d="M 0.437 0.338331 L 0.644854 0.296496 " transform="matrix(1320,0,0,1340,0,0)"/>
<path style="fill:none;stroke-width:0.005;stroke-linecap:butt;stroke-linejoin:miter;stroke:rgb(40.601504%,0%,15.789474%);stroke-opacity:0.6;stroke-miterlimit:10;" d="M 0.328888 0.352793 L 0.284479 0.344703 " transform="matrix(1320,0,0,1340,0,0)"/>
<path style="fill:none;stroke-width:0.005;stroke-linecap:butt;stroke-linejoin:miter;stroke:rgb(40.601504%,0%,15.789474%);stroke-opacity:0.6;stroke-miterlimit:10;" d="M 0.446567 0.383221 L 0.676746 0.446129 " transform="matrix(1320,0,0,1340,0,0)"/>
<path style="fill:none;stroke-width:0.005;stroke-linecap:butt;stroke-linejoin:miter;stroke:rgb(40.601504%,0%,15.789474%);stroke-opacity:0.6;stroke-miterlimit:10;" d="M 0.402693 0.422607 L 0.530495 0.577422 " transform="matrix(1320,0,0,1340,0,0)"/>
<path style="fill:none;stroke-width:0.005;stroke-linecap:butt;stroke-linejoin:miter;stroke:rgb(40.601504%,0%,15.789474%);stroke-opacity:0.6;stroke-miterlimit:10;" d="M 0.328294 0.405113 L 0.282496 0.519111 " transform="matrix(1320,0,0,1340,0,0)"/>
<path style="fill:none;stroke-width:0.005;stroke-linecap:butt;stroke-linejoin:miter;stroke:rgb(40.601504%,0%,15.789474%);stroke-opacity:0.6;stroke-miterlimit:10;" d="M 0.487991 0.414613 L 0.81482 0.550778 " transform="matrix(1320,0,0,1340,0,0)"/>
<path style="fill:none;stroke-width:0.005;stroke-linecap:butt;stroke-linejoin:miter;stroke:rgb(40.601504%,0%,15.789474%);stroke-opacity:0.6;stroke-miterlimit:10;" d="M 0.548438 0.306075 L 1.016309 0.188981 " transform="matrix(1320,0,0,1340,0,0)"/>
<path style="fill:none;stroke-width:0.005;stroke-linecap:butt;stroke-linejoin:miter;stroke:rgb(40.601504%,0%,15.789474%);stroke-opacity:0.6;stroke-miterlimit:10;" d="M 0.343655 0.311678 L 0.333703 0.207658 " transform="matrix(1320,0,0,1340,0,0)"/>
<path style="fill:none;stroke-width:0.005;stroke-linecap:butt;stroke-linejoin:miter;stroke:rgb(40.601504%,0%,15.789474%);stroke-opacity:0.6;stroke-miterlimit:10;" d="M 0.0601267 0.44317 L -0.61139 0.645965 " transform="matrix(1320,0,0,1340,0,0)"/>
<path style="fill:none;stroke-width:0.005;stroke-linecap:butt;stroke-linejoin:miter;stroke:rgb(40.601504%,0%,15.789474%);stroke-opacity:0.6;stroke-miterlimit:10;" d="M 0.421387 0.338267 L 0.592809 0.296289 " transform="matrix(1320,0,0,1340,0,0)"/>
<path style="fill:none;stroke-width:0.005;stroke-linecap:butt;stroke-linejoin:miter;stroke:rgb(40.601504%,0%,15.789474%);stroke-opacity:0.6;stroke-miterlimit:10;" d="M 0.210713 0.320866 L -0.109434 0.23829 " transform="matrix(1320,0,0,1340,0,0)"/>
<path style="fill:none;stroke-width:0.005;stroke-linecap:butt;stroke-linejoin:miter;stroke:rgb(40.601504%,0%,15.789474%);stroke-opacity:0.6;stroke-miterlimit:10;" d="M 0.412902 0.422627 L 0.564533 0.577487 " transform="matrix(1320,0,0,1340,0,0)"/>
<path style="fill:none;stroke-width:0.005;stroke-linecap:butt;stroke-linejoin:miter;stroke:rgb(40.601504%,0%,15.789474%);stroke-opacity:0.6;stroke-miterlimit:10;" d="M 0.319469 0.33952 L 0.253081 0.300464 " transform="matrix(1320,0,0,1340,0,0)"/>
<path style="fill:none;stroke-width:0.005;stroke-linecap:butt;stroke-linejoin:miter;stroke:rgb(40.601504%,0%,15.789474%);stroke-opacity:0.6;stroke-miterlimit:10;" d="M 0.324941 0.369762 L 0.271328 0.401268 " transform="matrix(1320,0,0,1340,0,0)"/>
<path style="fill:none;stroke-width:0.005;stroke-linecap:butt;stroke-linejoin:miter;stroke:rgb(40.601504%,0%,15.789474%);stroke-opacity:0.6;stroke-miterlimit:10;" d="M -0.0205611 0.450204 L -0.880347 0.669412 " transform="matrix(1320,0,0,1340,0,0)"/>
<path style="fill:none;stroke-width:0.005;stroke-linecap:butt;stroke-linejoin:miter;stroke:rgb(40.601504%,0%,15.789474%);stroke-opacity:0.6;stroke-miterlimit:10;" d="M 0.25862 0.325233 L 0.0502575 0.252839 " transform="matrix(1320,0,0,1340,0,0)"/>
<path style="fill:none;stroke-width:0.005;stroke-linecap:butt;stroke-linejoin:miter;stroke:rgb(40.601504%,0%,15.789474%);stroke-opacity:0.6;stroke-miterlimit:10;" d="M 0.365832 0.248749 L 0.407623 -0.0021018 " transform="matrix(1320,0,0,1340,0,0)"/>
<path style="fill:none;stroke-width:0.005;stroke-linecap:butt;stroke-linejoin:miter;stroke:rgb(40.601504%,0%,15.789474%);stroke-opacity:0.6;stroke-miterlimit:10;" d="M 0.33903 0.365322 L 0.318285 0.386471 " transform="matrix(1320,0,0,1340,0,0)"/>
<path style="fill:none;stroke-width:0.005;stroke-linecap:butt;stroke-linejoin:miter;stroke:rgb(40.601504%,0%,15.789474%);stroke-opacity:0.6;stroke-miterlimit:10;" d="M 0.331836 0.349545 L 0.294306 0.333882 " transform="matrix(1320,0,0,1340,0,0)"/>
<path style="fill:none;stroke-width:0.005;stroke-linecap:butt;stroke-linejoin:miter;stroke:rgb(40.601504%,0%,15.789474%);stroke-opacity:0.6;stroke-miterlimit:10;" d="M 0.377548 0.25604 L 0.446677 0.0221986 " transform="matrix(1320,0,0,1340,0,0)"/>
<path style="fill:none;stroke-width:0.005;stroke-linecap:butt;stroke-linejoin:miter;stroke:rgb(40.601504%,0%,15.789474%);stroke-opacity:0.6;stroke-miterlimit:10;" d="M 0.141371 0.493791 L -0.340581 0.814704 " transform="matrix(1320,0,0,1340,0,0)"/>
<path style="fill:none;stroke-width:0.005;stroke-linecap:butt;stroke-linejoin:miter;stroke:rgb(40.601504%,0%,15.789474%);stroke-opacity:0.6;stroke-miterlimit:10;" d="M 0.335923 0.363538 L 0.307934 0.380521 " transform="matrix(1320,0,0,1340,0,0)"/>
<path style="fill:none;stroke-width:0.005;stroke-linecap:butt;stroke-linejoin:miter;stroke:rgb(40.601504%,0%,15.789474%);stroke-opacity:0.6;stroke-miterlimit:10;" d="M 0.378906 0.291246 L 0.451207 0.139549 " transform="matrix(1320,0,0,1340,0,0)"/>
<path style="fill:none;stroke-width:0.005;stroke-linecap:butt;stroke-linejoin:miter;stroke:rgb(40.601504%,0%,15.789474%);stroke-opacity:0.6;stroke-miterlimit:10;" d="M 0.228948 0.452586 L -0.0486535 0.677347 " transform="matrix(1320,0,0,1340,0,0)"/>
<path style="fill:none;stroke-width:0.005;stroke-linecap:butt;stroke-linejoin:miter;stroke:rgb(40.601504%,0%,15.789474%);stroke-opacity:0.6;stroke-miterlimit:10;" d="M 0.293448 0.485658 L 0.166347 0.787587 " transform="matrix(1320,0,0,1340,0,0)"/>
<path style="fill:none;stroke-width:0.005;stroke-linecap:butt;stroke-linejoin:miter;stroke:rgb(40.601504%,0%,15.789474%);stroke-opacity:0.6;stroke-miterlimit:10;" d="M 0.320644 0.345913 L 0.257005 0.321773 " transform="matrix(1320,0,0,1340,0,0)"/>
<path style="fill:none;stroke-width:0.005;stroke-linecap:butt;stroke-linejoin:miter;stroke:rgb(40.601504%,0%,15.789474%);stroke-opacity:0.6;stroke-miterlimit:10;" d="M 0.384579 0.440642 L 0.47012 0.637541 " transform="matrix(1320,0,0,1340,0,0)"/>
<path style="fill:none;stroke-width:0.005;stroke-linecap:butt;stroke-linejoin:miter;stroke:rgb(40.601504%,0%,15.789474%);stroke-opacity:0.6;stroke-miterlimit:10;" d="M 0.397917 0.416916 L 0.514577 0.558454 " transform="matrix(1320,0,0,1340,0,0)"/>
<path style="fill:none;stroke-width:0.005;stroke-linecap:butt;stroke-linejoin:miter;stroke:rgb(40.601504%,0%,15.789474%);stroke-opacity:0.6;stroke-miterlimit:10;" d="M 0.413888 0.396414 L 0.567812 0.490109 " transform="matrix(1320,0,0,1340,0,0)"/>
<path style="fill:none;stroke-width:0.005;stroke-linecap:butt;stroke-linejoin:miter;stroke:rgb(40.601504%,0%,15.789474%);stroke-opacity:0.6;stroke-miterlimit:10;" d="M 0.39457 0.428347 L 0.503421 0.596554 " transform="matrix(1320,0,0,1340,0,0)"/>
<path style="fill:none;stroke-width:0.005;stroke-linecap:butt;stroke-linejoin:miter;stroke:rgb(40.601504%,0%,15.789474%);stroke-opacity:0.6;stroke-miterlimit:10;" d="M 0.63974 0.491138 L 1.320653 0.805859 " transform="matrix(1320,0,0,1340,0,0)"/>
<path style="fill:none;stroke-width:0.005;stroke-linecap:butt;stroke-linejoin:miter;stroke:rgb(40.601504%,0%,15.789474%);stroke-opacity:0.6;stroke-miterlimit:10;" d="M 0.325246 0.365669 L 0.272343 0.387631 " transform="matrix(1320,0,0,1340,0,0)"/>
<path style="fill:none;stroke-width:0.005;stroke-linecap:butt;stroke-linejoin:miter;stroke:rgb(40.601504%,0%,15.789474%);stroke-opacity:0.6;stroke-miterlimit:10;" d="M 0.56553 0.229568 L 1.073287 -0.0660448 " transform="matrix(1320,0,0,1340,0,0)"/>
<path style="fill:none;stroke-width:0.005;stroke-linecap:butt;stroke-linejoin:miter;stroke:rgb(40.601504%,0%,15.789474%);stroke-opacity:0.6;stroke-miterlimit:10;" d="M 0.414752 0.396514 L 0.570691 0.490444 " transform="matrix(1320,0,0,1340,0,0)"/>
<path style="fill:none;stroke-width:0.005;stroke-linecap:butt;stroke-linejoin:miter;stroke:rgb(40.601504%,0%,15.789474%);stroke-opacity:0.6;stroke-miterlimit:10;" d="M 0.383114 0.281302 L 0.465234 0.106402 " transform="matrix(1320,0,0,1340,0,0)"/>
<path style="fill:none;stroke-width:0.005;stroke-linecap:butt;stroke-linejoin:miter;stroke:rgb(40.601504%,0%,15.789474%);stroke-opacity:0.6;stroke-miterlimit:10;" d="M 0.349103 0.316526 L 0.351867 0.223816 " transform="matrix(1320,0,0,1340,0,0)"/>
<path style="fill:none;stroke-width:0.005;stroke-linecap:butt;stroke-linejoin:miter;stroke:rgb(40.601504%,0%,15.789474%);stroke-opacity:0.6;stroke-miterlimit:10;" d="M 0.469857 0.503169 L 0.754377 0.845957 " transform="matrix(1320,0,0,1340,0,0)"/>
<path style="fill:none;stroke-width:0.005;stroke-linecap:butt;stroke-linejoin:miter;stroke:rgb(40.601504%,0%,15.789474%);stroke-opacity:0.6;stroke-miterlimit:10;" d="M 0.269546 0.245642 L 0.0866773 -0.0124679 " transform="matrix(1320,0,0,1340,0,0)"/>
<path style="fill:none;stroke-width:0.005;stroke-linecap:butt;stroke-linejoin:miter;stroke:rgb(40.601504%,0%,15.789474%);stroke-opacity:0.6;stroke-miterlimit:10;" d="M 0.43436 0.415666 L 0.636053 0.554279 " transform="matrix(1320,0,0,1340,0,0)"/>
<path style="fill:none;stroke-width:0.005;stroke-linecap:butt;stroke-linejoin:miter;stroke:rgb(40.601504%,0%,15.789474%);stroke-opacity:0.6;stroke-miterlimit:10;" d="M 0.247106 0.308646 L 0.0118726 0.197548 " transform="matrix(1320,0,0,1340,0,0)"/>
<path style="fill:none;stroke-width:0.005;stroke-linecap:butt;stroke-linejoin:miter;stroke:rgb(40.601504%,0%,15.789474%);stroke-opacity:0.6;stroke-miterlimit:10;" d="M 0.20767 0.277151 L -0.119579 0.0925694 " transform="matrix(1320,0,0,1340,0,0)"/>
<path style="fill:none;stroke-width:0.005;stroke-linecap:butt;stroke-linejoin:miter;stroke:rgb(40.601504%,0%,15.789474%);stroke-opacity:0.6;stroke-miterlimit:10;" d="M 0.411402 0.408092 L 0.559526 0.52904 " transform="matrix(1320,0,0,1340,0,0)"/>
<path style="fill:none;stroke-width:0.005;stroke-linecap:butt;stroke-linejoin:miter;stroke:rgb(40.601504%,0%,15.789474%);stroke-opacity:0.6;stroke-miterlimit:10;" d="M 0.445913 0.280556 L 0.674559 0.103915 " transform="matrix(1320,0,0,1340,0,0)"/>
<path style="fill:none;stroke-width:0.005;stroke-linecap:butt;stroke-linejoin:miter;stroke:rgb(40.601504%,0%,15.789474%);stroke-opacity:0.6;stroke-miterlimit:10;" d="M 0.382898 0.374408 L 0.464512 0.416756 " transform="matrix(1320,0,0,1340,0,0)"/>
<path style="fill:none;stroke-width:0.005;stroke-linecap:butt;stroke-linejoin:miter;stroke:rgb(40.601504%,0%,15.789474%);stroke-opacity:0.6;stroke-miterlimit:10;" d="M 0.181253 0.446872 L -0.207641 0.658308 " transform="matrix(1320,0,0,1340,0,0)"/>
<path style="fill:none;stroke-width:0.005;stroke-linecap:butt;stroke-linejoin:miter;stroke:rgb(40.601504%,0%,15.789474%);stroke-opacity:0.6;stroke-miterlimit:10;" d="M 0.310636 0.331145 L 0.223636 0.272545 " transform="matrix(1320,0,0,1340,0,0)"/>
<path style="fill:none;stroke-width:0.005;stroke-linecap:butt;stroke-linejoin:miter;stroke:rgb(40.601504%,0%,15.789474%);stroke-opacity:0.6;stroke-miterlimit:10;" d="M 0.448387 0.433649 L 0.682813 0.614229 " transform="matrix(1320,0,0,1340,0,0)"/>
<path style="fill:none;stroke-width:0.005;stroke-linecap:butt;stroke-linejoin:miter;stroke:rgb(40.601504%,0%,15.789474%);stroke-opacity:0.6;stroke-miterlimit:10;" d="M 0.430575 0.308002 L 0.623435 0.195409 " transform="matrix(1320,0,0,1340,0,0)"/>
<path style="fill:none;stroke-width:0.005;stroke-linecap:butt;stroke-linejoin:miter;stroke:rgb(40.601504%,0%,15.789474%);stroke-opacity:0.6;stroke-miterlimit:10;" d="M 0.376935 0.377918 L 0.444644 0.428454 " transform="matrix(1320,0,0,1340,0,0)"/>
<path style="fill:none;stroke-width:0.005;stroke-linecap:butt;stroke-linejoin:miter;stroke:rgb(40.601504%,0%,15.789474%);stroke-opacity:0.6;stroke-miterlimit:10;" d="M 0.361225 0.384037 L 0.392267 0.448854 " transform="matrix(1320,0,0,1340,0,0)"/>
<path style="fill:none;stroke-width:0.005;stroke-linecap:butt;stroke-linejoin:miter;stroke:rgb(40.601504%,0%,15.789474%);stroke-opacity:0.6;stroke-miterlimit:10;" d="M 0.206673 0.594464 L -0.122899 1.150277 " transform="matrix(1320,0,0,1340,0,0)"/>
<path style="fill:none;stroke-width:0.005;stroke-linecap:butt;stroke-linejoin:miter;stroke:rgb(40.601504%,0%,15.789474%);stroke-opacity:0.6;stroke-miterlimit:10;" d="M 0.417886 0.427851 L 0.581143 0.594899 " transform="matrix(1320,0,0,1340,0,0)"/>
<path style="fill:none;stroke-width:0.005;stroke-linecap:butt;stroke-linejoin:miter;stroke:rgb(40.601504%,0%,15.789474%);stroke-opacity:0.6;stroke-miterlimit:10;" d="M 0.325991 0.335354 L 0.274825 0.286579 " transform="matrix(1320,0,0,1340,0,0)"/>
<path style="fill:none;stroke-width:0.005;stroke-linecap:butt;stroke-linejoin:miter;stroke:rgb(40.601504%,0%,15.789474%);stroke-opacity:0.6;stroke-miterlimit:10;" d="M 0.358256 0.454163 L 0.382369 0.682603 " transform="matrix(1320,0,0,1340,0,0)"/>
<path style="fill:none;stroke-width:0.005;stroke-linecap:butt;stroke-linejoin:miter;stroke:rgb(40.601504%,0%,15.789474%);stroke-opacity:0.6;stroke-miterlimit:10;" d="M 0.369297 0.219447 L 0.419176 -0.0997785 " transform="matrix(1320,0,0,1340,0,0)"/>
<path style="fill:none;stroke-width:0.005;stroke-linecap:butt;stroke-linejoin:miter;stroke:rgb(40.601504%,0%,15.789474%);stroke-opacity:0.6;stroke-miterlimit:10;" d="M 0.341383 0.375382 L 0.326127 0.420009 " transform="matrix(1320,0,0,1340,0,0)"/>
<path style="fill:none;stroke-width:0.005;stroke-linecap:butt;stroke-linejoin:miter;stroke:rgb(40.601504%,0%,15.789474%);stroke-opacity:0.6;stroke-miterlimit:10;" d="M 0.328388 0.343365 L 0.282813 0.313281 " transform="matrix(1320,0,0,1340,0,0)"/>
<path style="fill:none;stroke-width:0.005;stroke-linecap:butt;stroke-linejoin:miter;stroke:rgb(40.601504%,0%,15.789474%);stroke-opacity:0.6;stroke-miterlimit:10;" d="M 0.339311 0.281594 L 0.319223 0.107381 " transform="matrix(1320,0,0,1340,0,0)"/>
<path style="fill:none;stroke-width:0.005;stroke-linecap:butt;stroke-linejoin:miter;stroke:rgb(40.601504%,0%,15.789474%);stroke-opacity:0.6;stroke-miterlimit:10;" d="M 0.270745 0.368622 L 0.0906635 0.397473 " transform="matrix(1320,0,0,1340,0,0)"/>
<path style="fill:none;stroke-width:0.005;stroke-linecap:butt;stroke-linejoin:miter;stroke:rgb(40.601504%,0%,15.789474%);stroke-opacity:0.6;stroke-miterlimit:10;" d="M 0.314101 0.435556 L 0.235192 0.620581 " transform="matrix(1320,0,0,1340,0,0)"/>
<path style="fill:none;stroke-width:0.005;stroke-linecap:butt;stroke-linejoin:miter;stroke:rgb(40.601504%,0%,15.789474%);stroke-opacity:0.6;stroke-miterlimit:10;" d="M 0.328311 0.398067 L 0.282558 0.495619 " transform="matrix(1320,0,0,1340,0,0)"/>
<path style="fill:none;stroke-width:0.005;stroke-linecap:butt;stroke-linejoin:miter;stroke:rgb(40.601504%,0%,15.789474%);stroke-opacity:0.6;stroke-miterlimit:10;" d="M 0.309701 0.396333 L 0.22052 0.489844 " transform="matrix(1320,0,0,1340,0,0)"/>
<path style="fill:none;stroke-width:0.005;stroke-linecap:butt;stroke-linejoin:miter;stroke:rgb(40.601504%,0%,15.789474%);stroke-opacity:0.6;stroke-miterlimit:10;" d="M 0.515048 0.703119 L 0.905013 1.512459 " transform="matrix(1320,0,0,1340,0,0)"/>
<path style="fill:none;stroke-width:0.005;stroke-linecap:butt;stroke-linejoin:miter;stroke:rgb(40.601504%,0%,15.789474%);stroke-opacity:0.6;stroke-miterlimit:10;" d="M 0.663329 0.0964436 L 1.399284 -0.509795 " transform="matrix(1320,0,0,1340,0,0)"/>
<path style="fill:none;stroke-width:0.005;stroke-linecap:butt;stroke-linejoin:miter;stroke:rgb(40.601504%,0%,15.789474%);stroke-opacity:0.6;stroke-miterlimit:10;" d="M 0.420014 0.411051 L 0.588234 0.538899 " transform="matrix(1320,0,0,1340,0,0)"/>
<path style="fill:none;stroke-width:0.005;stroke-linecap:butt;stroke-linejoin:miter;stroke:rgb(40.601504%,0%,15.789474%);stroke-opacity:0.6;stroke-miterlimit:10;" d="M 0.495345 0.510733 L 0.839332 0.871178 " transform="matrix(1320,0,0,1340,0,0)"/>
<path style="fill:none;stroke-width:0.005;stroke-linecap:butt;stroke-linejoin:miter;stroke:rgb(40.601504%,0%,15.789474%);stroke-opacity:0.6;stroke-miterlimit:10;" d="M 0.478335 0.562593 L 0.782638 1.044039 " transform="matrix(1320,0,0,1340,0,0)"/>
<path style="fill:none;stroke-width:0.005;stroke-linecap:butt;stroke-linejoin:miter;stroke:rgb(40.601504%,0%,15.789474%);stroke-opacity:0.6;stroke-miterlimit:10;" d="M 0.382963 0.417301 L 0.464728 0.559736 " transform="matrix(1320,0,0,1340,0,0)"/>
<path style="fill:none;stroke-width:0.005;stroke-linecap:butt;stroke-linejoin:miter;stroke:rgb(40.601504%,0%,15.789474%);stroke-opacity:0.6;stroke-miterlimit:10;" d="M 0.334961 0.341975 L 0.30472 0.308649 " transform="matrix(1320,0,0,1340,0,0)"/>
<path style="fill:none;stroke-width:0.005;stroke-linecap:butt;stroke-linejoin:miter;stroke:rgb(40.601504%,0%,15.789474%);stroke-opacity:0.6;stroke-miterlimit:10;" d="M 0.37381 0.177113 L 0.434218 -0.24089 " transform="matrix(1320,0,0,1340,0,0)"/>
<path style="fill:none;stroke-width:0.005;stroke-linecap:butt;stroke-linejoin:miter;stroke:rgb(40.601504%,0%,15.789474%);stroke-opacity:0.6;stroke-miterlimit:10;" d="M 0.283854 0.163168 L 0.134372 -0.28738 " transform="matrix(1320,0,0,1340,0,0)"/>
<path style="fill:none;stroke-width:0.005;stroke-linecap:butt;stroke-linejoin:miter;stroke:rgb(40.601504%,0%,15.789474%);stroke-opacity:0.6;stroke-miterlimit:10;" d="M 0.332502 0.41557 L 0.296529 0.553967 " transform="matrix(1320,0,0,1340,0,0)"/>
<path style="fill:none;stroke-width:0.005;stroke-linecap:butt;stroke-linejoin:miter;stroke:rgb(40.601504%,0%,15.789474%);stroke-opacity:0.6;stroke-miterlimit:10;" d="M 0.431306 0.435086 L 0.625873 0.619018 " transform="matrix(1320,0,0,1340,0,0)"/>
<path style="fill:none;stroke-width:0.005;stroke-linecap:butt;stroke-linejoin:miter;stroke:rgb(40.601504%,0%,15.789474%);stroke-opacity:0.6;stroke-miterlimit:10;" d="M 0.360621 0.439299 L 0.390258 0.633057 " transform="matrix(1320,0,0,1340,0,0)"/>
<path style="fill:none;stroke-width:0.005;stroke-linecap:butt;stroke-linejoin:miter;stroke:rgb(40.601504%,0%,15.789474%);stroke-opacity:0.6;stroke-miterlimit:10;" d="M 0.349867 0.314083 L 0.354409 0.215677 " transform="matrix(1320,0,0,1340,0,0)"/>
<path style="fill:none;stroke-width:0.005;stroke-linecap:butt;stroke-linejoin:miter;stroke:rgb(40.601504%,0%,15.789474%);stroke-opacity:0.6;stroke-miterlimit:10;" d="M 0.972346 0.901493 L 2.429341 2.173703 " transform="matrix(1320,0,0,1340,0,0)"/>
<path style="fill:none;stroke-width:0.005;stroke-linecap:butt;stroke-linejoin:miter;stroke:rgb(40.601504%,0%,15.789474%);stroke-opacity:0.6;stroke-miterlimit:10;" d="M 0.320904 0.395537 L 0.257866 0.487185 " transform="matrix(1320,0,0,1340,0,0)"/>
<path style="fill:none;stroke-width:0.005;stroke-linecap:butt;stroke-linejoin:miter;stroke:rgb(40.601504%,0%,15.789474%);stroke-opacity:0.6;stroke-miterlimit:10;" d="M 0.485579 0.479682 L 0.806786 0.767668 " transform="matrix(1320,0,0,1340,0,0)"/>
<path style="fill:none;stroke-width:0.005;stroke-linecap:butt;stroke-linejoin:miter;stroke:rgb(40.601504%,0%,15.789474%);stroke-opacity:0.6;stroke-miterlimit:10;" d="M 0.328888 0.325598 L 0.284484 0.254055 " transform="matrix(1320,0,0,1340,0,0)"/>
<path style="fill:none;stroke-width:0.005;stroke-linecap:butt;stroke-linejoin:miter;stroke:rgb(40.601504%,0%,15.789474%);stroke-opacity:0.6;stroke-miterlimit:10;" d="M 0.259088 0.241485 L 0.0518111 -0.0263235 " transform="matrix(1320,0,0,1340,0,0)"/>
<path style="fill:none;stroke-width:0.005;stroke-linecap:butt;stroke-linejoin:miter;stroke:rgb(40.601504%,0%,15.789474%);stroke-opacity:0.6;stroke-miterlimit:10;" d="M 0.296138 0.26608 L 0.175314 0.0556641 " transform="matrix(1320,0,0,1340,0,0)"/>
<path style="fill:none;stroke-width:0.005;stroke-linecap:butt;stroke-linejoin:miter;stroke:rgb(40.601504%,0%,15.789474%);stroke-opacity:0.6;stroke-miterlimit:10;" d="M 0.375293 0.254014 L 0.43916 0.0154472 " transform="matrix(1320,0,0,1340,0,0)"/>
<path style="fill:none;stroke-width:0.005;stroke-linecap:butt;stroke-linejoin:miter;stroke:rgb(40.601504%,0%,15.789474%);stroke-opacity:0.6;stroke-miterlimit:10;" d="M 0.584914 0.385553 L 1.137897 0.453903 " transform="matrix(1320,0,0,1340,0,0)"/>
<path style="fill:none;stroke-width:0.005;stroke-linecap:butt;stroke-linejoin:miter;stroke:rgb(40.601504%,0%,15.789474%);stroke-opacity:0.6;stroke-miterlimit:10;" d="M 0.21487 0.491823 L -0.0955759 0.808139 " transform="matrix(1320,0,0,1340,0,0)"/>
<path style="fill:none;stroke-width:0.005;stroke-linecap:butt;stroke-linejoin:miter;stroke:rgb(40.601504%,0%,15.789474%);stroke-opacity:0.6;stroke-miterlimit:10;" d="M 0.269431 0.386774 L 0.0862926 0.457976 " transform="matrix(1320,0,0,1340,0,0)"/>
<path style="fill:none;stroke-width:0.005;stroke-linecap:butt;stroke-linejoin:miter;stroke:rgb(40.601504%,0%,15.789474%);stroke-opacity:0.6;stroke-miterlimit:10;" d="M 0.337547 0.327912 L 0.313343 0.261771 " transform="matrix(1320,0,0,1340,0,0)"/>
<path style="fill:none;stroke-width:0.005;stroke-linecap:butt;stroke-linejoin:miter;stroke:rgb(40.601504%,0%,15.789474%);stroke-opacity:0.6;stroke-miterlimit:10;" d="M 0.35504 0.392217 L 0.371656 0.476116 " transform="matrix(1320,0,0,1340,0,0)"/>
<path style="fill:none;stroke-width:0.005;stroke-linecap:butt;stroke-linejoin:miter;stroke:rgb(40.601504%,0%,15.789474%);stroke-opacity:0.6;stroke-miterlimit:10;" d="M 0.348609 0.249965 L 0.350219 0.00194438 " transform="matrix(1320,0,0,1340,0,0)"/>
<path style="fill:none;stroke-width:0.005;stroke-linecap:butt;stroke-linejoin:miter;stroke:rgb(40.601504%,0%,15.789474%);stroke-opacity:0.6;stroke-miterlimit:10;" d="M 0.436399 0.422548 L 0.642853 0.57723 " transform="matrix(1320,0,0,1340,0,0)"/>
<path style="fill:none;stroke-width:0.005;stroke-linecap:butt;stroke-linejoin:miter;stroke:rgb(40.601504%,0%,15.789474%);stroke-opacity:0.6;stroke-miterlimit:10;" d="M 0.424743 0.460098 L 0.603998 0.702385 " transform="matrix(1320,0,0,1340,0,0)"/>
<path style="fill:none;stroke-width:0.005;stroke-linecap:butt;stroke-linejoin:miter;stroke:rgb(40.601504%,0%,15.789474%);stroke-opacity:0.6;stroke-miterlimit:10;" d="M 0.407813 0.42426 L 0.547559 0.582935 " transform="matrix(1320,0,0,1340,0,0)"/>
<path style="fill:none;stroke-width:0.005;stroke-linecap:butt;stroke-linejoin:miter;stroke:rgb(40.601504%,0%,15.789474%);stroke-opacity:0.6;stroke-miterlimit:10;" d="M 0.307647 0.407696 L 0.213681 0.52772 " transform="matrix(1320,0,0,1340,0,0)"/>
<path style="fill:none;stroke-width:0.005;stroke-linecap:butt;stroke-linejoin:miter;stroke:rgb(40.601504%,0%,15.789474%);stroke-opacity:0.6;stroke-miterlimit:10;" d="M 0.264761 0.304157 L 0.0707238 0.182591 " transform="matrix(1320,0,0,1340,0,0)"/>
<path style="fill:none;stroke-width:0.005;stroke-linecap:butt;stroke-linejoin:miter;stroke:rgb(40.601504%,0%,15.789474%);stroke-opacity:0.6;stroke-miterlimit:10;" d="M 0.258496 0.485591 L 0.0498432 0.787369 " transform="matrix(1320,0,0,1340,0,0)"/>
<path style="fill:none;stroke-width:0.005;stroke-linecap:butt;stroke-linejoin:miter;stroke:rgb(40.601504%,0%,15.789474%);stroke-opacity:0.6;stroke-miterlimit:10;" d="M 0.350565 0.388684 L 0.356741 0.464339 " transform="matrix(1320,0,0,1340,0,0)"/>
<path style="fill:none;stroke-width:0.005;stroke-linecap:butt;stroke-linejoin:miter;stroke:rgb(40.601504%,0%,15.789474%);stroke-opacity:0.6;stroke-miterlimit:10;" d="M 0.346623 0.281233 L 0.343602 0.106171 " transform="matrix(1320,0,0,1340,0,0)"/>
<path style="fill:none;stroke-width:0.005;stroke-linecap:butt;stroke-linejoin:miter;stroke:rgb(40.601504%,0%,15.789474%);stroke-opacity:0.6;stroke-miterlimit:10;" d="M 0.338657 0.31705 L 0.317042 0.225568 " transform="matrix(1320,0,0,1340,0,0)"/>
<path style="fill:none;stroke-width:0.005;stroke-linecap:butt;stroke-linejoin:miter;stroke:rgb(40.601504%,0%,15.789474%);stroke-opacity:0.6;stroke-miterlimit:10;" d="M 0.333354 0.333964 L 0.29937 0.281944 " transform="matrix(1320,0,0,1340,0,0)"/>
<path style="fill:none;stroke-width:0.005;stroke-linecap:butt;stroke-linejoin:miter;stroke:rgb(40.601504%,0%,15.789474%);stroke-opacity:0.6;stroke-miterlimit:10;" d="M 0.392256 0.46494 L 0.495703 0.718526 " transform="matrix(1320,0,0,1340,0,0)"/>
<path style="fill:none;stroke-width:0.005;stroke-linecap:butt;stroke-linejoin:miter;stroke:rgb(40.601504%,0%,15.789474%);stroke-opacity:0.6;stroke-miterlimit:10;" d="M 0.282712 0.441788 L 0.130563 0.641354 " transform="matrix(1320,0,0,1340,0,0)"/>
<path style="fill:none;stroke-width:0.005;stroke-linecap:butt;stroke-linejoin:miter;stroke:rgb(40.601504%,0%,15.789474%);stroke-opacity:0.6;stroke-miterlimit:10;" d="M 0.279116 0.396843 L 0.118575 0.491546 " transform="matrix(1320,0,0,1340,0,0)"/>
<path style="fill:none;stroke-width:0.005;stroke-linecap:butt;stroke-linejoin:miter;stroke:rgb(40.601504%,0%,15.789474%);stroke-opacity:0.6;stroke-miterlimit:10;" d="M 0.341602 0.36682 L 0.326855 0.391465 " transform="matrix(1320,0,0,1340,0,0)"/>
<path style="fill:none;stroke-width:0.005;stroke-linecap:butt;stroke-linejoin:miter;stroke:rgb(40.601504%,0%,15.789474%);stroke-opacity:0.6;stroke-miterlimit:10;" d="M 0.376193 0.446047 L 0.442164 0.65555 " transform="matrix(1320,0,0,1340,0,0)"/>
<path style="fill:none;stroke-width:0.005;stroke-linecap:butt;stroke-linejoin:miter;stroke:rgb(40.601504%,0%,15.789474%);stroke-opacity:0.6;stroke-miterlimit:10;" d="M 0.295271 0.128521 L 0.17242 -0.40286 " transform="matrix(1320,0,0,1340,0,0)"/>
<path style="fill:none;stroke-width:0.005;stroke-linecap:butt;stroke-linejoin:miter;stroke:rgb(40.601504%,0%,15.789474%);stroke-opacity:0.6;stroke-miterlimit:10;" d="M 0.38958 0.283235 L 0.486787 0.112844 " transform="matrix(1320,0,0,1340,0,0)"/>
<path style="fill:none;stroke-width:0.00333333;stroke-linecap:butt;stroke-linejoin:miter;stroke:rgb(0%,43.609023%,0%);stroke-opacity:0.7;stroke-miterlimit:10;" d="M 1 0.5 C 1 0.678632 0.904699 0.843698 0.75 0.933014 C 0.595301 1.02233 0.404699 1.02233 0.25 0.933014 C 0.0953007 0.843698 0 0.678632 0 0.5 C 0 0.321368 0.0953007 0.156302 0.25 0.0669864 C 0.404699 -0.0223298 0.595301 -0.0223298 0.75 0.0669864 C 0.904699 0.156302 1 0.321368 1 0.5 " transform="matrix(1320,0,0,1340,0,0)"/>
<path style=" stroke:none;fill-rule:nonzero;fill:rgb(0%,43.609023%,0%);fill-opacity:0.7;" d="M 1320 670 C 1320 909.367188 1194.203125 1130.554688 990 1250.238281 C 785.796875 1369.921875 534.203125 1369.921875 330 1250.238281 C 125.796875 1130.554688 0 909.367188 0 670 C 0 430.632813 125.796875 209.445313 330 89.761719 C 534.203125 -29.921875 785.796875 -29.921875 990 89.761719 C 1194.203125 209.445313 1320 430.632813 1320 670 "/>
<path style="fill:none;stroke-width:0.00333333;stroke-linecap:butt;stroke-linejoin:miter;stroke:rgb(43.609023%,0%,0%);stroke-opacity:1;stroke-miterlimit:10;" d="M 0.707916 0.333334 C 0.707916 0.467158 0.63652 0.590817 0.520623 0.657731 C 0.404729 0.724644 0.261938 0.724644 0.146043 0.657731 C 0.0301462 0.590817 -0.0412494 0.467158 -0.0412494 0.333334 C -0.0412494 0.199507 0.0301462 0.0758483 0.146043 0.00893482 C 0.261938 -0.0579757 0.404729 -0.0579757 0.520623 0.00893482 C 0.63652 0.0758483 0.707916 0.199507 0.707916 0.333334 " transform="matrix(1320,0,0,1340,0,0)"/>
<path style=" stroke:none;fill-rule:nonzero;fill:rgb(43.609023%,15.789474%,0%);fill-opacity:0.3;" d="M 934.449219 446.667969 C 934.449219 625.992188 840.207031 791.695313 687.222656 881.359375 C 534.242188 971.023438 345.757813 971.023438 192.777344 881.359375 C 39.792969 791.695313 -54.449219 625.992188 -54.449219 446.667969 C -54.449219 267.339844 39.792969 101.636719 192.777344 11.972656 C 345.757813 -77.6875 534.242188 -77.6875 687.222656 11.972656 C 840.207031 101.636719 934.449219 267.339844 934.449219 446.667969 "/>
<path style="fill:none;stroke-width:0.00333333;stroke-linecap:butt;stroke-linejoin:miter;stroke:rgb(43.609023%,0%,0%);stroke-opacity:1;stroke-miterlimit:10;" d="M 1.016164 0.666666 C 1.016164 0.791532 0.94955 0.906909 0.841415 0.969342 C 0.73328 1.031772 0.600053 1.031772 0.491918 0.969342 C 0.383783 0.906909 0.31717 0.791532 0.31717 0.666666 C 0.31717 0.541803 0.383783 0.426425 0.491918 0.363993 C 0.600053 0.30156 0.73328 0.30156 0.841415 0.363993 C 0.94955 0.426425 1.016164 0.541803 1.016164 0.666666 " transform="matrix(1320,0,0,1340,0,0)"/>
<path style=" stroke:none;fill-rule:nonzero;fill:rgb(43.609023%,15.789474%,0%);fill-opacity:0.3;" d="M 1341.335938 893.332031 C 1341.335938 1060.652344 1253.40625 1215.257813 1110.667969 1298.917969 C 967.929688 1382.574219 792.070313 1382.574219 649.332031 1298.917969 C 506.59375 1215.257813 418.664063 1060.652344 418.664063 893.332031 C 418.664063 726.015625 506.59375 571.410156 649.332031 487.75 C 792.070313 404.089844 967.929688 404.089844 1110.667969 487.75 C 1253.40625 571.410156 1341.335938 726.015625 1341.335938 893.332031 "/>
<path style="fill:none;stroke-width:0.0263158;stroke-linecap:butt;stroke-linejoin:miter;stroke:rgb(43.609023%,15.789474%,40.601504%);stroke-opacity:0.5;stroke-miterlimit:10;" d="M -0.0500681 0.547648 C -0.0806789 0.517033 0.0213601 0.619074 0.213092 0.810803 " transform="matrix(1320,0,0,1340,0,0)"/>
<path style="fill:none;stroke-width:0.0263158;stroke-linecap:butt;stroke-linejoin:miter;stroke:rgb(43.609023%,15.789474%,40.601504%);stroke-opacity:0.5;stroke-miterlimit:10;" d="M 0.316483 0.489599 C 0.255259 0.428373 0.357301 0.530413 0.579643 0.752755 " transform="matrix(1320,0,0,1340,0,0)"/>
<path style="fill:none;stroke-width:0.0236842;stroke-linecap:butt;stroke-linejoin:miter;stroke:rgb(43.609023%,15.789474%,40.601504%);stroke-opacity:0.5;stroke-miterlimit:10;" d="M 0.236769 0.864526 C 0.165341 0.793097 0.257176 0.884932 0.473612 1.101367 " transform="matrix(1320,0,0,1340,0,0)"/>
<path style="fill:none;stroke-width:0.0236842;stroke-linecap:butt;stroke-linejoin:miter;stroke:rgb(43.609023%,15.789474%,40.601504%);stroke-opacity:0.5;stroke-miterlimit:10;" d="M 0.619061 0.585611 C 0.547633 0.514182 0.639468 0.60602 0.855904 0.822452 " transform="matrix(1320,0,0,1340,0,0)"/>
<path style="fill:none;stroke-width:0.0210526;stroke-linecap:butt;stroke-linejoin:miter;stroke:rgb(43.609023%,15.789474%,40.601504%);stroke-opacity:0.5;stroke-miterlimit:10;" d="M 0.240128 0.815745 C 0.219721 0.795336 0.301352 0.876968 0.450654 1.026271 " transform="matrix(1320,0,0,1340,0,0)"/>
<path style="fill:none;stroke-width:0.0210526;stroke-linecap:butt;stroke-linejoin:miter;stroke:rgb(43.609023%,15.789474%,40.601504%);stroke-opacity:0.5;stroke-miterlimit:10;" d="M 0.922653 -0.0299557 C 0.871632 -0.080976 0.953264 0.0006559 1.133179 0.180571 " transform="matrix(1320,0,0,1340,0,0)"/>
<path style="fill:none;stroke-width:0.0210526;stroke-linecap:butt;stroke-linejoin:miter;stroke:rgb(43.609023%,15.789474%,40.601504%);stroke-opacity:0.5;stroke-miterlimit:10;" d="M 0.473985 0.165911 C 0.433171 0.125093 0.514802 0.206725 0.684514 0.376437 " transform="matrix(1320,0,0,1340,0,0)"/>
<path style="fill:none;stroke-width:0.0210526;stroke-linecap:butt;stroke-linejoin:miter;stroke:rgb(43.609023%,15.789474%,40.601504%);stroke-opacity:0.5;stroke-miterlimit:10;" d="M 0.413687 0.147009 C 0.372869 0.106195 0.454504 0.187826 0.624213 0.357536 " transform="matrix(1320,0,0,1340,0,0)"/>
<path style="fill:none;stroke-width:0.0210526;stroke-linecap:butt;stroke-linejoin:miter;stroke:rgb(43.609023%,15.789474%,40.601504%);stroke-opacity:0.5;stroke-miterlimit:10;" d="M 0.525885 0.830189 C 0.474864 0.779169 0.556499 0.8608 0.736411 1.040715 " transform="matrix(1320,0,0,1340,0,0)"/>
<path style="fill:none;stroke-width:0.0184211;stroke-linecap:butt;stroke-linejoin:miter;stroke:rgb(43.609023%,15.789474%,40.601504%);stroke-opacity:0.5;stroke-miterlimit:10;" d="M 0.570958 0.247543 C 0.540347 0.216928 0.611775 0.288357 0.75517 0.431751 " transform="matrix(1320,0,0,1340,0,0)"/>
<path style="fill:none;stroke-width:0.0157895;stroke-linecap:butt;stroke-linejoin:miter;stroke:rgb(43.609023%,15.789474%,40.601504%);stroke-opacity:0.5;stroke-miterlimit:10;" d="M 1.068217 0.602277 C 1.0274 0.561459 1.088625 0.622685 1.22611 0.760171 " transform="matrix(1320,0,0,1340,0,0)"/>
<path style="fill:none;stroke-width:0.0157895;stroke-linecap:butt;stroke-linejoin:miter;stroke:rgb(43.609023%,15.789474%,40.601504%);stroke-opacity:0.5;stroke-miterlimit:10;" d="M 0.619721 1.032585 C 0.578906 0.991771 0.640131 1.052994 0.777616 1.190479 " transform="matrix(1320,0,0,1340,0,0)"/>
<path style="fill:none;stroke-width:0.0157895;stroke-linecap:butt;stroke-linejoin:miter;stroke:rgb(43.609023%,15.789474%,40.601504%);stroke-opacity:0.5;stroke-miterlimit:10;" d="M 0.051021 0.199193 L 0.32503 0.357087 " transform="matrix(1320,0,0,1340,0,0)"/>
<path style="fill:none;stroke-width:0.0157895;stroke-linecap:butt;stroke-linejoin:miter;stroke:rgb(43.609023%,15.789474%,40.601504%);stroke-opacity:0.5;stroke-miterlimit:10;" d="M 1.084115 0.305577 C 1.0433 0.264762 1.104525 0.325985 1.24201 0.463474 " transform="matrix(1320,0,0,1340,0,0)"/>
<path style="fill:none;stroke-width:0.0157895;stroke-linecap:butt;stroke-linejoin:miter;stroke:rgb(43.609023%,15.789474%,40.601504%);stroke-opacity:0.5;stroke-miterlimit:10;" d="M 0.51308 0.0612232 L 0.670975 0.898452 " transform="matrix(1320,0,0,1340,0,0)"/>
<path style="fill:none;stroke-width:0.0157895;stroke-linecap:butt;stroke-linejoin:miter;stroke:rgb(43.609023%,15.789474%,40.601504%);stroke-opacity:0.5;stroke-miterlimit:10;" d="M 0.177906 0.0510203 L 0.335801 0.351408 " transform="matrix(1320,0,0,1340,0,0)"/>
<path style="fill:none;stroke-width:0.0131579;stroke-linecap:butt;stroke-linejoin:miter;stroke:rgb(43.609023%,15.789474%,40.601504%);stroke-opacity:0.5;stroke-miterlimit:10;" d="M 0.0306108 0.163654 L 1.14159 0.295234 " transform="matrix(1320,0,0,1340,0,0)"/>
<path style="fill:none;stroke-width:0.0131579;stroke-linecap:butt;stroke-linejoin:miter;stroke:rgb(43.609023%,15.789474%,40.601504%);stroke-opacity:0.5;stroke-miterlimit:10;" d="M 0.376944 0.599918 C 0.346333 0.569307 0.397354 0.620327 0.508526 0.731498 " transform="matrix(1320,0,0,1340,0,0)"/>
<path style="fill:none;stroke-width:0.0131579;stroke-linecap:butt;stroke-linejoin:miter;stroke:rgb(43.609023%,15.789474%,40.601504%);stroke-opacity:0.5;stroke-miterlimit:10;" d="M 0.0408174 0.159363 L 0.326267 0.29094 " transform="matrix(1320,0,0,1340,0,0)"/>
<path style="fill:none;stroke-width:0.0131579;stroke-linecap:butt;stroke-linejoin:miter;stroke:rgb(43.609023%,15.789474%,40.601504%);stroke-opacity:0.5;stroke-miterlimit:10;" d="M 0.642596 0.0510203 L 0.774174 0.497368 " transform="matrix(1320,0,0,1340,0,0)"/>
<path style="fill:none;stroke-width:0.0105263;stroke-linecap:butt;stroke-linejoin:miter;stroke:rgb(43.609023%,15.789474%,40.601504%);stroke-opacity:0.5;stroke-miterlimit:10;" d="M 0.0408174 0.234512 L 0.195573 0.339774 " transform="matrix(1320,0,0,1340,0,0)"/>
<path style="fill:none;stroke-width:0.0105263;stroke-linecap:butt;stroke-linejoin:miter;stroke:rgb(43.609023%,15.789474%,40.601504%);stroke-opacity:0.5;stroke-miterlimit:10;" d="M 0.0204072 0.683987 L 0.243099 0.789252 " transform="matrix(1320,0,0,1340,0,0)"/>
<path style="fill:none;stroke-width:0.0105263;stroke-linecap:butt;stroke-linejoin:miter;stroke:rgb(43.609023%,15.789474%,40.601504%);stroke-opacity:0.5;stroke-miterlimit:10;" d="M 0.0408174 0.459751 L 0.750589 0.565013 " transform="matrix(1320,0,0,1340,0,0)"/>
<path style="fill:none;stroke-width:0.0105263;stroke-linecap:butt;stroke-linejoin:miter;stroke:rgb(43.609023%,15.789474%,40.601504%);stroke-opacity:0.5;stroke-miterlimit:10;" d="M 0.0306108 0.131314 L 0.711248 0.236579 " transform="matrix(1320,0,0,1340,0,0)"/>
<path style="fill:none;stroke-width:0.0105263;stroke-linecap:butt;stroke-linejoin:miter;stroke:rgb(43.609023%,15.789474%,40.601504%);stroke-opacity:0.5;stroke-miterlimit:10;" d="M 0.78354 0.807769 C 0.76313 0.78736 0.803948 0.828177 0.888802 0.913031 " transform="matrix(1320,0,0,1340,0,0)"/>
<path style="fill:none;stroke-width:0.0105263;stroke-linecap:butt;stroke-linejoin:miter;stroke:rgb(43.609023%,15.789474%,40.601504%);stroke-opacity:0.5;stroke-miterlimit:10;" d="M 0.48547 0.0408174 L 0.590734 0.432512 " transform="matrix(1320,0,0,1340,0,0)"/>
<path style="fill:none;stroke-width:0.0105263;stroke-linecap:butt;stroke-linejoin:miter;stroke:rgb(43.609023%,15.789474%,40.601504%);stroke-opacity:0.5;stroke-miterlimit:10;" d="M 0.33882 0.43901 C 0.31841 0.418604 0.359227 0.459419 0.444081 0.544275 " transform="matrix(1320,0,0,1340,0,0)"/>
<path style="fill:none;stroke-width:0.0105263;stroke-linecap:butt;stroke-linejoin:miter;stroke:rgb(43.609023%,15.789474%,40.601504%);stroke-opacity:0.5;stroke-miterlimit:10;" d="M 0.0408174 0.465631 L 1.109878 0.570896 " transform="matrix(1320,0,0,1340,0,0)"/>
<path style="fill:none;stroke-width:0.0105263;stroke-linecap:butt;stroke-linejoin:miter;stroke:rgb(43.609023%,15.789474%,40.601504%);stroke-opacity:0.5;stroke-miterlimit:10;" d="M 0.532821 0.375627 C 0.512414 0.355218 0.553232 0.396035 0.638086 0.480889 " transform="matrix(1320,0,0,1340,0,0)"/>
<path style="fill:none;stroke-width:0.0105263;stroke-linecap:butt;stroke-linejoin:miter;stroke:rgb(43.609023%,15.789474%,40.601504%);stroke-opacity:0.5;stroke-miterlimit:10;" d="M 0.572458 0.0408174 L 0.677723 1.124898 " transform="matrix(1320,0,0,1340,0,0)"/>
<path style="fill:none;stroke-width:0.0105263;stroke-linecap:butt;stroke-linejoin:miter;stroke:rgb(43.609023%,15.789474%,40.601504%);stroke-opacity:0.5;stroke-miterlimit:10;" d="M 0.21719 0.0306116 L 0.322452 0.501749 " transform="matrix(1320,0,0,1340,0,0)"/>
<path style="fill:none;stroke-width:0.00789474;stroke-linecap:butt;stroke-linejoin:miter;stroke:rgb(43.609023%,15.789474%,40.601504%);stroke-opacity:0.5;stroke-miterlimit:10;" d="M 0.657043 0.0204087 L 0.735991 0.465086 " transform="matrix(1320,0,0,1340,0,0)"/>
<path style="fill:none;stroke-width:0.00789474;stroke-linecap:butt;stroke-linejoin:miter;stroke:rgb(43.609023%,15.789474%,40.601504%);stroke-opacity:0.5;stroke-miterlimit:10;" d="M 0.0204072 0.466021 L 0.960757 0.544969 " transform="matrix(1320,0,0,1340,0,0)"/>
<path style="fill:none;stroke-width:0.00789474;stroke-linecap:butt;stroke-linejoin:miter;stroke:rgb(43.609023%,15.789474%,40.601504%);stroke-opacity:0.5;stroke-miterlimit:10;" d="M 0.0306108 0.489118 L 0.217611 0.568065 " transform="matrix(1320,0,0,1340,0,0)"/>
<path style="fill:none;stroke-width:0.00789474;stroke-linecap:butt;stroke-linejoin:miter;stroke:rgb(43.609023%,15.789474%,40.601504%);stroke-opacity:0.5;stroke-miterlimit:10;" d="M 0.0306108 0.9349 L 0.143111 1.013847 " transform="matrix(1320,0,0,1340,0,0)"/>
<path style="fill:none;stroke-width:0.00789474;stroke-linecap:butt;stroke-linejoin:miter;stroke:rgb(43.609023%,15.789474%,40.601504%);stroke-opacity:0.5;stroke-miterlimit:10;" d="M 0.0204072 0.995018 L 0.338429 1.073965 " transform="matrix(1320,0,0,1340,0,0)"/>
<path style="fill:none;stroke-width:0.00789474;stroke-linecap:butt;stroke-linejoin:miter;stroke:rgb(43.609023%,15.789474%,40.601504%);stroke-opacity:0.5;stroke-miterlimit:10;" d="M 0.0204072 0.503997 L -0.00515211 0.582944 " transform="matrix(1320,0,0,1340,0,0)"/>
<path style="fill:none;stroke-width:0.00789474;stroke-linecap:butt;stroke-linejoin:miter;stroke:rgb(43.609023%,15.789474%,40.601504%);stroke-opacity:0.5;stroke-miterlimit:10;" d="M 0.0306108 0.460433 L 0.136704 0.539383 " transform="matrix(1320,0,0,1340,0,0)"/>
<path style="fill:none;stroke-width:0.00789474;stroke-linecap:butt;stroke-linejoin:miter;stroke:rgb(43.609023%,15.789474%,40.601504%);stroke-opacity:0.5;stroke-miterlimit:10;" d="M 0.0957712 0.0204087 L 0.174719 1.011212 " transform="matrix(1320,0,0,1340,0,0)"/>
<path style="fill:none;stroke-width:0.00789474;stroke-linecap:butt;stroke-linejoin:miter;stroke:rgb(43.609023%,15.789474%,40.601504%);stroke-opacity:0.5;stroke-miterlimit:10;" d="M 0.689213 0.0204087 L 0.768161 0.681472 " transform="matrix(1320,0,0,1340,0,0)"/>
<path style="fill:none;stroke-width:0.00789474;stroke-linecap:butt;stroke-linejoin:miter;stroke:rgb(43.609023%,15.789474%,40.601504%);stroke-opacity:0.5;stroke-miterlimit:10;" d="M 0.0204072 0.456017 L 0.872733 0.534964 " transform="matrix(1320,0,0,1340,0,0)"/>
<path style="fill:none;stroke-width:0.00789474;stroke-linecap:butt;stroke-linejoin:miter;stroke:rgb(43.609023%,15.789474%,40.601504%);stroke-opacity:0.5;stroke-miterlimit:10;" d="M 0.0204072 0.133008 L 0.565521 0.211958 " transform="matrix(1320,0,0,1340,0,0)"/>
<path style="fill:none;stroke-width:0.00789474;stroke-linecap:butt;stroke-linejoin:miter;stroke:rgb(43.609023%,15.789474%,40.601504%);stroke-opacity:0.5;stroke-miterlimit:10;" d="M 0.385334 0.0306116 L 0.464281 1.019103 " transform="matrix(1320,0,0,1340,0,0)"/>
<path style="fill:none;stroke-width:0.00789474;stroke-linecap:butt;stroke-linejoin:miter;stroke:rgb(43.609023%,15.789474%,40.601504%);stroke-opacity:0.5;stroke-miterlimit:10;" d="M 0.0306108 0.0818097 L 0.328125 0.160757 " transform="matrix(1320,0,0,1340,0,0)"/>
<path style="fill:none;stroke-width:0.00789474;stroke-linecap:butt;stroke-linejoin:miter;stroke:rgb(43.609023%,15.789474%,40.601504%);stroke-opacity:0.5;stroke-miterlimit:10;" d="M -0.0157434 0.0306116 L 0.0632043 0.464389 " transform="matrix(1320,0,0,1340,0,0)"/>
<path style="fill:none;stroke-width:0.00789474;stroke-linecap:butt;stroke-linejoin:miter;stroke:rgb(43.609023%,15.789474%,40.601504%);stroke-opacity:0.5;stroke-miterlimit:10;" d="M 0.509988 0.0306116 L 0.588935 0.119394 " transform="matrix(1320,0,0,1340,0,0)"/>
<path style="fill:none;stroke-width:0.00789474;stroke-linecap:butt;stroke-linejoin:miter;stroke:rgb(43.609023%,15.789474%,40.601504%);stroke-opacity:0.5;stroke-miterlimit:10;" d="M 0.0204072 0.736013 L 0.593593 0.81496 " transform="matrix(1320,0,0,1340,0,0)"/>
<path style="fill:none;stroke-width:0.00789474;stroke-linecap:butt;stroke-linejoin:miter;stroke:rgb(43.609023%,15.789474%,40.601504%);stroke-opacity:0.5;stroke-miterlimit:10;" d="M 0.0204072 -0.0354857 L 0.415699 0.0434614 " transform="matrix(1320,0,0,1340,0,0)"/>
</g>
</svg>
