<?xml version="1.0" encoding="UTF-8"?>
<svg xmlns="http://www.w3.org/2000/svg" xmlns:xlink="http://www.w3.org/1999/xlink" width="680pt" height="660pt" viewBox="0 0 680 660" version="1.1">
<g id="surface1">
<rect x="0" y="0" width="680" height="660" style="fill:rgb(26.865672%,61.19403%,11.940299%);fill-opacity:1;stroke:none;"/>
<path style="fill:none;stroke-width:0.005;stroke-linecap:butt;stroke-linejoin:miter;stroke:rgb(26.865672%,0%,11.940299%);stroke-opacity:0.6;stroke-miterlimit:10;" d="M 0.806543 0.679297 L 1.183019 0.679297 " transform="matrix(680,0,0,660,0,0)"/>
<path style="fill:none;stroke-width:0.005;stroke-linecap:butt;stroke-linejoin:miter;stroke:rgb(26.865672%,0%,11.940299%);stroke-opacity:0.6;stroke-miterlimit:10;" d="M 0.626373 0.678279 L 0.582451 0.6759 " transform="matrix(680,0,0,660,0,0)"/>
<path style="fill:none;stroke-width:0.005;stroke-linecap:butt;stroke-linejoin:miter;stroke:rgb(26.865672%,0%,11.940299%);stroke-opacity:0.6;stroke-miterlimit:10;" d="M 0.798707 0.690678 L 1.156899 0.717223 " transform="matrix(680,0,0,660,0,0)"/>
<path style="fill:none;stroke-width:0.005;stroke-linecap:butt;stroke-linejoin:miter;stroke:rgb(26.865672%,0%,11.940299%);stroke-opacity:0.6;stroke-miterlimit:10;" d="M 0.779498 0.694099 L 1.092877 0.728628 " transform="matrix(680,0,0,660,0,0)"/>
<path style="fill:none;stroke-width:0.005;stroke-linecap:butt;stroke-linejoin:miter;stroke:rgb(26.865672%,0%,11.940299%);stroke-opacity:0.6;stroke-miterlimit:10;" d="M 0.580182 0.690655 L 0.428493 0.717164 " transform="matrix(680,0,0,660,0,0)"/>
<path style="fill:none;stroke-width:0.005;stroke-linecap:butt;stroke-linejoin:miter;stroke:rgb(26.865672%,0%,11.940299%);stroke-opacity:0.6;stroke-miterlimit:10;" d="M 0.87932 0.708026 L 1.425603 0.775059 " transform="matrix(680,0,0,660,0,0)"/>
<path style="fill:none;stroke-width:0.005;stroke-linecap:butt;stroke-linejoin:miter;stroke:rgb(26.865672%,0%,11.940299%);stroke-opacity:0.6;stroke-miterlimit:10;" d="M 0.599 0.670875 L 0.491217 0.651213 " transform="matrix(680,0,0,660,0,0)"/>
<path style="fill:none;stroke-width:0.005;stroke-linecap:butt;stroke-linejoin:miter;stroke:rgb(26.865672%,0%,11.940299%);stroke-opacity:0.6;stroke-miterlimit:10;" d="M 0.613132 0.684789 L 0.538327 0.697603 " transform="matrix(680,0,0,660,0,0)"/>
<path style="fill:none;stroke-width:0.005;stroke-linecap:butt;stroke-linejoin:miter;stroke:rgb(26.865672%,0%,11.940299%);stroke-opacity:0.6;stroke-miterlimit:10;" d="M 0.767297 0.747195 L 1.052212 0.905629 " transform="matrix(680,0,0,660,0,0)"/>
<path style="fill:none;stroke-width:0.005;stroke-linecap:butt;stroke-linejoin:miter;stroke:rgb(26.865672%,0%,11.940299%);stroke-opacity:0.6;stroke-miterlimit:10;" d="M 0.57454 0.732002 L 0.409679 0.854983 " transform="matrix(680,0,0,660,0,0)"/>
<path style="fill:none;stroke-width:0.005;stroke-linecap:butt;stroke-linejoin:miter;stroke:rgb(26.865672%,0%,11.940299%);stroke-opacity:0.6;stroke-miterlimit:10;" d="M 0.424856 0.770011 L -0.0892693 0.98167 " transform="matrix(680,0,0,660,0,0)"/>
<path style="fill:none;stroke-width:0.005;stroke-linecap:butt;stroke-linejoin:miter;stroke:rgb(26.865672%,0%,11.940299%);stroke-opacity:0.6;stroke-miterlimit:10;" d="M 0.76798 0.643661 L 1.054486 0.560505 " transform="matrix(680,0,0,660,0,0)"/>
<path style="fill:none;stroke-width:0.005;stroke-linecap:butt;stroke-linejoin:miter;stroke:rgb(26.865672%,0%,11.940299%);stroke-opacity:0.6;stroke-miterlimit:10;" d="M 0.766969 0.730942 L 1.05112 0.851456 " transform="matrix(680,0,0,660,0,0)"/>
<path style="fill:none;stroke-width:0.005;stroke-linecap:butt;stroke-linejoin:miter;stroke:rgb(26.865672%,0%,11.940299%);stroke-opacity:0.6;stroke-miterlimit:10;" d="M 0.601804 0.37529 L 0.500563 -0.334067 " transform="matrix(680,0,0,660,0,0)"/>
<path style="fill:none;stroke-width:0.005;stroke-linecap:butt;stroke-linejoin:miter;stroke:rgb(26.865672%,0%,11.940299%);stroke-opacity:0.6;stroke-miterlimit:10;" d="M 0.633915 0.690607 L 0.6076 0.716998 " transform="matrix(680,0,0,660,0,0)"/>
<path style="fill:none;stroke-width:0.005;stroke-linecap:butt;stroke-linejoin:miter;stroke:rgb(26.865672%,0%,11.940299%);stroke-opacity:0.6;stroke-miterlimit:10;" d="M 0.671088 0.659357 L 0.731514 0.612831 " transform="matrix(680,0,0,660,0,0)"/>
<path style="fill:none;stroke-width:0.005;stroke-linecap:butt;stroke-linejoin:miter;stroke:rgb(26.865672%,0%,11.940299%);stroke-opacity:0.6;stroke-miterlimit:10;" d="M 0.783444 0.775562 L 1.10602 1.000172 " transform="matrix(680,0,0,660,0,0)"/>
<path style="fill:none;stroke-width:0.005;stroke-linecap:butt;stroke-linejoin:miter;stroke:rgb(26.865672%,0%,11.940299%);stroke-opacity:0.6;stroke-miterlimit:10;" d="M 0.628923 0.686115 L 0.590964 0.70203 " transform="matrix(680,0,0,660,0,0)"/>
<path style="fill:none;stroke-width:0.005;stroke-linecap:butt;stroke-linejoin:miter;stroke:rgb(26.865672%,0%,11.940299%);stroke-opacity:0.6;stroke-miterlimit:10;" d="M 0.588023 0.620496 L 0.454624 0.483292 " transform="matrix(680,0,0,660,0,0)"/>
<path style="fill:none;stroke-width:0.005;stroke-linecap:butt;stroke-linejoin:miter;stroke:rgb(26.865672%,0%,11.940299%);stroke-opacity:0.6;stroke-miterlimit:10;" d="M 0.319727 0.418105 L -0.439706 -0.191353 " transform="matrix(680,0,0,660,0,0)"/>
<path style="fill:none;stroke-width:0.005;stroke-linecap:butt;stroke-linejoin:miter;stroke:rgb(26.865672%,0%,11.940299%);stroke-opacity:0.6;stroke-miterlimit:10;" d="M 0.900948 0.780433 L 1.497696 1.016406 " transform="matrix(680,0,0,660,0,0)"/>
<path style="fill:none;stroke-width:0.005;stroke-linecap:butt;stroke-linejoin:miter;stroke:rgb(26.865672%,0%,11.940299%);stroke-opacity:0.6;stroke-miterlimit:10;" d="M 0.776017 0.561044 L 1.081273 0.285115 " transform="matrix(680,0,0,660,0,0)"/>
<path style="fill:none;stroke-width:0.005;stroke-linecap:butt;stroke-linejoin:miter;stroke:rgb(26.865672%,0%,11.940299%);stroke-opacity:0.6;stroke-miterlimit:10;" d="M 0.51705 0.486121 L 0.218049 0.0353752 " transform="matrix(680,0,0,660,0,0)"/>
<path style="fill:none;stroke-width:0.005;stroke-linecap:butt;stroke-linejoin:miter;stroke:rgb(26.865672%,0%,11.940299%);stroke-opacity:0.6;stroke-miterlimit:10;" d="M 0.513701 0.512766 L 0.206888 0.124189 " transform="matrix(680,0,0,660,0,0)"/>
<path style="fill:none;stroke-width:0.005;stroke-linecap:butt;stroke-linejoin:miter;stroke:rgb(26.865672%,0%,11.940299%);stroke-opacity:0.6;stroke-miterlimit:10;" d="M 0.755986 0.762979 L 1.014499 0.958239 " transform="matrix(680,0,0,660,0,0)"/>
<path style="fill:none;stroke-width:0.005;stroke-linecap:butt;stroke-linejoin:miter;stroke:rgb(26.865672%,0%,11.940299%);stroke-opacity:0.6;stroke-miterlimit:10;" d="M 0.500425 0.466679 L 0.162632 -0.029433 " transform="matrix(680,0,0,660,0,0)"/>
<path style="fill:none;stroke-width:0.005;stroke-linecap:butt;stroke-linejoin:miter;stroke:rgb(26.865672%,0%,11.940299%);stroke-opacity:0.6;stroke-miterlimit:10;" d="M 0.674236 0.673029 L 0.742009 0.65841 " transform="matrix(680,0,0,660,0,0)"/>
<path style="fill:none;stroke-width:0.005;stroke-linecap:butt;stroke-linejoin:miter;stroke:rgb(26.865672%,0%,11.940299%);stroke-opacity:0.6;stroke-miterlimit:10;" d="M 0.486202 0.516785 L 0.115217 0.137583 " transform="matrix(680,0,0,660,0,0)"/>
<path style="fill:none;stroke-width:0.005;stroke-linecap:butt;stroke-linejoin:miter;stroke:rgb(26.865672%,0%,11.940299%);stroke-opacity:0.6;stroke-miterlimit:10;" d="M 0.790705 0.834848 L 1.130227 1.197792 " transform="matrix(680,0,0,660,0,0)"/>
<path style="fill:none;stroke-width:0.005;stroke-linecap:butt;stroke-linejoin:miter;stroke:rgb(26.865672%,0%,11.940299%);stroke-opacity:0.6;stroke-miterlimit:10;" d="M 0.477453 0.866477 L 0.0860524 1.303232 " transform="matrix(680,0,0,660,0,0)"/>
<path style="fill:none;stroke-width:0.005;stroke-linecap:butt;stroke-linejoin:miter;stroke:rgb(26.865672%,0%,11.940299%);stroke-opacity:0.6;stroke-miterlimit:10;" d="M 0.699092 0.81456 L 0.824856 1.130179 " transform="matrix(680,0,0,660,0,0)"/>
<path style="fill:none;stroke-width:0.005;stroke-linecap:butt;stroke-linejoin:miter;stroke:rgb(26.865672%,0%,11.940299%);stroke-opacity:0.6;stroke-miterlimit:10;" d="M 0.480503 0.979421 L 0.0962201 1.679717 " transform="matrix(680,0,0,660,0,0)"/>
<path style="fill:none;stroke-width:0.005;stroke-linecap:butt;stroke-linejoin:miter;stroke:rgb(26.865672%,0%,11.940299%);stroke-opacity:0.6;stroke-miterlimit:10;" d="M 0.317435 0.505279 L -0.447329 0.0992306 " transform="matrix(680,0,0,660,0,0)"/>
<path style="fill:none;stroke-width:0.005;stroke-linecap:butt;stroke-linejoin:miter;stroke:rgb(26.865672%,0%,11.940299%);stroke-opacity:0.6;stroke-miterlimit:10;" d="M 0.73943 0.581504 L 0.959323 0.353314 " transform="matrix(680,0,0,660,0,0)"/>
<path style="fill:none;stroke-width:0.005;stroke-linecap:butt;stroke-linejoin:miter;stroke:rgb(26.865672%,0%,11.940299%);stroke-opacity:0.6;stroke-miterlimit:10;" d="M 0.64977 0.695537 L 0.660455 0.733422 " transform="matrix(680,0,0,660,0,0)"/>
<path style="fill:none;stroke-width:0.005;stroke-linecap:butt;stroke-linejoin:miter;stroke:rgb(26.865672%,0%,11.940299%);stroke-opacity:0.6;stroke-miterlimit:10;" d="M 0.734766 0.851634 L 0.943767 1.253752 " transform="matrix(680,0,0,660,0,0)"/>
<path style="fill:none;stroke-width:0.005;stroke-linecap:butt;stroke-linejoin:miter;stroke:rgb(26.865672%,0%,11.940299%);stroke-opacity:0.6;stroke-miterlimit:10;" d="M 0.650684 0.594691 L 0.6635 0.397266 " transform="matrix(680,0,0,660,0,0)"/>
<path style="fill:none;stroke-width:0.005;stroke-linecap:butt;stroke-linejoin:miter;stroke:rgb(26.865672%,0%,11.940299%);stroke-opacity:0.6;stroke-miterlimit:10;" d="M 0.714321 0.911855 L 0.87562 1.454486 " transform="matrix(680,0,0,660,0,0)"/>
<path style="fill:none;stroke-width:0.005;stroke-linecap:butt;stroke-linejoin:miter;stroke:rgb(26.865672%,0%,11.940299%);stroke-opacity:0.6;stroke-miterlimit:10;" d="M 0.536093 0.387624 L 0.281531 -0.292939 " transform="matrix(680,0,0,660,0,0)"/>
<path style="fill:none;stroke-width:0.005;stroke-linecap:butt;stroke-linejoin:miter;stroke:rgb(26.865672%,0%,11.940299%);stroke-opacity:0.6;stroke-miterlimit:10;" d="M 0.638735 0.6567 L 0.623667 0.60396 " transform="matrix(680,0,0,660,0,0)"/>
<path style="fill:none;stroke-width:0.005;stroke-linecap:butt;stroke-linejoin:miter;stroke:rgb(26.865672%,0%,11.940299%);stroke-opacity:0.6;stroke-miterlimit:10;" d="M 0.534364 0.748698 L 0.275753 0.910642 " transform="matrix(680,0,0,660,0,0)"/>
<path style="fill:none;stroke-width:0.005;stroke-linecap:butt;stroke-linejoin:miter;stroke:rgb(26.865672%,0%,11.940299%);stroke-opacity:0.6;stroke-miterlimit:10;" d="M 0.546145 0.375237 L 0.315028 -0.334251 " transform="matrix(680,0,0,660,0,0)"/>
<path style="fill:none;stroke-width:0.005;stroke-linecap:butt;stroke-linejoin:miter;stroke:rgb(26.865672%,0%,11.940299%);stroke-opacity:0.6;stroke-miterlimit:10;" d="M 0.612523 0.808375 L 0.536294 1.109553 " transform="matrix(680,0,0,660,0,0)"/>
<path style="fill:none;stroke-width:0.005;stroke-linecap:butt;stroke-linejoin:miter;stroke:rgb(26.865672%,0%,11.940299%);stroke-opacity:0.6;stroke-miterlimit:10;" d="M 0.676258 0.650787 L 0.748736 0.584268 " transform="matrix(680,0,0,660,0,0)"/>
<path style="fill:none;stroke-width:0.005;stroke-linecap:butt;stroke-linejoin:miter;stroke:rgb(26.865672%,0%,11.940299%);stroke-opacity:0.6;stroke-miterlimit:10;" d="M 0.629705 0.639299 L 0.593555 0.545964 " transform="matrix(680,0,0,660,0,0)"/>
<path style="fill:none;stroke-width:0.005;stroke-linecap:butt;stroke-linejoin:miter;stroke:rgb(26.865672%,0%,11.940299%);stroke-opacity:0.6;stroke-miterlimit:10;" d="M 0.346611 0.805433 L -0.350075 1.099751 " transform="matrix(680,0,0,660,0,0)"/>
<path style="fill:none;stroke-width:0.005;stroke-linecap:butt;stroke-linejoin:miter;stroke:rgb(26.865672%,0%,11.940299%);stroke-opacity:0.6;stroke-miterlimit:10;" d="M 0.732284 0.624834 L 0.935484 0.497745 " transform="matrix(680,0,0,660,0,0)"/>
<path style="fill:none;stroke-width:0.005;stroke-linecap:butt;stroke-linejoin:miter;stroke:rgb(26.865672%,0%,11.940299%);stroke-opacity:0.6;stroke-miterlimit:10;" d="M 0.584461 0.547745 L 0.44275 0.240785 " transform="matrix(680,0,0,660,0,0)"/>
<path style="fill:none;stroke-width:0.005;stroke-linecap:butt;stroke-linejoin:miter;stroke:rgb(26.865672%,0%,11.940299%);stroke-opacity:0.6;stroke-miterlimit:10;" d="M 0.629113 0.715726 L 0.591596 0.800716 " transform="matrix(680,0,0,660,0,0)"/>
<path style="fill:none;stroke-width:0.005;stroke-linecap:butt;stroke-linejoin:miter;stroke:rgb(26.865672%,0%,11.940299%);stroke-opacity:0.6;stroke-miterlimit:10;" d="M 0.514149 0.606611 L 0.208381 0.437003 " transform="matrix(680,0,0,660,0,0)"/>
<path style="fill:none;stroke-width:0.005;stroke-linecap:butt;stroke-linejoin:miter;stroke:rgb(26.865672%,0%,11.940299%);stroke-opacity:0.6;stroke-miterlimit:10;" d="M 0.687644 0.717933 L 0.786696 0.808079 " transform="matrix(680,0,0,660,0,0)"/>
<path style="fill:none;stroke-width:0.005;stroke-linecap:butt;stroke-linejoin:miter;stroke:rgb(26.865672%,0%,11.940299%);stroke-opacity:0.6;stroke-miterlimit:10;" d="M 0.658789 0.970875 L 0.690504 1.651231 " transform="matrix(680,0,0,660,0,0)"/>
<path style="fill:none;stroke-width:0.005;stroke-linecap:butt;stroke-linejoin:miter;stroke:rgb(26.865672%,0%,11.940299%);stroke-opacity:0.6;stroke-miterlimit:10;" d="M 0.725546 0.519484 L 0.91304 0.146585 " transform="matrix(680,0,0,660,0,0)"/>
<path style="fill:none;stroke-width:0.005;stroke-linecap:butt;stroke-linejoin:miter;stroke:rgb(26.865672%,0%,11.940299%);stroke-opacity:0.6;stroke-miterlimit:10;" d="M 0.628464 0.710446 L 0.589419 0.78312 " transform="matrix(680,0,0,660,0,0)"/>
<path style="fill:none;stroke-width:0.005;stroke-linecap:butt;stroke-linejoin:miter;stroke:rgb(26.865672%,0%,11.940299%);stroke-opacity:0.6;stroke-miterlimit:10;" d="M 0.642791 0.519342 L 0.637184 0.146117 " transform="matrix(680,0,0,660,0,0)"/>
<path style="fill:none;stroke-width:0.005;stroke-linecap:butt;stroke-linejoin:miter;stroke:rgb(26.865672%,0%,11.940299%);stroke-opacity:0.6;stroke-miterlimit:10;" d="M 0.641998 0.694537 L 0.63453 0.73009 " transform="matrix(680,0,0,660,0,0)"/>
<path style="fill:none;stroke-width:0.005;stroke-linecap:butt;stroke-linejoin:miter;stroke:rgb(26.865672%,0%,11.940299%);stroke-opacity:0.6;stroke-miterlimit:10;" d="M 0.522771 0.634742 L 0.237127 0.530782 " transform="matrix(680,0,0,660,0,0)"/>
<path style="fill:none;stroke-width:0.005;stroke-linecap:butt;stroke-linejoin:miter;stroke:rgb(26.865672%,0%,11.940299%);stroke-opacity:0.6;stroke-miterlimit:10;" d="M 0.616475 0.319857 L 0.54946 -0.518833 " transform="matrix(680,0,0,660,0,0)"/>
<path style="fill:none;stroke-width:0.005;stroke-linecap:butt;stroke-linejoin:miter;stroke:rgb(26.865672%,0%,11.940299%);stroke-opacity:0.6;stroke-miterlimit:10;" d="M 0.298168 0.813885 L -0.511569 1.12793 " transform="matrix(680,0,0,660,0,0)"/>
<path style="fill:none;stroke-width:0.005;stroke-linecap:butt;stroke-linejoin:miter;stroke:rgb(26.865672%,0%,11.940299%);stroke-opacity:0.6;stroke-miterlimit:10;" d="M 0.685466 0.598514 L 0.77944 0.41002 " transform="matrix(680,0,0,660,0,0)"/>
<path style="fill:none;stroke-width:0.005;stroke-linecap:butt;stroke-linejoin:miter;stroke:rgb(26.865672%,0%,11.940299%);stroke-opacity:0.6;stroke-miterlimit:10;" d="M 0.69421 0.733848 L 0.808588 0.861127 " transform="matrix(680,0,0,660,0,0)"/>
<path style="fill:none;stroke-width:0.005;stroke-linecap:butt;stroke-linejoin:miter;stroke:rgb(26.865672%,0%,11.940299%);stroke-opacity:0.6;stroke-miterlimit:10;" d="M 0.723748 0.683393 L 0.907031 0.692939 " transform="matrix(680,0,0,660,0,0)"/>
<path style="fill:none;stroke-width:0.005;stroke-linecap:butt;stroke-linejoin:miter;stroke:rgb(26.865672%,0%,11.940299%);stroke-opacity:0.6;stroke-miterlimit:10;" d="M 0.664551 0.663844 L 0.70972 0.627782 " transform="matrix(680,0,0,660,0,0)"/>
<path style="fill:none;stroke-width:0.00333333;stroke-linecap:butt;stroke-linejoin:miter;stroke:rgb(0%,61.19403%,0%);stroke-opacity:0.7;stroke-miterlimit:10;" d="M 0.764212 0.5 C 0.764212 0.645922 0.645921 0.764216 0.5 0.764216 C 0.354079 0.764216 0.235788 0.645922 0.235788 0.5 C 0.235788 0.354078 0.354079 0.235784 0.5 0.235784 C 0.645921 0.235784 0.764212 0.354078 0.764212 0.5 " transform="matrix(680,0,0,660,0,0)"/>
<path style=" stroke:none;fill-rule:nonzero;fill:rgb(0%,61.19403%,0%);fill-opacity:0.7;" d="M 519.664063 330 C 519.664063 426.308594 439.226563 504.382813 340 504.382813 C 240.773438 504.382813 160.335938 426.308594 160.335938 330 C 160.335938 233.691406 240.773438 155.617188 340 155.617188 C 439.226563 155.617188 519.664063 233.691406 519.664063 330 "/>
<path style="fill:none;stroke-width:0.00333333;stroke-linecap:butt;stroke-linejoin:miter;stroke:rgb(61.19403%,0%,0%);stroke-opacity:1;stroke-miterlimit:10;" d="M 0.458749 0.333333 C 0.458749 0.402598 0.402602 0.458754 0.333335 0.458754 C 0.264068 0.458754 0.207916 0.402598 0.207916 0.333333 C 0.207916 0.264068 0.264068 0.207913 0.333335 0.207913 C 0.402602 0.207913 0.458749 0.264068 0.458749 0.333333 " transform="matrix(680,0,0,660,0,0)"/>
<path style=" stroke:none;fill-rule:nonzero;fill:rgb(61.19403%,11.940299%,0%);fill-opacity:0.3;" d="M 311.949219 220 C 311.949219 265.714844 273.769531 302.777344 226.667969 302.777344 C 179.566406 302.777344 141.382813 265.714844 141.382813 220 C 141.382813 174.285156 179.566406 137.222656 226.667969 137.222656 C 273.769531 137.222656 311.949219 174.285156 311.949219 220 "/>
<path style="fill:none;stroke-width:0.00333333;stroke-linecap:butt;stroke-linejoin:miter;stroke:rgb(61.19403%,0%,0%);stroke-opacity:1;stroke-miterlimit:10;" d="M 0.8272 0.666667 C 0.8272 0.755327 0.755325 0.827202 0.666665 0.827202 C 0.578004 0.827202 0.506129 0.755327 0.506129 0.666667 C 0.506129 0.578007 0.578004 0.506132 0.666665 0.506132 C 0.755325 0.506132 0.8272 0.578007 0.8272 0.666667 " transform="matrix(680,0,0,660,0,0)"/>
<path style=" stroke:none;fill-rule:nonzero;fill:rgb(61.19403%,11.940299%,0%);fill-opacity:0.3;" d="M 562.496094 440 C 562.496094 498.515625 513.621094 545.953125 453.332031 545.953125 C 393.042969 545.953125 344.167969 498.515625 344.167969 440 C 344.167969 381.484375 393.042969 334.046875 453.332031 334.046875 C 513.621094 334.046875 562.496094 381.484375 562.496094 440 "/>
<path style="fill:none;stroke-width:0.0510204;stroke-linecap:butt;stroke-linejoin:miter;stroke:rgb(61.19403%,11.940299%,26.865672%);stroke-opacity:0.5;stroke-miterlimit:10;" d="M 0.5 0.5 C 0.469388 0.469389 0.52041 0.520407 0.551023 0.551018 " transform="matrix(680,0,0,660,0,0)"/>
<path style="fill:none;stroke-width:0.0306122;stroke-linecap:butt;stroke-linejoin:miter;stroke:rgb(61.19403%,11.940299%,26.865672%);stroke-opacity:0.5;stroke-miterlimit:10;" d="M 0.5 0.0306108 L 0.530612 0.530611 " transform="matrix(680,0,0,660,0,0)"/>
<path style="fill:none;stroke-width:0.0306122;stroke-linecap:butt;stroke-linejoin:miter;stroke:rgb(61.19403%,11.940299%,26.865672%);stroke-opacity:0.5;stroke-miterlimit:10;" d="M 0.0306124 0.5 L 0.530612 0.530611 " transform="matrix(680,0,0,660,0,0)"/>
<path style="fill:none;stroke-width:0.0306122;stroke-linecap:butt;stroke-linejoin:miter;stroke:rgb(61.19403%,11.940299%,26.865672%);stroke-opacity:0.5;stroke-miterlimit:10;" d="M 0.489798 0.489796 C 0.489798 0.489796 0.52041 0.520407 0.530612 0.530611 " transform="matrix(680,0,0,660,0,0)"/>
<path style="fill:none;stroke-width:0.0306122;stroke-linecap:butt;stroke-linejoin:miter;stroke:rgb(61.19403%,11.940299%,26.865672%);stroke-opacity:0.5;stroke-miterlimit:10;" d="M 0.489798 0.489796 C 0.489798 0.489796 0.52041 0.520407 0.530612 0.530611 " transform="matrix(680,0,0,660,0,0)"/>
<path style="fill:none;stroke-width:0.0306122;stroke-linecap:butt;stroke-linejoin:miter;stroke:rgb(61.19403%,11.940299%,26.865672%);stroke-opacity:0.5;stroke-miterlimit:10;" d="M 0.0306124 0.5 L 0.530612 0.530611 " transform="matrix(680,0,0,660,0,0)"/>
<path style="fill:none;stroke-width:0.0204082;stroke-linecap:butt;stroke-linejoin:miter;stroke:rgb(61.19403%,11.940299%,26.865672%);stroke-opacity:0.5;stroke-miterlimit:10;" d="M 0.489798 0.489796 C 0.489798 0.489796 0.510202 0.510204 0.52041 0.520407 " transform="matrix(680,0,0,660,0,0)"/>
<path style="fill:none;stroke-width:0.0204082;stroke-linecap:butt;stroke-linejoin:miter;stroke:rgb(61.19403%,11.940299%,26.865672%);stroke-opacity:0.5;stroke-miterlimit:10;" d="M 0.0204102 0.5 L 0.52041 0.520407 " transform="matrix(680,0,0,660,0,0)"/>
<path style="fill:none;stroke-width:0.0204082;stroke-linecap:butt;stroke-linejoin:miter;stroke:rgb(61.19403%,11.940299%,26.865672%);stroke-opacity:0.5;stroke-miterlimit:10;" d="M 0.489798 0.489796 C 0.489798 0.489796 0.510202 0.510204 0.52041 0.520407 " transform="matrix(680,0,0,660,0,0)"/>
<path style="fill:none;stroke-width:0.0204082;stroke-linecap:butt;stroke-linejoin:miter;stroke:rgb(61.19403%,11.940299%,26.865672%);stroke-opacity:0.5;stroke-miterlimit:10;" d="M 0.489798 0.489796 C 0.489798 0.489796 0.510202 0.510204 0.52041 0.520407 " transform="matrix(680,0,0,660,0,0)"/>
<path style="fill:none;stroke-width:0.0204082;stroke-linecap:butt;stroke-linejoin:miter;stroke:rgb(61.19403%,11.940299%,26.865672%);stroke-opacity:0.5;stroke-miterlimit:10;" d="M 0.0102022 0.5 L 0.52041 0.520407 " transform="matrix(680,0,0,660,0,0)"/>
<path style="fill:none;stroke-width:0.0204082;stroke-linecap:butt;stroke-linejoin:miter;stroke:rgb(61.19403%,11.940299%,26.865672%);stroke-opacity:0.5;stroke-miterlimit:10;" d="M 0.0204102 0.5 L 0.52041 0.520407 " transform="matrix(680,0,0,660,0,0)"/>
<path style="fill:none;stroke-width:0.0204082;stroke-linecap:butt;stroke-linejoin:miter;stroke:rgb(61.19403%,11.940299%,26.865672%);stroke-opacity:0.5;stroke-miterlimit:10;" d="M 0.0204102 0.5 L 0.52041 0.520407 " transform="matrix(680,0,0,660,0,0)"/>
<path style="fill:none;stroke-width:0.0204082;stroke-linecap:butt;stroke-linejoin:miter;stroke:rgb(61.19403%,11.940299%,26.865672%);stroke-opacity:0.5;stroke-miterlimit:10;" d="M 0.489798 0.489796 C 0.489798 0.489796 0.510202 0.510204 0.52041 0.520407 " transform="matrix(680,0,0,660,0,0)"/>
<path style="fill:none;stroke-width:0.0204082;stroke-linecap:butt;stroke-linejoin:miter;stroke:rgb(61.19403%,11.940299%,26.865672%);stroke-opacity:0.5;stroke-miterlimit:10;" d="M 0.0204102 0.5 L 0.52041 0.520407 " transform="matrix(680,0,0,660,0,0)"/>
<path style="fill:none;stroke-width:0.0204082;stroke-linecap:butt;stroke-linejoin:miter;stroke:rgb(61.19403%,11.940299%,26.865672%);stroke-opacity:0.5;stroke-miterlimit:10;" d="M 0.489798 0.489796 C 0.489798 0.489796 0.510202 0.510204 0.52041 0.520407 " transform="matrix(680,0,0,660,0,0)"/>
<path style="fill:none;stroke-width:0.0204082;stroke-linecap:butt;stroke-linejoin:miter;stroke:rgb(61.19403%,11.940299%,26.865672%);stroke-opacity:0.5;stroke-miterlimit:10;" d="M 0.0204102 0.5 L 0.52041 0.520407 " transform="matrix(680,0,0,660,0,0)"/>
<path style="fill:none;stroke-width:0.0204082;stroke-linecap:butt;stroke-linejoin:miter;stroke:rgb(61.19403%,11.940299%,26.865672%);stroke-opacity:0.5;stroke-miterlimit:10;" d="M 0.0204102 0.5 L 0.52041 0.520407 " transform="matrix(680,0,0,660,0,0)"/>
<path style="fill:none;stroke-width:0.0204082;stroke-linecap:butt;stroke-linejoin:miter;stroke:rgb(61.19403%,11.940299%,26.865672%);stroke-opacity:0.5;stroke-miterlimit:10;" d="M 0.5 0.0204072 L 0.52041 0.520407 " transform="matrix(680,0,0,660,0,0)"/>
<path style="fill:none;stroke-width:0.0204082;stroke-linecap:butt;stroke-linejoin:miter;stroke:rgb(61.19403%,11.940299%,26.865672%);stroke-opacity:0.5;stroke-miterlimit:10;" d="M 0.0204102 0.5 L 0.52041 0.520407 " transform="matrix(680,0,0,660,0,0)"/>
<path style="fill:none;stroke-width:0.0204082;stroke-linecap:butt;stroke-linejoin:miter;stroke:rgb(61.19403%,11.940299%,26.865672%);stroke-opacity:0.5;stroke-miterlimit:10;" d="M 0.0204102 0.5 L 0.52041 0.520407 " transform="matrix(680,0,0,660,0,0)"/>
<path style="fill:none;stroke-width:0.0204082;stroke-linecap:butt;stroke-linejoin:miter;stroke:rgb(61.19403%,11.940299%,26.865672%);stroke-opacity:0.5;stroke-miterlimit:10;" d="M 0.489798 0.489796 C 0.489798 0.489796 0.510202 0.510204 0.52041 0.520407 " transform="matrix(680,0,0,660,0,0)"/>
<path style="fill:none;stroke-width:0.0102041;stroke-linecap:butt;stroke-linejoin:miter;stroke:rgb(61.19403%,11.940299%,26.865672%);stroke-opacity:0.5;stroke-miterlimit:10;" d="M 0.5 0.0102036 L 0.510202 0.510204 " transform="matrix(680,0,0,660,0,0)"/>
<path style="fill:none;stroke-width:0.0102041;stroke-linecap:butt;stroke-linejoin:miter;stroke:rgb(61.19403%,11.940299%,26.865672%);stroke-opacity:0.5;stroke-miterlimit:10;" d="M 0.5 0.0102036 L 0.510202 0.510204 " transform="matrix(680,0,0,660,0,0)"/>
<path style="fill:none;stroke-width:0.0102041;stroke-linecap:butt;stroke-linejoin:miter;stroke:rgb(61.19403%,11.940299%,26.865672%);stroke-opacity:0.5;stroke-miterlimit:10;" d="M 0.5 0.0102036 L 0.510202 0.510204 " transform="matrix(680,0,0,660,0,0)"/>
<path style="fill:none;stroke-width:0.0102041;stroke-linecap:butt;stroke-linejoin:miter;stroke:rgb(61.19403%,11.940299%,26.865672%);stroke-opacity:0.5;stroke-miterlimit:10;" d="M 0.5 0.0102036 L 0.510202 0.510204 " transform="matrix(680,0,0,660,0,0)"/>
<path style="fill:none;stroke-width:0.0102041;stroke-linecap:butt;stroke-linejoin:miter;stroke:rgb(61.19403%,11.940299%,26.865672%);stroke-opacity:0.5;stroke-miterlimit:10;" d="M 0.5 0.0102036 L 0.510202 0.510204 " transform="matrix(680,0,0,660,0,0)"/>
<path style="fill:none;stroke-width:0.0102041;stroke-linecap:butt;stroke-linejoin:miter;stroke:rgb(61.19403%,11.940299%,26.865672%);stroke-opacity:0.5;stroke-miterlimit:10;" d="M 0.5 0.0102036 L 0.510202 0.510204 " transform="matrix(680,0,0,660,0,0)"/>
<path style="fill:none;stroke-width:0.0102041;stroke-linecap:butt;stroke-linejoin:miter;stroke:rgb(61.19403%,11.940299%,26.865672%);stroke-opacity:0.5;stroke-miterlimit:10;" d="M 0.5 0.0102036 L 0.510202 0.510204 " transform="matrix(680,0,0,660,0,0)"/>
<path style="fill:none;stroke-width:0.0102041;stroke-linecap:butt;stroke-linejoin:miter;stroke:rgb(61.19403%,11.940299%,26.865672%);stroke-opacity:0.5;stroke-miterlimit:10;" d="M 0.5 0.0102036 L 0.510202 0.510204 " transform="matrix(680,0,0,660,0,0)"/>
<path style="fill:none;stroke-width:0.0102041;stroke-linecap:butt;stroke-linejoin:miter;stroke:rgb(61.19403%,11.940299%,26.865672%);stroke-opacity:0.5;stroke-miterlimit:10;" d="M 0.0102022 0.5 L 0.510202 0.510204 " transform="matrix(680,0,0,660,0,0)"/>
<path style="fill:none;stroke-width:0.0102041;stroke-linecap:butt;stroke-linejoin:miter;stroke:rgb(61.19403%,11.940299%,26.865672%);stroke-opacity:0.5;stroke-miterlimit:10;" d="M 0.0102022 0.5 L 0.510202 0.510204 " transform="matrix(680,0,0,660,0,0)"/>
<path style="fill:none;stroke-width:0.0102041;stroke-linecap:butt;stroke-linejoin:miter;stroke:rgb(61.19403%,11.940299%,26.865672%);stroke-opacity:0.5;stroke-miterlimit:10;" d="M 0.0102022 0.5 L 0.510202 0.510204 " transform="matrix(680,0,0,660,0,0)"/>
<path style="fill:none;stroke-width:0.0102041;stroke-linecap:butt;stroke-linejoin:miter;stroke:rgb(61.19403%,11.940299%,26.865672%);stroke-opacity:0.5;stroke-miterlimit:10;" d="M 0.0102022 0.5 L 0.510202 0.510204 " transform="matrix(680,0,0,660,0,0)"/>
<path style="fill:none;stroke-width:0.0102041;stroke-linecap:butt;stroke-linejoin:miter;stroke:rgb(61.19403%,11.940299%,26.865672%);stroke-opacity:0.5;stroke-miterlimit:10;" d="M 0.5 0.0102036 L 0.510202 0.510204 " transform="matrix(680,0,0,660,0,0)"/>
<path style="fill:none;stroke-width:0.0102041;stroke-linecap:butt;stroke-linejoin:miter;stroke:rgb(61.19403%,11.940299%,26.865672%);stroke-opacity:0.5;stroke-miterlimit:10;" d="M 0.5 0.0102036 L 0.510202 0.510204 " transform="matrix(680,0,0,660,0,0)"/>
<path style="fill:none;stroke-width:0.0102041;stroke-linecap:butt;stroke-linejoin:miter;stroke:rgb(61.19403%,11.940299%,26.865672%);stroke-opacity:0.5;stroke-miterlimit:10;" d="M 0.5 0.0102036 L 0.510202 0.510204 " transform="matrix(680,0,0,660,0,0)"/>
<path style="fill:none;stroke-width:0.0102041;stroke-linecap:butt;stroke-linejoin:miter;stroke:rgb(61.19403%,11.940299%,26.865672%);stroke-opacity:0.5;stroke-miterlimit:10;" d="M 0.0102022 0.5 L 0.510202 0.510204 " transform="matrix(680,0,0,660,0,0)"/>
<path style="fill:none;stroke-width:0.0102041;stroke-linecap:butt;stroke-linejoin:miter;stroke:rgb(61.19403%,11.940299%,26.865672%);stroke-opacity:0.5;stroke-miterlimit:10;" d="M 0.0102022 0.5 L 0.510202 0.510204 " transform="matrix(680,0,0,660,0,0)"/>
<path style="fill:none;stroke-width:0.0102041;stroke-linecap:butt;stroke-linejoin:miter;stroke:rgb(61.19403%,11.940299%,26.865672%);stroke-opacity:0.5;stroke-miterlimit:10;" d="M 0.0102022 0.5 L 0.510202 0.510204 " transform="matrix(680,0,0,660,0,0)"/>
<path style="fill:none;stroke-width:0.0102041;stroke-linecap:butt;stroke-linejoin:miter;stroke:rgb(61.19403%,11.940299%,26.865672%);stroke-opacity:0.5;stroke-miterlimit:10;" d="M 0.0102022 0.5 L 0.510202 0.510204 " transform="matrix(680,0,0,660,0,0)"/>
<path style="fill:none;stroke-width:0.0102041;stroke-linecap:butt;stroke-linejoin:miter;stroke:rgb(61.19403%,11.940299%,26.865672%);stroke-opacity:0.5;stroke-miterlimit:10;" d="M 0.5 0.0102036 L 0.510202 0.510204 " transform="matrix(680,0,0,660,0,0)"/>
<path style="fill:none;stroke-width:0.0102041;stroke-linecap:butt;stroke-linejoin:miter;stroke:rgb(61.19403%,11.940299%,26.865672%);stroke-opacity:0.5;stroke-miterlimit:10;" d="M 0.5 0.0102036 L 0.510202 0.510204 " transform="matrix(680,0,0,660,0,0)"/>
<path style="fill:none;stroke-width:0.0102041;stroke-linecap:butt;stroke-linejoin:miter;stroke:rgb(61.19403%,11.940299%,26.865672%);stroke-opacity:0.5;stroke-miterlimit:10;" d="M 0.0102022 0.5 L 0.510202 0.510204 " transform="matrix(680,0,0,660,0,0)"/>
<path style="fill:none;stroke-width:0.0102041;stroke-linecap:butt;stroke-linejoin:miter;stroke:rgb(61.19403%,11.940299%,26.865672%);stroke-opacity:0.5;stroke-miterlimit:10;" d="M 0.0102022 0.5 L 0.510202 0.510204 " transform="matrix(680,0,0,660,0,0)"/>
<path style="fill:none;stroke-width:0.0102041;stroke-linecap:butt;stroke-linejoin:miter;stroke:rgb(61.19403%,11.940299%,26.865672%);stroke-opacity:0.5;stroke-miterlimit:10;" d="M 0.0102022 0.5 L 0.510202 0.510204 " transform="matrix(680,0,0,660,0,0)"/>
<path style="fill:none;stroke-width:0.0102041;stroke-linecap:butt;stroke-linejoin:miter;stroke:rgb(61.19403%,11.940299%,26.865672%);stroke-opacity:0.5;stroke-miterlimit:10;" d="M 0.0102022 0.5 L 0.510202 0.510204 " transform="matrix(680,0,0,660,0,0)"/>
</g>
</svg>
