<?xml version="1.0" encoding="UTF-8"?>
<svg xmlns="http://www.w3.org/2000/svg" xmlns:xlink="http://www.w3.org/1999/xlink" width="1320pt" height="1340pt" viewBox="0 0 1320 1340" version="1.1">
<g id="surface1">
<rect x="0" y="0" width="1320" height="1340" style="fill:rgb(15.789474%,43.609023%,40.601504%);fill-opacity:1;stroke:none;"/>
<path style="fill:none;stroke-width:0.005;stroke-linecap:butt;stroke-linejoin:miter;stroke:rgb(40.601504%,0%,15.789474%);stroke-opacity:0.6;stroke-miterlimit:10;" d="M 0.222958 0.356259 L -0.0686168 0.356259 " transform="matrix(1320,0,0,1340,0,0)"/>
<path style="fill:none;stroke-width:0.005;stroke-linecap:butt;stroke-linejoin:miter;stroke:rgb(40.601504%,0%,15.789474%);stroke-opacity:0.6;stroke-miterlimit:10;" d="M 0.333662 0.356378 L 0.300391 0.356655 " transform="matrix(1320,0,0,1340,0,0)"/>
<path style="fill:none;stroke-width:0.005;stroke-linecap:butt;stroke-linejoin:miter;stroke:rgb(40.601504%,0%,15.789474%);stroke-opacity:0.6;stroke-miterlimit:10;" d="M 0.327255 0.356614 L 0.279036 0.357442 " transform="matrix(1320,0,0,1340,0,0)"/>
<path style="fill:none;stroke-width:0.005;stroke-linecap:butt;stroke-linejoin:miter;stroke:rgb(40.601504%,0%,15.789474%);stroke-opacity:0.6;stroke-miterlimit:10;" d="M 0.190089 0.360841 L -0.178181 0.371531 " transform="matrix(1320,0,0,1340,0,0)"/>
<path style="fill:none;stroke-width:0.005;stroke-linecap:butt;stroke-linejoin:miter;stroke:rgb(40.601504%,0%,15.789474%);stroke-opacity:0.6;stroke-miterlimit:10;" d="M 0.425985 0.360967 L 0.608138 0.371948 " transform="matrix(1320,0,0,1340,0,0)"/>
<path style="fill:none;stroke-width:0.005;stroke-linecap:butt;stroke-linejoin:miter;stroke:rgb(40.601504%,0%,15.789474%);stroke-opacity:0.6;stroke-miterlimit:10;" d="M 0.33291 0.355696 L 0.297887 0.354384 " transform="matrix(1320,0,0,1340,0,0)"/>
<path style="fill:none;stroke-width:0.005;stroke-linecap:butt;stroke-linejoin:miter;stroke:rgb(40.601504%,0%,15.789474%);stroke-opacity:0.6;stroke-miterlimit:10;" d="M 0.283996 0.365704 L 0.134843 0.387742 " transform="matrix(1320,0,0,1340,0,0)"/>
<path style="fill:none;stroke-width:0.005;stroke-linecap:butt;stroke-linejoin:miter;stroke:rgb(40.601504%,0%,15.789474%);stroke-opacity:0.6;stroke-miterlimit:10;" d="M 0.980226 0.545665 L 2.455608 0.98762 " transform="matrix(1320,0,0,1340,0,0)"/>
<path style="fill:none;stroke-width:0.005;stroke-linecap:butt;stroke-linejoin:miter;stroke:rgb(40.601504%,0%,15.789474%);stroke-opacity:0.6;stroke-miterlimit:10;" d="M 0.31941 0.358189 L 0.252882 0.362689 " transform="matrix(1320,0,0,1340,0,0)"/>
<path style="fill:none;stroke-width:0.005;stroke-linecap:butt;stroke-linejoin:miter;stroke:rgb(40.601504%,0%,15.789474%);stroke-opacity:0.6;stroke-miterlimit:10;" d="M 0.217596 0.377889 L -0.0864909 0.428361 " transform="matrix(1320,0,0,1340,0,0)"/>
<path style="fill:none;stroke-width:0.005;stroke-linecap:butt;stroke-linejoin:miter;stroke:rgb(40.601504%,0%,15.789474%);stroke-opacity:0.6;stroke-miterlimit:10;" d="M 0.51334 0.378676 L 0.899325 0.430988 " transform="matrix(1320,0,0,1340,0,0)"/>
<path style="fill:none;stroke-width:0.005;stroke-linecap:butt;stroke-linejoin:miter;stroke:rgb(40.601504%,0%,15.789474%);stroke-opacity:0.6;stroke-miterlimit:10;" d="M 0.688704 0.386427 L 1.483866 0.456821 " transform="matrix(1320,0,0,1340,0,0)"/>
<path style="fill:none;stroke-width:0.005;stroke-linecap:butt;stroke-linejoin:miter;stroke:rgb(40.601504%,0%,15.789474%);stroke-opacity:0.6;stroke-miterlimit:10;" d="M 0.312337 0.352539 L 0.229312 0.343864 " transform="matrix(1320,0,0,1340,0,0)"/>
<path style="fill:none;stroke-width:0.005;stroke-linecap:butt;stroke-linejoin:miter;stroke:rgb(40.601504%,0%,15.789474%);stroke-opacity:0.6;stroke-miterlimit:10;" d="M 0.438909 0.376134 L 0.65121 0.422513 " transform="matrix(1320,0,0,1340,0,0)"/>
<path style="fill:none;stroke-width:0.005;stroke-linecap:butt;stroke-linejoin:miter;stroke:rgb(40.601504%,0%,15.789474%);stroke-opacity:0.6;stroke-miterlimit:10;" d="M 0.645753 0.747677 L 1.340693 1.660984 " transform="matrix(1320,0,0,1340,0,0)"/>
<path style="fill:none;stroke-width:0.005;stroke-linecap:butt;stroke-linejoin:miter;stroke:rgb(40.601504%,0%,15.789474%);stroke-opacity:0.6;stroke-miterlimit:10;" d="M 0.316279 0.336322 L 0.242445 0.289806 " transform="matrix(1320,0,0,1340,0,0)"/>
<path style="fill:none;stroke-width:0.005;stroke-linecap:butt;stroke-linejoin:miter;stroke:rgb(40.601504%,0%,15.789474%);stroke-opacity:0.6;stroke-miterlimit:10;" d="M 0.425207 0.342508 L 0.60554 0.310427 " transform="matrix(1320,0,0,1340,0,0)"/>
<path style="fill:none;stroke-width:0.005;stroke-linecap:butt;stroke-linejoin:miter;stroke:rgb(40.601504%,0%,15.789474%);stroke-opacity:0.6;stroke-miterlimit:10;" d="M 0.482061 0.387873 L 0.795061 0.461643 " transform="matrix(1320,0,0,1340,0,0)"/>
<path style="fill:none;stroke-width:0.005;stroke-linecap:butt;stroke-linejoin:miter;stroke:rgb(40.601504%,0%,15.789474%);stroke-opacity:0.6;stroke-miterlimit:10;" d="M 0.657079 0.313532 L 1.378445 0.213841 " transform="matrix(1320,0,0,1340,0,0)"/>
<path style="fill:none;stroke-width:0.005;stroke-linecap:butt;stroke-linejoin:miter;stroke:rgb(40.601504%,0%,15.789474%);stroke-opacity:0.6;stroke-miterlimit:10;" d="M 0.457019 0.397814 L 0.711586 0.494779 " transform="matrix(1320,0,0,1340,0,0)"/>
<path style="fill:none;stroke-width:0.005;stroke-linecap:butt;stroke-linejoin:miter;stroke:rgb(40.601504%,0%,15.789474%);stroke-opacity:0.6;stroke-miterlimit:10;" d="M 0.321742 0.321543 L 0.260653 0.24054 " transform="matrix(1320,0,0,1340,0,0)"/>
<path style="fill:none;stroke-width:0.005;stroke-linecap:butt;stroke-linejoin:miter;stroke:rgb(40.601504%,0%,15.789474%);stroke-opacity:0.6;stroke-miterlimit:10;" d="M 0.0927882 0.26859 L -0.502521 0.0640304 " transform="matrix(1320,0,0,1340,0,0)"/>
<path style="fill:none;stroke-width:0.005;stroke-linecap:butt;stroke-linejoin:miter;stroke:rgb(40.601504%,0%,15.789474%);stroke-opacity:0.6;stroke-miterlimit:10;" d="M 0.330288 0.366156 L 0.289151 0.389246 " transform="matrix(1320,0,0,1340,0,0)"/>
<path style="fill:none;stroke-width:0.005;stroke-linecap:butt;stroke-linejoin:miter;stroke:rgb(40.601504%,0%,15.789474%);stroke-opacity:0.6;stroke-miterlimit:10;" d="M 0.322337 0.362445 L 0.262642 0.376877 " transform="matrix(1320,0,0,1340,0,0)"/>
<path style="fill:none;stroke-width:0.005;stroke-linecap:butt;stroke-linejoin:miter;stroke:rgb(40.601504%,0%,15.789474%);stroke-opacity:0.6;stroke-miterlimit:10;" d="M 0.427643 0.372843 L 0.613663 0.411544 " transform="matrix(1320,0,0,1340,0,0)"/>
<path style="fill:none;stroke-width:0.005;stroke-linecap:butt;stroke-linejoin:miter;stroke:rgb(40.601504%,0%,15.789474%);stroke-opacity:0.6;stroke-miterlimit:10;" d="M 0.108372 0.0782241 L -0.450577 -0.570519 " transform="matrix(1320,0,0,1340,0,0)"/>
<path style="fill:none;stroke-width:0.005;stroke-linecap:butt;stroke-linejoin:miter;stroke:rgb(40.601504%,0%,15.789474%);stroke-opacity:0.6;stroke-miterlimit:10;" d="M 0.426142 0.330932 L 0.608662 0.271837 " transform="matrix(1320,0,0,1340,0,0)"/>
<path style="fill:none;stroke-width:0.005;stroke-linecap:butt;stroke-linejoin:miter;stroke:rgb(40.601504%,0%,15.789474%);stroke-opacity:0.6;stroke-miterlimit:10;" d="M 0.433283 0.384081 L 0.63246 0.448997 " transform="matrix(1320,0,0,1340,0,0)"/>
<path style="fill:none;stroke-width:0.005;stroke-linecap:butt;stroke-linejoin:miter;stroke:rgb(40.601504%,0%,15.789474%);stroke-opacity:0.6;stroke-miterlimit:10;" d="M 0.316474 0.366634 L 0.243105 0.390844 " transform="matrix(1320,0,0,1340,0,0)"/>
<path style="fill:none;stroke-width:0.005;stroke-linecap:butt;stroke-linejoin:miter;stroke:rgb(40.601504%,0%,15.789474%);stroke-opacity:0.6;stroke-miterlimit:10;" d="M 0.313317 0.345834 L 0.232579 0.321514 " transform="matrix(1320,0,0,1340,0,0)"/>
<path style="fill:none;stroke-width:0.005;stroke-linecap:butt;stroke-linejoin:miter;stroke:rgb(40.601504%,0%,15.789474%);stroke-opacity:0.6;stroke-miterlimit:10;" d="M 0.530969 0.397895 L 0.958088 0.495053 " transform="matrix(1320,0,0,1340,0,0)"/>
<path style="fill:none;stroke-width:0.005;stroke-linecap:butt;stroke-linejoin:miter;stroke:rgb(40.601504%,0%,15.789474%);stroke-opacity:0.6;stroke-miterlimit:10;" d="M 0.492267 0.390185 L 0.829081 0.469345 " transform="matrix(1320,0,0,1340,0,0)"/>
<path style="fill:none;stroke-width:0.005;stroke-linecap:butt;stroke-linejoin:miter;stroke:rgb(40.601504%,0%,15.789474%);stroke-opacity:0.6;stroke-miterlimit:10;" d="M 0.43592 0.436375 L 0.641249 0.623318 " transform="matrix(1320,0,0,1340,0,0)"/>
<path style="fill:none;stroke-width:0.005;stroke-linecap:butt;stroke-linejoin:miter;stroke:rgb(40.601504%,0%,15.789474%);stroke-opacity:0.6;stroke-miterlimit:10;" d="M 0.446257 0.380889 L 0.675704 0.43836 " transform="matrix(1320,0,0,1340,0,0)"/>
<path style="fill:none;stroke-width:0.005;stroke-linecap:butt;stroke-linejoin:miter;stroke:rgb(40.601504%,0%,15.789474%);stroke-opacity:0.6;stroke-miterlimit:10;" d="M 0.415847 0.355498 L 0.57434 0.353728 " transform="matrix(1320,0,0,1340,0,0)"/>
<path style="fill:none;stroke-width:0.005;stroke-linecap:butt;stroke-linejoin:miter;stroke:rgb(40.601504%,0%,15.789474%);stroke-opacity:0.6;stroke-miterlimit:10;" d="M 0.598506 0.223951 L 1.183203 -0.0847656 " transform="matrix(1320,0,0,1340,0,0)"/>
<path style="fill:none;stroke-width:0.005;stroke-linecap:butt;stroke-linejoin:miter;stroke:rgb(40.601504%,0%,15.789474%);stroke-opacity:0.6;stroke-miterlimit:10;" d="M 0.455004 0.384853 L 0.704871 0.451571 " transform="matrix(1320,0,0,1340,0,0)"/>
<path style="fill:none;stroke-width:0.005;stroke-linecap:butt;stroke-linejoin:miter;stroke:rgb(40.601504%,0%,15.789474%);stroke-opacity:0.6;stroke-miterlimit:10;" d="M 0.250775 0.321429 L 0.0241093 0.240156 " transform="matrix(1320,0,0,1340,0,0)"/>
<path style="fill:none;stroke-width:0.005;stroke-linecap:butt;stroke-linejoin:miter;stroke:rgb(40.601504%,0%,15.789474%);stroke-opacity:0.6;stroke-miterlimit:10;" d="M 0.713805 0.692695 L 1.56754 1.477711 " transform="matrix(1320,0,0,1340,0,0)"/>
<path style="fill:none;stroke-width:0.005;stroke-linecap:butt;stroke-linejoin:miter;stroke:rgb(40.601504%,0%,15.789474%);stroke-opacity:0.6;stroke-miterlimit:10;" d="M 0.600033 0.442234 L 1.188293 0.64284 " transform="matrix(1320,0,0,1340,0,0)"/>
<path style="fill:none;stroke-width:0.005;stroke-linecap:butt;stroke-linejoin:miter;stroke:rgb(40.601504%,0%,15.789474%);stroke-opacity:0.6;stroke-miterlimit:10;" d="M 0.499411 0.312007 L 0.852894 0.208757 " transform="matrix(1320,0,0,1340,0,0)"/>
<path style="fill:none;stroke-width:0.005;stroke-linecap:butt;stroke-linejoin:miter;stroke:rgb(40.601504%,0%,15.789474%);stroke-opacity:0.6;stroke-miterlimit:10;" d="M 0.338968 0.34793 L 0.318078 0.328495 " transform="matrix(1320,0,0,1340,0,0)"/>
<path style="fill:none;stroke-width:0.005;stroke-linecap:butt;stroke-linejoin:miter;stroke:rgb(40.601504%,0%,15.789474%);stroke-opacity:0.6;stroke-miterlimit:10;" d="M 0.422218 0.33218 L 0.595579 0.275997 " transform="matrix(1320,0,0,1340,0,0)"/>
<path style="fill:none;stroke-width:0.005;stroke-linecap:butt;stroke-linejoin:miter;stroke:rgb(40.601504%,0%,15.789474%);stroke-opacity:0.6;stroke-miterlimit:10;" d="M 0.32561 0.34933 L 0.27355 0.333165 " transform="matrix(1320,0,0,1340,0,0)"/>
<path style="fill:none;stroke-width:0.005;stroke-linecap:butt;stroke-linejoin:miter;stroke:rgb(40.601504%,0%,15.789474%);stroke-opacity:0.6;stroke-miterlimit:10;" d="M 0.364299 0.347271 L 0.402521 0.326303 " transform="matrix(1320,0,0,1340,0,0)"/>
<path style="fill:none;stroke-width:0.005;stroke-linecap:butt;stroke-linejoin:miter;stroke:rgb(40.601504%,0%,15.789474%);stroke-opacity:0.6;stroke-miterlimit:10;" d="M 0.436423 0.480684 L 0.642927 0.771015 " transform="matrix(1320,0,0,1340,0,0)"/>
<path style="fill:none;stroke-width:0.005;stroke-linecap:butt;stroke-linejoin:miter;stroke:rgb(40.601504%,0%,15.789474%);stroke-opacity:0.6;stroke-miterlimit:10;" d="M 0.314862 0.342377 L 0.237725 0.30999 " transform="matrix(1320,0,0,1340,0,0)"/>
<path style="fill:none;stroke-width:0.005;stroke-linecap:butt;stroke-linejoin:miter;stroke:rgb(40.601504%,0%,15.789474%);stroke-opacity:0.6;stroke-miterlimit:10;" d="M 0.310467 0.373709 L 0.223074 0.414427 " transform="matrix(1320,0,0,1340,0,0)"/>
<path style="fill:none;stroke-width:0.005;stroke-linecap:butt;stroke-linejoin:miter;stroke:rgb(40.601504%,0%,15.789474%);stroke-opacity:0.6;stroke-miterlimit:10;" d="M 0.418123 0.392776 L 0.581934 0.477988 " transform="matrix(1320,0,0,1340,0,0)"/>
<path style="fill:none;stroke-width:0.005;stroke-linecap:butt;stroke-linejoin:miter;stroke:rgb(40.601504%,0%,15.789474%);stroke-opacity:0.6;stroke-miterlimit:10;" d="M 0.427924 0.320286 L 0.614598 0.236351 " transform="matrix(1320,0,0,1340,0,0)"/>
<path style="fill:none;stroke-width:0.005;stroke-linecap:butt;stroke-linejoin:miter;stroke:rgb(40.601504%,0%,15.789474%);stroke-opacity:0.6;stroke-miterlimit:10;" d="M 0.276947 0.407329 L 0.111346 0.526493 " transform="matrix(1320,0,0,1340,0,0)"/>
<path style="fill:none;stroke-width:0.005;stroke-linecap:butt;stroke-linejoin:miter;stroke:rgb(40.601504%,0%,15.789474%);stroke-opacity:0.6;stroke-miterlimit:10;" d="M 0.327063 0.370933 L 0.278394 0.405177 " transform="matrix(1320,0,0,1340,0,0)"/>
<path style="fill:none;stroke-width:0.005;stroke-linecap:butt;stroke-linejoin:miter;stroke:rgb(40.601504%,0%,15.789474%);stroke-opacity:0.6;stroke-miterlimit:10;" d="M 0.453667 0.39821 L 0.700408 0.496102 " transform="matrix(1320,0,0,1340,0,0)"/>
<path style="fill:none;stroke-width:0.005;stroke-linecap:butt;stroke-linejoin:miter;stroke:rgb(40.601504%,0%,15.789474%);stroke-opacity:0.6;stroke-miterlimit:10;" d="M 0.194451 0.262095 L -0.163642 0.0423828 " transform="matrix(1320,0,0,1340,0,0)"/>
<path style="fill:none;stroke-width:0.005;stroke-linecap:butt;stroke-linejoin:miter;stroke:rgb(40.601504%,0%,15.789474%);stroke-opacity:0.6;stroke-miterlimit:10;" d="M 0.551465 0.575875 L 1.026403 1.088313 " transform="matrix(1320,0,0,1340,0,0)"/>
<path style="fill:none;stroke-width:0.005;stroke-linecap:butt;stroke-linejoin:miter;stroke:rgb(40.601504%,0%,15.789474%);stroke-opacity:0.6;stroke-miterlimit:10;" d="M 0.334277 0.347674 L 0.302441 0.327647 " transform="matrix(1320,0,0,1340,0,0)"/>
<path style="fill:none;stroke-width:0.005;stroke-linecap:butt;stroke-linejoin:miter;stroke:rgb(40.601504%,0%,15.789474%);stroke-opacity:0.6;stroke-miterlimit:10;" d="M 0.207608 0.450131 L -0.119783 0.669167 " transform="matrix(1320,0,0,1340,0,0)"/>
<path style="fill:none;stroke-width:0.005;stroke-linecap:butt;stroke-linejoin:miter;stroke:rgb(40.601504%,0%,15.789474%);stroke-opacity:0.6;stroke-miterlimit:10;" d="M 0.318714 0.335089 L 0.250568 0.285698 " transform="matrix(1320,0,0,1340,0,0)"/>
<path style="fill:none;stroke-width:0.005;stroke-linecap:butt;stroke-linejoin:miter;stroke:rgb(40.601504%,0%,15.789474%);stroke-opacity:0.6;stroke-miterlimit:10;" d="M 0.434461 0.321035 L 0.63639 0.238844 " transform="matrix(1320,0,0,1340,0,0)"/>
<path style="fill:none;stroke-width:0.005;stroke-linecap:butt;stroke-linejoin:miter;stroke:rgb(40.601504%,0%,15.789474%);stroke-opacity:0.6;stroke-miterlimit:10;" d="M 0.432161 0.434701 L 0.628729 0.617736 " transform="matrix(1320,0,0,1340,0,0)"/>
<path style="fill:none;stroke-width:0.005;stroke-linecap:butt;stroke-linejoin:miter;stroke:rgb(40.601504%,0%,15.789474%);stroke-opacity:0.6;stroke-miterlimit:10;" d="M 0.290137 0.430428 L 0.155309 0.603492 " transform="matrix(1320,0,0,1340,0,0)"/>
<path style="fill:none;stroke-width:0.005;stroke-linecap:butt;stroke-linejoin:miter;stroke:rgb(40.601504%,0%,15.789474%);stroke-opacity:0.6;stroke-miterlimit:10;" d="M 0.246982 0.232256 L 0.0114613 -0.0570837 " transform="matrix(1320,0,0,1340,0,0)"/>
<path style="fill:none;stroke-width:0.005;stroke-linecap:butt;stroke-linejoin:miter;stroke:rgb(40.601504%,0%,15.789474%);stroke-opacity:0.6;stroke-miterlimit:10;" d="M 0.317022 0.26245 L 0.244931 0.0435634 " transform="matrix(1320,0,0,1340,0,0)"/>
<path style="fill:none;stroke-width:0.005;stroke-linecap:butt;stroke-linejoin:miter;stroke:rgb(40.601504%,0%,15.789474%);stroke-opacity:0.6;stroke-miterlimit:10;" d="M 0.298 0.551895 L 0.181519 1.008384 " transform="matrix(1320,0,0,1340,0,0)"/>
<path style="fill:none;stroke-width:0.005;stroke-linecap:butt;stroke-linejoin:miter;stroke:rgb(40.601504%,0%,15.789474%);stroke-opacity:0.6;stroke-miterlimit:10;" d="M 0.327163 0.344738 L 0.278729 0.317864 " transform="matrix(1320,0,0,1340,0,0)"/>
<path style="fill:none;stroke-width:0.005;stroke-linecap:butt;stroke-linejoin:miter;stroke:rgb(40.601504%,0%,15.789474%);stroke-opacity:0.6;stroke-miterlimit:10;" d="M 0.401755 0.428921 L 0.527364 0.598464 " transform="matrix(1320,0,0,1340,0,0)"/>
<path style="fill:none;stroke-width:0.005;stroke-linecap:butt;stroke-linejoin:miter;stroke:rgb(40.601504%,0%,15.789474%);stroke-opacity:0.6;stroke-miterlimit:10;" d="M 0.331232 0.346522 L 0.292294 0.323805 " transform="matrix(1320,0,0,1340,0,0)"/>
<path style="fill:none;stroke-width:0.005;stroke-linecap:butt;stroke-linejoin:miter;stroke:rgb(40.601504%,0%,15.789474%);stroke-opacity:0.6;stroke-miterlimit:10;" d="M 0.422147 0.312276 L 0.595345 0.209646 " transform="matrix(1320,0,0,1340,0,0)"/>
<path style="fill:none;stroke-width:0.005;stroke-linecap:butt;stroke-linejoin:miter;stroke:rgb(40.601504%,0%,15.789474%);stroke-opacity:0.6;stroke-miterlimit:10;" d="M 0.415625 0.518706 L 0.5736 0.897752 " transform="matrix(1320,0,0,1340,0,0)"/>
<path style="fill:none;stroke-width:0.005;stroke-linecap:butt;stroke-linejoin:miter;stroke:rgb(40.601504%,0%,15.789474%);stroke-opacity:0.6;stroke-miterlimit:10;" d="M 0.462476 0.426947 L 0.72977 0.591887 " transform="matrix(1320,0,0,1340,0,0)"/>
<path style="fill:none;stroke-width:0.005;stroke-linecap:butt;stroke-linejoin:miter;stroke:rgb(40.601504%,0%,15.789474%);stroke-opacity:0.6;stroke-miterlimit:10;" d="M 0.336171 0.370528 L 0.308757 0.403822 " transform="matrix(1320,0,0,1340,0,0)"/>
<path style="fill:none;stroke-width:0.005;stroke-linecap:butt;stroke-linejoin:miter;stroke:rgb(40.601504%,0%,15.789474%);stroke-opacity:0.6;stroke-miterlimit:10;" d="M 0.411284 0.57221 L 0.559129 1.076096 " transform="matrix(1320,0,0,1340,0,0)"/>
<path style="fill:none;stroke-width:0.005;stroke-linecap:butt;stroke-linejoin:miter;stroke:rgb(40.601504%,0%,15.789474%);stroke-opacity:0.6;stroke-miterlimit:10;" d="M 0.381362 0.289459 L 0.459396 0.133594 " transform="matrix(1320,0,0,1340,0,0)"/>
<path style="fill:none;stroke-width:0.005;stroke-linecap:butt;stroke-linejoin:miter;stroke:rgb(40.601504%,0%,15.789474%);stroke-opacity:0.6;stroke-miterlimit:10;" d="M 0.343945 0.370592 L 0.334671 0.404043 " transform="matrix(1320,0,0,1340,0,0)"/>
<path style="fill:none;stroke-width:0.005;stroke-linecap:butt;stroke-linejoin:miter;stroke:rgb(40.601504%,0%,15.789474%);stroke-opacity:0.6;stroke-miterlimit:10;" d="M 0.568318 0.223688 L 1.082576 -0.0856372 " transform="matrix(1320,0,0,1340,0,0)"/>
<path style="fill:none;stroke-width:0.005;stroke-linecap:butt;stroke-linejoin:miter;stroke:rgb(40.601504%,0%,15.789474%);stroke-opacity:0.6;stroke-miterlimit:10;" d="M 0.507135 0.214631 L 0.87864 -0.115835 " transform="matrix(1320,0,0,1340,0,0)"/>
<path style="fill:none;stroke-width:0.005;stroke-linecap:butt;stroke-linejoin:miter;stroke:rgb(40.601504%,0%,15.789474%);stroke-opacity:0.6;stroke-miterlimit:10;" d="M 0.606357 0.883203 L 1.209375 2.112742 " transform="matrix(1320,0,0,1340,0,0)"/>
<path style="fill:none;stroke-width:0.005;stroke-linecap:butt;stroke-linejoin:miter;stroke:rgb(40.601504%,0%,15.789474%);stroke-opacity:0.6;stroke-miterlimit:10;" d="M 0.367451 0.206842 L 0.413024 -0.141797 " transform="matrix(1320,0,0,1340,0,0)"/>
<path style="fill:none;stroke-width:0.005;stroke-linecap:butt;stroke-linejoin:miter;stroke:rgb(40.601504%,0%,15.789474%);stroke-opacity:0.6;stroke-miterlimit:10;" d="M 0.570641 0.523805 L 1.090317 0.914748 " transform="matrix(1320,0,0,1340,0,0)"/>
<path style="fill:none;stroke-width:0.005;stroke-linecap:butt;stroke-linejoin:miter;stroke:rgb(40.601504%,0%,15.789474%);stroke-opacity:0.6;stroke-miterlimit:10;" d="M 0.361503 0.283075 L 0.393197 0.112313 " transform="matrix(1320,0,0,1340,0,0)"/>
<path style="fill:none;stroke-width:0.005;stroke-linecap:butt;stroke-linejoin:miter;stroke:rgb(40.601504%,0%,15.789474%);stroke-opacity:0.6;stroke-miterlimit:10;" d="M 0.447097 0.529393 L 0.678507 0.933369 " transform="matrix(1320,0,0,1340,0,0)"/>
<path style="fill:none;stroke-width:0.005;stroke-linecap:butt;stroke-linejoin:miter;stroke:rgb(40.601504%,0%,15.789474%);stroke-opacity:0.6;stroke-miterlimit:10;" d="M 0.380605 0.380865 L 0.456874 0.438281 " transform="matrix(1320,0,0,1340,0,0)"/>
<path style="fill:none;stroke-width:0.005;stroke-linecap:butt;stroke-linejoin:miter;stroke:rgb(40.601504%,0%,15.789474%);stroke-opacity:0.6;stroke-miterlimit:10;" d="M 0.321369 0.394059 L 0.259422 0.482262 " transform="matrix(1320,0,0,1340,0,0)"/>
<path style="fill:none;stroke-width:0.005;stroke-linecap:butt;stroke-linejoin:miter;stroke:rgb(40.601504%,0%,15.789474%);stroke-opacity:0.6;stroke-miterlimit:10;" d="M 0.149414 0.369167 L -0.313767 0.399286 " transform="matrix(1320,0,0,1340,0,0)"/>
<path style="fill:none;stroke-width:0.005;stroke-linecap:butt;stroke-linejoin:miter;stroke:rgb(40.601504%,0%,15.789474%);stroke-opacity:0.6;stroke-miterlimit:10;" d="M 0.454726 0.279868 L 0.703942 0.101627 " transform="matrix(1320,0,0,1340,0,0)"/>
<path style="fill:none;stroke-width:0.005;stroke-linecap:butt;stroke-linejoin:miter;stroke:rgb(40.601504%,0%,15.789474%);stroke-opacity:0.6;stroke-miterlimit:10;" d="M 0.332129 0.335258 L 0.29528 0.286258 " transform="matrix(1320,0,0,1340,0,0)"/>
<path style="fill:none;stroke-width:0.005;stroke-linecap:butt;stroke-linejoin:miter;stroke:rgb(40.601504%,0%,15.789474%);stroke-opacity:0.6;stroke-miterlimit:10;" d="M 0.484878 0.200729 L 0.804451 -0.162179 " transform="matrix(1320,0,0,1340,0,0)"/>
<path style="fill:none;stroke-width:0.005;stroke-linecap:butt;stroke-linejoin:miter;stroke:rgb(40.601504%,0%,15.789474%);stroke-opacity:0.6;stroke-miterlimit:10;" d="M 0.213941 0.088188 L -0.0986802 -0.537308 " transform="matrix(1320,0,0,1340,0,0)"/>
<path style="fill:none;stroke-width:0.005;stroke-linecap:butt;stroke-linejoin:miter;stroke:rgb(40.601504%,0%,15.789474%);stroke-opacity:0.6;stroke-miterlimit:10;" d="M 0.520046 0.393246 L 0.921677 0.47955 " transform="matrix(1320,0,0,1340,0,0)"/>
<path style="fill:none;stroke-width:0.005;stroke-linecap:butt;stroke-linejoin:miter;stroke:rgb(40.601504%,0%,15.789474%);stroke-opacity:0.6;stroke-miterlimit:10;" d="M 0.338861 0.314386 L 0.317723 0.216686 " transform="matrix(1320,0,0,1340,0,0)"/>
<path style="fill:none;stroke-width:0.005;stroke-linecap:butt;stroke-linejoin:miter;stroke:rgb(40.601504%,0%,15.789474%);stroke-opacity:0.6;stroke-miterlimit:10;" d="M 0.299213 0.315508 L 0.185565 0.220423 " transform="matrix(1320,0,0,1340,0,0)"/>
<path style="fill:none;stroke-width:0.005;stroke-linecap:butt;stroke-linejoin:miter;stroke:rgb(40.601504%,0%,15.789474%);stroke-opacity:0.6;stroke-miterlimit:10;" d="M 0.407889 0.427379 L 0.547819 0.59333 " transform="matrix(1320,0,0,1340,0,0)"/>
<path style="fill:none;stroke-width:0.005;stroke-linecap:butt;stroke-linejoin:miter;stroke:rgb(40.601504%,0%,15.789474%);stroke-opacity:0.6;stroke-miterlimit:10;" d="M 0.202554 0.232028 L -0.136633 -0.0578387 " transform="matrix(1320,0,0,1340,0,0)"/>
<path style="fill:none;stroke-width:0.005;stroke-linecap:butt;stroke-linejoin:miter;stroke:rgb(40.601504%,0%,15.789474%);stroke-opacity:0.6;stroke-miterlimit:10;" d="M 0.340249 0.299408 L 0.322351 0.166753 " transform="matrix(1320,0,0,1340,0,0)"/>
<path style="fill:none;stroke-width:0.005;stroke-linecap:butt;stroke-linejoin:miter;stroke:rgb(40.601504%,0%,15.789474%);stroke-opacity:0.6;stroke-miterlimit:10;" d="M 0.195324 0.586483 L -0.160727 1.123671 " transform="matrix(1320,0,0,1340,0,0)"/>
<path style="fill:none;stroke-width:0.005;stroke-linecap:butt;stroke-linejoin:miter;stroke:rgb(40.601504%,0%,15.789474%);stroke-opacity:0.6;stroke-miterlimit:10;" d="M 0.373103 0.344549 L 0.431866 0.317225 " transform="matrix(1320,0,0,1340,0,0)"/>
<path style="fill:none;stroke-width:0.005;stroke-linecap:butt;stroke-linejoin:miter;stroke:rgb(40.601504%,0%,15.789474%);stroke-opacity:0.6;stroke-miterlimit:10;" d="M 0.37025 0.36945 L 0.422357 0.400224 " transform="matrix(1320,0,0,1340,0,0)"/>
<path style="fill:none;stroke-width:0.005;stroke-linecap:butt;stroke-linejoin:miter;stroke:rgb(40.601504%,0%,15.789474%);stroke-opacity:0.6;stroke-miterlimit:10;" d="M 0.419496 0.292561 L 0.586503 0.143934 " transform="matrix(1320,0,0,1340,0,0)"/>
<path style="fill:none;stroke-width:0.005;stroke-linecap:butt;stroke-linejoin:miter;stroke:rgb(40.601504%,0%,15.789474%);stroke-opacity:0.6;stroke-miterlimit:10;" d="M 0.209979 1.049158 L -0.111879 2.665925 " transform="matrix(1320,0,0,1340,0,0)"/>
<path style="fill:none;stroke-width:0.005;stroke-linecap:butt;stroke-linejoin:miter;stroke:rgb(40.601504%,0%,15.789474%);stroke-opacity:0.6;stroke-miterlimit:10;" d="M 0.353202 0.435107 L 0.365521 0.619091 " transform="matrix(1320,0,0,1340,0,0)"/>
<path style="fill:none;stroke-width:0.005;stroke-linecap:butt;stroke-linejoin:miter;stroke:rgb(40.601504%,0%,15.789474%);stroke-opacity:0.6;stroke-miterlimit:10;" d="M 0.269949 0.262608 L 0.088012 0.0440852 " transform="matrix(1320,0,0,1340,0,0)"/>
<path style="fill:none;stroke-width:0.005;stroke-linecap:butt;stroke-linejoin:miter;stroke:rgb(40.601504%,0%,15.789474%);stroke-opacity:0.6;stroke-miterlimit:10;" d="M 0.413787 0.204725 L 0.567475 -0.148851 " transform="matrix(1320,0,0,1340,0,0)"/>
<path style="fill:none;stroke-width:0.005;stroke-linecap:butt;stroke-linejoin:miter;stroke:rgb(40.601504%,0%,15.789474%);stroke-opacity:0.6;stroke-miterlimit:10;" d="M 0.0939424 0.135037 L -0.498671 -0.381148 " transform="matrix(1320,0,0,1340,0,0)"/>
<path style="fill:none;stroke-width:0.005;stroke-linecap:butt;stroke-linejoin:miter;stroke:rgb(40.601504%,0%,15.789474%);stroke-opacity:0.6;stroke-miterlimit:10;" d="M 0.326252 0.322102 L 0.275692 0.242409 " transform="matrix(1320,0,0,1340,0,0)"/>
<path style="fill:none;stroke-width:0.005;stroke-linecap:butt;stroke-linejoin:miter;stroke:rgb(40.601504%,0%,15.789474%);stroke-opacity:0.6;stroke-miterlimit:10;" d="M 0.290936 0.424286 L 0.157972 0.583017 " transform="matrix(1320,0,0,1340,0,0)"/>
<path style="fill:none;stroke-width:0.005;stroke-linecap:butt;stroke-linejoin:miter;stroke:rgb(40.601504%,0%,15.789474%);stroke-opacity:0.6;stroke-miterlimit:10;" d="M 0.546579 0.419167 L 1.010118 0.565951 " transform="matrix(1320,0,0,1340,0,0)"/>
<path style="fill:none;stroke-width:0.005;stroke-linecap:butt;stroke-linejoin:miter;stroke:rgb(40.601504%,0%,15.789474%);stroke-opacity:0.6;stroke-miterlimit:10;" d="M 0.337189 0.33367 L 0.312154 0.280964 " transform="matrix(1320,0,0,1340,0,0)"/>
<path style="fill:none;stroke-width:0.005;stroke-linecap:butt;stroke-linejoin:miter;stroke:rgb(40.601504%,0%,15.789474%);stroke-opacity:0.6;stroke-miterlimit:10;" d="M 0.249944 0.269724 L 0.0213275 0.0678084 " transform="matrix(1320,0,0,1340,0,0)"/>
<path style="fill:none;stroke-width:0.005;stroke-linecap:butt;stroke-linejoin:miter;stroke:rgb(40.601504%,0%,15.789474%);stroke-opacity:0.6;stroke-miterlimit:10;" d="M 0.333671 0.297677 L 0.300423 0.160984 " transform="matrix(1320,0,0,1340,0,0)"/>
<path style="fill:none;stroke-width:0.005;stroke-linecap:butt;stroke-linejoin:miter;stroke:rgb(40.601504%,0%,15.789474%);stroke-opacity:0.6;stroke-miterlimit:10;" d="M 0.365104 0.473047 L 0.405199 0.745554 " transform="matrix(1320,0,0,1340,0,0)"/>
<path style="fill:none;stroke-width:0.005;stroke-linecap:butt;stroke-linejoin:miter;stroke:rgb(40.601504%,0%,15.789474%);stroke-opacity:0.6;stroke-miterlimit:10;" d="M 0.361603 0.27045 L 0.393534 0.0702338 " transform="matrix(1320,0,0,1340,0,0)"/>
<path style="fill:none;stroke-width:0.005;stroke-linecap:butt;stroke-linejoin:miter;stroke:rgb(40.601504%,0%,15.789474%);stroke-opacity:0.6;stroke-miterlimit:10;" d="M 0.265214 0.271715 L 0.072236 0.0744432 " transform="matrix(1320,0,0,1340,0,0)"/>
<path style="fill:none;stroke-width:0.005;stroke-linecap:butt;stroke-linejoin:miter;stroke:rgb(40.601504%,0%,15.789474%);stroke-opacity:0.6;stroke-miterlimit:10;" d="M 0.285985 0.499274 L 0.141468 0.832973 " transform="matrix(1320,0,0,1340,0,0)"/>
<path style="fill:none;stroke-width:0.005;stroke-linecap:butt;stroke-linejoin:miter;stroke:rgb(40.601504%,0%,15.789474%);stroke-opacity:0.6;stroke-miterlimit:10;" d="M 0.322079 0.325329 L 0.261784 0.25316 " transform="matrix(1320,0,0,1340,0,0)"/>
<path style="fill:none;stroke-width:0.005;stroke-linecap:butt;stroke-linejoin:miter;stroke:rgb(40.601504%,0%,15.789474%);stroke-opacity:0.6;stroke-miterlimit:10;" d="M 0.223559 0.497712 L -0.0666134 0.827772 " transform="matrix(1320,0,0,1340,0,0)"/>
<path style="fill:none;stroke-width:0.005;stroke-linecap:butt;stroke-linejoin:miter;stroke:rgb(40.601504%,0%,15.789474%);stroke-opacity:0.6;stroke-miterlimit:10;" d="M 0.31617 0.253932 L 0.242081 0.0151732 " transform="matrix(1320,0,0,1340,0,0)"/>
<path style="fill:none;stroke-width:0.005;stroke-linecap:butt;stroke-linejoin:miter;stroke:rgb(40.601504%,0%,15.789474%);stroke-opacity:0.6;stroke-miterlimit:10;" d="M 0.290119 0.287599 L 0.155253 0.127399 " transform="matrix(1320,0,0,1340,0,0)"/>
<path style="fill:none;stroke-width:0.005;stroke-linecap:butt;stroke-linejoin:miter;stroke:rgb(40.601504%,0%,15.789474%);stroke-opacity:0.6;stroke-miterlimit:10;" d="M 0.632123 0.0788275 L 1.295265 -0.568511 " transform="matrix(1320,0,0,1340,0,0)"/>
<path style="fill:none;stroke-width:0.005;stroke-linecap:butt;stroke-linejoin:miter;stroke:rgb(40.601504%,0%,15.789474%);stroke-opacity:0.6;stroke-miterlimit:10;" d="M 0.427601 0.46345 L 0.613524 0.713564 " transform="matrix(1320,0,0,1340,0,0)"/>
<path style="fill:none;stroke-width:0.005;stroke-linecap:butt;stroke-linejoin:miter;stroke:rgb(40.601504%,0%,15.789474%);stroke-opacity:0.6;stroke-miterlimit:10;" d="M 0.399497 0.296779 L 0.519845 0.157993 " transform="matrix(1320,0,0,1340,0,0)"/>
<path style="fill:none;stroke-width:0.005;stroke-linecap:butt;stroke-linejoin:miter;stroke:rgb(40.601504%,0%,15.789474%);stroke-opacity:0.6;stroke-miterlimit:10;" d="M 0.35746 0.306705 L 0.37972 0.191077 " transform="matrix(1320,0,0,1340,0,0)"/>
<path style="fill:none;stroke-width:0.005;stroke-linecap:butt;stroke-linejoin:miter;stroke:rgb(40.601504%,0%,15.789474%);stroke-opacity:0.6;stroke-miterlimit:10;" d="M 0.234979 0.434247 L -0.0285511 0.616223 " transform="matrix(1320,0,0,1340,0,0)"/>
<path style="fill:none;stroke-width:0.005;stroke-linecap:butt;stroke-linejoin:miter;stroke:rgb(40.601504%,0%,15.789474%);stroke-opacity:0.6;stroke-miterlimit:10;" d="M 0.345469 0.275563 L 0.339755 0.0872726 " transform="matrix(1320,0,0,1340,0,0)"/>
<path style="fill:none;stroke-width:0.005;stroke-linecap:butt;stroke-linejoin:miter;stroke:rgb(40.601504%,0%,15.789474%);stroke-opacity:0.6;stroke-miterlimit:10;" d="M 0.356194 0.365855 L 0.375503 0.388249 " transform="matrix(1320,0,0,1340,0,0)"/>
<path style="fill:none;stroke-width:0.005;stroke-linecap:butt;stroke-linejoin:miter;stroke:rgb(40.601504%,0%,15.789474%);stroke-opacity:0.6;stroke-miterlimit:10;" d="M 0.718214 0.187724 L 1.582238 -0.205515 " transform="matrix(1320,0,0,1340,0,0)"/>
<path style="fill:none;stroke-width:0.005;stroke-linecap:butt;stroke-linejoin:miter;stroke:rgb(40.601504%,0%,15.789474%);stroke-opacity:0.6;stroke-miterlimit:10;" d="M 0.340447 0.399359 L 0.323008 0.499924 " transform="matrix(1320,0,0,1340,0,0)"/>
<path style="fill:none;stroke-width:0.005;stroke-linecap:butt;stroke-linejoin:miter;stroke:rgb(40.601504%,0%,15.789474%);stroke-opacity:0.6;stroke-miterlimit:10;" d="M 0.530845 0.432133 L 0.95767 0.609171 " transform="matrix(1320,0,0,1340,0,0)"/>
<path style="fill:none;stroke-width:0.00333333;stroke-linecap:butt;stroke-linejoin:miter;stroke:rgb(40.601504%,0%,0%);stroke-opacity:0.7;stroke-miterlimit:10;" d="M 1 0.5 C 1 0.678632 0.904699 0.843698 0.75 0.933014 C 0.595301 1.02233 0.404699 1.02233 0.25 0.933014 C 0.0953007 0.843698 0 0.678632 0 0.5 C 0 0.321368 0.0953007 0.156302 0.25 0.0669864 C 0.404699 -0.0223298 0.595301 -0.0223298 0.75 0.0669864 C 0.904699 0.156302 1 0.321368 1 0.5 " transform="matrix(1320,0,0,1340,0,0)"/>
<path style=" stroke:none;fill-rule:nonzero;fill:rgb(40.601504%,0%,0%);fill-opacity:0.7;" d="M 1320 670 C 1320 909.367188 1194.203125 1130.554688 990 1250.238281 C 785.796875 1369.921875 534.203125 1369.921875 330 1250.238281 C 125.796875 1130.554688 0 909.367188 0 670 C 0 430.632813 125.796875 209.445313 330 89.761719 C 534.203125 -29.921875 785.796875 -29.921875 990 89.761719 C 1194.203125 209.445313 1320 430.632813 1320 670 "/>
<path style="fill:none;stroke-width:0.00333333;stroke-linecap:butt;stroke-linejoin:miter;stroke:rgb(43.609023%,0%,0%);stroke-opacity:1;stroke-miterlimit:10;" d="M 0.707916 0.333334 C 0.707916 0.467158 0.63652 0.590817 0.520623 0.657731 C 0.404729 0.724644 0.261938 0.724644 0.146043 0.657731 C 0.0301462 0.590817 -0.0412494 0.467158 -0.0412494 0.333334 C -0.0412494 0.199507 0.0301462 0.0758483 0.146043 0.00893482 C 0.261938 -0.0579757 0.404729 -0.0579757 0.520623 0.00893482 C 0.63652 0.0758483 0.707916 0.199507 0.707916 0.333334 " transform="matrix(1320,0,0,1340,0,0)"/>
<path style=" stroke:none;fill-rule:nonzero;fill:rgb(15.789474%,40.601504%,0%);fill-opacity:0.4;" d="M 934.449219 446.667969 C 934.449219 625.992188 840.207031 791.695313 687.222656 881.359375 C 534.242188 971.023438 345.757813 971.023438 192.777344 881.359375 C 39.792969 791.695313 -54.449219 625.992188 -54.449219 446.667969 C -54.449219 267.339844 39.792969 101.636719 192.777344 11.972656 C 345.757813 -77.6875 534.242188 -77.6875 687.222656 11.972656 C 840.207031 101.636719 934.449219 267.339844 934.449219 446.667969 "/>
<path style="fill:none;stroke-width:0.00333333;stroke-linecap:butt;stroke-linejoin:miter;stroke:rgb(43.609023%,0%,0%);stroke-opacity:1;stroke-miterlimit:10;" d="M 1.016164 0.666666 C 1.016164 0.791532 0.94955 0.906909 0.841415 0.969342 C 0.73328 1.031772 0.600053 1.031772 0.491918 0.969342 C 0.383783 0.906909 0.31717 0.791532 0.31717 0.666666 C 0.31717 0.541803 0.383783 0.426425 0.491918 0.363993 C 0.600053 0.30156 0.73328 0.30156 0.841415 0.363993 C 0.94955 0.426425 1.016164 0.541803 1.016164 0.666666 " transform="matrix(1320,0,0,1340,0,0)"/>
<path style=" stroke:none;fill-rule:nonzero;fill:rgb(15.789474%,40.601504%,0%);fill-opacity:0.4;" d="M 1341.335938 893.332031 C 1341.335938 1060.652344 1253.40625 1215.257813 1110.667969 1298.917969 C 967.929688 1382.574219 792.070313 1382.574219 649.332031 1298.917969 C 506.59375 1215.257813 418.664063 1060.652344 418.664063 893.332031 C 418.664063 726.015625 506.59375 571.410156 649.332031 487.75 C 792.070313 404.089844 967.929688 404.089844 1110.667969 487.75 C 1253.40625 571.410156 1341.335938 726.015625 1341.335938 893.332031 "/>
<path style="fill:none;stroke-width:0.0526316;stroke-linecap:butt;stroke-linejoin:miter;stroke:rgb(43.609023%,15.789474%,40.601504%);stroke-opacity:0.4;stroke-miterlimit:10;" d="M 0.500331 0.469808 C 0.530942 0.601621 0.42824 0.541237 0.763488 0.732967 " transform="matrix(1320,0,0,1340,0,0)"/>
<path style="fill:none;stroke-width:0.0526316;stroke-linecap:butt;stroke-linejoin:miter;stroke:rgb(43.609023%,15.789474%,40.601504%);stroke-opacity:0.4;stroke-miterlimit:10;" d="M 0.402545 0.919103 C 0.34132 0.121712 0.556641 0.95992 0.665702 1.182262 " transform="matrix(1320,0,0,1340,0,0)"/>
<path style="fill:none;stroke-width:0.0473684;stroke-linecap:butt;stroke-linejoin:miter;stroke:rgb(43.609023%,15.789474%,40.601504%);stroke-opacity:0.4;stroke-miterlimit:10;" d="M 0.158505 0.704134 C 0.229933 0.316275 0.821088 0.724542 0.395348 0.940975 " transform="matrix(1320,0,0,1340,0,0)"/>
<path style="fill:none;stroke-width:0.0473684;stroke-linecap:butt;stroke-linejoin:miter;stroke:rgb(43.609023%,15.789474%,40.601504%);stroke-opacity:0.4;stroke-miterlimit:10;" d="M 0.330492 0.350254 C 0.401921 0.670155 0.740936 0.370662 0.567333 0.587095 " transform="matrix(1320,0,0,1340,0,0)"/>
<path style="fill:none;stroke-width:0.0421053;stroke-linecap:butt;stroke-linejoin:miter;stroke:rgb(43.609023%,15.789474%,40.601504%);stroke-opacity:0.4;stroke-miterlimit:10;" d="M 0.616596 0.000886194 C 0.637003 0.937891 0.403815 0.0621094 0.827122 0.211413 " transform="matrix(1320,0,0,1340,0,0)"/>
<path style="fill:none;stroke-width:0.0421053;stroke-linecap:butt;stroke-linejoin:miter;stroke:rgb(43.609023%,15.789474%,40.601504%);stroke-opacity:0.4;stroke-miterlimit:10;" d="M 0.305646 0.62558 C 0.356667 0.343808 0.745375 0.656192 0.516172 0.836107 " transform="matrix(1320,0,0,1340,0,0)"/>
<path style="fill:none;stroke-width:0.0421053;stroke-linecap:butt;stroke-linejoin:miter;stroke:rgb(43.609023%,15.789474%,40.601504%);stroke-opacity:0.4;stroke-miterlimit:10;" d="M 0.689867 0.604078 C 0.730682 0.436739 0.35095 0.563261 0.900394 0.814605 " transform="matrix(1320,0,0,1340,0,0)"/>
<path style="fill:none;stroke-width:0.0421053;stroke-linecap:butt;stroke-linejoin:miter;stroke:rgb(43.609023%,15.789474%,40.601504%);stroke-opacity:0.4;stroke-miterlimit:10;" d="M 0.41809 0.845738 C 0.458907 0.195079 0.541093 0.886553 0.628619 1.056265 " transform="matrix(1320,0,0,1340,0,0)"/>
<path style="fill:none;stroke-width:0.0421053;stroke-linecap:butt;stroke-linejoin:miter;stroke:rgb(43.609023%,15.789474%,40.601504%);stroke-opacity:0.4;stroke-miterlimit:10;" d="M 0.1057 0.487153 C 0.0546786 0.482235 0.945321 0.517765 0.316226 0.69768 " transform="matrix(1320,0,0,1340,0,0)"/>
<path style="fill:none;stroke-width:0.0368421;stroke-linecap:butt;stroke-linejoin:miter;stroke:rgb(43.609023%,15.789474%,40.601504%);stroke-opacity:0.4;stroke-miterlimit:10;" d="M 0.285378 1.012407 C 0.315989 0.0284107 0.673804 1.053224 0.469587 1.196618 " transform="matrix(1320,0,0,1340,0,0)"/>
<path style="fill:none;stroke-width:0.0315789;stroke-linecap:butt;stroke-linejoin:miter;stroke:rgb(43.609023%,15.789474%,40.601504%);stroke-opacity:0.4;stroke-miterlimit:10;" d="M 0.772369 0.797671 C 0.813187 0.222735 0.207224 0.81808 0.930265 0.955568 " transform="matrix(1320,0,0,1340,0,0)"/>
<path style="fill:none;stroke-width:0.0315789;stroke-linecap:butt;stroke-linejoin:miter;stroke:rgb(43.609023%,15.789474%,40.601504%);stroke-opacity:0.4;stroke-miterlimit:10;" d="M 0.363604 0.511806 C 0.404421 0.467785 0.615986 0.470989 0.521499 0.6697 " transform="matrix(1320,0,0,1340,0,0)"/>
<path style="fill:none;stroke-width:0.0315789;stroke-linecap:butt;stroke-linejoin:miter;stroke:rgb(43.609023%,15.789474%,40.601504%);stroke-opacity:0.4;stroke-miterlimit:10;" d="M 0.051021 0.92653 L 0.997712 1.084427 " transform="matrix(1320,0,0,1340,0,0)"/>
<path style="fill:none;stroke-width:0.0315789;stroke-linecap:butt;stroke-linejoin:miter;stroke:rgb(43.609023%,15.789474%,40.601504%);stroke-opacity:0.4;stroke-miterlimit:10;" d="M 0.290936 0.523041 C 0.250121 0.45655 0.749879 0.482224 0.448831 0.680935 " transform="matrix(1320,0,0,1340,0,0)"/>
<path style="fill:none;stroke-width:0.0315789;stroke-linecap:butt;stroke-linejoin:miter;stroke:rgb(43.609023%,15.789474%,40.601504%);stroke-opacity:0.4;stroke-miterlimit:10;" d="M 0.307694 0.0612232 L 0.465589 0.136077 " transform="matrix(1320,0,0,1340,0,0)"/>
<path style="fill:none;stroke-width:0.0315789;stroke-linecap:butt;stroke-linejoin:miter;stroke:rgb(43.609023%,15.789474%,40.601504%);stroke-opacity:0.4;stroke-miterlimit:10;" d="M 0.856504 0.0510203 L 1.0144 1.127816 " transform="matrix(1320,0,0,1340,0,0)"/>
<path style="fill:none;stroke-width:0.0263158;stroke-linecap:butt;stroke-linejoin:miter;stroke:rgb(43.609023%,15.789474%,40.601504%);stroke-opacity:0.4;stroke-miterlimit:10;" d="M 0.0306108 0.0774778 L 0.547425 0.209057 " transform="matrix(1320,0,0,1340,0,0)"/>
<path style="fill:none;stroke-width:0.0263158;stroke-linecap:butt;stroke-linejoin:miter;stroke:rgb(43.609023%,15.789474%,40.601504%);stroke-opacity:0.4;stroke-miterlimit:10;" d="M 0.59876 0.891741 C 0.629374 0.128667 0.431851 0.86113 0.730342 1.023321 " transform="matrix(1320,0,0,1340,0,0)"/>
<path style="fill:none;stroke-width:0.0263158;stroke-linecap:butt;stroke-linejoin:miter;stroke:rgb(43.609023%,15.789474%,40.601504%);stroke-opacity:0.4;stroke-miterlimit:10;" d="M 0.0408174 0.267925 L 0.486307 0.399504 " transform="matrix(1320,0,0,1340,0,0)"/>
<path style="fill:none;stroke-width:0.0263158;stroke-linecap:butt;stroke-linejoin:miter;stroke:rgb(43.609023%,15.789474%,40.601504%);stroke-opacity:0.4;stroke-miterlimit:10;" d="M 0.297988 0.0510203 L 0.429566 1.171397 " transform="matrix(1320,0,0,1340,0,0)"/>
<path style="fill:none;stroke-width:0.0210526;stroke-linecap:butt;stroke-linejoin:miter;stroke:rgb(43.609023%,15.789474%,40.601504%);stroke-opacity:0.4;stroke-miterlimit:10;" d="M 0.0408174 0.349662 L 0.360005 0.454924 " transform="matrix(1320,0,0,1340,0,0)"/>
<path style="fill:none;stroke-width:0.0210526;stroke-linecap:butt;stroke-linejoin:miter;stroke:rgb(43.609023%,15.789474%,40.601504%);stroke-opacity:0.4;stroke-miterlimit:10;" d="M 0.0204072 0.708328 L 0.162009 0.813593 " transform="matrix(1320,0,0,1340,0,0)"/>
<path style="fill:none;stroke-width:0.0210526;stroke-linecap:butt;stroke-linejoin:miter;stroke:rgb(43.609023%,15.789474%,40.601504%);stroke-opacity:0.4;stroke-miterlimit:10;" d="M 0.0408174 0.481699 L 0.443084 0.586961 " transform="matrix(1320,0,0,1340,0,0)"/>
<path style="fill:none;stroke-width:0.0210526;stroke-linecap:butt;stroke-linejoin:miter;stroke:rgb(43.609023%,15.789474%,40.601504%);stroke-opacity:0.4;stroke-miterlimit:10;" d="M 0.0306108 0.565389 L 0.971292 0.670651 " transform="matrix(1320,0,0,1340,0,0)"/>
<path style="fill:none;stroke-width:0.0210526;stroke-linecap:butt;stroke-linejoin:miter;stroke:rgb(43.609023%,15.789474%,40.601504%);stroke-opacity:0.4;stroke-miterlimit:10;" d="M 0.677069 0.751318 C 0.697476 0.228274 0.302524 0.771726 0.78233 0.856582 " transform="matrix(1320,0,0,1340,0,0)"/>
<path style="fill:none;stroke-width:0.0210526;stroke-linecap:butt;stroke-linejoin:miter;stroke:rgb(43.609023%,15.789474%,40.601504%);stroke-opacity:0.4;stroke-miterlimit:10;" d="M 0.590098 0.0408174 L 0.695363 0.774344 " transform="matrix(1320,0,0,1340,0,0)"/>
<path style="fill:none;stroke-width:0.0210526;stroke-linecap:butt;stroke-linejoin:miter;stroke:rgb(43.609023%,15.789474%,40.601504%);stroke-opacity:0.4;stroke-miterlimit:10;" d="M 0.104895 0.68576 C 0.125302 0.293832 0.874698 0.706168 0.210156 0.791021 " transform="matrix(1320,0,0,1340,0,0)"/>
<path style="fill:none;stroke-width:0.0210526;stroke-linecap:butt;stroke-linejoin:miter;stroke:rgb(43.609023%,15.789474%,40.601504%);stroke-opacity:0.4;stroke-miterlimit:10;" d="M 0.0408174 0.9605 L 0.222038 1.065765 " transform="matrix(1320,0,0,1340,0,0)"/>
<path style="fill:none;stroke-width:0.0210526;stroke-linecap:butt;stroke-linejoin:miter;stroke:rgb(43.609023%,15.789474%,40.601504%);stroke-opacity:0.4;stroke-miterlimit:10;" d="M 0.570475 0.339412 C 0.550068 0.680996 0.449932 0.359818 0.67574 0.444674 " transform="matrix(1320,0,0,1340,0,0)"/>
<path style="fill:none;stroke-width:0.0210526;stroke-linecap:butt;stroke-linejoin:miter;stroke:rgb(43.609023%,15.789474%,40.601504%);stroke-opacity:0.4;stroke-miterlimit:10;" d="M 0.20269 0.0408174 L 0.307952 0.512045 " transform="matrix(1320,0,0,1340,0,0)"/>
<path style="fill:none;stroke-width:0.0210526;stroke-linecap:butt;stroke-linejoin:miter;stroke:rgb(43.609023%,15.789474%,40.601504%);stroke-opacity:0.4;stroke-miterlimit:10;" d="M 0.251056 0.0306116 L 0.356318 1.038325 " transform="matrix(1320,0,0,1340,0,0)"/>
<path style="fill:none;stroke-width:0.0157895;stroke-linecap:butt;stroke-linejoin:miter;stroke:rgb(43.609023%,15.789474%,40.601504%);stroke-opacity:0.4;stroke-miterlimit:10;" d="M 1.03085 0.0204087 L 1.109798 0.87577 " transform="matrix(1320,0,0,1340,0,0)"/>
<path style="fill:none;stroke-width:0.0157895;stroke-linecap:butt;stroke-linejoin:miter;stroke:rgb(43.609023%,15.789474%,40.601504%);stroke-opacity:0.4;stroke-miterlimit:10;" d="M 0.0204072 0.0199277 L 0.767551 0.0988748 " transform="matrix(1320,0,0,1340,0,0)"/>
<path style="fill:none;stroke-width:0.0157895;stroke-linecap:butt;stroke-linejoin:miter;stroke:rgb(43.609023%,15.789474%,40.601504%);stroke-opacity:0.4;stroke-miterlimit:10;" d="M 0.0306108 0.287599 L 0.925435 0.366546 " transform="matrix(1320,0,0,1340,0,0)"/>
<path style="fill:none;stroke-width:0.0157895;stroke-linecap:butt;stroke-linejoin:miter;stroke:rgb(43.609023%,15.789474%,40.601504%);stroke-opacity:0.4;stroke-miterlimit:10;" d="M 0.0306108 0.168313 L 0.730578 0.24726 " transform="matrix(1320,0,0,1340,0,0)"/>
<path style="fill:none;stroke-width:0.0157895;stroke-linecap:butt;stroke-linejoin:miter;stroke:rgb(43.609023%,15.789474%,40.601504%);stroke-opacity:0.4;stroke-miterlimit:10;" d="M 0.0204072 0.815398 L 0.656587 0.894345 " transform="matrix(1320,0,0,1340,0,0)"/>
<path style="fill:none;stroke-width:0.0157895;stroke-linecap:butt;stroke-linejoin:miter;stroke:rgb(43.609023%,15.789474%,40.601504%);stroke-opacity:0.4;stroke-miterlimit:10;" d="M 0.0204072 0.929868 L 1.044345 1.008815 " transform="matrix(1320,0,0,1340,0,0)"/>
<path style="fill:none;stroke-width:0.0157895;stroke-linecap:butt;stroke-linejoin:miter;stroke:rgb(43.609023%,15.789474%,40.601504%);stroke-opacity:0.4;stroke-miterlimit:10;" d="M 0.0306108 0.345143 L 0.465273 0.42409 " transform="matrix(1320,0,0,1340,0,0)"/>
<path style="fill:none;stroke-width:0.0157895;stroke-linecap:butt;stroke-linejoin:miter;stroke:rgb(43.609023%,15.789474%,40.601504%);stroke-opacity:0.4;stroke-miterlimit:10;" d="M 0.412722 0.0204087 L 0.49167 0.164398 " transform="matrix(1320,0,0,1340,0,0)"/>
<path style="fill:none;stroke-width:0.0157895;stroke-linecap:butt;stroke-linejoin:miter;stroke:rgb(43.609023%,15.789474%,40.601504%);stroke-opacity:0.4;stroke-miterlimit:10;" d="M 0.848177 0.0204087 L 0.927125 0.491164 " transform="matrix(1320,0,0,1340,0,0)"/>
<path style="fill:none;stroke-width:0.0157895;stroke-linecap:butt;stroke-linejoin:miter;stroke:rgb(43.609023%,15.789474%,40.601504%);stroke-opacity:0.4;stroke-miterlimit:10;" d="M 0.0204072 -0.0393161 L 1.031176 0.0396309 " transform="matrix(1320,0,0,1340,0,0)"/>
<path style="fill:none;stroke-width:0.0157895;stroke-linecap:butt;stroke-linejoin:miter;stroke:rgb(43.609023%,15.789474%,40.601504%);stroke-opacity:0.4;stroke-miterlimit:10;" d="M 0.0204072 0.0412022 L 0.55807 0.120149 " transform="matrix(1320,0,0,1340,0,0)"/>
<path style="fill:none;stroke-width:0.0157895;stroke-linecap:butt;stroke-linejoin:miter;stroke:rgb(43.609023%,15.789474%,40.601504%);stroke-opacity:0.4;stroke-miterlimit:10;" d="M 0.361195 0.0306116 L 0.440143 0.846744 " transform="matrix(1320,0,0,1340,0,0)"/>
<path style="fill:none;stroke-width:0.0157895;stroke-linecap:butt;stroke-linejoin:miter;stroke:rgb(43.609023%,15.789474%,40.601504%);stroke-opacity:0.4;stroke-miterlimit:10;" d="M 0.0306108 0.521592 L 0.296123 0.600539 " transform="matrix(1320,0,0,1340,0,0)"/>
<path style="fill:none;stroke-width:0.0157895;stroke-linecap:butt;stroke-linejoin:miter;stroke:rgb(43.609023%,15.789474%,40.601504%);stroke-opacity:0.4;stroke-miterlimit:10;" d="M 0.737654 0.0306116 L 0.816602 0.209454 " transform="matrix(1320,0,0,1340,0,0)"/>
<path style="fill:none;stroke-width:0.0157895;stroke-linecap:butt;stroke-linejoin:miter;stroke:rgb(43.609023%,15.789474%,40.601504%);stroke-opacity:0.4;stroke-miterlimit:10;" d="M 0.964986 0.0306116 L 1.043931 0.584763 " transform="matrix(1320,0,0,1340,0,0)"/>
<path style="fill:none;stroke-width:0.0157895;stroke-linecap:butt;stroke-linejoin:miter;stroke:rgb(43.609023%,15.789474%,40.601504%);stroke-opacity:0.4;stroke-miterlimit:10;" d="M 0.0204072 0.426207 L 0.759928 0.505154 " transform="matrix(1320,0,0,1340,0,0)"/>
<path style="fill:none;stroke-width:0.0157895;stroke-linecap:butt;stroke-linejoin:miter;stroke:rgb(43.609023%,15.789474%,40.601504%);stroke-opacity:0.4;stroke-miterlimit:10;" d="M 0.0204072 0.492077 L 0.980016 0.571027 " transform="matrix(1320,0,0,1340,0,0)"/>
</g>
</svg>
