<?xml version="1.0" encoding="UTF-8"?>
<svg xmlns="http://www.w3.org/2000/svg" xmlns:xlink="http://www.w3.org/1999/xlink" width="1320pt" height="1340pt" viewBox="0 0 1320 1340" version="1.1">
<g id="surface1">
<rect x="0" y="0" width="1320" height="1340" style="fill:rgb(15.789474%,43.609023%,40.601504%);fill-opacity:1;stroke:none;"/>
<path style="fill:none;stroke-width:0.005;stroke-linecap:butt;stroke-linejoin:miter;stroke:rgb(40.601504%,0%,15.789474%);stroke-opacity:0.6;stroke-miterlimit:10;" d="M 0.300559 0.643741 L 0.190048 0.643741 " transform="matrix(1320,0,0,1340,0,0)"/>
<path style="fill:none;stroke-width:0.005;stroke-linecap:butt;stroke-linejoin:miter;stroke:rgb(40.601504%,0%,15.789474%);stroke-opacity:0.6;stroke-miterlimit:10;" d="M 0.439205 0.642094 L 0.652196 0.638249 " transform="matrix(1320,0,0,1340,0,0)"/>
<path style="fill:none;stroke-width:0.005;stroke-linecap:butt;stroke-linejoin:miter;stroke:rgb(40.601504%,0%,15.789474%);stroke-opacity:0.6;stroke-miterlimit:10;" d="M 0.441391 0.640791 L 0.659493 0.633909 " transform="matrix(1320,0,0,1340,0,0)"/>
<path style="fill:none;stroke-width:0.005;stroke-linecap:butt;stroke-linejoin:miter;stroke:rgb(40.601504%,0%,15.789474%);stroke-opacity:0.6;stroke-miterlimit:10;" d="M 0.306214 0.644855 L 0.208904 0.647452 " transform="matrix(1320,0,0,1340,0,0)"/>
<path style="fill:none;stroke-width:0.005;stroke-linecap:butt;stroke-linejoin:miter;stroke:rgb(40.601504%,0%,15.789474%);stroke-opacity:0.6;stroke-miterlimit:10;" d="M 0.488802 0.64858 L 0.817525 0.659871 " transform="matrix(1320,0,0,1340,0,0)"/>
<path style="fill:none;stroke-width:0.005;stroke-linecap:butt;stroke-linejoin:miter;stroke:rgb(40.601504%,0%,15.789474%);stroke-opacity:0.6;stroke-miterlimit:10;" d="M 0.32471 0.64275 L 0.270555 0.640436 " transform="matrix(1320,0,0,1340,0,0)"/>
<path style="fill:none;stroke-width:0.005;stroke-linecap:butt;stroke-linejoin:miter;stroke:rgb(40.601504%,0%,15.789474%);stroke-opacity:0.6;stroke-miterlimit:10;" d="M 0.329353 0.650312 L 0.286035 0.665645 " transform="matrix(1320,0,0,1340,0,0)"/>
<path style="fill:none;stroke-width:0.005;stroke-linecap:butt;stroke-linejoin:miter;stroke:rgb(40.601504%,0%,15.789474%);stroke-opacity:0.6;stroke-miterlimit:10;" d="M 0.199663 0.656935 L -0.146268 0.687716 " transform="matrix(1320,0,0,1340,0,0)"/>
<path style="fill:none;stroke-width:0.005;stroke-linecap:butt;stroke-linejoin:miter;stroke:rgb(40.601504%,0%,15.789474%);stroke-opacity:0.6;stroke-miterlimit:10;" d="M 0.534319 0.657708 L 0.969247 0.69029 " transform="matrix(1320,0,0,1340,0,0)"/>
<path style="fill:none;stroke-width:0.005;stroke-linecap:butt;stroke-linejoin:miter;stroke:rgb(40.601504%,0%,15.789474%);stroke-opacity:0.6;stroke-miterlimit:10;" d="M 0.426669 0.653014 L 0.610414 0.674647 " transform="matrix(1320,0,0,1340,0,0)"/>
<path style="fill:none;stroke-width:0.005;stroke-linecap:butt;stroke-linejoin:miter;stroke:rgb(40.601504%,0%,15.789474%);stroke-opacity:0.6;stroke-miterlimit:10;" d="M 0.413829 0.571773 L 0.567611 0.403848 " transform="matrix(1320,0,0,1340,0,0)"/>
<path style="fill:none;stroke-width:0.005;stroke-linecap:butt;stroke-linejoin:miter;stroke:rgb(40.601504%,0%,15.789474%);stroke-opacity:0.6;stroke-miterlimit:10;" d="M 0.321792 0.640118 L 0.260828 0.631664 " transform="matrix(1320,0,0,1340,0,0)"/>
<path style="fill:none;stroke-width:0.005;stroke-linecap:butt;stroke-linejoin:miter;stroke:rgb(40.601504%,0%,15.789474%);stroke-opacity:0.6;stroke-miterlimit:10;" d="M 0.314563 0.62595 L 0.236728 0.584433 " transform="matrix(1320,0,0,1340,0,0)"/>
<path style="fill:none;stroke-width:0.005;stroke-linecap:butt;stroke-linejoin:miter;stroke:rgb(40.601504%,0%,15.789474%);stroke-opacity:0.6;stroke-miterlimit:10;" d="M 0.418522 0.593193 L 0.583256 0.475251 " transform="matrix(1320,0,0,1340,0,0)"/>
<path style="fill:none;stroke-width:0.005;stroke-linecap:butt;stroke-linejoin:miter;stroke:rgb(40.601504%,0%,15.789474%);stroke-opacity:0.6;stroke-miterlimit:10;" d="M 0.335159 0.62535 L 0.30538 0.582431 " transform="matrix(1320,0,0,1340,0,0)"/>
<path style="fill:none;stroke-width:0.005;stroke-linecap:butt;stroke-linejoin:miter;stroke:rgb(40.601504%,0%,15.789474%);stroke-opacity:0.6;stroke-miterlimit:10;" d="M 0.494215 0.686436 L 0.835574 0.78606 " transform="matrix(1320,0,0,1340,0,0)"/>
<path style="fill:none;stroke-width:0.005;stroke-linecap:butt;stroke-linejoin:miter;stroke:rgb(40.601504%,0%,15.789474%);stroke-opacity:0.6;stroke-miterlimit:10;" d="M 0.233573 0.682235 L -0.0332327 0.772056 " transform="matrix(1320,0,0,1340,0,0)"/>
<path style="fill:none;stroke-width:0.005;stroke-linecap:butt;stroke-linejoin:miter;stroke:rgb(40.601504%,0%,15.789474%);stroke-opacity:0.6;stroke-miterlimit:10;" d="M 0.559996 0.614226 L 1.054841 0.545359 " transform="matrix(1320,0,0,1340,0,0)"/>
<path style="fill:none;stroke-width:0.005;stroke-linecap:butt;stroke-linejoin:miter;stroke:rgb(40.601504%,0%,15.789474%);stroke-opacity:0.6;stroke-miterlimit:10;" d="M 0.30902 0.635646 L 0.21825 0.616753 " transform="matrix(1320,0,0,1340,0,0)"/>
<path style="fill:none;stroke-width:0.005;stroke-linecap:butt;stroke-linejoin:miter;stroke:rgb(40.601504%,0%,15.789474%);stroke-opacity:0.6;stroke-miterlimit:10;" d="M 0.327157 0.639672 L 0.278708 0.630171 " transform="matrix(1320,0,0,1340,0,0)"/>
<path style="fill:none;stroke-width:0.005;stroke-linecap:butt;stroke-linejoin:miter;stroke:rgb(40.601504%,0%,15.789474%);stroke-opacity:0.6;stroke-miterlimit:10;" d="M 0.579824 0.686346 L 1.120934 0.78576 " transform="matrix(1320,0,0,1340,0,0)"/>
<path style="fill:none;stroke-width:0.005;stroke-linecap:butt;stroke-linejoin:miter;stroke:rgb(40.601504%,0%,15.789474%);stroke-opacity:0.6;stroke-miterlimit:10;" d="M 0.434192 0.669528 L 0.635491 0.729693 " transform="matrix(1320,0,0,1340,0,0)"/>
<path style="fill:none;stroke-width:0.005;stroke-linecap:butt;stroke-linejoin:miter;stroke:rgb(40.601504%,0%,15.789474%);stroke-opacity:0.6;stroke-miterlimit:10;" d="M 0.291572 0.61626 L 0.160094 0.552143 " transform="matrix(1320,0,0,1340,0,0)"/>
<path style="fill:none;stroke-width:0.005;stroke-linecap:butt;stroke-linejoin:miter;stroke:rgb(40.601504%,0%,15.789474%);stroke-opacity:0.6;stroke-miterlimit:10;" d="M 0.483437 0.614506 L 0.799645 0.546292 " transform="matrix(1320,0,0,1340,0,0)"/>
<path style="fill:none;stroke-width:0.005;stroke-linecap:butt;stroke-linejoin:miter;stroke:rgb(40.601504%,0%,15.789474%);stroke-opacity:0.6;stroke-miterlimit:10;" d="M 0.64955 0.563188 L 1.353356 0.37523 " transform="matrix(1320,0,0,1340,0,0)"/>
<path style="fill:none;stroke-width:0.005;stroke-linecap:butt;stroke-linejoin:miter;stroke:rgb(40.601504%,0%,15.789474%);stroke-opacity:0.6;stroke-miterlimit:10;" d="M 0.333579 0.682087 L 0.300118 0.77156 " transform="matrix(1320,0,0,1340,0,0)"/>
<path style="fill:none;stroke-width:0.005;stroke-linecap:butt;stroke-linejoin:miter;stroke:rgb(40.601504%,0%,15.789474%);stroke-opacity:0.6;stroke-miterlimit:10;" d="M 0.306691 0.634556 L 0.210494 0.613124 " transform="matrix(1320,0,0,1340,0,0)"/>
<path style="fill:none;stroke-width:0.005;stroke-linecap:butt;stroke-linejoin:miter;stroke:rgb(40.601504%,0%,15.789474%);stroke-opacity:0.6;stroke-miterlimit:10;" d="M 0.258458 0.618412 L 0.04971 0.559311 " transform="matrix(1320,0,0,1340,0,0)"/>
<path style="fill:none;stroke-width:0.005;stroke-linecap:butt;stroke-linejoin:miter;stroke:rgb(40.601504%,0%,15.789474%);stroke-opacity:0.6;stroke-miterlimit:10;" d="M 0.308218 0.668304 L 0.215581 0.725615 " transform="matrix(1320,0,0,1340,0,0)"/>
<path style="fill:none;stroke-width:0.005;stroke-linecap:butt;stroke-linejoin:miter;stroke:rgb(40.601504%,0%,15.789474%);stroke-opacity:0.6;stroke-miterlimit:10;" d="M 0.319019 0.652845 L 0.251586 0.67409 " transform="matrix(1320,0,0,1340,0,0)"/>
<path style="fill:none;stroke-width:0.005;stroke-linecap:butt;stroke-linejoin:miter;stroke:rgb(40.601504%,0%,15.789474%);stroke-opacity:0.6;stroke-miterlimit:10;" d="M 0.331688 0.647685 L 0.293818 0.656883 " transform="matrix(1320,0,0,1340,0,0)"/>
<path style="fill:none;stroke-width:0.005;stroke-linecap:butt;stroke-linejoin:miter;stroke:rgb(40.601504%,0%,15.789474%);stroke-opacity:0.6;stroke-miterlimit:10;" d="M 0.4866 0.764217 L 0.810186 1.04533 " transform="matrix(1320,0,0,1340,0,0)"/>
<path style="fill:none;stroke-width:0.005;stroke-linecap:butt;stroke-linejoin:miter;stroke:rgb(40.601504%,0%,15.789474%);stroke-opacity:0.6;stroke-miterlimit:10;" d="M 0.238261 0.614707 L -0.0176077 0.546954 " transform="matrix(1320,0,0,1340,0,0)"/>
<path style="fill:none;stroke-width:0.005;stroke-linecap:butt;stroke-linejoin:miter;stroke:rgb(40.601504%,0%,15.789474%);stroke-opacity:0.6;stroke-miterlimit:10;" d="M 0.26002 0.614931 L 0.0549242 0.547703 " transform="matrix(1320,0,0,1340,0,0)"/>
<path style="fill:none;stroke-width:0.005;stroke-linecap:butt;stroke-linejoin:miter;stroke:rgb(40.601504%,0%,15.789474%);stroke-opacity:0.6;stroke-miterlimit:10;" d="M 0.348165 0.655865 L 0.348742 0.684156 " transform="matrix(1320,0,0,1340,0,0)"/>
<path style="fill:none;stroke-width:0.005;stroke-linecap:butt;stroke-linejoin:miter;stroke:rgb(40.601504%,0%,15.789474%);stroke-opacity:0.6;stroke-miterlimit:10;" d="M 0.484766 0.58669 L 0.804078 0.453565 " transform="matrix(1320,0,0,1340,0,0)"/>
<path style="fill:none;stroke-width:0.005;stroke-linecap:butt;stroke-linejoin:miter;stroke:rgb(40.601504%,0%,15.789474%);stroke-opacity:0.6;stroke-miterlimit:10;" d="M 0.437183 0.570878 L 0.64546 0.400866 " transform="matrix(1320,0,0,1340,0,0)"/>
<path style="fill:none;stroke-width:0.005;stroke-linecap:butt;stroke-linejoin:miter;stroke:rgb(40.601504%,0%,15.789474%);stroke-opacity:0.6;stroke-miterlimit:10;" d="M 0.306333 0.625609 L 0.209295 0.583302 " transform="matrix(1320,0,0,1340,0,0)"/>
<path style="fill:none;stroke-width:0.005;stroke-linecap:butt;stroke-linejoin:miter;stroke:rgb(40.601504%,0%,15.789474%);stroke-opacity:0.6;stroke-miterlimit:10;" d="M 0.437059 0.680588 L 0.645049 0.766569 " transform="matrix(1320,0,0,1340,0,0)"/>
<path style="fill:none;stroke-width:0.005;stroke-linecap:butt;stroke-linejoin:miter;stroke:rgb(40.601504%,0%,15.789474%);stroke-opacity:0.6;stroke-miterlimit:10;" d="M 0.388858 0.554752 L 0.484381 0.347108 " transform="matrix(1320,0,0,1340,0,0)"/>
<path style="fill:none;stroke-width:0.005;stroke-linecap:butt;stroke-linejoin:miter;stroke:rgb(40.601504%,0%,15.789474%);stroke-opacity:0.6;stroke-miterlimit:10;" d="M 0.545795 0.559917 L 1.007499 0.364331 " transform="matrix(1320,0,0,1340,0,0)"/>
<path style="fill:none;stroke-width:0.005;stroke-linecap:butt;stroke-linejoin:miter;stroke:rgb(40.601504%,0%,15.789474%);stroke-opacity:0.6;stroke-miterlimit:10;" d="M 0.251169 0.749035 L 0.0254113 0.994721 " transform="matrix(1320,0,0,1340,0,0)"/>
<path style="fill:none;stroke-width:0.005;stroke-linecap:butt;stroke-linejoin:miter;stroke:rgb(40.601504%,0%,15.789474%);stroke-opacity:0.6;stroke-miterlimit:10;" d="M 0.379063 0.715371 L 0.451734 0.882512 " transform="matrix(1320,0,0,1340,0,0)"/>
<path style="fill:none;stroke-width:0.005;stroke-linecap:butt;stroke-linejoin:miter;stroke:rgb(40.601504%,0%,15.789474%);stroke-opacity:0.6;stroke-miterlimit:10;" d="M 0.473887 0.596799 L 0.767809 0.487267 " transform="matrix(1320,0,0,1340,0,0)"/>
<path style="fill:none;stroke-width:0.005;stroke-linecap:butt;stroke-linejoin:miter;stroke:rgb(40.601504%,0%,15.789474%);stroke-opacity:0.6;stroke-miterlimit:10;" d="M 0.436254 0.593578 L 0.642368 0.47653 " transform="matrix(1320,0,0,1340,0,0)"/>
<path style="fill:none;stroke-width:0.005;stroke-linecap:butt;stroke-linejoin:miter;stroke:rgb(40.601504%,0%,15.789474%);stroke-opacity:0.6;stroke-miterlimit:10;" d="M 0.308117 0.673414 L 0.215249 0.742651 " transform="matrix(1320,0,0,1340,0,0)"/>
<path style="fill:none;stroke-width:0.005;stroke-linecap:butt;stroke-linejoin:miter;stroke:rgb(40.601504%,0%,15.789474%);stroke-opacity:0.6;stroke-miterlimit:10;" d="M 0.438713 0.573607 L 0.650562 0.409958 " transform="matrix(1320,0,0,1340,0,0)"/>
<path style="fill:none;stroke-width:0.005;stroke-linecap:butt;stroke-linejoin:miter;stroke:rgb(40.601504%,0%,15.789474%);stroke-opacity:0.6;stroke-miterlimit:10;" d="M 0.672872 0.779653 L 1.431096 1.096776 " transform="matrix(1320,0,0,1340,0,0)"/>
<path style="fill:none;stroke-width:0.005;stroke-linecap:butt;stroke-linejoin:miter;stroke:rgb(40.601504%,0%,15.789474%);stroke-opacity:0.6;stroke-miterlimit:10;" d="M 0.270212 0.546776 L 0.0888909 0.320528 " transform="matrix(1320,0,0,1340,0,0)"/>
<path style="fill:none;stroke-width:0.005;stroke-linecap:butt;stroke-linejoin:miter;stroke:rgb(40.601504%,0%,15.789474%);stroke-opacity:0.6;stroke-miterlimit:10;" d="M 0.326036 0.779344 L 0.27497 1.09575 " transform="matrix(1320,0,0,1340,0,0)"/>
<path style="fill:none;stroke-width:0.005;stroke-linecap:butt;stroke-linejoin:miter;stroke:rgb(40.601504%,0%,15.789474%);stroke-opacity:0.6;stroke-miterlimit:10;" d="M 0.346428 0.722648 L 0.342945 0.906763 " transform="matrix(1320,0,0,1340,0,0)"/>
<path style="fill:none;stroke-width:0.005;stroke-linecap:butt;stroke-linejoin:miter;stroke:rgb(40.601504%,0%,15.789474%);stroke-opacity:0.6;stroke-miterlimit:10;" d="M 0.33352 0.637104 L 0.299917 0.621613 " transform="matrix(1320,0,0,1340,0,0)"/>
<path style="fill:none;stroke-width:0.005;stroke-linecap:butt;stroke-linejoin:miter;stroke:rgb(40.601504%,0%,15.789474%);stroke-opacity:0.6;stroke-miterlimit:10;" d="M 0.354812 0.693555 L 0.370895 0.809786 " transform="matrix(1320,0,0,1340,0,0)"/>
<path style="fill:none;stroke-width:0.005;stroke-linecap:butt;stroke-linejoin:miter;stroke:rgb(40.601504%,0%,15.789474%);stroke-opacity:0.6;stroke-miterlimit:10;" d="M 0.397147 0.587614 L 0.512015 0.456644 " transform="matrix(1320,0,0,1340,0,0)"/>
<path style="fill:none;stroke-width:0.005;stroke-linecap:butt;stroke-linejoin:miter;stroke:rgb(40.601504%,0%,15.789474%);stroke-opacity:0.6;stroke-miterlimit:10;" d="M 0.445315 0.764774 L 0.67257 1.047178 " transform="matrix(1320,0,0,1340,0,0)"/>
<path style="fill:none;stroke-width:0.005;stroke-linecap:butt;stroke-linejoin:miter;stroke:rgb(40.601504%,0%,15.789474%);stroke-opacity:0.6;stroke-miterlimit:10;" d="M 0.440326 0.586695 L 0.655936 0.453591 " transform="matrix(1320,0,0,1340,0,0)"/>
<path style="fill:none;stroke-width:0.005;stroke-linecap:butt;stroke-linejoin:miter;stroke:rgb(40.601504%,0%,15.789474%);stroke-opacity:0.6;stroke-miterlimit:10;" d="M 0.256528 0.29926 L 0.0432795 -0.504533 " transform="matrix(1320,0,0,1340,0,0)"/>
<path style="fill:none;stroke-width:0.005;stroke-linecap:butt;stroke-linejoin:miter;stroke:rgb(40.601504%,0%,15.789474%);stroke-opacity:0.6;stroke-miterlimit:10;" d="M 0.41859 0.679868 L 0.583487 0.764162 " transform="matrix(1320,0,0,1340,0,0)"/>
<path style="fill:none;stroke-width:0.005;stroke-linecap:butt;stroke-linejoin:miter;stroke:rgb(40.601504%,0%,15.789474%);stroke-opacity:0.6;stroke-miterlimit:10;" d="M 0.377649 0.696073 L 0.447017 0.818184 " transform="matrix(1320,0,0,1340,0,0)"/>
<path style="fill:none;stroke-width:0.005;stroke-linecap:butt;stroke-linejoin:miter;stroke:rgb(40.601504%,0%,15.789474%);stroke-opacity:0.6;stroke-miterlimit:10;" d="M 0.425843 0.8043 L 0.60767 1.178932 " transform="matrix(1320,0,0,1340,0,0)"/>
<path style="fill:none;stroke-width:0.005;stroke-linecap:butt;stroke-linejoin:miter;stroke:rgb(40.601504%,0%,15.789474%);stroke-opacity:0.6;stroke-miterlimit:10;" d="M 0.288207 0.712838 L 0.148875 0.874064 " transform="matrix(1320,0,0,1340,0,0)"/>
<path style="fill:none;stroke-width:0.005;stroke-linecap:butt;stroke-linejoin:miter;stroke:rgb(40.601504%,0%,15.789474%);stroke-opacity:0.6;stroke-miterlimit:10;" d="M 0.334467 0.672097 L 0.303075 0.738258 " transform="matrix(1320,0,0,1340,0,0)"/>
<path style="fill:none;stroke-width:0.005;stroke-linecap:butt;stroke-linejoin:miter;stroke:rgb(40.601504%,0%,15.789474%);stroke-opacity:0.6;stroke-miterlimit:10;" d="M 0.284499 0.562136 L 0.136518 0.371718 " transform="matrix(1320,0,0,1340,0,0)"/>
<path style="fill:none;stroke-width:0.005;stroke-linecap:butt;stroke-linejoin:miter;stroke:rgb(40.601504%,0%,15.789474%);stroke-opacity:0.6;stroke-miterlimit:10;" d="M 0.332635 0.560095 L 0.296973 0.364917 " transform="matrix(1320,0,0,1340,0,0)"/>
<path style="fill:none;stroke-width:0.005;stroke-linecap:butt;stroke-linejoin:miter;stroke:rgb(40.601504%,0%,15.789474%);stroke-opacity:0.6;stroke-miterlimit:10;" d="M 0.339305 0.629889 L 0.319209 0.597566 " transform="matrix(1320,0,0,1340,0,0)"/>
<path style="fill:none;stroke-width:0.005;stroke-linecap:butt;stroke-linejoin:miter;stroke:rgb(40.601504%,0%,15.789474%);stroke-opacity:0.6;stroke-miterlimit:10;" d="M 0.292836 0.680448 L 0.164305 0.766094 " transform="matrix(1320,0,0,1340,0,0)"/>
<path style="fill:none;stroke-width:0.005;stroke-linecap:butt;stroke-linejoin:miter;stroke:rgb(40.601504%,0%,15.789474%);stroke-opacity:0.6;stroke-miterlimit:10;" d="M 0.434606 0.691806 L 0.636873 0.803956 " transform="matrix(1320,0,0,1340,0,0)"/>
<path style="fill:none;stroke-width:0.005;stroke-linecap:butt;stroke-linejoin:miter;stroke:rgb(40.601504%,0%,15.789474%);stroke-opacity:0.6;stroke-miterlimit:10;" d="M 0.307543 0.619146 L 0.213335 0.56176 " transform="matrix(1320,0,0,1340,0,0)"/>
<path style="fill:none;stroke-width:0.005;stroke-linecap:butt;stroke-linejoin:miter;stroke:rgb(40.601504%,0%,15.789474%);stroke-opacity:0.6;stroke-miterlimit:10;" d="M 0.756129 0.884113 L 1.708617 1.444983 " transform="matrix(1320,0,0,1340,0,0)"/>
<path style="fill:none;stroke-width:0.005;stroke-linecap:butt;stroke-linejoin:miter;stroke:rgb(40.601504%,0%,15.789474%);stroke-opacity:0.6;stroke-miterlimit:10;" d="M 0.434822 0.692313 L 0.637589 0.805644 " transform="matrix(1320,0,0,1340,0,0)"/>
<path style="fill:none;stroke-width:0.005;stroke-linecap:butt;stroke-linejoin:miter;stroke:rgb(40.601504%,0%,15.789474%);stroke-opacity:0.6;stroke-miterlimit:10;" d="M 0.427856 0.596496 L 0.614376 0.486255 " transform="matrix(1320,0,0,1340,0,0)"/>
<path style="fill:none;stroke-width:0.005;stroke-linecap:butt;stroke-linejoin:miter;stroke:rgb(40.601504%,0%,15.789474%);stroke-opacity:0.6;stroke-miterlimit:10;" d="M 0.410588 0.699172 L 0.556815 0.828504 " transform="matrix(1320,0,0,1340,0,0)"/>
<path style="fill:none;stroke-width:0.005;stroke-linecap:butt;stroke-linejoin:miter;stroke:rgb(40.601504%,0%,15.789474%);stroke-opacity:0.6;stroke-miterlimit:10;" d="M 0.364107 0.67786 L 0.401873 0.757469 " transform="matrix(1320,0,0,1340,0,0)"/>
<path style="fill:none;stroke-width:0.005;stroke-linecap:butt;stroke-linejoin:miter;stroke:rgb(40.601504%,0%,15.789474%);stroke-opacity:0.6;stroke-miterlimit:10;" d="M 0.324195 0.602851 L 0.268833 0.507442 " transform="matrix(1320,0,0,1340,0,0)"/>
<path style="fill:none;stroke-width:0.005;stroke-linecap:butt;stroke-linejoin:miter;stroke:rgb(40.601504%,0%,15.789474%);stroke-opacity:0.6;stroke-miterlimit:10;" d="M 0.23286 0.567797 L -0.0356179 0.39059 " transform="matrix(1320,0,0,1340,0,0)"/>
<path style="fill:none;stroke-width:0.005;stroke-linecap:butt;stroke-linejoin:miter;stroke:rgb(40.601504%,0%,15.789474%);stroke-opacity:0.6;stroke-miterlimit:10;" d="M 0.332188 0.623808 L 0.295478 0.577294 " transform="matrix(1320,0,0,1340,0,0)"/>
<path style="fill:none;stroke-width:0.005;stroke-linecap:butt;stroke-linejoin:miter;stroke:rgb(40.601504%,0%,15.789474%);stroke-opacity:0.6;stroke-miterlimit:10;" d="M 0.496768 0.759413 L 0.844078 1.029311 " transform="matrix(1320,0,0,1340,0,0)"/>
<path style="fill:none;stroke-width:0.005;stroke-linecap:butt;stroke-linejoin:miter;stroke:rgb(40.601504%,0%,15.789474%);stroke-opacity:0.6;stroke-miterlimit:10;" d="M 0.330525 0.632346 L 0.289935 0.605752 " transform="matrix(1320,0,0,1340,0,0)"/>
<path style="fill:none;stroke-width:0.005;stroke-linecap:butt;stroke-linejoin:miter;stroke:rgb(40.601504%,0%,15.789474%);stroke-opacity:0.6;stroke-miterlimit:10;" d="M 0.518824 0.800361 L 0.917599 1.165809 " transform="matrix(1320,0,0,1340,0,0)"/>
<path style="fill:none;stroke-width:0.005;stroke-linecap:butt;stroke-linejoin:miter;stroke:rgb(40.601504%,0%,15.789474%);stroke-opacity:0.6;stroke-miterlimit:10;" d="M 0.334511 0.73097 L 0.303226 0.9345 " transform="matrix(1320,0,0,1340,0,0)"/>
<path style="fill:none;stroke-width:0.005;stroke-linecap:butt;stroke-linejoin:miter;stroke:rgb(40.601504%,0%,15.789474%);stroke-opacity:0.6;stroke-miterlimit:10;" d="M 0.334955 0.631868 L 0.304705 0.60416 " transform="matrix(1320,0,0,1340,0,0)"/>
<path style="fill:none;stroke-width:0.005;stroke-linecap:butt;stroke-linejoin:miter;stroke:rgb(40.601504%,0%,15.789474%);stroke-opacity:0.6;stroke-miterlimit:10;" d="M 0.325864 0.65367 L 0.274402 0.676837 " transform="matrix(1320,0,0,1340,0,0)"/>
<path style="fill:none;stroke-width:0.005;stroke-linecap:butt;stroke-linejoin:miter;stroke:rgb(40.601504%,0%,15.789474%);stroke-opacity:0.6;stroke-miterlimit:10;" d="M 0.258197 0.573548 L 0.0488429 0.409766 " transform="matrix(1320,0,0,1340,0,0)"/>
<path style="fill:none;stroke-width:0.005;stroke-linecap:butt;stroke-linejoin:miter;stroke:rgb(40.601504%,0%,15.789474%);stroke-opacity:0.6;stroke-miterlimit:10;" d="M 0.535831 0.601347 L 0.97429 0.502428 " transform="matrix(1320,0,0,1340,0,0)"/>
<path style="fill:none;stroke-width:0.005;stroke-linecap:butt;stroke-linejoin:miter;stroke:rgb(40.601504%,0%,15.789474%);stroke-opacity:0.6;stroke-miterlimit:10;" d="M 0.335124 0.554693 L 0.30527 0.346913 " transform="matrix(1320,0,0,1340,0,0)"/>
<path style="fill:none;stroke-width:0.005;stroke-linecap:butt;stroke-linejoin:miter;stroke:rgb(40.601504%,0%,15.789474%);stroke-opacity:0.6;stroke-miterlimit:10;" d="M 0.323553 0.624621 L 0.266699 0.580002 " transform="matrix(1320,0,0,1340,0,0)"/>
<path style="fill:none;stroke-width:0.005;stroke-linecap:butt;stroke-linejoin:miter;stroke:rgb(40.601504%,0%,15.789474%);stroke-opacity:0.6;stroke-miterlimit:10;" d="M 0.327755 0.687692 L 0.280703 0.79024 " transform="matrix(1320,0,0,1340,0,0)"/>
<path style="fill:none;stroke-width:0.005;stroke-linecap:butt;stroke-linejoin:miter;stroke:rgb(40.601504%,0%,15.789474%);stroke-opacity:0.6;stroke-miterlimit:10;" d="M 0.334339 0.63327 L 0.302649 0.608839 " transform="matrix(1320,0,0,1340,0,0)"/>
<path style="fill:none;stroke-width:0.005;stroke-linecap:butt;stroke-linejoin:miter;stroke:rgb(40.601504%,0%,15.789474%);stroke-opacity:0.6;stroke-miterlimit:10;" d="M 0.393416 0.57595 L 0.499574 0.417768 " transform="matrix(1320,0,0,1340,0,0)"/>
<path style="fill:none;stroke-width:0.005;stroke-linecap:butt;stroke-linejoin:miter;stroke:rgb(40.601504%,0%,15.789474%);stroke-opacity:0.6;stroke-miterlimit:10;" d="M 0.360461 0.687891 L 0.389725 0.790899 " transform="matrix(1320,0,0,1340,0,0)"/>
<path style="fill:none;stroke-width:0.005;stroke-linecap:butt;stroke-linejoin:miter;stroke:rgb(40.601504%,0%,15.789474%);stroke-opacity:0.6;stroke-miterlimit:10;" d="M 0.343469 0.721274 L 0.333082 0.902183 " transform="matrix(1320,0,0,1340,0,0)"/>
<path style="fill:none;stroke-width:0.005;stroke-linecap:butt;stroke-linejoin:miter;stroke:rgb(40.601504%,0%,15.789474%);stroke-opacity:0.6;stroke-miterlimit:10;" d="M 0.362971 0.547537 L 0.398091 0.323061 " transform="matrix(1320,0,0,1340,0,0)"/>
<path style="fill:none;stroke-width:0.005;stroke-linecap:butt;stroke-linejoin:miter;stroke:rgb(40.601504%,0%,15.789474%);stroke-opacity:0.6;stroke-miterlimit:10;" d="M 0.380057 0.714068 L 0.455049 0.878169 " transform="matrix(1320,0,0,1340,0,0)"/>
<path style="fill:none;stroke-width:0.005;stroke-linecap:butt;stroke-linejoin:miter;stroke:rgb(40.601504%,0%,15.789474%);stroke-opacity:0.6;stroke-miterlimit:10;" d="M 0.269798 0.684241 L 0.0875148 0.778737 " transform="matrix(1320,0,0,1340,0,0)"/>
<path style="fill:none;stroke-width:0.005;stroke-linecap:butt;stroke-linejoin:miter;stroke:rgb(40.601504%,0%,15.789474%);stroke-opacity:0.6;stroke-miterlimit:10;" d="M 0.579794 0.891966 L 1.120836 1.471152 " transform="matrix(1320,0,0,1340,0,0)"/>
<path style="fill:none;stroke-width:0.005;stroke-linecap:butt;stroke-linejoin:miter;stroke:rgb(40.601504%,0%,15.789474%);stroke-opacity:0.6;stroke-miterlimit:10;" d="M 0.273574 0.659739 L 0.100104 0.697064 " transform="matrix(1320,0,0,1340,0,0)"/>
<path style="fill:none;stroke-width:0.005;stroke-linecap:butt;stroke-linejoin:miter;stroke:rgb(40.601504%,0%,15.789474%);stroke-opacity:0.6;stroke-miterlimit:10;" d="M 0.0892193 0.320968 L -0.514412 -0.432171 " transform="matrix(1320,0,0,1340,0,0)"/>
<path style="fill:none;stroke-width:0.005;stroke-linecap:butt;stroke-linejoin:miter;stroke:rgb(40.601504%,0%,15.789474%);stroke-opacity:0.6;stroke-miterlimit:10;" d="M 0.353788 0.655696 L 0.367478 0.683594 " transform="matrix(1320,0,0,1340,0,0)"/>
<path style="fill:none;stroke-width:0.005;stroke-linecap:butt;stroke-linejoin:miter;stroke:rgb(40.601504%,0%,15.789474%);stroke-opacity:0.6;stroke-miterlimit:10;" d="M 0.351853 0.666779 L 0.361032 0.72054 " transform="matrix(1320,0,0,1340,0,0)"/>
<path style="fill:none;stroke-width:0.005;stroke-linecap:butt;stroke-linejoin:miter;stroke:rgb(40.601504%,0%,15.789474%);stroke-opacity:0.6;stroke-miterlimit:10;" d="M 0.263781 0.516363 L 0.0674568 0.219146 " transform="matrix(1320,0,0,1340,0,0)"/>
<path style="fill:none;stroke-width:0.005;stroke-linecap:butt;stroke-linejoin:miter;stroke:rgb(40.601504%,0%,15.789474%);stroke-opacity:0.6;stroke-miterlimit:10;" d="M 0.494274 0.454209 L 0.835763 0.0119694 " transform="matrix(1320,0,0,1340,0,0)"/>
<path style="fill:none;stroke-width:0.005;stroke-linecap:butt;stroke-linejoin:miter;stroke:rgb(40.601504%,0%,15.789474%);stroke-opacity:0.6;stroke-miterlimit:10;" d="M 0.344836 0.668855 L 0.337642 0.727455 " transform="matrix(1320,0,0,1340,0,0)"/>
<path style="fill:none;stroke-width:0.005;stroke-linecap:butt;stroke-linejoin:miter;stroke:rgb(40.601504%,0%,15.789474%);stroke-opacity:0.6;stroke-miterlimit:10;" d="M 0.188642 0.582812 L -0.183008 0.440642 " transform="matrix(1320,0,0,1340,0,0)"/>
<path style="fill:none;stroke-width:0.005;stroke-linecap:butt;stroke-linejoin:miter;stroke:rgb(40.601504%,0%,15.789474%);stroke-opacity:0.6;stroke-miterlimit:10;" d="M 0.355484 0.665774 L 0.373133 0.717179 " transform="matrix(1320,0,0,1340,0,0)"/>
<path style="fill:none;stroke-width:0.005;stroke-linecap:butt;stroke-linejoin:miter;stroke:rgb(40.601504%,0%,15.789474%);stroke-opacity:0.6;stroke-miterlimit:10;" d="M 0.368445 0.755597 L 0.416338 1.016596 " transform="matrix(1320,0,0,1340,0,0)"/>
<path style="fill:none;stroke-width:0.005;stroke-linecap:butt;stroke-linejoin:miter;stroke:rgb(40.601504%,0%,15.789474%);stroke-opacity:0.6;stroke-miterlimit:10;" d="M 0.407901 0.702836 L 0.547855 0.840727 " transform="matrix(1320,0,0,1340,0,0)"/>
<path style="fill:none;stroke-width:0.005;stroke-linecap:butt;stroke-linejoin:miter;stroke:rgb(40.601504%,0%,15.789474%);stroke-opacity:0.6;stroke-miterlimit:10;" d="M 0.383508 0.729014 L 0.466551 0.927985 " transform="matrix(1320,0,0,1340,0,0)"/>
<path style="fill:none;stroke-width:0.005;stroke-linecap:butt;stroke-linejoin:miter;stroke:rgb(40.601504%,0%,15.789474%);stroke-opacity:0.6;stroke-miterlimit:10;" d="M 0.106883 0.32916 L -0.455531 -0.404859 " transform="matrix(1320,0,0,1340,0,0)"/>
<path style="fill:none;stroke-width:0.005;stroke-linecap:butt;stroke-linejoin:miter;stroke:rgb(40.601504%,0%,15.789474%);stroke-opacity:0.6;stroke-miterlimit:10;" d="M 0.476613 0.705477 L 0.776894 0.849528 " transform="matrix(1320,0,0,1340,0,0)"/>
<path style="fill:none;stroke-width:0.005;stroke-linecap:butt;stroke-linejoin:miter;stroke:rgb(40.601504%,0%,15.789474%);stroke-opacity:0.6;stroke-miterlimit:10;" d="M 0.426326 0.556049 L 0.609271 0.351431 " transform="matrix(1320,0,0,1340,0,0)"/>
<path style="fill:none;stroke-width:0.005;stroke-linecap:butt;stroke-linejoin:miter;stroke:rgb(40.601504%,0%,15.789474%);stroke-opacity:0.6;stroke-miterlimit:10;" d="M 0.424254 0.760048 L 0.602367 1.031428 " transform="matrix(1320,0,0,1340,0,0)"/>
<path style="fill:none;stroke-width:0.005;stroke-linecap:butt;stroke-linejoin:miter;stroke:rgb(40.601504%,0%,15.789474%);stroke-opacity:0.6;stroke-miterlimit:10;" d="M 0.356581 0.621088 L 0.376787 0.568231 " transform="matrix(1320,0,0,1340,0,0)"/>
<path style="fill:none;stroke-width:0.005;stroke-linecap:butt;stroke-linejoin:miter;stroke:rgb(40.601504%,0%,15.789474%);stroke-opacity:0.6;stroke-miterlimit:10;" d="M 0.336698 0.660346 L 0.310511 0.699085 " transform="matrix(1320,0,0,1340,0,0)"/>
<path style="fill:none;stroke-width:0.005;stroke-linecap:butt;stroke-linejoin:miter;stroke:rgb(40.601504%,0%,15.789474%);stroke-opacity:0.6;stroke-miterlimit:10;" d="M 0.33436 0.615272 L 0.302723 0.54884 " transform="matrix(1320,0,0,1340,0,0)"/>
<path style="fill:none;stroke-width:0.005;stroke-linecap:butt;stroke-linejoin:miter;stroke:rgb(40.601504%,0%,15.789474%);stroke-opacity:0.6;stroke-miterlimit:10;" d="M 0.441554 0.180195 L 0.660032 -0.901417 " transform="matrix(1320,0,0,1340,0,0)"/>
<path style="fill:none;stroke-width:0.005;stroke-linecap:butt;stroke-linejoin:miter;stroke:rgb(40.601504%,0%,15.789474%);stroke-opacity:0.6;stroke-miterlimit:10;" d="M 0.283387 0.686048 L 0.132813 0.784766 " transform="matrix(1320,0,0,1340,0,0)"/>
<path style="fill:none;stroke-width:0.005;stroke-linecap:butt;stroke-linejoin:miter;stroke:rgb(40.601504%,0%,15.789474%);stroke-opacity:0.6;stroke-miterlimit:10;" d="M 0.355309 0.743502 L 0.37255 0.97628 " transform="matrix(1320,0,0,1340,0,0)"/>
<path style="fill:none;stroke-width:0.005;stroke-linecap:butt;stroke-linejoin:miter;stroke:rgb(40.601504%,0%,15.789474%);stroke-opacity:0.6;stroke-miterlimit:10;" d="M 0.355158 0.687456 L 0.372053 0.789459 " transform="matrix(1320,0,0,1340,0,0)"/>
<path style="fill:none;stroke-width:0.005;stroke-linecap:butt;stroke-linejoin:miter;stroke:rgb(40.601504%,0%,15.789474%);stroke-opacity:0.6;stroke-miterlimit:10;" d="M 0.343561 0.722062 L 0.33339 0.904807 " transform="matrix(1320,0,0,1340,0,0)"/>
<path style="fill:none;stroke-width:0.005;stroke-linecap:butt;stroke-linejoin:miter;stroke:rgb(40.601504%,0%,15.789474%);stroke-opacity:0.6;stroke-miterlimit:10;" d="M 0.307712 0.565229 L 0.213894 0.382031 " transform="matrix(1320,0,0,1340,0,0)"/>
<path style="fill:none;stroke-width:0.005;stroke-linecap:butt;stroke-linejoin:miter;stroke:rgb(40.601504%,0%,15.789474%);stroke-opacity:0.6;stroke-miterlimit:10;" d="M 0.349248 0.478481 L 0.352353 0.0928726 " transform="matrix(1320,0,0,1340,0,0)"/>
<path style="fill:none;stroke-width:0.005;stroke-linecap:butt;stroke-linejoin:miter;stroke:rgb(40.601504%,0%,15.789474%);stroke-opacity:0.6;stroke-miterlimit:10;" d="M 0.281055 0.676149 L 0.125033 0.751764 " transform="matrix(1320,0,0,1340,0,0)"/>
<path style="fill:none;stroke-width:0.00333333;stroke-linecap:butt;stroke-linejoin:miter;stroke:rgb(40.601504%,0%,0%);stroke-opacity:0.4;stroke-miterlimit:10;" d="M 1 0.5 C 1 0.678632 0.904699 0.843698 0.75 0.933014 C 0.595301 1.02233 0.404699 1.02233 0.25 0.933014 C 0.0953007 0.843698 0 0.678632 0 0.5 C 0 0.321368 0.0953007 0.156302 0.25 0.0669864 C 0.404699 -0.0223298 0.595301 -0.0223298 0.75 0.0669864 C 0.904699 0.156302 1 0.321368 1 0.5 " transform="matrix(1320,0,0,1340,0,0)"/>
<path style=" stroke:none;fill-rule:nonzero;fill:rgb(40.601504%,0%,0%);fill-opacity:0.4;" d="M 1320 670 C 1320 909.367188 1194.203125 1130.554688 990 1250.238281 C 785.796875 1369.921875 534.203125 1369.921875 330 1250.238281 C 125.796875 1130.554688 0 909.367188 0 670 C 0 430.632813 125.796875 209.445313 330 89.761719 C 534.203125 -29.921875 785.796875 -29.921875 990 89.761719 C 1194.203125 209.445313 1320 430.632813 1320 670 "/>
<path style="fill:none;stroke-width:0.00333333;stroke-linecap:butt;stroke-linejoin:miter;stroke:rgb(43.609023%,0%,0%);stroke-opacity:1;stroke-miterlimit:10;" d="M 0.707916 0.333334 C 0.707916 0.467158 0.63652 0.590817 0.520623 0.657731 C 0.404729 0.724644 0.261938 0.724644 0.146043 0.657731 C 0.0301462 0.590817 -0.0412494 0.467158 -0.0412494 0.333334 C -0.0412494 0.199507 0.0301462 0.0758483 0.146043 0.00893482 C 0.261938 -0.0579757 0.404729 -0.0579757 0.520623 0.00893482 C 0.63652 0.0758483 0.707916 0.199507 0.707916 0.333334 " transform="matrix(1320,0,0,1340,0,0)"/>
<path style=" stroke:none;fill-rule:nonzero;fill:rgb(15.789474%,40.601504%,0%);fill-opacity:0.4;" d="M 934.449219 446.667969 C 934.449219 625.992188 840.207031 791.695313 687.222656 881.359375 C 534.242188 971.023438 345.757813 971.023438 192.777344 881.359375 C 39.792969 791.695313 -54.449219 625.992188 -54.449219 446.667969 C -54.449219 267.339844 39.792969 101.636719 192.777344 11.972656 C 345.757813 -77.6875 534.242188 -77.6875 687.222656 11.972656 C 840.207031 101.636719 934.449219 267.339844 934.449219 446.667969 "/>
<path style="fill:none;stroke-width:0.00333333;stroke-linecap:butt;stroke-linejoin:miter;stroke:rgb(43.609023%,0%,0%);stroke-opacity:1;stroke-miterlimit:10;" d="M 1.016164 0.666666 C 1.016164 0.791532 0.94955 0.906909 0.841415 0.969342 C 0.73328 1.031772 0.600053 1.031772 0.491918 0.969342 C 0.383783 0.906909 0.31717 0.791532 0.31717 0.666666 C 0.31717 0.541803 0.383783 0.426425 0.491918 0.363993 C 0.600053 0.30156 0.73328 0.30156 0.841415 0.363993 C 0.94955 0.426425 1.016164 0.541803 1.016164 0.666666 " transform="matrix(1320,0,0,1340,0,0)"/>
<path style=" stroke:none;fill-rule:nonzero;fill:rgb(15.789474%,40.601504%,0%);fill-opacity:0.4;" d="M 1341.335938 893.332031 C 1341.335938 1060.652344 1253.40625 1215.257813 1110.667969 1298.917969 C 967.929688 1382.574219 792.070313 1382.574219 649.332031 1298.917969 C 506.59375 1215.257813 418.664063 1060.652344 418.664063 893.332031 C 418.664063 726.015625 506.59375 571.410156 649.332031 487.75 C 792.070313 404.089844 967.929688 404.089844 1110.667969 487.75 C 1253.40625 571.410156 1341.335938 726.015625 1341.335938 893.332031 "/>
<path style="fill:none;stroke-width:0.0526316;stroke-linecap:butt;stroke-linejoin:miter;stroke:rgb(43.609023%,15.789474%,40.601504%);stroke-opacity:0.4;stroke-miterlimit:10;" d="M 0.293321 0.805373 C 0.323935 0.123198 0.635251 0.876802 0.556478 1.068531 " transform="matrix(1320,0,0,1340,0,0)"/>
<path style="fill:none;stroke-width:0.0526316;stroke-linecap:butt;stroke-linejoin:miter;stroke:rgb(43.609023%,15.789474%,40.601504%);stroke-opacity:0.4;stroke-miterlimit:10;" d="M 0.393641 0.0713444 C 0.454865 0.887841 0.565545 0.0101184 0.656797 0.3345 " transform="matrix(1320,0,0,1340,0,0)"/>
<path style="fill:none;stroke-width:0.0473684;stroke-linecap:butt;stroke-linejoin:miter;stroke:rgb(43.609023%,15.789474%,40.601504%);stroke-opacity:0.4;stroke-miterlimit:10;" d="M 0.707907 0.29765 C 0.779335 0.722758 0.271686 0.226221 0.944747 0.534492 " transform="matrix(1320,0,0,1340,0,0)"/>
<path style="fill:none;stroke-width:0.0473684;stroke-linecap:butt;stroke-linejoin:miter;stroke:rgb(43.609023%,15.789474%,40.601504%);stroke-opacity:0.4;stroke-miterlimit:10;" d="M 0.314651 0.00785331 C 0.243223 0.971738 0.756777 -0.0635757 0.551494 0.244697 " transform="matrix(1320,0,0,1340,0,0)"/>
<path style="fill:none;stroke-width:0.0421053;stroke-linecap:butt;stroke-linejoin:miter;stroke:rgb(43.609023%,15.789474%,40.601504%);stroke-opacity:0.4;stroke-miterlimit:10;" d="M 0.497499 0.0524633 C 0.517907 1.008763 0.441276 0.0320546 0.708026 0.26299 " transform="matrix(1320,0,0,1340,0,0)"/>
<path style="fill:none;stroke-width:0.0421053;stroke-linecap:butt;stroke-linejoin:miter;stroke:rgb(43.609023%,15.789474%,40.601504%);stroke-opacity:0.4;stroke-miterlimit:10;" d="M 0.997855 0.607206 C 0.946837 0.423408 -0.0284683 0.637818 1.208384 0.817733 " transform="matrix(1320,0,0,1340,0,0)"/>
<path style="fill:none;stroke-width:0.0421053;stroke-linecap:butt;stroke-linejoin:miter;stroke:rgb(43.609023%,15.789474%,40.601504%);stroke-opacity:0.4;stroke-miterlimit:10;" d="M 0.979492 0.191919 C 1.02031 0.848898 0.0613252 0.232737 1.190018 0.402446 " transform="matrix(1320,0,0,1340,0,0)"/>
<path style="fill:none;stroke-width:0.0421053;stroke-linecap:butt;stroke-linejoin:miter;stroke:rgb(43.609023%,15.789474%,40.601504%);stroke-opacity:0.4;stroke-miterlimit:10;" d="M 0.786473 0.610419 C 0.82729 0.348764 0.17271 0.569604 0.996999 0.820945 " transform="matrix(1320,0,0,1340,0,0)"/>
<path style="fill:none;stroke-width:0.0421053;stroke-linecap:butt;stroke-linejoin:miter;stroke:rgb(43.609023%,15.789474%,40.601504%);stroke-opacity:0.4;stroke-miterlimit:10;" d="M 0.654309 0.411789 C 0.70533 0.5576 0.31508 0.360768 0.864835 0.622315 " transform="matrix(1320,0,0,1340,0,0)"/>
<path style="fill:none;stroke-width:0.0368421;stroke-linecap:butt;stroke-linejoin:miter;stroke:rgb(43.609023%,15.789474%,40.601504%);stroke-opacity:0.4;stroke-miterlimit:10;" d="M 0.576 0.35869 C 0.545389 0.682125 0.454611 0.399507 0.760212 0.542902 " transform="matrix(1320,0,0,1340,0,0)"/>
<path style="fill:none;stroke-width:0.0315789;stroke-linecap:butt;stroke-linejoin:miter;stroke:rgb(43.609023%,15.789474%,40.601504%);stroke-opacity:0.4;stroke-miterlimit:10;" d="M 0.378075 0.487649 C 0.418892 0.491943 0.662743 0.446834 0.53597 0.645546 " transform="matrix(1320,0,0,1340,0,0)"/>
<path style="fill:none;stroke-width:0.0315789;stroke-linecap:butt;stroke-linejoin:miter;stroke:rgb(43.609023%,15.789474%,40.601504%);stroke-opacity:0.4;stroke-miterlimit:10;" d="M 0.236893 0.697458 C 0.196076 0.282133 0.742699 0.656644 0.394786 0.855355 " transform="matrix(1320,0,0,1340,0,0)"/>
<path style="fill:none;stroke-width:0.0315789;stroke-linecap:butt;stroke-linejoin:miter;stroke:rgb(43.609023%,15.789474%,40.601504%);stroke-opacity:0.4;stroke-miterlimit:10;" d="M 0.051021 0.313821 L 0.305054 0.471718 " transform="matrix(1320,0,0,1340,0,0)"/>
<path style="fill:none;stroke-width:0.0315789;stroke-linecap:butt;stroke-linejoin:miter;stroke:rgb(43.609023%,15.789474%,40.601504%);stroke-opacity:0.4;stroke-miterlimit:10;" d="M 0.290447 0.672347 C 0.331262 0.348061 0.689145 0.63153 0.44834 0.830241 " transform="matrix(1320,0,0,1340,0,0)"/>
<path style="fill:none;stroke-width:0.0315789;stroke-linecap:butt;stroke-linejoin:miter;stroke:rgb(43.609023%,15.789474%,40.601504%);stroke-opacity:0.4;stroke-miterlimit:10;" d="M 0.391019 0.0612232 L 0.548914 0.348344 " transform="matrix(1320,0,0,1340,0,0)"/>
<path style="fill:none;stroke-width:0.0315789;stroke-linecap:butt;stroke-linejoin:miter;stroke:rgb(43.609023%,15.789474%,40.601504%);stroke-opacity:0.4;stroke-miterlimit:10;" d="M 0.899686 0.0510203 L 1.057582 1.189441 " transform="matrix(1320,0,0,1340,0,0)"/>
<path style="fill:none;stroke-width:0.0263158;stroke-linecap:butt;stroke-linejoin:miter;stroke:rgb(43.609023%,15.789474%,40.601504%);stroke-opacity:0.4;stroke-miterlimit:10;" d="M 0.0306108 0.989013 L 0.918327 1.120592 " transform="matrix(1320,0,0,1340,0,0)"/>
<path style="fill:none;stroke-width:0.0263158;stroke-linecap:butt;stroke-linejoin:miter;stroke:rgb(43.609023%,15.789474%,40.601504%);stroke-opacity:0.4;stroke-miterlimit:10;" d="M 0.495537 1.031909 C 0.464924 -0.0115001 0.484055 1.001294 0.627116 1.163485 " transform="matrix(1320,0,0,1340,0,0)"/>
<path style="fill:none;stroke-width:0.0263158;stroke-linecap:butt;stroke-linejoin:miter;stroke:rgb(43.609023%,15.789474%,40.601504%);stroke-opacity:0.4;stroke-miterlimit:10;" d="M 0.0408174 0.442552 L 0.988568 0.574131 " transform="matrix(1320,0,0,1340,0,0)"/>
<path style="fill:none;stroke-width:0.0263158;stroke-linecap:butt;stroke-linejoin:miter;stroke:rgb(43.609023%,15.789474%,40.601504%);stroke-opacity:0.4;stroke-miterlimit:10;" d="M -0.0358191 0.0510203 L 0.0957623 0.913456 " transform="matrix(1320,0,0,1340,0,0)"/>
<path style="fill:none;stroke-width:0.0210526;stroke-linecap:butt;stroke-linejoin:miter;stroke:rgb(43.609023%,15.789474%,40.601504%);stroke-opacity:0.4;stroke-miterlimit:10;" d="M 0.0408174 0.062672 L 0.866063 0.167934 " transform="matrix(1320,0,0,1340,0,0)"/>
<path style="fill:none;stroke-width:0.0210526;stroke-linecap:butt;stroke-linejoin:miter;stroke:rgb(43.609023%,15.789474%,40.601504%);stroke-opacity:0.4;stroke-miterlimit:10;" d="M 0.0204072 0.210282 L 0.0686553 0.315543 " transform="matrix(1320,0,0,1340,0,0)"/>
<path style="fill:none;stroke-width:0.0210526;stroke-linecap:butt;stroke-linejoin:miter;stroke:rgb(43.609023%,15.789474%,40.601504%);stroke-opacity:0.4;stroke-miterlimit:10;" d="M 0.0408174 0.0804279 L 0.128637 0.18569 " transform="matrix(1320,0,0,1340,0,0)"/>
<path style="fill:none;stroke-width:0.0210526;stroke-linecap:butt;stroke-linejoin:miter;stroke:rgb(43.609023%,15.789474%,40.601504%);stroke-opacity:0.4;stroke-miterlimit:10;" d="M 0.0306108 0.229099 L 0.0637044 0.334363 " transform="matrix(1320,0,0,1340,0,0)"/>
<path style="fill:none;stroke-width:0.0210526;stroke-linecap:butt;stroke-linejoin:miter;stroke:rgb(43.609023%,15.789474%,40.601504%);stroke-opacity:0.4;stroke-miterlimit:10;" d="M 0.0202563 0.139701 C -0.000150923 0.83989 1.000151 0.16011 0.125521 0.244966 " transform="matrix(1320,0,0,1340,0,0)"/>
<path style="fill:none;stroke-width:0.0210526;stroke-linecap:butt;stroke-linejoin:miter;stroke:rgb(43.609023%,15.789474%,40.601504%);stroke-opacity:0.4;stroke-miterlimit:10;" d="M 0.594664 0.0408174 L 0.699929 0.289867 " transform="matrix(1320,0,0,1340,0,0)"/>
<path style="fill:none;stroke-width:0.0210526;stroke-linecap:butt;stroke-linejoin:miter;stroke:rgb(43.609023%,15.789474%,40.601504%);stroke-opacity:0.4;stroke-miterlimit:10;" d="M 0.112222 0.467543 C 0.132632 0.552866 0.908185 0.447134 0.217486 0.572805 " transform="matrix(1320,0,0,1340,0,0)"/>
<path style="fill:none;stroke-width:0.0210526;stroke-linecap:butt;stroke-linejoin:miter;stroke:rgb(43.609023%,15.789474%,40.601504%);stroke-opacity:0.4;stroke-miterlimit:10;" d="M 0.0408174 0.358396 L 0.728116 0.46366 " transform="matrix(1320,0,0,1340,0,0)"/>
<path style="fill:none;stroke-width:0.0210526;stroke-linecap:butt;stroke-linejoin:miter;stroke:rgb(43.609023%,15.789474%,40.601504%);stroke-opacity:0.4;stroke-miterlimit:10;" d="M 0.321185 0.919864 C 0.341593 0.0597277 0.699225 0.899455 0.426447 1.025125 " transform="matrix(1320,0,0,1340,0,0)"/>
<path style="fill:none;stroke-width:0.0210526;stroke-linecap:butt;stroke-linejoin:miter;stroke:rgb(43.609023%,15.789474%,40.601504%);stroke-opacity:0.4;stroke-miterlimit:10;" d="M 0.594135 0.0408174 L 0.699399 0.3941 " transform="matrix(1320,0,0,1340,0,0)"/>
<path style="fill:none;stroke-width:0.0210526;stroke-linecap:butt;stroke-linejoin:miter;stroke:rgb(43.609023%,15.789474%,40.601504%);stroke-opacity:0.4;stroke-miterlimit:10;" d="M 0.0854818 0.0306116 L 0.190746 0.40962 " transform="matrix(1320,0,0,1340,0,0)"/>
<path style="fill:none;stroke-width:0.0157895;stroke-linecap:butt;stroke-linejoin:miter;stroke:rgb(43.609023%,15.789474%,40.601504%);stroke-opacity:0.4;stroke-miterlimit:10;" d="M 0.676622 0.0204087 L 0.755569 0.936194 " transform="matrix(1320,0,0,1340,0,0)"/>
<path style="fill:none;stroke-width:0.0157895;stroke-linecap:butt;stroke-linejoin:miter;stroke:rgb(43.609023%,15.789474%,40.601504%);stroke-opacity:0.4;stroke-miterlimit:10;" d="M 0.0204072 0.415619 L 0.596079 0.494566 " transform="matrix(1320,0,0,1340,0,0)"/>
<path style="fill:none;stroke-width:0.0157895;stroke-linecap:butt;stroke-linejoin:miter;stroke:rgb(43.609023%,15.789474%,40.601504%);stroke-opacity:0.4;stroke-miterlimit:10;" d="M 0.0306108 0.554463 L 1.033236 0.63341 " transform="matrix(1320,0,0,1340,0,0)"/>
<path style="fill:none;stroke-width:0.0157895;stroke-linecap:butt;stroke-linejoin:miter;stroke:rgb(43.609023%,15.789474%,40.601504%);stroke-opacity:0.4;stroke-miterlimit:10;" d="M 0.0306108 0.0771047 L 0.534701 0.156052 " transform="matrix(1320,0,0,1340,0,0)"/>
<path style="fill:none;stroke-width:0.0157895;stroke-linecap:butt;stroke-linejoin:miter;stroke:rgb(43.609023%,15.789474%,40.601504%);stroke-opacity:0.4;stroke-miterlimit:10;" d="M 0.0204072 0.2046 L 0.353945 0.283547 " transform="matrix(1320,0,0,1340,0,0)"/>
<path style="fill:none;stroke-width:0.0157895;stroke-linecap:butt;stroke-linejoin:miter;stroke:rgb(43.609023%,15.789474%,40.601504%);stroke-opacity:0.4;stroke-miterlimit:10;" d="M 0.0204072 0.927253 L 1.081022 1.0062 " transform="matrix(1320,0,0,1340,0,0)"/>
<path style="fill:none;stroke-width:0.0157895;stroke-linecap:butt;stroke-linejoin:miter;stroke:rgb(43.609023%,15.789474%,40.601504%);stroke-opacity:0.4;stroke-miterlimit:10;" d="M 0.0306108 0.946863 L 0.827083 1.02581 " transform="matrix(1320,0,0,1340,0,0)"/>
<path style="fill:none;stroke-width:0.0157895;stroke-linecap:butt;stroke-linejoin:miter;stroke:rgb(43.609023%,15.789474%,40.601504%);stroke-opacity:0.4;stroke-miterlimit:10;" d="M 0.943253 0.0204087 L 1.022201 0.205253 " transform="matrix(1320,0,0,1340,0,0)"/>
<path style="fill:none;stroke-width:0.0157895;stroke-linecap:butt;stroke-linejoin:miter;stroke:rgb(43.609023%,15.789474%,40.601504%);stroke-opacity:0.4;stroke-miterlimit:10;" d="M 0.131759 0.0204087 L 0.210704 1.059888 " transform="matrix(1320,0,0,1340,0,0)"/>
<path style="fill:none;stroke-width:0.0157895;stroke-linecap:butt;stroke-linejoin:miter;stroke:rgb(43.609023%,15.789474%,40.601504%);stroke-opacity:0.4;stroke-miterlimit:10;" d="M 0.0204072 0.0376837 L 0.852705 0.116631 " transform="matrix(1320,0,0,1340,0,0)"/>
<path style="fill:none;stroke-width:0.0157895;stroke-linecap:butt;stroke-linejoin:miter;stroke:rgb(43.609023%,15.789474%,40.601504%);stroke-opacity:0.4;stroke-miterlimit:10;" d="M 0.0204072 0.204253 L 0.651847 0.2832 " transform="matrix(1320,0,0,1340,0,0)"/>
<path style="fill:none;stroke-width:0.0157895;stroke-linecap:butt;stroke-linejoin:miter;stroke:rgb(43.609023%,15.789474%,40.601504%);stroke-opacity:0.4;stroke-miterlimit:10;" d="M 0.131271 0.0306116 L 0.210215 0.933906 " transform="matrix(1320,0,0,1340,0,0)"/>
<path style="fill:none;stroke-width:0.0157895;stroke-linecap:butt;stroke-linejoin:miter;stroke:rgb(43.609023%,15.789474%,40.601504%);stroke-opacity:0.4;stroke-miterlimit:10;" d="M 0.0306108 0.163628 L 0.857573 0.242575 " transform="matrix(1320,0,0,1340,0,0)"/>
<path style="fill:none;stroke-width:0.0157895;stroke-linecap:butt;stroke-linejoin:miter;stroke:rgb(43.609023%,15.789474%,40.601504%);stroke-opacity:0.4;stroke-miterlimit:10;" d="M 0.59583 0.0306116 L 0.674778 0.0945487 " transform="matrix(1320,0,0,1340,0,0)"/>
<path style="fill:none;stroke-width:0.0157895;stroke-linecap:butt;stroke-linejoin:miter;stroke:rgb(43.609023%,15.789474%,40.601504%);stroke-opacity:0.4;stroke-miterlimit:10;" d="M 0.693999 0.0306116 L 0.772946 0.29396 " transform="matrix(1320,0,0,1340,0,0)"/>
<path style="fill:none;stroke-width:0.0157895;stroke-linecap:butt;stroke-linejoin:miter;stroke:rgb(43.609023%,15.789474%,40.601504%);stroke-opacity:0.4;stroke-miterlimit:10;" d="M 0.0204072 0.0768161 L 0.460076 0.155763 " transform="matrix(1320,0,0,1340,0,0)"/>
<path style="fill:none;stroke-width:0.0157895;stroke-linecap:butt;stroke-linejoin:miter;stroke:rgb(43.609023%,15.789474%,40.601504%);stroke-opacity:0.4;stroke-miterlimit:10;" d="M 0.0204072 0.780437 L 1.066865 0.859384 " transform="matrix(1320,0,0,1340,0,0)"/>
</g>
</svg>
