<?xml version="1.0" encoding="UTF-8"?>
<svg xmlns="http://www.w3.org/2000/svg" xmlns:xlink="http://www.w3.org/1999/xlink" width="1320pt" height="1340pt" viewBox="0 0 1320 1340" version="1.1">
<g id="surface1">
<rect x="0" y="0" width="1320" height="1340" style="fill:rgb(40.601504%,43.609023%,15.789474%);fill-opacity:0.5;stroke:none;"/>
<path style="fill:none;stroke-width:0.005;stroke-linecap:butt;stroke-linejoin:miter;stroke:rgb(40.601504%,0%,15.789474%);stroke-opacity:0.6;stroke-miterlimit:10;" d="M 0.633138 0.356259 L 0.588935 0.356259 " transform="matrix(1320,0,0,1340,0,0)"/>
<path style="fill:none;stroke-width:0.005;stroke-linecap:butt;stroke-linejoin:miter;stroke:rgb(40.601504%,0%,15.789474%);stroke-opacity:0.6;stroke-miterlimit:10;" d="M 0.586003 0.435317 L 0.431818 0.619788 " transform="matrix(1320,0,0,1340,0,0)"/>
<path style="fill:none;stroke-width:0.005;stroke-linecap:butt;stroke-linejoin:miter;stroke:rgb(40.601504%,0%,15.789474%);stroke-opacity:0.6;stroke-miterlimit:10;" d="M 0.517528 0.351807 L 0.203575 0.341421 " transform="matrix(1320,0,0,1340,0,0)"/>
<path style="fill:none;stroke-width:0.005;stroke-linecap:butt;stroke-linejoin:miter;stroke:rgb(40.601504%,0%,15.789474%);stroke-opacity:0.6;stroke-miterlimit:10;" d="M 0.616548 0.357451 L 0.533644 0.360235 " transform="matrix(1320,0,0,1340,0,0)"/>
<path style="fill:none;stroke-width:0.005;stroke-linecap:butt;stroke-linejoin:miter;stroke:rgb(40.601504%,0%,15.789474%);stroke-opacity:0.6;stroke-miterlimit:10;" d="M 0.814462 0.363395 L 1.19335 0.380043 " transform="matrix(1320,0,0,1340,0,0)"/>
<path style="fill:none;stroke-width:0.005;stroke-linecap:butt;stroke-linejoin:miter;stroke:rgb(40.601504%,0%,15.789474%);stroke-opacity:0.6;stroke-miterlimit:10;" d="M 0.556919 0.362421 L 0.334872 0.376802 " transform="matrix(1320,0,0,1340,0,0)"/>
<path style="fill:none;stroke-width:0.005;stroke-linecap:butt;stroke-linejoin:miter;stroke:rgb(40.601504%,0%,15.789474%);stroke-opacity:0.6;stroke-miterlimit:10;" d="M 0.726998 0.337098 L 0.901802 0.292386 " transform="matrix(1320,0,0,1340,0,0)"/>
<path style="fill:none;stroke-width:0.005;stroke-linecap:butt;stroke-linejoin:miter;stroke:rgb(40.601504%,0%,15.789474%);stroke-opacity:0.6;stroke-miterlimit:10;" d="M 0.129057 0.300615 L -1.091329 0.170776 " transform="matrix(1320,0,0,1340,0,0)"/>
<path style="fill:none;stroke-width:0.005;stroke-linecap:butt;stroke-linejoin:miter;stroke:rgb(40.601504%,0%,15.789474%);stroke-opacity:0.6;stroke-miterlimit:10;" d="M 0.916649 0.394074 L 1.533975 0.482311 " transform="matrix(1320,0,0,1340,0,0)"/>
<path style="fill:none;stroke-width:0.005;stroke-linecap:butt;stroke-linejoin:miter;stroke:rgb(40.601504%,0%,15.789474%);stroke-opacity:0.6;stroke-miterlimit:10;" d="M 0.750719 0.309497 L 0.980877 0.200385 " transform="matrix(1320,0,0,1340,0,0)"/>
<path style="fill:none;stroke-width:0.005;stroke-linecap:butt;stroke-linejoin:miter;stroke:rgb(40.601504%,0%,15.789474%);stroke-opacity:0.6;stroke-miterlimit:10;" d="M 0.565835 0.333687 L 0.364598 0.281026 " transform="matrix(1320,0,0,1340,0,0)"/>
<path style="fill:none;stroke-width:0.005;stroke-linecap:butt;stroke-linejoin:miter;stroke:rgb(40.601504%,0%,15.789474%);stroke-opacity:0.6;stroke-miterlimit:10;" d="M 0.902098 0.483888 L 1.485476 0.78169 " transform="matrix(1320,0,0,1340,0,0)"/>
<path style="fill:none;stroke-width:0.005;stroke-linecap:butt;stroke-linejoin:miter;stroke:rgb(40.601504%,0%,15.789474%);stroke-opacity:0.6;stroke-miterlimit:10;" d="M 0.592522 0.34772 L 0.453554 0.327796 " transform="matrix(1320,0,0,1340,0,0)"/>
<path style="fill:none;stroke-width:0.005;stroke-linecap:butt;stroke-linejoin:miter;stroke:rgb(40.601504%,0%,15.789474%);stroke-opacity:0.6;stroke-miterlimit:10;" d="M 0.639092 0.35862 L 0.608783 0.364127 " transform="matrix(1320,0,0,1340,0,0)"/>
<path style="fill:none;stroke-width:0.005;stroke-linecap:butt;stroke-linejoin:miter;stroke:rgb(40.601504%,0%,15.789474%);stroke-opacity:0.6;stroke-miterlimit:10;" d="M 0.742193 0.365712 L 0.952453 0.387768 " transform="matrix(1320,0,0,1340,0,0)"/>
<path style="fill:none;stroke-width:0.005;stroke-linecap:butt;stroke-linejoin:miter;stroke:rgb(40.601504%,0%,15.789474%);stroke-opacity:0.6;stroke-miterlimit:10;" d="M 0.627672 0.359285 L 0.570718 0.366348 " transform="matrix(1320,0,0,1340,0,0)"/>
<path style="fill:none;stroke-width:0.005;stroke-linecap:butt;stroke-linejoin:miter;stroke:rgb(40.601504%,0%,15.789474%);stroke-opacity:0.6;stroke-miterlimit:10;" d="M 0.740507 0.370181 L 0.946837 0.402667 " transform="matrix(1320,0,0,1340,0,0)"/>
<path style="fill:none;stroke-width:0.005;stroke-linecap:butt;stroke-linejoin:miter;stroke:rgb(40.601504%,0%,15.789474%);stroke-opacity:0.6;stroke-miterlimit:10;" d="M 0.60815 0.367427 L 0.505646 0.393485 " transform="matrix(1320,0,0,1340,0,0)"/>
<path style="fill:none;stroke-width:0.005;stroke-linecap:butt;stroke-linejoin:miter;stroke:rgb(40.601504%,0%,15.789474%);stroke-opacity:0.6;stroke-miterlimit:10;" d="M 0.628403 0.359917 L 0.573159 0.368456 " transform="matrix(1320,0,0,1340,0,0)"/>
<path style="fill:none;stroke-width:0.005;stroke-linecap:butt;stroke-linejoin:miter;stroke:rgb(40.601504%,0%,15.789474%);stroke-opacity:0.6;stroke-miterlimit:10;" d="M 0.748361 0.403865 L 0.97302 0.514952 " transform="matrix(1320,0,0,1340,0,0)"/>
<path style="fill:none;stroke-width:0.005;stroke-linecap:butt;stroke-linejoin:miter;stroke:rgb(40.601504%,0%,15.789474%);stroke-opacity:0.6;stroke-miterlimit:10;" d="M 0.635677 0.35121 L 0.597405 0.339427 " transform="matrix(1320,0,0,1340,0,0)"/>
<path style="fill:none;stroke-width:0.005;stroke-linecap:butt;stroke-linejoin:miter;stroke:rgb(40.601504%,0%,15.789474%);stroke-opacity:0.6;stroke-miterlimit:10;" d="M 0.744179 0.390517 L 0.959079 0.470455 " transform="matrix(1320,0,0,1340,0,0)"/>
<path style="fill:none;stroke-width:0.005;stroke-linecap:butt;stroke-linejoin:miter;stroke:rgb(40.601504%,0%,15.789474%);stroke-opacity:0.6;stroke-miterlimit:10;" d="M 0.759203 0.403466 L 1.009156 0.513614 " transform="matrix(1320,0,0,1340,0,0)"/>
<path style="fill:none;stroke-width:0.005;stroke-linecap:butt;stroke-linejoin:miter;stroke:rgb(40.601504%,0%,15.789474%);stroke-opacity:0.6;stroke-miterlimit:10;" d="M 0.754134 0.337835 L 0.992261 0.294846 " transform="matrix(1320,0,0,1340,0,0)"/>
<path style="fill:none;stroke-width:0.005;stroke-linecap:butt;stroke-linejoin:miter;stroke:rgb(40.601504%,0%,15.789474%);stroke-opacity:0.6;stroke-miterlimit:10;" d="M 0.433863 0.300423 L -0.0753137 0.170141 " transform="matrix(1320,0,0,1340,0,0)"/>
<path style="fill:none;stroke-width:0.005;stroke-linecap:butt;stroke-linejoin:miter;stroke:rgb(40.601504%,0%,15.789474%);stroke-opacity:0.6;stroke-miterlimit:10;" d="M 0.626554 0.361474 L 0.566989 0.373644 " transform="matrix(1320,0,0,1340,0,0)"/>
<path style="fill:none;stroke-width:0.005;stroke-linecap:butt;stroke-linejoin:miter;stroke:rgb(40.601504%,0%,15.789474%);stroke-opacity:0.6;stroke-miterlimit:10;" d="M 0.697387 0.246834 L 0.803104 -0.00848881 " transform="matrix(1320,0,0,1340,0,0)"/>
<path style="fill:none;stroke-width:0.005;stroke-linecap:butt;stroke-linejoin:miter;stroke:rgb(40.601504%,0%,15.789474%);stroke-opacity:0.6;stroke-miterlimit:10;" d="M 0.763249 0.319353 L 1.022641 0.233238 " transform="matrix(1320,0,0,1340,0,0)"/>
<path style="fill:none;stroke-width:0.005;stroke-linecap:butt;stroke-linejoin:miter;stroke:rgb(40.601504%,0%,15.789474%);stroke-opacity:0.6;stroke-miterlimit:10;" d="M 0.638852 0.360334 L 0.60799 0.36984 " transform="matrix(1320,0,0,1340,0,0)"/>
<path style="fill:none;stroke-width:0.005;stroke-linecap:butt;stroke-linejoin:miter;stroke:rgb(40.601504%,0%,15.789474%);stroke-opacity:0.6;stroke-miterlimit:10;" d="M 0.564344 0.381116 L 0.359624 0.439121 " transform="matrix(1320,0,0,1340,0,0)"/>
<path style="fill:none;stroke-width:0.005;stroke-linecap:butt;stroke-linejoin:miter;stroke:rgb(40.601504%,0%,15.789474%);stroke-opacity:0.6;stroke-miterlimit:10;" d="M 0.63602 0.35242 L 0.598553 0.343461 " transform="matrix(1320,0,0,1340,0,0)"/>
<path style="fill:none;stroke-width:0.005;stroke-linecap:butt;stroke-linejoin:miter;stroke:rgb(40.601504%,0%,15.789474%);stroke-opacity:0.6;stroke-miterlimit:10;" d="M 0.263678 0.481623 L -0.642596 0.77414 " transform="matrix(1320,0,0,1340,0,0)"/>
<path style="fill:none;stroke-width:0.005;stroke-linecap:butt;stroke-linejoin:miter;stroke:rgb(40.601504%,0%,15.789474%);stroke-opacity:0.6;stroke-miterlimit:10;" d="M 0.579741 0.416567 L 0.410952 0.557282 " transform="matrix(1320,0,0,1340,0,0)"/>
<path style="fill:none;stroke-width:0.005;stroke-linecap:butt;stroke-linejoin:miter;stroke:rgb(40.601504%,0%,15.789474%);stroke-opacity:0.6;stroke-miterlimit:10;" d="M 0.0598988 0.00152169 L -1.321857 -0.826192 " transform="matrix(1320,0,0,1340,0,0)"/>
<path style="fill:none;stroke-width:0.005;stroke-linecap:butt;stroke-linejoin:miter;stroke:rgb(40.601504%,0%,15.789474%);stroke-opacity:0.6;stroke-miterlimit:10;" d="M 0.589717 0.442896 L 0.444206 0.645047 " transform="matrix(1320,0,0,1340,0,0)"/>
<path style="fill:none;stroke-width:0.005;stroke-linecap:butt;stroke-linejoin:miter;stroke:rgb(40.601504%,0%,15.789474%);stroke-opacity:0.6;stroke-miterlimit:10;" d="M 0.563515 0.325673 L 0.356863 0.254311 " transform="matrix(1320,0,0,1340,0,0)"/>
<path style="fill:none;stroke-width:0.005;stroke-linecap:butt;stroke-linejoin:miter;stroke:rgb(40.601504%,0%,15.789474%);stroke-opacity:0.6;stroke-miterlimit:10;" d="M 0.560005 0.38288 L 0.345165 0.444998 " transform="matrix(1320,0,0,1340,0,0)"/>
<path style="fill:none;stroke-width:0.005;stroke-linecap:butt;stroke-linejoin:miter;stroke:rgb(40.601504%,0%,15.789474%);stroke-opacity:0.6;stroke-miterlimit:10;" d="M 0.723088 0.291692 L 0.888775 0.141042 " transform="matrix(1320,0,0,1340,0,0)"/>
<path style="fill:none;stroke-width:0.005;stroke-linecap:butt;stroke-linejoin:miter;stroke:rgb(40.601504%,0%,15.789474%);stroke-opacity:0.6;stroke-miterlimit:10;" d="M 0.785085 0.291182 L 1.095428 0.139337 " transform="matrix(1320,0,0,1340,0,0)"/>
<path style="fill:none;stroke-width:0.005;stroke-linecap:butt;stroke-linejoin:miter;stroke:rgb(40.601504%,0%,15.789474%);stroke-opacity:0.6;stroke-miterlimit:10;" d="M 0.729315 0.414296 L 0.909529 0.549714 " transform="matrix(1320,0,0,1340,0,0)"/>
<path style="fill:none;stroke-width:0.005;stroke-linecap:butt;stroke-linejoin:miter;stroke:rgb(40.601504%,0%,15.789474%);stroke-opacity:0.6;stroke-miterlimit:10;" d="M 0.630791 0.348216 L 0.581117 0.329454 " transform="matrix(1320,0,0,1340,0,0)"/>
<path style="fill:none;stroke-width:0.005;stroke-linecap:butt;stroke-linejoin:miter;stroke:rgb(40.601504%,0%,15.789474%);stroke-opacity:0.6;stroke-miterlimit:10;" d="M 0.808434 0.240765 L 1.173263 -0.0287197 " transform="matrix(1320,0,0,1340,0,0)"/>
<path style="fill:none;stroke-width:0.005;stroke-linecap:butt;stroke-linejoin:miter;stroke:rgb(40.601504%,0%,15.789474%);stroke-opacity:0.6;stroke-miterlimit:10;" d="M 0.738841 0.387456 L 0.941288 0.46025 " transform="matrix(1320,0,0,1340,0,0)"/>
<path style="fill:none;stroke-width:0.005;stroke-linecap:butt;stroke-linejoin:miter;stroke:rgb(40.601504%,0%,15.789474%);stroke-opacity:0.6;stroke-miterlimit:10;" d="M 0.616158 0.247164 L 0.532342 -0.00739272 " transform="matrix(1320,0,0,1340,0,0)"/>
<path style="fill:none;stroke-width:0.005;stroke-linecap:butt;stroke-linejoin:miter;stroke:rgb(40.601504%,0%,15.789474%);stroke-opacity:0.6;stroke-miterlimit:10;" d="M 0.713278 0.484057 L 0.856072 0.782256 " transform="matrix(1320,0,0,1340,0,0)"/>
<path style="fill:none;stroke-width:0.005;stroke-linecap:butt;stroke-linejoin:miter;stroke:rgb(40.601504%,0%,15.789474%);stroke-opacity:0.6;stroke-miterlimit:10;" d="M 0.18782 0.532941 L -0.895458 0.945205 " transform="matrix(1320,0,0,1340,0,0)"/>
<path style="fill:none;stroke-width:0.005;stroke-linecap:butt;stroke-linejoin:miter;stroke:rgb(40.601504%,0%,15.789474%);stroke-opacity:0.6;stroke-miterlimit:10;" d="M 0.52708 0.591444 L 0.235411 1.140214 " transform="matrix(1320,0,0,1340,0,0)"/>
<path style="fill:none;stroke-width:0.005;stroke-linecap:butt;stroke-linejoin:miter;stroke:rgb(40.601504%,0%,15.789474%);stroke-opacity:0.6;stroke-miterlimit:10;" d="M 0.592084 0.329332 L 0.452098 0.266508 " transform="matrix(1320,0,0,1340,0,0)"/>
<path style="fill:none;stroke-width:0.005;stroke-linecap:butt;stroke-linejoin:miter;stroke:rgb(40.601504%,0%,15.789474%);stroke-opacity:0.6;stroke-miterlimit:10;" d="M 0.923976 0.0114447 L 1.558404 -0.79312 " transform="matrix(1320,0,0,1340,0,0)"/>
<path style="fill:none;stroke-width:0.005;stroke-linecap:butt;stroke-linejoin:miter;stroke:rgb(40.601504%,0%,15.789474%);stroke-opacity:0.6;stroke-miterlimit:10;" d="M 0.649615 0.183203 L 0.643862 -0.220592 " transform="matrix(1320,0,0,1340,0,0)"/>
<path style="fill:none;stroke-width:0.005;stroke-linecap:butt;stroke-linejoin:miter;stroke:rgb(40.601504%,0%,15.789474%);stroke-opacity:0.6;stroke-miterlimit:10;" d="M 0.720221 0.29275 L 0.879214 0.144569 " transform="matrix(1320,0,0,1340,0,0)"/>
<path style="fill:none;stroke-width:0.005;stroke-linecap:butt;stroke-linejoin:miter;stroke:rgb(40.601504%,0%,15.789474%);stroke-opacity:0.6;stroke-miterlimit:10;" d="M 0.629915 0.367741 L 0.578196 0.394531 " transform="matrix(1320,0,0,1340,0,0)"/>
<path style="fill:none;stroke-width:0.005;stroke-linecap:butt;stroke-linejoin:miter;stroke:rgb(40.601504%,0%,15.789474%);stroke-opacity:0.6;stroke-miterlimit:10;" d="M 0.253886 0.941339 L -0.675234 2.30653 " transform="matrix(1320,0,0,1340,0,0)"/>
<path style="fill:none;stroke-width:0.005;stroke-linecap:butt;stroke-linejoin:miter;stroke:rgb(40.601504%,0%,15.789474%);stroke-opacity:0.6;stroke-miterlimit:10;" d="M 0.705726 0.418896 L 0.830901 0.565045 " transform="matrix(1320,0,0,1340,0,0)"/>
<path style="fill:none;stroke-width:0.005;stroke-linecap:butt;stroke-linejoin:miter;stroke:rgb(40.601504%,0%,15.789474%);stroke-opacity:0.6;stroke-miterlimit:10;" d="M 0.60198 0.296904 L 0.485076 0.158407 " transform="matrix(1320,0,0,1340,0,0)"/>
<path style="fill:none;stroke-width:0.005;stroke-linecap:butt;stroke-linejoin:miter;stroke:rgb(40.601504%,0%,15.789474%);stroke-opacity:0.6;stroke-miterlimit:10;" d="M 0.630865 0.342272 L 0.581362 0.309643 " transform="matrix(1320,0,0,1340,0,0)"/>
<path style="fill:none;stroke-width:0.005;stroke-linecap:butt;stroke-linejoin:miter;stroke:rgb(40.601504%,0%,15.789474%);stroke-opacity:0.6;stroke-miterlimit:10;" d="M 0.531797 0.297671 L 0.251142 0.160967 " transform="matrix(1320,0,0,1340,0,0)"/>
<path style="fill:none;stroke-width:0.005;stroke-linecap:butt;stroke-linejoin:miter;stroke:rgb(40.601504%,0%,15.789474%);stroke-opacity:0.6;stroke-miterlimit:10;" d="M 0.677267 0.388774 L 0.736032 0.464648 " transform="matrix(1320,0,0,1340,0,0)"/>
<path style="fill:none;stroke-width:0.005;stroke-linecap:butt;stroke-linejoin:miter;stroke:rgb(40.601504%,0%,15.789474%);stroke-opacity:0.6;stroke-miterlimit:10;" d="M 0.618812 0.388066 L 0.54119 0.462284 " transform="matrix(1320,0,0,1340,0,0)"/>
<path style="fill:none;stroke-width:0.005;stroke-linecap:butt;stroke-linejoin:miter;stroke:rgb(40.601504%,0%,15.789474%);stroke-opacity:0.6;stroke-miterlimit:10;" d="M 0.591359 0.424819 L 0.449677 0.584798 " transform="matrix(1320,0,0,1340,0,0)"/>
<path style="fill:none;stroke-width:0.005;stroke-linecap:butt;stroke-linejoin:miter;stroke:rgb(40.601504%,0%,15.789474%);stroke-opacity:0.6;stroke-miterlimit:10;" d="M 0.658771 0.27193 L 0.674384 0.0751691 " transform="matrix(1320,0,0,1340,0,0)"/>
<path style="fill:none;stroke-width:0.005;stroke-linecap:butt;stroke-linejoin:miter;stroke:rgb(40.601504%,0%,15.789474%);stroke-opacity:0.6;stroke-miterlimit:10;" d="M 1.026631 0.595496 L 1.90058 1.153723 " transform="matrix(1320,0,0,1340,0,0)"/>
<path style="fill:none;stroke-width:0.005;stroke-linecap:butt;stroke-linejoin:miter;stroke:rgb(40.601504%,0%,15.789474%);stroke-opacity:0.6;stroke-miterlimit:10;" d="M 0.701133 0.2855 L 0.815589 0.120394 " transform="matrix(1320,0,0,1340,0,0)"/>
<path style="fill:none;stroke-width:0.005;stroke-linecap:butt;stroke-linejoin:miter;stroke:rgb(40.601504%,0%,15.789474%);stroke-opacity:0.6;stroke-miterlimit:10;" d="M 0.987169 0.179137 L 1.769043 -0.234151 " transform="matrix(1320,0,0,1340,0,0)"/>
<path style="fill:none;stroke-width:0.005;stroke-linecap:butt;stroke-linejoin:miter;stroke:rgb(40.601504%,0%,15.789474%);stroke-opacity:0.6;stroke-miterlimit:10;" d="M 0.640468 0.348044 L 0.613373 0.32888 " transform="matrix(1320,0,0,1340,0,0)"/>
<path style="fill:none;stroke-width:0.005;stroke-linecap:butt;stroke-linejoin:miter;stroke:rgb(40.601504%,0%,15.789474%);stroke-opacity:0.6;stroke-miterlimit:10;" d="M 0.674772 0.544525 L 0.72772 0.983812 " transform="matrix(1320,0,0,1340,0,0)"/>
<path style="fill:none;stroke-width:0.005;stroke-linecap:butt;stroke-linejoin:miter;stroke:rgb(40.601504%,0%,15.789474%);stroke-opacity:0.6;stroke-miterlimit:10;" d="M 0.625734 0.388908 L 0.564264 0.465092 " transform="matrix(1320,0,0,1340,0,0)"/>
<path style="fill:none;stroke-width:0.005;stroke-linecap:butt;stroke-linejoin:miter;stroke:rgb(40.601504%,0%,15.789474%);stroke-opacity:0.6;stroke-miterlimit:10;" d="M 0.647422 0.42326 L 0.636553 0.579597 " transform="matrix(1320,0,0,1340,0,0)"/>
<path style="fill:none;stroke-width:0.005;stroke-linecap:butt;stroke-linejoin:miter;stroke:rgb(40.601504%,0%,15.789474%);stroke-opacity:0.6;stroke-miterlimit:10;" d="M 0.549231 0.159422 L 0.309248 -0.299866 " transform="matrix(1320,0,0,1340,0,0)"/>
<path style="fill:none;stroke-width:0.005;stroke-linecap:butt;stroke-linejoin:miter;stroke:rgb(40.601504%,0%,15.789474%);stroke-opacity:0.6;stroke-miterlimit:10;" d="M 0.70364 0.243461 L 0.823946 -0.0197295 " transform="matrix(1320,0,0,1340,0,0)"/>
<path style="fill:none;stroke-width:0.005;stroke-linecap:butt;stroke-linejoin:miter;stroke:rgb(40.601504%,0%,15.789474%);stroke-opacity:0.6;stroke-miterlimit:10;" d="M 0.676651 0.274464 L 0.733981 0.0836054 " transform="matrix(1320,0,0,1340,0,0)"/>
<path style="fill:none;stroke-width:0.005;stroke-linecap:butt;stroke-linejoin:miter;stroke:rgb(40.601504%,0%,15.789474%);stroke-opacity:0.6;stroke-miterlimit:10;" d="M 0.581578 0.26266 L 0.417072 0.0442631 " transform="matrix(1320,0,0,1340,0,0)"/>
<path style="fill:none;stroke-width:0.005;stroke-linecap:butt;stroke-linejoin:miter;stroke:rgb(40.601504%,0%,15.789474%);stroke-opacity:0.6;stroke-miterlimit:10;" d="M 0.638571 0.345665 L 0.607055 0.320951 " transform="matrix(1320,0,0,1340,0,0)"/>
<path style="fill:none;stroke-width:0.005;stroke-linecap:butt;stroke-linejoin:miter;stroke:rgb(40.601504%,0%,15.789474%);stroke-opacity:0.6;stroke-miterlimit:10;" d="M 0.62798 0.466016 L 0.571745 0.722114 " transform="matrix(1320,0,0,1340,0,0)"/>
<path style="fill:none;stroke-width:0.005;stroke-linecap:butt;stroke-linejoin:miter;stroke:rgb(40.601504%,0%,15.789474%);stroke-opacity:0.6;stroke-miterlimit:10;" d="M 0.59744 0.288045 L 0.469946 0.12888 " transform="matrix(1320,0,0,1340,0,0)"/>
<path style="fill:none;stroke-width:0.005;stroke-linecap:butt;stroke-linejoin:miter;stroke:rgb(40.601504%,0%,15.789474%);stroke-opacity:0.6;stroke-miterlimit:10;" d="M 0.646203 0.547484 L 0.632496 0.993677 " transform="matrix(1320,0,0,1340,0,0)"/>
<path style="fill:none;stroke-width:0.005;stroke-linecap:butt;stroke-linejoin:miter;stroke:rgb(40.601504%,0%,15.789474%);stroke-opacity:0.6;stroke-miterlimit:10;" d="M 0.748618 0.42609 L 0.973873 0.589036 " transform="matrix(1320,0,0,1340,0,0)"/>
<path style="fill:none;stroke-width:0.005;stroke-linecap:butt;stroke-linejoin:miter;stroke:rgb(40.601504%,0%,15.789474%);stroke-opacity:0.6;stroke-miterlimit:10;" d="M 0.642865 0.337698 L 0.621366 0.294388 " transform="matrix(1320,0,0,1340,0,0)"/>
<path style="fill:none;stroke-width:0.005;stroke-linecap:butt;stroke-linejoin:miter;stroke:rgb(40.601504%,0%,15.789474%);stroke-opacity:0.6;stroke-miterlimit:10;" d="M 0.647354 0.227498 L 0.636328 -0.0729448 " transform="matrix(1320,0,0,1340,0,0)"/>
<path style="fill:none;stroke-width:0.005;stroke-linecap:butt;stroke-linejoin:miter;stroke:rgb(40.601504%,0%,15.789474%);stroke-opacity:0.6;stroke-miterlimit:10;" d="M 0.614039 0.371572 L 0.525272 0.407308 " transform="matrix(1320,0,0,1340,0,0)"/>
<path style="fill:none;stroke-width:0.005;stroke-linecap:butt;stroke-linejoin:miter;stroke:rgb(40.601504%,0%,15.789474%);stroke-opacity:0.6;stroke-miterlimit:10;" d="M 0.600982 0.528239 L 0.481759 0.929527 " transform="matrix(1320,0,0,1340,0,0)"/>
<path style="fill:none;stroke-width:0.005;stroke-linecap:butt;stroke-linejoin:miter;stroke:rgb(40.601504%,0%,15.789474%);stroke-opacity:0.6;stroke-miterlimit:10;" d="M 0.690808 0.429539 L 0.781173 0.600528 " transform="matrix(1320,0,0,1340,0,0)"/>
<path style="fill:none;stroke-width:0.005;stroke-linecap:butt;stroke-linejoin:miter;stroke:rgb(40.601504%,0%,15.789474%);stroke-opacity:0.6;stroke-miterlimit:10;" d="M 0.572393 0.361631 L 0.386458 0.374166 " transform="matrix(1320,0,0,1340,0,0)"/>
<path style="fill:none;stroke-width:0.005;stroke-linecap:butt;stroke-linejoin:miter;stroke:rgb(40.601504%,0%,15.789474%);stroke-opacity:0.6;stroke-miterlimit:10;" d="M 0.524905 0.31331 L 0.228169 0.213095 " transform="matrix(1320,0,0,1340,0,0)"/>
<path style="fill:none;stroke-width:0.005;stroke-linecap:butt;stroke-linejoin:miter;stroke:rgb(40.601504%,0%,15.789474%);stroke-opacity:0.6;stroke-miterlimit:10;" d="M 0.611396 0.397175 L 0.516471 0.492648 " transform="matrix(1320,0,0,1340,0,0)"/>
<path style="fill:none;stroke-width:0.005;stroke-linecap:butt;stroke-linejoin:miter;stroke:rgb(40.601504%,0%,15.789474%);stroke-opacity:0.6;stroke-miterlimit:10;" d="M 0.723583 0.260786 L 0.890421 0.0380189 " transform="matrix(1320,0,0,1340,0,0)"/>
<path style="fill:none;stroke-width:0.005;stroke-linecap:butt;stroke-linejoin:miter;stroke:rgb(40.601504%,0%,15.789474%);stroke-opacity:0.6;stroke-miterlimit:10;" d="M 0.623224 0.320718 L 0.555895 0.237786 " transform="matrix(1320,0,0,1340,0,0)"/>
<path style="fill:none;stroke-width:0.005;stroke-linecap:butt;stroke-linejoin:miter;stroke:rgb(40.601504%,0%,15.789474%);stroke-opacity:0.6;stroke-miterlimit:10;" d="M 0.631709 0.332469 L 0.58418 0.276953 " transform="matrix(1320,0,0,1340,0,0)"/>
<path style="fill:none;stroke-width:0.005;stroke-linecap:butt;stroke-linejoin:miter;stroke:rgb(40.601504%,0%,15.789474%);stroke-opacity:0.6;stroke-miterlimit:10;" d="M 0.557644 0.263794 L 0.33729 0.048044 " transform="matrix(1320,0,0,1340,0,0)"/>
<path style="fill:none;stroke-width:0.005;stroke-linecap:butt;stroke-linejoin:miter;stroke:rgb(40.601504%,0%,15.789474%);stroke-opacity:0.6;stroke-miterlimit:10;" d="M 0.692285 0.275373 L 0.786097 0.0866459 " transform="matrix(1320,0,0,1340,0,0)"/>
<path style="fill:none;stroke-width:0.005;stroke-linecap:butt;stroke-linejoin:miter;stroke:rgb(40.601504%,0%,15.789474%);stroke-opacity:0.6;stroke-miterlimit:10;" d="M 0.601394 0.296543 L 0.48312 0.157206 " transform="matrix(1320,0,0,1340,0,0)"/>
<path style="fill:none;stroke-width:0.005;stroke-linecap:butt;stroke-linejoin:miter;stroke:rgb(40.601504%,0%,15.789474%);stroke-opacity:0.6;stroke-miterlimit:10;" d="M 0.727267 0.436133 L 0.902708 0.622505 " transform="matrix(1320,0,0,1340,0,0)"/>
<path style="fill:none;stroke-width:0.005;stroke-linecap:butt;stroke-linejoin:miter;stroke:rgb(40.601504%,0%,15.789474%);stroke-opacity:0.6;stroke-miterlimit:10;" d="M 0.582815 0.260302 L 0.421194 0.0364039 " transform="matrix(1320,0,0,1340,0,0)"/>
<path style="fill:none;stroke-width:0.005;stroke-linecap:butt;stroke-linejoin:miter;stroke:rgb(40.601504%,0%,15.789474%);stroke-opacity:0.6;stroke-miterlimit:10;" d="M 0.672002 0.474411 L 0.718484 0.750102 " transform="matrix(1320,0,0,1340,0,0)"/>
<path style="fill:none;stroke-width:0.005;stroke-linecap:butt;stroke-linejoin:miter;stroke:rgb(40.601504%,0%,15.789474%);stroke-opacity:0.6;stroke-miterlimit:10;" d="M 0.662914 0.250385 L 0.68819 0.00334363 " transform="matrix(1320,0,0,1340,0,0)"/>
<path style="fill:none;stroke-width:0.005;stroke-linecap:butt;stroke-linejoin:miter;stroke:rgb(40.601504%,0%,15.789474%);stroke-opacity:0.6;stroke-miterlimit:10;" d="M 0.761772 0.431297 L 1.017714 0.606381 " transform="matrix(1320,0,0,1340,0,0)"/>
<path style="fill:none;stroke-width:0.005;stroke-linecap:butt;stroke-linejoin:miter;stroke:rgb(40.601504%,0%,15.789474%);stroke-opacity:0.6;stroke-miterlimit:10;" d="M 0.62927 0.529886 L 0.576045 0.935019 " transform="matrix(1320,0,0,1340,0,0)"/>
<path style="fill:none;stroke-width:0.005;stroke-linecap:butt;stroke-linejoin:miter;stroke:rgb(40.601504%,0%,15.789474%);stroke-opacity:0.6;stroke-miterlimit:10;" d="M 0.701799 0.431947 L 0.817806 0.608553 " transform="matrix(1320,0,0,1340,0,0)"/>
<path style="fill:none;stroke-width:0.005;stroke-linecap:butt;stroke-linejoin:miter;stroke:rgb(40.601504%,0%,15.789474%);stroke-opacity:0.6;stroke-miterlimit:10;" d="M 0.721218 0.254253 L 0.882537 0.016243 " transform="matrix(1320,0,0,1340,0,0)"/>
<path style="fill:none;stroke-width:0.005;stroke-linecap:butt;stroke-linejoin:miter;stroke:rgb(40.601504%,0%,15.789474%);stroke-opacity:0.6;stroke-miterlimit:10;" d="M 0.608532 0.552615 L 0.506919 1.010777 " transform="matrix(1320,0,0,1340,0,0)"/>
<path style="fill:none;stroke-width:0.005;stroke-linecap:butt;stroke-linejoin:miter;stroke:rgb(40.601504%,0%,15.789474%);stroke-opacity:0.6;stroke-miterlimit:10;" d="M 0.663089 0.369613 L 0.688772 0.400775 " transform="matrix(1320,0,0,1340,0,0)"/>
<path style="fill:none;stroke-width:0.005;stroke-linecap:butt;stroke-linejoin:miter;stroke:rgb(40.601504%,0%,15.789474%);stroke-opacity:0.6;stroke-miterlimit:10;" d="M 0.633688 0.60943 L 0.59077 1.200169 " transform="matrix(1320,0,0,1340,0,0)"/>
<path style="fill:none;stroke-width:0.005;stroke-linecap:butt;stroke-linejoin:miter;stroke:rgb(40.601504%,0%,15.789474%);stroke-opacity:0.6;stroke-miterlimit:10;" d="M 0.637319 0.470213 L 0.602879 0.736112 " transform="matrix(1320,0,0,1340,0,0)"/>
<path style="fill:none;stroke-width:0.005;stroke-linecap:butt;stroke-linejoin:miter;stroke:rgb(40.601504%,0%,15.789474%);stroke-opacity:0.6;stroke-miterlimit:10;" d="M 0.774139 0.346015 L 1.058943 0.322114 " transform="matrix(1320,0,0,1340,0,0)"/>
<path style="fill:none;stroke-width:0.005;stroke-linecap:butt;stroke-linejoin:miter;stroke:rgb(40.601504%,0%,15.789474%);stroke-opacity:0.6;stroke-miterlimit:10;" d="M 0.664622 0.362503 L 0.693886 0.37707 " transform="matrix(1320,0,0,1340,0,0)"/>
<path style="fill:none;stroke-width:0.005;stroke-linecap:butt;stroke-linejoin:miter;stroke:rgb(40.601504%,0%,15.789474%);stroke-opacity:0.6;stroke-miterlimit:10;" d="M 0.600832 0.28878 L 0.481253 0.131326 " transform="matrix(1320,0,0,1340,0,0)"/>
<path style="fill:none;stroke-width:0.005;stroke-linecap:butt;stroke-linejoin:miter;stroke:rgb(40.601504%,0%,15.789474%);stroke-opacity:0.6;stroke-miterlimit:10;" d="M 0.713364 0.44763 L 0.856357 0.66083 " transform="matrix(1320,0,0,1340,0,0)"/>
<path style="fill:none;stroke-width:0.005;stroke-linecap:butt;stroke-linejoin:miter;stroke:rgb(40.601504%,0%,15.789474%);stroke-opacity:0.6;stroke-miterlimit:10;" d="M 0.622795 0.303621 L 0.554463 0.180801 " transform="matrix(1320,0,0,1340,0,0)"/>
<path style="fill:none;stroke-width:0.005;stroke-linecap:butt;stroke-linejoin:miter;stroke:rgb(40.601504%,0%,15.789474%);stroke-opacity:0.6;stroke-miterlimit:10;" d="M 0.532437 -0.0523991 L 0.253273 -1.005929 " transform="matrix(1320,0,0,1340,0,0)"/>
<path style="fill:none;stroke-width:0.005;stroke-linecap:butt;stroke-linejoin:miter;stroke:rgb(40.601504%,0%,15.789474%);stroke-opacity:0.6;stroke-miterlimit:10;" d="M 0.620721 0.437383 L 0.547547 0.626676 " transform="matrix(1320,0,0,1340,0,0)"/>
<path style="fill:none;stroke-width:0.005;stroke-linecap:butt;stroke-linejoin:miter;stroke:rgb(40.601504%,0%,15.789474%);stroke-opacity:0.6;stroke-miterlimit:10;" d="M 0.533798 0.358238 L 0.257804 0.362861 " transform="matrix(1320,0,0,1340,0,0)"/>
<path style="fill:none;stroke-width:0.005;stroke-linecap:butt;stroke-linejoin:miter;stroke:rgb(40.601504%,0%,15.789474%);stroke-opacity:0.6;stroke-miterlimit:10;" d="M 0.6375 0.320248 L 0.603477 0.236226 " transform="matrix(1320,0,0,1340,0,0)"/>
<path style="fill:none;stroke-width:0.005;stroke-linecap:butt;stroke-linejoin:miter;stroke:rgb(40.601504%,0%,15.789474%);stroke-opacity:0.6;stroke-miterlimit:10;" d="M 0.75762 0.374557 L 1.003877 0.417252 " transform="matrix(1320,0,0,1340,0,0)"/>
<path style="fill:none;stroke-width:0.005;stroke-linecap:butt;stroke-linejoin:miter;stroke:rgb(40.601504%,0%,15.789474%);stroke-opacity:0.6;stroke-miterlimit:10;" d="M 0.508916 0.278105 L 0.174867 0.095741 " transform="matrix(1320,0,0,1340,0,0)"/>
<path style="fill:none;stroke-width:0.005;stroke-linecap:butt;stroke-linejoin:miter;stroke:rgb(40.601504%,0%,15.789474%);stroke-opacity:0.6;stroke-miterlimit:10;" d="M 0.727776 0.20374 L 0.904397 -0.152134 " transform="matrix(1320,0,0,1340,0,0)"/>
<path style="fill:none;stroke-width:0.005;stroke-linecap:butt;stroke-linejoin:miter;stroke:rgb(40.601504%,0%,15.789474%);stroke-opacity:0.6;stroke-miterlimit:10;" d="M 0.602649 0.297152 L 0.487305 0.159232 " transform="matrix(1320,0,0,1340,0,0)"/>
<path style="fill:none;stroke-width:0.005;stroke-linecap:butt;stroke-linejoin:miter;stroke:rgb(40.601504%,0%,15.789474%);stroke-opacity:0.6;stroke-miterlimit:10;" d="M 0.627421 0.355679 L 0.569877 0.354326 " transform="matrix(1320,0,0,1340,0,0)"/>
<path style="fill:none;stroke-width:0.005;stroke-linecap:butt;stroke-linejoin:miter;stroke:rgb(40.601504%,0%,15.789474%);stroke-opacity:0.6;stroke-miterlimit:10;" d="M 0.661452 0.373656 L 0.683319 0.414249 " transform="matrix(1320,0,0,1340,0,0)"/>
<path style="fill:none;stroke-width:0.005;stroke-linecap:butt;stroke-linejoin:miter;stroke:rgb(40.601504%,0%,15.789474%);stroke-opacity:0.6;stroke-miterlimit:10;" d="M 0.644854 0.267415 L 0.627998 0.0601154 " transform="matrix(1320,0,0,1340,0,0)"/>
<path style="fill:none;stroke-width:0.005;stroke-linecap:butt;stroke-linejoin:miter;stroke:rgb(40.601504%,0%,15.789474%);stroke-opacity:0.6;stroke-miterlimit:10;" d="M 0.631037 0.303411 L 0.581934 0.180104 " transform="matrix(1320,0,0,1340,0,0)"/>
<path style="fill:none;stroke-width:0.00333333;stroke-linecap:butt;stroke-linejoin:miter;stroke:rgb(0%,43.609023%,0%);stroke-opacity:0.7;stroke-miterlimit:10;" d="M 1 0.5 C 1 0.678632 0.904699 0.843698 0.75 0.933014 C 0.595301 1.02233 0.404699 1.02233 0.25 0.933014 C 0.0953007 0.843698 0 0.678632 0 0.5 C 0 0.321368 0.0953007 0.156302 0.25 0.0669864 C 0.404699 -0.0223298 0.595301 -0.0223298 0.75 0.0669864 C 0.904699 0.156302 1 0.321368 1 0.5 " transform="matrix(1320,0,0,1340,0,0)"/>
<path style=" stroke:none;fill-rule:nonzero;fill:rgb(0%,43.609023%,0%);fill-opacity:0.7;" d="M 1320 670 C 1320 909.367188 1194.203125 1130.554688 990 1250.238281 C 785.796875 1369.921875 534.203125 1369.921875 330 1250.238281 C 125.796875 1130.554688 0 909.367188 0 670 C 0 430.632813 125.796875 209.445313 330 89.761719 C 534.203125 -29.921875 785.796875 -29.921875 990 89.761719 C 1194.203125 209.445313 1320 430.632813 1320 670 "/>
<path style="fill:none;stroke-width:0.00333333;stroke-linecap:butt;stroke-linejoin:miter;stroke:rgb(43.609023%,0%,0%);stroke-opacity:1;stroke-miterlimit:10;" d="M 0.707916 0.333334 C 0.707916 0.467158 0.63652 0.590817 0.520623 0.657731 C 0.404729 0.724644 0.261938 0.724644 0.146043 0.657731 C 0.0301462 0.590817 -0.0412494 0.467158 -0.0412494 0.333334 C -0.0412494 0.199507 0.0301462 0.0758483 0.146043 0.00893482 C 0.261938 -0.0579757 0.404729 -0.0579757 0.520623 0.00893482 C 0.63652 0.0758483 0.707916 0.199507 0.707916 0.333334 " transform="matrix(1320,0,0,1340,0,0)"/>
<path style=" stroke:none;fill-rule:nonzero;fill:rgb(43.609023%,15.789474%,0%);fill-opacity:0.3;" d="M 934.449219 446.667969 C 934.449219 625.992188 840.207031 791.695313 687.222656 881.359375 C 534.242188 971.023438 345.757813 971.023438 192.777344 881.359375 C 39.792969 791.695313 -54.449219 625.992188 -54.449219 446.667969 C -54.449219 267.339844 39.792969 101.636719 192.777344 11.972656 C 345.757813 -77.6875 534.242188 -77.6875 687.222656 11.972656 C 840.207031 101.636719 934.449219 267.339844 934.449219 446.667969 "/>
<path style="fill:none;stroke-width:0.00333333;stroke-linecap:butt;stroke-linejoin:miter;stroke:rgb(43.609023%,0%,0%);stroke-opacity:1;stroke-miterlimit:10;" d="M 1.016164 0.666666 C 1.016164 0.791532 0.94955 0.906909 0.841415 0.969342 C 0.73328 1.031772 0.600053 1.031772 0.491918 0.969342 C 0.383783 0.906909 0.31717 0.791532 0.31717 0.666666 C 0.31717 0.541803 0.383783 0.426425 0.491918 0.363993 C 0.600053 0.30156 0.73328 0.30156 0.841415 0.363993 C 0.94955 0.426425 1.016164 0.541803 1.016164 0.666666 " transform="matrix(1320,0,0,1340,0,0)"/>
<path style=" stroke:none;fill-rule:nonzero;fill:rgb(43.609023%,15.789474%,0%);fill-opacity:0.3;" d="M 1341.335938 893.332031 C 1341.335938 1060.652344 1253.40625 1215.257813 1110.667969 1298.917969 C 967.929688 1382.574219 792.070313 1382.574219 649.332031 1298.917969 C 506.59375 1215.257813 418.664063 1060.652344 418.664063 893.332031 C 418.664063 726.015625 506.59375 571.410156 649.332031 487.75 C 792.070313 404.089844 967.929688 404.089844 1110.667969 487.75 C 1253.40625 571.410156 1341.335938 726.015625 1341.335938 893.332031 "/>
<path style="fill:none;stroke-width:0.1;stroke-linecap:butt;stroke-linejoin:miter;stroke:rgb(43.609023%,15.789474%,40.601504%);stroke-opacity:0.5;stroke-miterlimit:10;" d="M 0.5 0.2 C 0.833333 0.533334 0.933333 0.633334 0.357144 0.657142 " transform="matrix(1320,0,0,1340,0,0)"/>
<path style="fill:none;stroke-width:0.1;stroke-linecap:butt;stroke-linejoin:miter;stroke:rgb(43.609023%,15.789474%,40.601504%);stroke-opacity:0.5;stroke-miterlimit:10;" d="M 0.489796 0.2 C 0.656463 0.366666 0.756463 0.466666 0.260204 0.55 " transform="matrix(1320,0,0,1340,0,0)"/>
<path style="fill:none;stroke-width:0.09;stroke-linecap:butt;stroke-linejoin:miter;stroke:rgb(43.609023%,15.789474%,40.601504%);stroke-opacity:0.5;stroke-miterlimit:10;" d="M 0.479593 0.2 C 0.622449 0.342858 0.733561 0.453967 0.0204072 0.3 " transform="matrix(1320,0,0,1340,0,0)"/>
<path style="fill:none;stroke-width:0.09;stroke-linecap:butt;stroke-linejoin:miter;stroke:rgb(43.609023%,15.789474%,40.601504%);stroke-opacity:0.5;stroke-miterlimit:10;" d="M 0.469389 0.2 C 0.612246 0.342858 0.723355 0.453967 0.0306108 0.3 " transform="matrix(1320,0,0,1340,0,0)"/>
<path style="fill:none;stroke-width:0.08;stroke-linecap:butt;stroke-linejoin:miter;stroke:rgb(43.609023%,15.789474%,40.601504%);stroke-opacity:0.5;stroke-miterlimit:10;" d="M 0.459183 0.2 C 0.959183 0.7 1.084183 0.825 0.374151 0.633334 " transform="matrix(1320,0,0,1340,0,0)"/>
<path style="fill:none;stroke-width:0.08;stroke-linecap:butt;stroke-linejoin:miter;stroke:rgb(43.609023%,15.789474%,40.601504%);stroke-opacity:0.5;stroke-miterlimit:10;" d="M 0.448979 0.2 C 0.648979 0.4 0.773979 0.525 0.217688 0.466666 " transform="matrix(1320,0,0,1340,0,0)"/>
<path style="fill:none;stroke-width:0.08;stroke-linecap:butt;stroke-linejoin:miter;stroke:rgb(43.609023%,15.789474%,40.601504%);stroke-opacity:0.5;stroke-miterlimit:10;" d="M 0.438775 0.2 C 0.688775 0.45 0.813775 0.575 0.311225 0.55 " transform="matrix(1320,0,0,1340,0,0)"/>
<path style="fill:none;stroke-width:0.08;stroke-linecap:butt;stroke-linejoin:miter;stroke:rgb(43.609023%,15.789474%,40.601504%);stroke-opacity:0.5;stroke-miterlimit:10;" d="M 0.428572 0.2 C 0.678572 0.45 0.803572 0.575 0.321428 0.55 " transform="matrix(1320,0,0,1340,0,0)"/>
<path style="fill:none;stroke-width:0.08;stroke-linecap:butt;stroke-linejoin:miter;stroke:rgb(43.609023%,15.789474%,40.601504%);stroke-opacity:0.5;stroke-miterlimit:10;" d="M 0.418368 0.2 C 0.618368 0.4 0.743368 0.525 0.248298 0.466666 " transform="matrix(1320,0,0,1340,0,0)"/>
<path style="fill:none;stroke-width:0.07;stroke-linecap:butt;stroke-linejoin:miter;stroke:rgb(43.609023%,15.789474%,40.601504%);stroke-opacity:0.5;stroke-miterlimit:10;" d="M 0.408165 0.2 C 0.741498 0.533334 0.884354 0.676189 0.341835 0.55 " transform="matrix(1320,0,0,1340,0,0)"/>
<path style="fill:none;stroke-width:0.06;stroke-linecap:butt;stroke-linejoin:miter;stroke:rgb(43.609023%,15.789474%,40.601504%);stroke-opacity:0.5;stroke-miterlimit:10;" d="M 0.397958 0.2 C 0.647958 0.45 0.814625 0.616666 0.102042 0.3 " transform="matrix(1320,0,0,1340,0,0)"/>
<path style="fill:none;stroke-width:0.06;stroke-linecap:butt;stroke-linejoin:miter;stroke:rgb(43.609023%,15.789474%,40.601504%);stroke-opacity:0.5;stroke-miterlimit:10;" d="M 0.387754 0.2 C 0.637754 0.45 0.804421 0.616666 0.112246 0.3 " transform="matrix(1320,0,0,1340,0,0)"/>
<path style="fill:none;stroke-width:0.06;stroke-linecap:butt;stroke-linejoin:miter;stroke:rgb(43.609023%,15.789474%,40.601504%);stroke-opacity:0.5;stroke-miterlimit:10;" d="M 0.544218 0.366666 L 0.422449 0.422449 " transform="matrix(1320,0,0,1340,0,0)"/>
<path style="fill:none;stroke-width:0.06;stroke-linecap:butt;stroke-linejoin:miter;stroke:rgb(43.609023%,15.789474%,40.601504%);stroke-opacity:0.5;stroke-miterlimit:10;" d="M 0.367347 0.2 C 0.617347 0.45 0.784014 0.616666 0.132653 0.3 " transform="matrix(1320,0,0,1340,0,0)"/>
<path style="fill:none;stroke-width:0.06;stroke-linecap:butt;stroke-linejoin:miter;stroke:rgb(43.609023%,15.789474%,40.601504%);stroke-opacity:0.5;stroke-miterlimit:10;" d="M 0.52381 0.366666 L 0.52381 0.366666 " transform="matrix(1320,0,0,1340,0,0)"/>
<path style="fill:none;stroke-width:0.06;stroke-linecap:butt;stroke-linejoin:miter;stroke:rgb(43.609023%,15.789474%,40.601504%);stroke-opacity:0.5;stroke-miterlimit:10;" d="M 0.54694 0.4 L 0.513607 0.366666 " transform="matrix(1320,0,0,1340,0,0)"/>
<path style="fill:none;stroke-width:0.05;stroke-linecap:butt;stroke-linejoin:miter;stroke:rgb(43.609023%,15.789474%,40.601504%);stroke-opacity:0.5;stroke-miterlimit:10;" d="M 0.536734 0.4 L 0.329933 0.329932 " transform="matrix(1320,0,0,1340,0,0)"/>
<path style="fill:none;stroke-width:0.05;stroke-linecap:butt;stroke-linejoin:miter;stroke:rgb(43.609023%,15.789474%,40.601504%);stroke-opacity:0.5;stroke-miterlimit:10;" d="M 0.32653 0.2 C 0.659863 0.533334 0.859863 0.733334 0.17347 0.3 " transform="matrix(1320,0,0,1340,0,0)"/>
<path style="fill:none;stroke-width:0.05;stroke-linecap:butt;stroke-linejoin:miter;stroke:rgb(43.609023%,15.789474%,40.601504%);stroke-opacity:0.5;stroke-miterlimit:10;" d="M 0.516326 0.4 L 0.433674 0.433672 " transform="matrix(1320,0,0,1340,0,0)"/>
<path style="fill:none;stroke-width:0.05;stroke-linecap:butt;stroke-linejoin:miter;stroke:rgb(43.609023%,15.789474%,40.601504%);stroke-opacity:0.5;stroke-miterlimit:10;" d="M 0.506123 0.4 L 0.506123 0.4 " transform="matrix(1320,0,0,1340,0,0)"/>
<path style="fill:none;stroke-width:0.04;stroke-linecap:butt;stroke-linejoin:miter;stroke:rgb(43.609023%,15.789474%,40.601504%);stroke-opacity:0.5;stroke-miterlimit:10;" d="M 0.545919 0.45 L 0.454081 0.454081 " transform="matrix(1320,0,0,1340,0,0)"/>
<path style="fill:none;stroke-width:0.04;stroke-linecap:butt;stroke-linejoin:miter;stroke:rgb(43.609023%,15.789474%,40.601504%);stroke-opacity:0.5;stroke-miterlimit:10;" d="M 0.535716 0.45 L 0.214284 0.214287 " transform="matrix(1320,0,0,1340,0,0)"/>
<path style="fill:none;stroke-width:0.04;stroke-linecap:butt;stroke-linejoin:miter;stroke:rgb(43.609023%,15.789474%,40.601504%);stroke-opacity:0.5;stroke-miterlimit:10;" d="M 0.525509 0.45 L 0.474491 0.47449 " transform="matrix(1320,0,0,1340,0,0)"/>
<path style="fill:none;stroke-width:0.04;stroke-linecap:butt;stroke-linejoin:miter;stroke:rgb(43.609023%,15.789474%,40.601504%);stroke-opacity:0.5;stroke-miterlimit:10;" d="M 0.515305 0.45 L 0.401361 0.401361 " transform="matrix(1320,0,0,1340,0,0)"/>
<path style="fill:none;stroke-width:0.04;stroke-linecap:butt;stroke-linejoin:miter;stroke:rgb(43.609023%,15.789474%,40.601504%);stroke-opacity:0.5;stroke-miterlimit:10;" d="M 0.255102 0.2 C 0.755102 0.7 1.005102 0.95 0.244898 0.3 " transform="matrix(1320,0,0,1340,0,0)"/>
<path style="fill:none;stroke-width:0.04;stroke-linecap:butt;stroke-linejoin:miter;stroke:rgb(43.609023%,15.789474%,40.601504%);stroke-opacity:0.5;stroke-miterlimit:10;" d="M 0.494898 0.45 L 0.494898 0.45 " transform="matrix(1320,0,0,1340,0,0)"/>
<path style="fill:none;stroke-width:0.04;stroke-linecap:butt;stroke-linejoin:miter;stroke:rgb(43.609023%,15.789474%,40.601504%);stroke-opacity:0.5;stroke-miterlimit:10;" d="M 0.234695 0.2 C 0.734695 0.7 0.984695 0.95 0.265305 0.3 " transform="matrix(1320,0,0,1340,0,0)"/>
<path style="fill:none;stroke-width:0.04;stroke-linecap:butt;stroke-linejoin:miter;stroke:rgb(43.609023%,15.789474%,40.601504%);stroke-opacity:0.5;stroke-miterlimit:10;" d="M 0.474491 0.45 L 0.525509 0.52551 " transform="matrix(1320,0,0,1340,0,0)"/>
<path style="fill:none;stroke-width:0.04;stroke-linecap:butt;stroke-linejoin:miter;stroke:rgb(43.609023%,15.789474%,40.601504%);stroke-opacity:0.5;stroke-miterlimit:10;" d="M 0.214284 0.2 C 0.714284 0.7 0.964284 0.95 0.285716 0.3 " transform="matrix(1320,0,0,1340,0,0)"/>
<path style="fill:none;stroke-width:0.04;stroke-linecap:butt;stroke-linejoin:miter;stroke:rgb(43.609023%,15.789474%,40.601504%);stroke-opacity:0.5;stroke-miterlimit:10;" d="M 0.454081 0.45 L 0.454081 0.45 " transform="matrix(1320,0,0,1340,0,0)"/>
<path style="fill:none;stroke-width:0.04;stroke-linecap:butt;stroke-linejoin:miter;stroke:rgb(43.609023%,15.789474%,40.601504%);stroke-opacity:0.5;stroke-miterlimit:10;" d="M 0.527211 0.533334 L 0.443877 0.45 " transform="matrix(1320,0,0,1340,0,0)"/>
<path style="fill:none;stroke-width:0.03;stroke-linecap:butt;stroke-linejoin:miter;stroke:rgb(43.609023%,15.789474%,40.601504%);stroke-opacity:0.5;stroke-miterlimit:10;" d="M 0.683674 0.7 L 0.517007 0.533334 " transform="matrix(1320,0,0,1340,0,0)"/>
<path style="fill:none;stroke-width:0.03;stroke-linecap:butt;stroke-linejoin:miter;stroke:rgb(43.609023%,15.789474%,40.601504%);stroke-opacity:0.5;stroke-miterlimit:10;" d="M 0.506803 0.533334 L 0.32653 0.32653 " transform="matrix(1320,0,0,1340,0,0)"/>
<path style="fill:none;stroke-width:0.03;stroke-linecap:butt;stroke-linejoin:miter;stroke:rgb(43.609023%,15.789474%,40.601504%);stroke-opacity:0.5;stroke-miterlimit:10;" d="M 0.4966 0.533334 L 0.5034 0.503402 " transform="matrix(1320,0,0,1340,0,0)"/>
<path style="fill:none;stroke-width:0.03;stroke-linecap:butt;stroke-linejoin:miter;stroke:rgb(43.609023%,15.789474%,40.601504%);stroke-opacity:0.5;stroke-miterlimit:10;" d="M 0.486393 0.533334 L 0.513607 0.513605 " transform="matrix(1320,0,0,1340,0,0)"/>
<path style="fill:none;stroke-width:0.03;stroke-linecap:butt;stroke-linejoin:miter;stroke:rgb(43.609023%,15.789474%,40.601504%);stroke-opacity:0.5;stroke-miterlimit:10;" d="M 0.47619 0.533334 L 0.357144 0.357142 " transform="matrix(1320,0,0,1340,0,0)"/>
<path style="fill:none;stroke-width:0.03;stroke-linecap:butt;stroke-linejoin:miter;stroke:rgb(43.609023%,15.789474%,40.601504%);stroke-opacity:0.5;stroke-miterlimit:10;" d="M 0.465986 0.533334 L 0.367347 0.367348 " transform="matrix(1320,0,0,1340,0,0)"/>
<path style="fill:none;stroke-width:0.03;stroke-linecap:butt;stroke-linejoin:miter;stroke:rgb(43.609023%,15.789474%,40.601504%);stroke-opacity:0.5;stroke-miterlimit:10;" d="M 0.455782 0.533334 L 0.544218 0.544216 " transform="matrix(1320,0,0,1340,0,0)"/>
<path style="fill:none;stroke-width:0.03;stroke-linecap:butt;stroke-linejoin:miter;stroke:rgb(43.609023%,15.789474%,40.601504%);stroke-opacity:0.5;stroke-miterlimit:10;" d="M 0.612246 0.7 L 0.445579 0.533334 " transform="matrix(1320,0,0,1340,0,0)"/>
<path style="fill:none;stroke-width:0.03;stroke-linecap:butt;stroke-linejoin:miter;stroke:rgb(43.609023%,15.789474%,40.601504%);stroke-opacity:0.5;stroke-miterlimit:10;" d="M 0.602042 0.7 L 0.435375 0.533334 " transform="matrix(1320,0,0,1340,0,0)"/>
<path style="fill:none;stroke-width:0.03;stroke-linecap:butt;stroke-linejoin:miter;stroke:rgb(43.609023%,15.789474%,40.601504%);stroke-opacity:0.5;stroke-miterlimit:10;" d="M 0.425169 0.533334 L 0.408165 0.408162 " transform="matrix(1320,0,0,1340,0,0)"/>
<path style="fill:none;stroke-width:0.03;stroke-linecap:butt;stroke-linejoin:miter;stroke:rgb(43.609023%,15.789474%,40.601504%);stroke-opacity:0.5;stroke-miterlimit:10;" d="M 0.414965 0.533334 L 0.418368 0.418368 " transform="matrix(1320,0,0,1340,0,0)"/>
<path style="fill:none;stroke-width:0.03;stroke-linecap:butt;stroke-linejoin:miter;stroke:rgb(43.609023%,15.789474%,40.601504%);stroke-opacity:0.5;stroke-miterlimit:10;" d="M 0.394558 0.533334 L 0.394558 0.533334 " transform="matrix(1320,0,0,1340,0,0)"/>
<path style="fill:none;stroke-width:0.03;stroke-linecap:butt;stroke-linejoin:miter;stroke:rgb(43.609023%,15.789474%,40.601504%);stroke-opacity:0.5;stroke-miterlimit:10;" d="M 0.384354 0.533334 L 0.615646 0.615645 " transform="matrix(1320,0,0,1340,0,0)"/>
<path style="fill:none;stroke-width:0.03;stroke-linecap:butt;stroke-linejoin:miter;stroke:rgb(43.609023%,15.789474%,40.601504%);stroke-opacity:0.5;stroke-miterlimit:10;" d="M 0.374151 0.533334 L 0.374151 0.533334 " transform="matrix(1320,0,0,1340,0,0)"/>
<path style="fill:none;stroke-width:0.03;stroke-linecap:butt;stroke-linejoin:miter;stroke:rgb(43.609023%,15.789474%,40.601504%);stroke-opacity:0.5;stroke-miterlimit:10;" d="M 0.363944 0.533334 L 0.363944 0.533334 " transform="matrix(1320,0,0,1340,0,0)"/>
<path style="fill:none;stroke-width:0.03;stroke-linecap:butt;stroke-linejoin:miter;stroke:rgb(43.609023%,15.789474%,40.601504%);stroke-opacity:0.5;stroke-miterlimit:10;" d="M 0.353741 0.533334 L 0.479593 0.479591 " transform="matrix(1320,0,0,1340,0,0)"/>
<path style="fill:none;stroke-width:0.03;stroke-linecap:butt;stroke-linejoin:miter;stroke:rgb(43.609023%,15.789474%,40.601504%);stroke-opacity:0.5;stroke-miterlimit:10;" d="M 0.343537 0.533334 L 0.489796 0.489797 " transform="matrix(1320,0,0,1340,0,0)"/>
</g>
</svg>
